<svg width="96" height="96" viewBox="0 0 96 96" fill="none" xmlns="http://www.w3.org/2000/svg">
<path d="M94.5 57.7832H87.9C87.072 57.7832 86.4 58.4552 86.4 59.2832V62.3332H81.842V59.5002C81.842 58.5642 81.084 57.8062 80.148 57.8062C76.537 57.8062 73.61 54.8792 73.61 51.2682V47.6152C73.61 47.0932 73.369 46.6002 72.957 46.2792L63.463 38.8812C63.294 38.7502 63.101 38.6632 62.899 38.6032V35.3752C62.899 33.0182 60.989 31.1082 58.632 31.1082H37.81C35.453 31.1082 33.543 33.0182 33.543 35.3752V38.6172C33.3 38.6982 33.074 38.8272 32.888 39.0102L25.475 46.3012C25.158 46.6132 24.732 46.7872 24.287 46.7872H16.07C15.134 46.7872 14.376 47.5452 14.376 48.4812V53.3562H9.6V48.2882C9.6 47.4602 8.928 46.7882 8.1 46.7882H1.5C0.672 46.7882 0 47.4602 0 48.2882V87.4232C0 88.2512 0.672 88.9232 1.5 88.9232H8.1C8.928 88.9232 9.6 88.2512 9.6 87.4232V82.3562H14.376V87.2402C14.376 88.1762 15.134 88.9342 16.07 88.9342H24.142C24.591 88.9342 25.022 89.1122 25.34 89.4302L31.097 95.1872C31.415 95.5052 31.846 95.6832 32.295 95.6832H75.328C76.264 95.6832 77.022 94.9252 77.022 93.9892V92.5282C77.022 92.0792 77.2 91.6482 77.518 91.3302L81.346 87.5022C81.664 87.1842 81.842 86.7532 81.842 86.3042V82.3332H86.4V85.3832C86.4 86.2112 87.072 86.8832 87.9 86.8832H94.5C95.328 86.8832 96 86.2112 96 85.3832V59.2832C96 58.4552 95.328 57.7832 94.5 57.7832ZM7.6 86.9242H2V48.7892H7.6V86.9242ZM14.376 55.3572V62.3572H9.6V55.3572H14.376ZM14.376 64.3572V71.3572H9.6V64.3572H14.376ZM9.6 80.3572V73.3572H14.376V80.3572H9.6ZM35.543 35.3752C35.543 34.1252 36.56 33.1082 37.81 33.1082H58.632C59.882 33.1082 60.899 34.1252 60.899 35.3752V38.5192H35.543V35.3752ZM79.842 86.1782L76.103 89.9172C75.405 90.6152 75.021 91.5422 75.021 92.5292V93.6842H32.421L26.754 88.0172C26.056 87.3192 25.129 86.9352 24.142 86.9352H16.376V48.7882H24.288C25.263 48.7882 26.183 48.4112 26.878 47.7282L34.202 40.5242H62.317L71.61 47.7652V51.2692C71.61 55.8742 75.275 59.6402 79.842 59.8012V86.1782ZM86.4 64.3332V71.3332H81.842V64.3332H86.4ZM81.842 80.3332V73.3332H86.4V80.3332H81.842ZM94 84.8832H88.4V59.7832H94V84.8832ZM64.038 52.9172C66.036 52.9172 67.656 51.2972 67.656 49.2992C67.656 47.3012 66.036 45.6812 64.038 45.6812C62.04 45.6812 60.42 47.3012 60.42 49.2992C60.42 51.2972 62.04 52.9172 64.038 52.9172ZM64.038 47.6822C64.93 47.6822 65.656 48.4082 65.656 49.3002C65.656 50.1922 64.93 50.9182 64.038 50.9182C63.146 50.9182 62.42 50.1922 62.42 49.3002C62.42 48.4072 63.146 47.6822 64.038 47.6822ZM63.866 18.8882C66.51 18.8882 68.653 16.7452 68.653 14.1012C68.653 11.4572 66.51 9.31423 63.866 9.31423C61.222 9.31423 59.079 11.4572 59.079 14.1012C59.079 16.7452 61.222 18.8882 63.866 18.8882ZM63.866 11.3142C65.403 11.3142 66.653 12.5642 66.653 14.1012C66.653 15.6382 65.403 16.8882 63.866 16.8882C62.329 16.8882 61.079 15.6382 61.079 14.1012C61.079 12.5642 62.329 11.3142 63.866 11.3142ZM84.234 38.6512C86.524 38.6512 88.381 36.7942 88.381 34.5042C88.381 32.2142 86.524 30.3572 84.234 30.3572C81.944 30.3572 80.087 32.2142 80.087 34.5042C80.088 36.7942 81.944 38.6512 84.234 38.6512ZM84.234 32.3572C85.418 32.3572 86.381 33.3202 86.381 34.5042C86.381 35.6882 85.418 36.6512 84.234 36.6512C83.05 36.6512 82.087 35.6882 82.087 34.5042C82.088 33.3202 83.051 32.3572 84.234 32.3572ZM36.114 58.1192C36.114 57.5672 35.666 57.1192 35.114 57.1192H30.469C30.017 55.2492 28.344 53.8552 26.335 53.8552C23.98 53.8552 22.071 55.7642 22.071 58.1192C22.071 60.4742 23.98 62.3832 26.335 62.3832C28.344 62.3832 30.017 60.9892 30.469 59.1192H35.114C35.667 59.1192 36.114 58.6712 36.114 58.1192ZM26.336 60.3832C25.088 60.3832 24.072 59.3672 24.072 58.1192C24.072 56.8712 25.088 55.8552 26.336 55.8552C27.584 55.8552 28.6 56.8702 28.6 58.1192C28.6 59.3682 27.584 60.3832 26.336 60.3832ZM43.489 35.8142C43.489 36.3662 43.041 36.8142 42.489 36.8142H38.91C38.358 36.8142 37.91 36.3662 37.91 35.8142C37.91 35.2622 38.358 34.8142 38.91 34.8142H42.489C43.041 34.8142 43.489 35.2622 43.489 35.8142ZM64.943 75.5992C65.005 75.5772 65.05 75.5342 65.104 75.5012C67.139 74.7272 68.592 72.7732 68.592 70.4662C68.592 68.8742 67.891 67.4582 66.795 66.4702C66.748 66.3692 66.692 66.2712 66.609 66.1882L52.057 51.5552C52.053 51.5512 52.048 51.5502 52.045 51.5472C51.224 50.7242 50.09 50.2152 48.836 50.2152C46.977 50.2152 45.383 51.3372 44.683 52.9392C44.68 52.9432 44.676 52.9452 44.674 52.9502L33.718 71.9242C33.698 71.9592 33.697 71.9972 33.681 72.0332C32.972 73.2152 32.556 74.5932 32.556 76.0712C32.556 80.4162 36.078 83.9382 40.423 83.9382C41.282 83.9382 42.107 83.7952 42.881 83.5412C42.915 83.5332 42.949 83.5382 42.983 83.5262L64.943 75.5992ZM48.835 59.2822C51.039 59.2822 52.872 57.7082 53.28 55.6232L62.719 65.1152C59.961 65.3582 57.791 67.6472 57.791 70.4672C57.791 72.4442 58.864 74.1542 60.449 75.0952L47.336 79.8292C47.944 78.7132 48.29 77.4332 48.29 76.0722C48.29 71.7272 44.768 68.2052 40.423 68.2052C39.554 68.2052 38.721 68.3512 37.94 68.6112L44.788 56.7512C45.529 58.2452 47.055 59.2822 48.835 59.2822ZM63.192 73.8672C61.317 73.8672 59.792 72.3422 59.792 70.4672C59.792 68.5922 61.317 67.0672 63.192 67.0672C65.067 67.0672 66.592 68.5922 66.592 70.4672C66.592 72.3412 65.067 73.8672 63.192 73.8672ZM48.835 52.2152C50.232 52.2152 51.368 53.3512 51.368 54.7482C51.368 56.1452 50.232 57.2812 48.835 57.2812C47.438 57.2812 46.302 56.1452 46.302 54.7482C46.302 53.3522 47.439 52.2152 48.835 52.2152ZM34.557 76.0722C34.557 72.8372 37.189 70.2052 40.424 70.2052C43.659 70.2052 46.291 72.8372 46.291 76.0722C46.291 79.3072 43.659 81.9392 40.424 81.9392C37.188 81.9392 34.557 79.3072 34.557 76.0722ZM71.804 82.6842C71.804 83.2362 71.356 83.6842 70.804 83.6842H63.434C62.882 83.6842 62.434 83.2362 62.434 82.6842C62.434 82.1322 62.882 81.6842 63.434 81.6842H70.804C71.357 81.6842 71.804 82.1322 71.804 82.6842ZM71.804 87.6842C71.804 88.2362 71.356 88.6842 70.804 88.6842H63.434C62.882 88.6842 62.434 88.2362 62.434 87.6842C62.434 87.1322 62.882 86.6842 63.434 86.6842H70.804C71.357 86.6842 71.804 87.1322 71.804 87.6842ZM52.597 17.9022H53.624C53.865 17.9022 54.062 18.1102 54.062 18.3662C54.062 18.5072 53.974 18.6162 53.871 18.7102L53.225 19.3422C52.703 19.8642 52.414 20.5602 52.414 21.3002C52.413 22.0402 52.701 22.7352 53.226 23.2592L54.724 24.7492C55.705 25.7562 57.602 25.7882 58.654 24.7622L59.352 24.0682C59.609 23.7832 60.126 24.0362 60.127 24.3622V25.3892C60.127 26.9072 61.398 28.1902 62.9 28.1902H64.955C66.466 28.1902 67.742 26.9072 67.742 25.3892V24.3622C67.742 24.1412 67.971 23.9312 68.214 23.9312C68.258 23.9312 68.39 23.9312 68.573 24.1262L69.219 24.7722C70.244 25.7732 72.097 25.7802 73.136 24.7662L74.645 23.2642C75.168 22.7412 75.457 22.0442 75.457 21.3032C75.457 20.5622 75.169 19.8652 74.639 19.3362L73.944 18.6562C73.853 18.5742 73.8 18.4612 73.8 18.3452C73.8 18.0922 74.013 17.8532 74.238 17.8532H75.265C76.792 17.8532 77.944 16.6842 77.944 15.1332V13.0652C77.944 12.3372 77.684 11.6522 77.212 11.1372C76.708 10.5882 76.018 10.2852 75.266 10.2852H74.239C73.998 10.2852 73.801 10.0772 73.801 9.82123C73.801 9.74123 73.818 9.64523 73.974 9.50423L74.641 8.85023C75.169 8.32923 75.46 7.63423 75.462 6.89323C75.464 6.15123 75.174 5.45223 74.644 4.92023L73.14 3.43023C72.137 2.42623 70.262 2.40323 69.213 3.42923L68.541 4.10323C68.268 4.40923 67.697 4.16923 67.696 3.83223V2.81223C67.696 1.26823 66.473 0.0112305 64.969 0.0112305H62.914C61.381 0.0112305 60.134 1.26723 60.134 2.81223V3.83923C60.134 4.06023 59.902 4.27023 59.655 4.27023C59.51 4.27023 59.403 4.18823 59.312 4.09223L58.666 3.45323C57.686 2.44723 55.787 2.41523 54.736 3.43923L53.222 4.93223C52.699 5.45623 52.41 6.15523 52.412 6.90023C52.415 7.64023 52.704 8.33323 53.223 8.84623L53.897 9.51723C54.043 9.64923 54.062 9.75323 54.062 9.82923C54.062 10.0852 53.866 10.2932 53.624 10.2932H52.597C51.852 10.2932 51.149 10.5802 50.618 11.1032C50.083 11.6302 49.789 12.3282 49.789 13.0662V15.1212C49.789 16.6282 51.075 17.9022 52.597 17.9022ZM51.789 13.0662C51.789 12.8632 51.87 12.6772 52.021 12.5272C52.177 12.3742 52.375 12.2932 52.596 12.2932H53.623C54.967 12.2932 56.061 11.1882 56.061 9.82923C56.061 9.14923 55.767 8.51023 55.271 8.06623L54.633 7.42823C54.488 7.28523 54.412 7.10023 54.411 6.89323C54.411 6.68223 54.488 6.49223 54.631 6.35023L56.135 4.86723C56.421 4.59023 56.978 4.58823 57.245 4.86323L57.878 5.48823C58.351 5.99323 58.982 6.27223 59.653 6.27223C60.997 6.27223 62.132 5.15923 62.132 3.84123V2.81223C62.132 2.37123 62.482 2.01123 62.912 2.01123H64.967C65.367 2.01123 65.694 2.37023 65.694 2.81223V3.83323C65.694 5.15023 66.838 6.26423 68.192 6.26423C68.897 6.26423 69.548 5.97223 69.989 5.48123L70.616 4.85423C70.894 4.58323 71.462 4.58423 71.725 4.84923L73.229 6.33923C73.38 6.49023 73.459 6.68123 73.459 6.89123C73.459 7.09723 73.381 7.28323 73.235 7.42623L72.603 8.04723C72.083 8.51223 71.797 9.14323 71.797 9.82423C71.797 11.1832 72.891 12.2882 74.235 12.2882H75.262C75.449 12.2882 75.612 12.3582 75.734 12.4912C75.868 12.6372 75.941 12.8422 75.941 13.0682V15.1362C75.941 15.5802 75.681 15.8562 75.262 15.8562H74.235C72.914 15.8562 71.797 16.9972 71.797 18.3482C71.797 19.0312 72.092 19.6862 72.572 20.1172L73.228 20.7602C73.374 20.9052 73.454 21.0982 73.454 21.3052C73.454 21.5122 73.374 21.7062 73.229 21.8502L71.729 23.3442C71.448 23.6172 70.885 23.6092 70.622 23.3522L70.008 22.7382C69.523 22.2192 68.884 21.9332 68.211 21.9332C66.871 21.9332 65.739 23.0462 65.739 24.3642V25.3912C65.739 25.8182 65.371 26.1922 64.952 26.1922H62.897C62.485 26.1922 62.124 25.8182 62.124 25.3912V24.3642C62.124 23.0472 60.989 21.9332 59.645 21.9332C58.956 21.9332 58.321 22.2192 57.9 22.6922L57.249 23.3372C56.964 23.6162 56.404 23.6142 56.141 23.3432L54.635 21.8442C54.49 21.7002 54.411 21.5082 54.411 21.3022C54.411 21.0962 54.49 20.9042 54.628 20.7662L55.237 20.1692C55.767 19.6912 56.059 19.0512 56.059 18.3682C56.059 17.0092 54.965 15.9042 53.621 15.9042H52.594C52.163 15.9042 51.786 15.5392 51.786 15.1242V13.0662H51.789ZM75.355 26.8352C74.887 27.3012 74.632 27.9212 74.635 28.5802C74.637 29.2372 74.893 29.8522 75.353 30.3072L75.914 30.8662C75.992 30.9362 75.992 30.9752 75.992 30.9912C75.992 31.1022 75.908 31.1962 75.809 31.1962H74.964C74.303 31.1962 73.68 31.4512 73.213 31.9122C72.738 32.3792 72.477 32.9982 72.477 33.6552V35.3452C72.477 36.6812 73.616 37.8102 74.964 37.8102H75.809C75.908 37.8102 75.992 37.9042 75.992 38.0152C75.992 38.0652 75.952 38.1122 75.888 38.1712L75.355 38.6932C74.398 39.6502 74.397 41.2072 75.355 42.1652L76.586 43.3912C77.461 44.2862 79.141 44.3122 80.07 43.4032L80.654 42.8232C80.767 42.6952 80.98 42.8382 80.98 42.9482V43.7932C80.98 45.1382 82.106 46.2742 83.439 46.2742H85.129C86.468 46.2742 87.599 45.1382 87.599 43.7932V42.9482C87.599 42.8702 87.699 42.7712 87.81 42.7712C87.829 42.7712 87.877 42.7712 87.98 42.8782L88.512 43.4112C89.42 44.3002 91.065 44.3052 91.983 43.4062L93.226 42.1692C94.184 41.2112 94.184 39.6512 93.219 38.6862L92.64 38.1212C92.603 38.0882 92.581 38.0432 92.581 37.9982C92.581 37.8692 92.691 37.7712 92.764 37.7712H93.61C94.967 37.7712 95.991 36.7332 95.991 35.3562V33.6542C95.991 33.0112 95.761 32.4052 95.342 31.9482C94.894 31.4592 94.28 31.1902 93.611 31.1902H92.765C92.666 31.1902 92.582 31.0962 92.582 30.9852C92.582 30.9612 92.582 30.9312 92.67 30.8512L93.223 30.3102C93.69 29.8472 93.948 29.2312 93.95 28.5772C93.952 27.9182 93.695 27.2972 93.224 26.8272L91.986 25.6002C91.093 24.7092 89.435 24.6912 88.507 25.6002L87.948 26.1612C87.889 26.2252 87.836 26.2342 87.795 26.2342C87.666 26.2342 87.562 26.1272 87.562 26.0572V25.2172C87.562 23.8492 86.476 22.7362 85.142 22.7362H83.452C82.094 22.7362 80.988 23.8492 80.988 25.2172V26.0622C80.988 26.1402 80.886 26.2392 80.772 26.2392C80.727 26.2392 80.683 26.2162 80.614 26.1432L80.084 25.6192C79.21 24.7252 77.529 24.6982 76.602 25.6062L75.355 26.8352ZM76.764 28.2542L78.002 27.0332C78.185 26.8552 78.545 26.9092 78.664 27.0302L79.18 27.5392C79.604 27.9912 80.168 28.2402 80.771 28.2402C81.972 28.2402 82.987 27.2432 82.987 26.0632V25.2182C82.987 24.9532 83.195 24.7372 83.451 24.7372H85.141C85.369 24.7372 85.561 24.9572 85.561 25.2182V26.0582C85.561 27.2582 86.563 28.2352 87.794 28.2352C88.424 28.2352 89.005 27.9752 89.397 27.5392L89.914 27.0232C90.085 26.8552 90.46 26.9022 90.576 27.0202L91.814 28.2462C91.903 28.3352 91.95 28.4482 91.95 28.5732C91.95 28.6942 91.903 28.8032 91.82 28.8862L91.303 29.3932C90.838 29.8102 90.582 30.3762 90.582 30.9862C90.582 32.2022 91.561 33.1912 92.765 33.1912H93.611C93.715 33.1912 93.801 33.2282 93.868 33.3002C93.948 33.3872 93.992 33.5142 93.992 33.6552V35.3572C93.992 35.5122 93.942 35.7722 93.611 35.7722H92.765C91.582 35.7722 90.582 36.7922 90.582 37.9992C90.582 38.6122 90.847 39.2002 91.273 39.5812L91.812 40.1082C91.928 40.2242 91.946 40.3602 91.946 40.4322C91.946 40.5042 91.928 40.6402 91.814 40.7542L90.578 41.9832C90.416 42.1452 90.069 42.1342 89.919 41.9902L89.417 41.4872C88.983 41.0252 88.412 40.7712 87.811 40.7712C86.592 40.7712 85.6 41.7482 85.6 42.9482V43.7932C85.6 44.0452 85.376 44.2742 85.13 44.2742H83.44C83.2 44.2742 82.981 44.0452 82.981 43.7932V42.9482C82.981 41.7482 81.987 40.7712 80.765 40.7712C80.145 40.7712 79.576 41.0272 79.204 41.4472L78.668 41.9772C78.487 42.1552 78.122 42.1002 78.007 41.9832L76.768 40.7502C76.591 40.5732 76.592 40.2852 76.761 40.1162L77.256 39.6312C77.731 39.2042 77.992 38.6312 77.992 38.0172C77.992 36.8012 77.013 35.8122 75.809 35.8122H74.964C74.709 35.8122 74.477 35.5902 74.477 35.3472V33.6572C74.477 33.5392 74.525 33.4292 74.618 33.3392C74.712 33.2462 74.829 33.1982 74.965 33.1982H75.81C77.013 33.1982 77.993 32.2092 77.993 30.9932C77.993 30.3842 77.73 29.8112 77.291 29.4182L76.765 28.8922C76.682 28.8092 76.637 28.7012 76.637 28.5762C76.635 28.4492 76.681 28.3372 76.764 28.2542Z" fill="#668EB1"/>
</svg>
