<svg width="96" height="96" viewBox="0 0 96 96" fill="none" xmlns="http://www.w3.org/2000/svg">
<path d="M57.05 28.445C57.031 28.445 57.012 28.445 56.993 28.447C56.442 28.478 56.019 28.95 56.05 29.501C56.059 29.653 56.063 29.806 56.063 29.96C56.063 34.317 52.655 37.856 48.305 38.018C47.753 38.038 47.322 38.502 47.343 39.054C47.363 39.593 47.807 40.017 48.342 40.017C48.354 40.017 48.365 40.017 48.377 40.016C51.856 39.888 54.884 37.994 56.591 35.204C56.594 35.2 56.596 35.195 56.599 35.191C56.6 35.189 56.602 35.187 56.603 35.185C56.604 35.183 56.605 35.181 56.607 35.179C56.61 35.175 56.612 35.171 56.615 35.166C56.616 35.164 56.618 35.162 56.619 35.16C56.62 35.158 56.622 35.156 56.623 35.154C56.667 35.08 56.711 35.006 56.754 34.931C56.755 34.929 56.756 34.927 56.758 34.924C56.759 34.922 56.76 34.92 56.762 34.918C56.763 34.916 56.764 34.914 56.766 34.912C56.767 34.91 56.768 34.908 56.77 34.906C56.771 34.904 56.772 34.902 56.774 34.9C56.775 34.898 56.776 34.896 56.778 34.894C56.779 34.892 56.78 34.89 56.782 34.888C56.783 34.886 56.784 34.884 56.786 34.882C56.787 34.88 56.788 34.878 56.79 34.876C56.791 34.874 56.792 34.872 56.794 34.87C56.795 34.868 56.796 34.866 56.798 34.864C56.799 34.862 56.8 34.86 56.802 34.857C56.805 34.853 56.807 34.848 56.809 34.844C56.843 34.782 56.877 34.72 56.91 34.657C56.911 34.655 56.912 34.653 56.913 34.651C56.914 34.649 56.915 34.647 56.916 34.645C56.917 34.643 56.918 34.641 56.919 34.639C56.92 34.637 56.921 34.635 56.922 34.633C56.922 34.633 56.922 34.633 56.922 34.632C56.923 34.63 56.924 34.628 56.925 34.626C56.926 34.624 56.927 34.622 56.928 34.62C56.929 34.618 56.93 34.616 56.931 34.614C56.932 34.612 56.933 34.61 56.934 34.608C56.934 34.608 56.934 34.608 56.934 34.607C56.935 34.605 56.936 34.603 56.937 34.601C56.937 34.601 56.937 34.601 56.937 34.6C56.938 34.598 56.939 34.596 56.94 34.594C56.94 34.594 56.94 34.594 56.94 34.593C56.941 34.591 56.942 34.589 56.943 34.587C56.944 34.585 56.945 34.583 56.946 34.581V34.58C56.947 34.578 56.948 34.576 56.949 34.574C56.95 34.572 56.951 34.57 56.952 34.567C56.953 34.565 56.954 34.563 56.955 34.56C56.956 34.558 56.957 34.556 56.958 34.554C56.958 34.554 56.958 34.554 56.958 34.553C56.959 34.551 56.96 34.549 56.961 34.546C56.985 34.499 57.009 34.451 57.033 34.403C57.034 34.401 57.035 34.399 57.036 34.396C57.037 34.394 57.038 34.392 57.039 34.39V34.389C57.04 34.387 57.041 34.385 57.042 34.383C57.043 34.381 57.044 34.379 57.045 34.377V34.376C57.046 34.374 57.047 34.372 57.048 34.37C57.048 34.37 57.048 34.37 57.048 34.369C57.049 34.367 57.05 34.365 57.051 34.363V34.362C57.052 34.36 57.053 34.358 57.054 34.356C57.054 34.356 57.054 34.356 57.054 34.355C57.055 34.353 57.056 34.351 57.057 34.349C57.057 34.349 57.057 34.349 57.057 34.348C57.058 34.346 57.059 34.344 57.06 34.342V34.341C57.061 34.339 57.062 34.337 57.063 34.336C57.063 34.335 57.063 34.335 57.064 34.335C57.065 34.333 57.066 34.331 57.067 34.33C57.067 34.329 57.067 34.329 57.068 34.329C57.069 34.327 57.07 34.325 57.071 34.323C57.071 34.323 57.071 34.322 57.072 34.322C57.073 34.32 57.074 34.318 57.075 34.316V34.315C57.076 34.313 57.077 34.311 57.078 34.309V34.308C57.079 34.306 57.08 34.304 57.081 34.302C57.081 34.302 57.081 34.302 57.081 34.301C57.082 34.299 57.083 34.297 57.084 34.295V34.294C57.085 34.292 57.086 34.29 57.087 34.288V34.287C57.088 34.285 57.089 34.283 57.09 34.281C57.09 34.281 57.09 34.281 57.09 34.28C57.091 34.278 57.092 34.276 57.093 34.274C57.094 34.272 57.095 34.27 57.096 34.267C57.118 34.221 57.139 34.175 57.16 34.128C57.161 34.126 57.162 34.124 57.163 34.121V34.12C57.164 34.118 57.165 34.116 57.166 34.114C57.166 34.114 57.166 34.113 57.167 34.113C57.168 34.111 57.169 34.109 57.17 34.107V34.106C57.171 34.104 57.172 34.102 57.173 34.1V34.099C57.174 34.097 57.175 34.095 57.176 34.093V34.092C57.177 34.09 57.178 34.088 57.179 34.086C57.179 34.085 57.179 34.085 57.18 34.085C57.181 34.083 57.182 34.081 57.183 34.079C57.183 34.078 57.183 34.079 57.183 34.078C57.184 34.076 57.185 34.074 57.186 34.072C57.186 34.071 57.186 34.071 57.187 34.071C57.188 34.069 57.189 34.067 57.19 34.065C57.19 34.065 57.19 34.064 57.191 34.064C57.192 34.062 57.193 34.06 57.193 34.059C57.193 34.059 57.193 34.058 57.194 34.058C57.195 34.056 57.196 34.054 57.197 34.052V34.051C57.198 34.049 57.199 34.047 57.2 34.045C57.2 34.044 57.2 34.044 57.201 34.044C57.202 34.042 57.203 34.04 57.203 34.038C57.203 34.038 57.203 34.037 57.204 34.037C57.205 34.035 57.206 34.033 57.207 34.031V34.03C57.208 34.028 57.209 34.026 57.21 34.024V34.023C57.211 34.021 57.212 34.019 57.213 34.017V34.016C57.214 34.014 57.215 34.012 57.216 34.01V34.009C57.217 34.007 57.218 34.005 57.218 34.003C57.218 34.003 57.218 34.002 57.219 34.002C57.22 34 57.221 33.998 57.221 33.996C57.221 33.996 57.221 33.995 57.222 33.995C57.223 33.993 57.224 33.991 57.224 33.989C57.224 33.988 57.224 33.988 57.224 33.988C57.225 33.986 57.226 33.984 57.227 33.982V33.981C57.228 33.979 57.229 33.977 57.23 33.975V33.974C57.231 33.972 57.232 33.97 57.233 33.968C57.233 33.968 57.233 33.968 57.233 33.967C57.234 33.965 57.235 33.963 57.236 33.961C57.236 33.961 57.236 33.961 57.236 33.96C57.237 33.958 57.238 33.956 57.239 33.954V33.953C57.24 33.951 57.241 33.949 57.242 33.947C57.242 33.947 57.242 33.947 57.242 33.946C57.243 33.944 57.244 33.942 57.245 33.94C57.246 33.938 57.247 33.935 57.248 33.933C57.262 33.9 57.276 33.867 57.29 33.834C57.291 33.832 57.292 33.829 57.293 33.827C57.294 33.825 57.295 33.822 57.296 33.82C57.297 33.818 57.298 33.816 57.299 33.813C57.3 33.811 57.301 33.809 57.302 33.806C57.302 33.806 57.302 33.806 57.302 33.805C57.303 33.803 57.304 33.801 57.305 33.799C57.305 33.799 57.305 33.799 57.305 33.798C57.306 33.796 57.307 33.794 57.308 33.792C57.308 33.791 57.308 33.791 57.308 33.791C57.309 33.789 57.31 33.787 57.31 33.785C57.31 33.784 57.31 33.784 57.31 33.784C57.311 33.782 57.312 33.78 57.312 33.778C57.312 33.777 57.312 33.777 57.313 33.777C57.314 33.775 57.315 33.773 57.315 33.771V33.77C57.316 33.768 57.317 33.766 57.317 33.764C57.317 33.764 57.317 33.763 57.318 33.763C57.319 33.761 57.32 33.759 57.32 33.757V33.756C57.321 33.754 57.322 33.752 57.322 33.75C57.322 33.749 57.322 33.749 57.322 33.749C57.323 33.747 57.324 33.745 57.324 33.743C57.324 33.742 57.324 33.742 57.324 33.742C57.325 33.74 57.326 33.738 57.326 33.736C57.326 33.736 57.326 33.735 57.327 33.735C57.328 33.733 57.329 33.731 57.329 33.729C57.329 33.728 57.329 33.728 57.329 33.728C57.33 33.726 57.331 33.724 57.331 33.723C57.331 33.722 57.331 33.722 57.332 33.721C57.333 33.719 57.334 33.717 57.334 33.715C57.334 33.715 57.334 33.714 57.335 33.714C57.336 33.712 57.337 33.71 57.337 33.708V33.707C57.338 33.705 57.339 33.703 57.339 33.701C57.339 33.701 57.339 33.701 57.339 33.7C57.34 33.698 57.34 33.696 57.341 33.694C57.341 33.693 57.341 33.693 57.341 33.693C57.342 33.691 57.343 33.689 57.343 33.687C57.343 33.686 57.343 33.686 57.343 33.686C57.344 33.684 57.345 33.682 57.345 33.68C57.345 33.68 57.345 33.679 57.346 33.679C57.347 33.677 57.347 33.675 57.348 33.673C57.348 33.673 57.348 33.672 57.349 33.672C57.35 33.67 57.35 33.668 57.351 33.666C57.351 33.666 57.351 33.665 57.352 33.664C57.353 33.662 57.353 33.66 57.354 33.659C57.354 33.658 57.354 33.658 57.355 33.658C57.356 33.656 57.356 33.654 57.357 33.652C57.357 33.651 57.357 33.651 57.357 33.651C57.358 33.649 57.359 33.647 57.36 33.645C57.361 33.643 57.362 33.641 57.363 33.639C57.363 33.639 57.363 33.639 57.363 33.638C57.374 33.609 57.385 33.581 57.396 33.552C57.396 33.552 57.396 33.552 57.396 33.551C57.397 33.549 57.398 33.546 57.398 33.544C57.399 33.542 57.4 33.54 57.4 33.537C57.4 33.537 57.4 33.537 57.4 33.536C57.401 33.534 57.402 33.532 57.402 33.53C57.402 33.53 57.402 33.53 57.402 33.529C57.403 33.527 57.404 33.525 57.404 33.523C57.404 33.522 57.404 33.522 57.404 33.522C57.405 33.52 57.405 33.518 57.406 33.516V33.515C57.407 33.513 57.407 33.511 57.408 33.509V33.508C57.409 33.506 57.409 33.504 57.41 33.502C57.41 33.502 57.41 33.501 57.411 33.501C57.412 33.499 57.412 33.497 57.413 33.495C57.413 33.494 57.413 33.494 57.414 33.493C57.415 33.491 57.415 33.49 57.416 33.488C57.416 33.487 57.416 33.487 57.417 33.486C57.418 33.484 57.418 33.482 57.419 33.481C57.419 33.48 57.419 33.48 57.42 33.479C57.421 33.477 57.421 33.475 57.422 33.474C57.422 33.473 57.422 33.473 57.423 33.472C57.424 33.47 57.424 33.468 57.425 33.467C57.425 33.466 57.425 33.466 57.426 33.465C57.427 33.463 57.427 33.462 57.428 33.46C57.428 33.459 57.428 33.459 57.429 33.458C57.43 33.456 57.43 33.454 57.431 33.453C57.431 33.452 57.431 33.452 57.432 33.451C57.433 33.449 57.433 33.448 57.434 33.446C57.434 33.445 57.434 33.445 57.435 33.444C57.436 33.442 57.436 33.441 57.437 33.439C57.437 33.438 57.438 33.437 57.438 33.437C57.439 33.435 57.439 33.434 57.44 33.432C57.44 33.431 57.441 33.43 57.441 33.43C57.442 33.428 57.442 33.427 57.443 33.425C57.443 33.424 57.444 33.424 57.444 33.423C57.445 33.421 57.445 33.42 57.446 33.418C57.446 33.417 57.446 33.417 57.447 33.416C57.448 33.414 57.448 33.413 57.449 33.411C57.449 33.41 57.449 33.41 57.45 33.409C57.451 33.407 57.451 33.406 57.452 33.404C57.452 33.403 57.452 33.403 57.453 33.402C57.454 33.4 57.454 33.399 57.455 33.397C57.455 33.396 57.455 33.396 57.456 33.395C57.457 33.393 57.457 33.391 57.458 33.39C57.458 33.389 57.458 33.389 57.459 33.388C57.46 33.386 57.46 33.384 57.461 33.383C57.461 33.382 57.461 33.382 57.462 33.381C57.463 33.379 57.463 33.377 57.464 33.375V33.374C57.465 33.372 57.465 33.37 57.466 33.368V33.367C57.467 33.365 57.467 33.363 57.468 33.361V33.36C57.469 33.358 57.469 33.356 57.47 33.354C57.47 33.353 57.47 33.353 57.47 33.353C57.471 33.351 57.471 33.349 57.472 33.347C57.472 33.346 57.472 33.347 57.472 33.346C57.473 33.344 57.474 33.342 57.474 33.34C57.474 33.34 57.474 33.34 57.474 33.339C57.475 33.337 57.476 33.334 57.476 33.332C57.476 33.332 57.476 33.332 57.476 33.331C57.477 33.329 57.477 33.327 57.478 33.325C57.478 33.325 57.478 33.325 57.478 33.324C57.487 33.297 57.497 33.271 57.506 33.244C57.507 33.242 57.507 33.24 57.508 33.237V33.236C57.509 33.234 57.509 33.232 57.51 33.23C57.51 33.229 57.51 33.229 57.51 33.229C57.511 33.227 57.511 33.225 57.512 33.223C57.512 33.222 57.512 33.222 57.513 33.221C57.513 33.22 57.514 33.217 57.515 33.216C57.515 33.215 57.515 33.215 57.516 33.214C57.516 33.212 57.517 33.211 57.518 33.209C57.518 33.208 57.518 33.207 57.519 33.207C57.52 33.206 57.52 33.204 57.521 33.202C57.521 33.201 57.521 33.201 57.522 33.2C57.522 33.199 57.523 33.196 57.524 33.195C57.524 33.194 57.524 33.193 57.525 33.193C57.525 33.191 57.526 33.189 57.527 33.188C57.527 33.187 57.527 33.186 57.528 33.186C57.528 33.184 57.529 33.182 57.53 33.181C57.53 33.18 57.531 33.179 57.531 33.179C57.531 33.178 57.532 33.176 57.533 33.174C57.533 33.173 57.533 33.172 57.534 33.172C57.535 33.17 57.535 33.169 57.536 33.167C57.536 33.166 57.536 33.166 57.537 33.165C57.537 33.164 57.538 33.162 57.539 33.16C57.539 33.159 57.539 33.159 57.54 33.158C57.541 33.156 57.541 33.155 57.542 33.153C57.542 33.152 57.542 33.152 57.543 33.151C57.544 33.149 57.544 33.148 57.545 33.146C57.545 33.145 57.545 33.145 57.546 33.144C57.547 33.142 57.547 33.141 57.548 33.139C57.548 33.138 57.548 33.138 57.549 33.137C57.549 33.135 57.55 33.134 57.551 33.132C57.551 33.131 57.552 33.13 57.552 33.13C57.553 33.128 57.553 33.127 57.554 33.125C57.554 33.124 57.554 33.123 57.555 33.123C57.556 33.121 57.556 33.12 57.557 33.118C57.557 33.117 57.557 33.117 57.558 33.116C57.558 33.114 57.559 33.113 57.56 33.111C57.56 33.11 57.56 33.109 57.561 33.108C57.561 33.107 57.562 33.105 57.563 33.103C57.563 33.102 57.563 33.101 57.564 33.1C57.564 33.098 57.565 33.097 57.565 33.095C57.565 33.094 57.566 33.093 57.566 33.092C57.566 33.091 57.567 33.089 57.568 33.087C57.568 33.086 57.569 33.085 57.569 33.085C57.569 33.083 57.57 33.081 57.571 33.08C57.571 33.079 57.571 33.079 57.572 33.078C57.572 33.076 57.573 33.074 57.574 33.073C57.574 33.072 57.574 33.072 57.575 33.071C57.575 33.07 57.576 33.067 57.577 33.066C57.577 33.065 57.577 33.065 57.578 33.064C57.578 33.063 57.579 33.06 57.58 33.059C57.58 33.058 57.58 33.057 57.581 33.057C57.581 33.056 57.582 33.053 57.583 33.052C57.583 33.051 57.583 33.051 57.584 33.05C57.584 33.048 57.585 33.046 57.586 33.045C57.586 33.044 57.586 33.044 57.587 33.043C57.587 33.042 57.588 33.039 57.589 33.038C57.589 33.038 57.589 33.036 57.59 33.036C57.591 33.034 57.591 33.033 57.592 33.03C57.592 33.029 57.592 33.029 57.592 33.029C57.593 33.027 57.593 33.025 57.594 33.023V33.022C57.595 33.019 57.595 33.018 57.596 33.015C57.597 33.013 57.597 33.011 57.598 33.009V33.008C57.604 32.988 57.61 32.969 57.616 32.949V32.948C57.617 32.946 57.617 32.944 57.618 32.942V32.941C57.619 32.939 57.619 32.937 57.62 32.935C57.62 32.934 57.62 32.934 57.62 32.933C57.621 32.931 57.621 32.929 57.622 32.927V32.926C57.623 32.924 57.623 32.922 57.624 32.92C57.624 32.919 57.624 32.919 57.624 32.918C57.625 32.916 57.625 32.914 57.626 32.912C57.626 32.911 57.626 32.911 57.626 32.911C57.627 32.909 57.627 32.907 57.628 32.905C57.628 32.904 57.628 32.904 57.629 32.903C57.629 32.901 57.63 32.899 57.631 32.898C57.631 32.897 57.631 32.897 57.631 32.896C57.631 32.895 57.632 32.892 57.633 32.891C57.633 32.89 57.633 32.889 57.634 32.889C57.634 32.888 57.635 32.885 57.636 32.884C57.636 32.883 57.636 32.882 57.637 32.882C57.637 32.88 57.638 32.878 57.639 32.877C57.639 32.876 57.639 32.875 57.64 32.875C57.64 32.873 57.641 32.872 57.641 32.87C57.641 32.869 57.641 32.868 57.642 32.867C57.642 32.865 57.643 32.864 57.643 32.862C57.643 32.861 57.644 32.86 57.644 32.859C57.644 32.858 57.645 32.856 57.645 32.854C57.645 32.853 57.645 32.852 57.646 32.852C57.646 32.85 57.647 32.849 57.647 32.847C57.647 32.846 57.647 32.845 57.648 32.844C57.648 32.842 57.649 32.841 57.649 32.839C57.649 32.838 57.649 32.837 57.65 32.836C57.65 32.834 57.651 32.833 57.651 32.831C57.651 32.83 57.651 32.829 57.652 32.828C57.652 32.827 57.653 32.825 57.653 32.823C57.653 32.822 57.653 32.821 57.654 32.82C57.654 32.818 57.655 32.817 57.655 32.815C57.655 32.814 57.656 32.813 57.656 32.812C57.656 32.81 57.657 32.809 57.657 32.807C57.657 32.806 57.657 32.805 57.658 32.804C57.658 32.802 57.659 32.801 57.659 32.799C57.659 32.798 57.66 32.797 57.66 32.796C57.66 32.794 57.661 32.793 57.661 32.791C57.661 32.79 57.661 32.789 57.662 32.788C57.662 32.786 57.663 32.785 57.663 32.783C57.663 32.782 57.663 32.781 57.664 32.78C57.664 32.778 57.665 32.777 57.665 32.775C57.665 32.774 57.665 32.773 57.666 32.772C57.666 32.771 57.667 32.769 57.667 32.767C57.667 32.766 57.668 32.765 57.668 32.764C57.668 32.762 57.669 32.761 57.669 32.759C57.669 32.758 57.669 32.757 57.67 32.756C57.67 32.755 57.671 32.753 57.671 32.751C57.671 32.75 57.671 32.749 57.672 32.748C57.672 32.747 57.673 32.745 57.673 32.743C57.673 32.742 57.674 32.741 57.674 32.74C57.674 32.738 57.675 32.737 57.675 32.735C57.675 32.734 57.676 32.733 57.676 32.732C57.676 32.73 57.677 32.729 57.677 32.727C57.677 32.726 57.677 32.725 57.678 32.724C57.678 32.722 57.679 32.721 57.679 32.719C57.679 32.718 57.679 32.717 57.68 32.716C57.68 32.715 57.681 32.713 57.681 32.711C57.681 32.71 57.681 32.709 57.682 32.708C57.682 32.706 57.683 32.704 57.683 32.703C57.683 32.702 57.683 32.701 57.684 32.701C57.685 32.699 57.685 32.697 57.686 32.695C57.686 32.694 57.686 32.694 57.686 32.693C57.687 32.691 57.687 32.689 57.688 32.687V32.686C57.689 32.683 57.689 32.681 57.69 32.679C57.695 32.662 57.7 32.644 57.704 32.627C57.705 32.624 57.705 32.622 57.706 32.62C57.706 32.62 57.706 32.619 57.706 32.618C57.707 32.616 57.707 32.614 57.708 32.612C57.708 32.611 57.708 32.611 57.708 32.61C57.708 32.608 57.709 32.606 57.709 32.604C57.709 32.603 57.709 32.603 57.709 32.602C57.709 32.6 57.71 32.598 57.711 32.596C57.711 32.595 57.711 32.594 57.712 32.594C57.712 32.592 57.713 32.59 57.713 32.589C57.713 32.588 57.713 32.588 57.714 32.587C57.714 32.585 57.715 32.583 57.715 32.582C57.715 32.581 57.715 32.58 57.716 32.579C57.716 32.578 57.717 32.576 57.717 32.574C57.717 32.573 57.717 32.572 57.718 32.571C57.718 32.569 57.719 32.568 57.719 32.566C57.719 32.565 57.719 32.564 57.72 32.563C57.72 32.561 57.721 32.559 57.721 32.558C57.721 32.557 57.721 32.556 57.722 32.556C57.722 32.554 57.723 32.552 57.723 32.551C57.723 32.55 57.724 32.549 57.724 32.548C57.724 32.546 57.725 32.545 57.725 32.543C57.725 32.542 57.725 32.541 57.726 32.54C57.726 32.539 57.727 32.537 57.727 32.535C57.727 32.534 57.727 32.533 57.728 32.532C57.728 32.53 57.729 32.529 57.729 32.527C57.729 32.526 57.729 32.525 57.73 32.524C57.73 32.522 57.731 32.521 57.731 32.519C57.731 32.518 57.731 32.517 57.732 32.516C57.732 32.514 57.733 32.513 57.733 32.511C57.733 32.51 57.733 32.509 57.734 32.508C57.734 32.506 57.735 32.505 57.735 32.503C57.735 32.502 57.735 32.501 57.736 32.5C57.736 32.498 57.737 32.497 57.737 32.496C57.737 32.495 57.737 32.494 57.738 32.493C57.738 32.492 57.739 32.49 57.739 32.488C57.739 32.487 57.739 32.486 57.74 32.485C57.74 32.484 57.741 32.482 57.741 32.481C57.741 32.48 57.741 32.479 57.742 32.478C57.742 32.476 57.743 32.475 57.743 32.473C57.743 32.472 57.743 32.471 57.744 32.47C57.744 32.468 57.745 32.467 57.745 32.465C57.745 32.464 57.745 32.463 57.746 32.462C57.746 32.46 57.747 32.459 57.747 32.457C57.747 32.456 57.747 32.455 57.748 32.454C57.748 32.453 57.749 32.451 57.749 32.449C57.749 32.448 57.749 32.447 57.75 32.446C57.75 32.444 57.751 32.442 57.751 32.441C57.751 32.44 57.751 32.44 57.752 32.439C57.752 32.437 57.753 32.435 57.753 32.434C57.753 32.433 57.753 32.432 57.754 32.432C57.754 32.43 57.755 32.428 57.755 32.427C57.755 32.426 57.756 32.425 57.756 32.424C57.756 32.422 57.757 32.421 57.757 32.419C57.757 32.418 57.757 32.417 57.758 32.416C57.758 32.414 57.759 32.413 57.759 32.411C57.759 32.41 57.759 32.409 57.76 32.408C57.76 32.406 57.761 32.404 57.761 32.403C57.761 32.402 57.761 32.402 57.761 32.401C57.761 32.399 57.762 32.397 57.762 32.396C57.762 32.395 57.762 32.395 57.763 32.394C57.763 32.392 57.764 32.39 57.764 32.389C57.764 32.388 57.764 32.388 57.764 32.387C57.764 32.385 57.765 32.383 57.765 32.382C57.765 32.381 57.765 32.381 57.765 32.38C57.766 32.378 57.766 32.376 57.766 32.374C57.766 32.373 57.766 32.373 57.766 32.372C57.766 32.37 57.767 32.368 57.767 32.367C57.767 32.366 57.767 32.365 57.767 32.365C57.767 32.363 57.768 32.361 57.768 32.359C57.768 32.359 57.768 32.358 57.768 32.357C57.769 32.355 57.769 32.353 57.769 32.351C57.769 32.35 57.769 32.35 57.769 32.349C57.77 32.346 57.77 32.344 57.771 32.342C57.771 32.34 57.772 32.337 57.773 32.335C57.773 32.335 57.773 32.335 57.773 32.334C57.775 32.324 57.778 32.314 57.78 32.304C57.78 32.303 57.78 32.303 57.78 32.303C57.78 32.301 57.781 32.299 57.781 32.297V32.296C57.781 32.294 57.782 32.292 57.782 32.29C57.782 32.289 57.782 32.289 57.782 32.288C57.782 32.286 57.783 32.284 57.783 32.282C57.783 32.281 57.783 32.281 57.783 32.28C57.783 32.278 57.784 32.276 57.784 32.275C57.784 32.274 57.784 32.273 57.785 32.272C57.785 32.27 57.786 32.269 57.786 32.267C57.786 32.266 57.786 32.265 57.786 32.264C57.786 32.262 57.787 32.261 57.787 32.259C57.787 32.258 57.787 32.257 57.788 32.256C57.788 32.254 57.789 32.253 57.789 32.251C57.789 32.25 57.789 32.249 57.79 32.248C57.79 32.246 57.791 32.245 57.791 32.243C57.791 32.242 57.791 32.241 57.792 32.24C57.792 32.238 57.793 32.237 57.793 32.235C57.793 32.234 57.793 32.233 57.794 32.232C57.794 32.23 57.795 32.229 57.795 32.227C57.795 32.226 57.795 32.225 57.796 32.224C57.796 32.222 57.797 32.221 57.797 32.219C57.797 32.218 57.797 32.217 57.798 32.216C57.798 32.214 57.799 32.213 57.799 32.211C57.799 32.21 57.799 32.209 57.8 32.208C57.8 32.206 57.801 32.205 57.801 32.203C57.801 32.202 57.801 32.201 57.802 32.2C57.802 32.198 57.803 32.197 57.803 32.195C57.803 32.194 57.803 32.193 57.804 32.192C57.804 32.19 57.805 32.189 57.805 32.187C57.805 32.186 57.805 32.185 57.806 32.184C57.806 32.182 57.807 32.181 57.807 32.179C57.807 32.178 57.807 32.177 57.808 32.176C57.808 32.174 57.809 32.173 57.809 32.171C57.809 32.17 57.809 32.169 57.81 32.168C57.81 32.167 57.811 32.165 57.811 32.163C57.811 32.162 57.811 32.161 57.812 32.16C57.812 32.159 57.813 32.157 57.813 32.155C57.813 32.154 57.813 32.153 57.814 32.152C57.815 32.151 57.815 32.149 57.815 32.148C57.815 32.147 57.815 32.146 57.816 32.145C57.816 32.144 57.817 32.142 57.817 32.141C57.817 32.14 57.817 32.139 57.818 32.138C57.818 32.137 57.819 32.135 57.819 32.134C57.819 32.133 57.819 32.132 57.82 32.131C57.82 32.129 57.821 32.128 57.821 32.127C57.821 32.126 57.821 32.125 57.822 32.124C57.822 32.122 57.822 32.121 57.823 32.12C57.823 32.119 57.824 32.118 57.824 32.117C57.824 32.115 57.825 32.114 57.825 32.113C57.825 32.112 57.825 32.111 57.826 32.11C57.826 32.108 57.827 32.107 57.827 32.106C57.827 32.105 57.827 32.104 57.828 32.103C57.828 32.101 57.829 32.1 57.829 32.098C57.829 32.097 57.829 32.096 57.83 32.095C57.83 32.093 57.831 32.092 57.831 32.09C57.831 32.089 57.831 32.088 57.832 32.087C57.832 32.085 57.833 32.084 57.833 32.082C57.833 32.081 57.833 32.08 57.834 32.079C57.834 32.077 57.835 32.075 57.835 32.074C57.835 32.073 57.835 32.073 57.835 32.072C57.835 32.07 57.836 32.068 57.836 32.067C57.836 32.066 57.836 32.066 57.836 32.065C57.836 32.063 57.837 32.062 57.837 32.06C57.837 32.059 57.837 32.058 57.838 32.057C57.838 32.055 57.839 32.054 57.839 32.052C57.839 32.051 57.839 32.05 57.84 32.049C57.84 32.047 57.841 32.046 57.841 32.044C57.841 32.043 57.841 32.042 57.842 32.041C57.842 32.039 57.843 32.038 57.843 32.036C57.843 32.035 57.843 32.034 57.844 32.033C57.844 32.031 57.845 32.03 57.845 32.028C57.845 32.027 57.845 32.026 57.846 32.025C57.846 32.023 57.847 32.022 57.847 32.02C57.847 32.019 57.847 32.019 57.847 32.018C57.847 32.016 57.848 32.014 57.848 32.012C57.848 32.011 57.848 32.011 57.848 32.01C57.848 32.008 57.849 32.006 57.849 32.004C57.849 32.003 57.849 32.003 57.849 32.002C57.849 32 57.85 31.999 57.85 31.997C57.85 31.995 57.851 31.994 57.851 31.992C57.851 31.99 57.852 31.988 57.852 31.987C57.852 31.986 57.852 31.986 57.852 31.985C57.852 31.983 57.853 31.981 57.853 31.979C57.853 31.979 57.853 31.979 57.853 31.978C57.853 31.976 57.854 31.973 57.854 31.971C57.854 31.97 57.854 31.97 57.854 31.969C57.854 31.967 57.855 31.965 57.855 31.963C57.855 31.962 57.855 31.962 57.855 31.961C57.855 31.959 57.856 31.957 57.856 31.956C57.856 31.956 57.856 31.955 57.856 31.954C57.856 31.952 57.857 31.95 57.857 31.948C57.857 31.947 57.857 31.947 57.857 31.946C57.857 31.944 57.858 31.942 57.858 31.94C57.858 31.939 57.858 31.938 57.858 31.938C57.858 31.936 57.859 31.935 57.859 31.933C57.859 31.932 57.859 31.931 57.859 31.93C57.859 31.929 57.86 31.927 57.86 31.925C57.86 31.924 57.86 31.923 57.86 31.922C57.86 31.92 57.861 31.919 57.861 31.917C57.861 31.916 57.861 31.915 57.862 31.914C57.862 31.912 57.863 31.911 57.863 31.909C57.863 31.908 57.863 31.907 57.863 31.906C57.863 31.904 57.864 31.903 57.864 31.901C57.864 31.9 57.864 31.899 57.864 31.898C57.864 31.896 57.865 31.895 57.865 31.893C57.865 31.892 57.865 31.891 57.865 31.89C57.865 31.888 57.866 31.887 57.866 31.885C57.866 31.884 57.866 31.883 57.867 31.882C57.867 31.88 57.867 31.879 57.868 31.877C57.868 31.876 57.868 31.875 57.869 31.874C57.869 31.872 57.869 31.871 57.87 31.87C57.87 31.869 57.87 31.867 57.871 31.866C57.871 31.864 57.871 31.864 57.872 31.862C57.872 31.861 57.872 31.86 57.873 31.859C57.873 31.857 57.873 31.856 57.874 31.855C57.874 31.854 57.874 31.853 57.875 31.852C57.875 31.85 57.875 31.849 57.876 31.847C57.876 31.846 57.876 31.845 57.877 31.844C57.877 31.843 57.877 31.841 57.878 31.839C57.878 31.838 57.878 31.837 57.879 31.836C57.879 31.835 57.879 31.833 57.88 31.832C57.88 31.831 57.88 31.83 57.881 31.829C57.881 31.828 57.882 31.826 57.882 31.824C57.882 31.823 57.882 31.822 57.883 31.821C57.883 31.82 57.884 31.818 57.884 31.816C57.884 31.815 57.884 31.814 57.885 31.813C57.885 31.811 57.885 31.81 57.886 31.808C57.886 31.807 57.886 31.806 57.887 31.805C57.887 31.804 57.888 31.802 57.888 31.801C57.888 31.8 57.888 31.799 57.889 31.798C57.889 31.796 57.889 31.795 57.89 31.793C57.89 31.792 57.89 31.791 57.891 31.79C57.891 31.788 57.891 31.787 57.892 31.786C57.892 31.785 57.892 31.784 57.893 31.783C57.893 31.781 57.893 31.78 57.894 31.779C57.894 31.778 57.894 31.777 57.895 31.776C57.895 31.774 57.896 31.773 57.896 31.771C57.896 31.77 57.896 31.769 57.897 31.768C57.897 31.766 57.897 31.765 57.898 31.763C57.898 31.762 57.898 31.761 57.899 31.76C57.899 31.758 57.899 31.757 57.9 31.755C57.9 31.754 57.9 31.753 57.9 31.752C57.9 31.751 57.901 31.749 57.901 31.748C57.901 31.747 57.901 31.746 57.902 31.745C57.902 31.743 57.902 31.742 57.903 31.74C57.903 31.739 57.903 31.738 57.904 31.737C57.904 31.735 57.904 31.734 57.905 31.732C57.905 31.731 57.905 31.73 57.905 31.729C57.905 31.727 57.906 31.725 57.906 31.724C57.906 31.723 57.906 31.723 57.906 31.722C57.906 31.72 57.907 31.719 57.907 31.717C57.907 31.716 57.907 31.715 57.907 31.715C57.907 31.713 57.908 31.711 57.908 31.709V31.708C57.908 31.706 57.909 31.704 57.909 31.702V31.701C57.909 31.699 57.91 31.697 57.91 31.694V31.693C57.91 31.691 57.911 31.689 57.911 31.687C57.911 31.686 57.911 31.686 57.911 31.685C57.914 31.669 57.916 31.654 57.919 31.639C57.919 31.638 57.919 31.638 57.919 31.637C57.919 31.635 57.92 31.633 57.92 31.631C57.92 31.63 57.92 31.63 57.92 31.629C57.92 31.627 57.921 31.625 57.921 31.623C57.921 31.622 57.921 31.621 57.921 31.62C57.921 31.618 57.921 31.617 57.922 31.615C57.922 31.614 57.922 31.613 57.922 31.612C57.922 31.61 57.922 31.609 57.923 31.607C57.923 31.606 57.923 31.605 57.923 31.604C57.923 31.603 57.923 31.6 57.924 31.599C57.924 31.598 57.924 31.597 57.924 31.596C57.924 31.594 57.924 31.593 57.925 31.591C57.925 31.59 57.925 31.589 57.925 31.588C57.925 31.586 57.926 31.585 57.926 31.583C57.926 31.582 57.926 31.581 57.926 31.58C57.926 31.578 57.927 31.577 57.927 31.575C57.927 31.574 57.927 31.573 57.927 31.572C57.927 31.57 57.927 31.569 57.928 31.567C57.928 31.566 57.928 31.565 57.928 31.564C57.928 31.562 57.928 31.561 57.929 31.559C57.929 31.558 57.929 31.557 57.929 31.556C57.929 31.554 57.929 31.553 57.93 31.551C57.93 31.55 57.93 31.549 57.93 31.548C57.93 31.546 57.93 31.545 57.931 31.543C57.931 31.542 57.931 31.541 57.931 31.54C57.931 31.538 57.931 31.537 57.932 31.536C57.932 31.535 57.932 31.534 57.932 31.533C57.932 31.531 57.932 31.53 57.933 31.529C57.933 31.528 57.933 31.527 57.933 31.526C57.933 31.524 57.933 31.523 57.934 31.522C57.934 31.521 57.934 31.52 57.934 31.519C57.934 31.518 57.934 31.516 57.935 31.515C57.935 31.514 57.935 31.513 57.936 31.511C57.936 31.51 57.936 31.508 57.937 31.507C57.937 31.506 57.937 31.505 57.938 31.503C57.938 31.502 57.938 31.5 57.939 31.499C57.939 31.498 57.939 31.496 57.939 31.495C57.939 31.494 57.939 31.492 57.94 31.491C57.94 31.49 57.94 31.489 57.94 31.487C57.94 31.485 57.94 31.484 57.941 31.483C57.942 31.482 57.941 31.481 57.941 31.479C57.941 31.478 57.941 31.476 57.942 31.475C57.942 31.474 57.942 31.473 57.942 31.472C57.942 31.471 57.942 31.469 57.943 31.468C57.943 31.467 57.943 31.466 57.943 31.465C57.943 31.463 57.943 31.462 57.944 31.46C57.944 31.459 57.944 31.458 57.944 31.457C57.944 31.455 57.944 31.454 57.945 31.452C57.945 31.451 57.945 31.45 57.945 31.449C57.945 31.447 57.945 31.446 57.946 31.444C57.946 31.443 57.946 31.442 57.946 31.441C57.946 31.439 57.946 31.438 57.947 31.437C57.947 31.436 57.947 31.435 57.947 31.434C57.947 31.432 57.947 31.431 57.948 31.43C57.948 31.429 57.948 31.428 57.948 31.427C57.948 31.426 57.948 31.424 57.949 31.423C57.949 31.422 57.949 31.421 57.949 31.42C57.949 31.419 57.949 31.417 57.95 31.416C57.95 31.415 57.95 31.414 57.95 31.412C57.95 31.411 57.95 31.409 57.951 31.408C57.951 31.407 57.951 31.406 57.951 31.404C57.951 31.403 57.951 31.401 57.952 31.4C57.952 31.399 57.952 31.397 57.952 31.396C57.952 31.395 57.952 31.393 57.953 31.392C57.953 31.391 57.953 31.39 57.953 31.388C57.953 31.387 57.953 31.385 57.953 31.384C57.953 31.383 57.953 31.381 57.954 31.38C57.954 31.379 57.954 31.377 57.954 31.376C57.954 31.375 57.954 31.373 57.955 31.372C57.955 31.371 57.955 31.369 57.955 31.368C57.955 31.367 57.955 31.365 57.956 31.364C57.956 31.363 57.956 31.362 57.956 31.36C57.956 31.358 57.956 31.357 57.956 31.356C57.956 31.354 57.956 31.353 57.957 31.351C57.957 31.35 57.957 31.349 57.957 31.348C57.957 31.346 57.957 31.345 57.958 31.343C57.958 31.342 57.958 31.342 57.958 31.341C57.958 31.339 57.959 31.337 57.959 31.334V31.333C57.959 31.33 57.96 31.328 57.96 31.325C57.96 31.324 57.96 31.323 57.96 31.322C57.96 31.32 57.96 31.319 57.961 31.317C57.961 31.316 57.961 31.315 57.961 31.313C57.961 31.312 57.961 31.31 57.961 31.309C57.961 31.308 57.961 31.306 57.962 31.305C57.962 31.304 57.962 31.303 57.962 31.301C57.962 31.3 57.962 31.299 57.962 31.297C57.962 31.295 57.962 31.294 57.962 31.293C57.962 31.292 57.962 31.291 57.962 31.29C57.962 31.288 57.962 31.287 57.963 31.286C57.963 31.285 57.963 31.283 57.963 31.283C57.963 31.282 57.963 31.28 57.964 31.279C57.964 31.278 57.964 31.276 57.964 31.275C57.964 31.274 57.964 31.272 57.964 31.271C57.964 31.27 57.964 31.269 57.964 31.267C57.964 31.266 57.964 31.264 57.964 31.263C57.964 31.262 57.964 31.261 57.964 31.259C57.964 31.258 57.964 31.256 57.964 31.255C57.964 31.254 57.964 31.252 57.964 31.251C57.964 31.25 57.964 31.248 57.965 31.247C57.965 31.246 57.965 31.244 57.965 31.243C57.965 31.242 57.965 31.24 57.965 31.239C57.965 31.238 57.965 31.237 57.965 31.235C57.965 31.234 57.965 31.232 57.965 31.231C57.965 31.23 57.965 31.229 57.965 31.227C57.965 31.226 57.965 31.224 57.965 31.223C57.965 31.222 57.965 31.221 57.965 31.219C57.965 31.217 57.965 31.216 57.966 31.215C57.966 31.214 57.966 31.213 57.966 31.211C57.966 31.209 57.966 31.209 57.967 31.207C57.967 31.206 57.967 31.205 57.967 31.203C57.967 31.201 57.967 31.2 57.968 31.199C57.968 31.198 57.968 31.196 57.968 31.195C57.968 31.193 57.968 31.192 57.968 31.191C57.968 31.19 57.968 31.189 57.968 31.188C57.968 31.187 57.968 31.185 57.968 31.184C57.968 31.183 57.968 31.182 57.968 31.18C57.968 31.179 57.968 31.177 57.968 31.176C57.968 31.175 57.968 31.174 57.968 31.172C57.968 31.171 57.968 31.169 57.968 31.168C57.968 31.167 57.968 31.166 57.968 31.164C57.968 31.163 57.968 31.161 57.968 31.16C57.968 31.159 57.968 31.158 57.968 31.156C57.968 31.155 57.968 31.153 57.969 31.152C57.969 31.151 57.969 31.15 57.969 31.148C57.969 31.147 57.969 31.145 57.969 31.144C57.969 31.143 57.969 31.142 57.969 31.14C57.969 31.139 57.969 31.137 57.969 31.136C57.969 31.135 57.969 31.133 57.969 31.132C57.969 31.131 57.969 31.129 57.969 31.128C57.969 31.127 57.969 31.125 57.969 31.124C57.969 31.123 57.969 31.121 57.969 31.12C57.969 31.118 57.969 31.118 57.969 31.116C57.969 31.115 57.969 31.113 57.969 31.112C57.969 31.111 57.969 31.11 57.969 31.108C57.969 31.106 57.969 31.105 57.969 31.104C57.969 31.103 57.969 31.102 57.969 31.1C57.969 31.098 57.969 31.097 57.969 31.096C57.969 31.095 57.969 31.094 57.969 31.093C57.969 31.092 57.969 31.09 57.969 31.089C57.969 31.088 57.969 31.087 57.969 31.085C57.969 31.084 57.969 31.082 57.969 31.081C57.969 31.08 57.969 31.079 57.969 31.077C57.969 31.076 57.969 31.074 57.969 31.073C57.969 31.072 57.969 31.071 57.969 31.069C57.969 31.068 57.969 31.066 57.969 31.065C57.969 31.064 57.969 31.063 57.969 31.062C57.969 31.061 57.969 31.059 57.969 31.058C57.969 31.057 57.969 31.055 57.969 31.054C57.969 31.053 57.969 31.051 57.969 31.05C57.969 31.049 57.969 31.047 57.969 31.046C57.969 31.045 57.969 31.043 57.969 31.042C57.969 31.041 57.969 31.039 57.969 31.038C57.969 31.037 57.969 31.035 57.969 31.033C57.969 31.032 57.969 31.031 57.969 31.03C57.969 31.028 57.969 31.027 57.969 31.025C57.969 31.024 57.969 31.023 57.969 31.022C57.969 31.02 57.969 31.019 57.969 31.017C57.969 31.016 57.969 31.015 57.969 31.014C57.969 31.012 57.969 31.011 57.969 31.009C57.969 31.008 57.969 31.007 57.969 31.006C57.969 31.004 57.969 31.003 57.969 31.001C57.969 31 57.969 30.999 57.969 30.998C57.969 30.997 57.969 30.996 57.969 30.995C57.969 30.991 57.97 30.988 57.97 30.985C57.97 30.984 57.97 30.984 57.97 30.983C57.97 30.981 57.97 30.98 57.97 30.979C57.97 30.978 57.97 30.977 57.97 30.975C57.97 30.974 57.97 30.973 57.97 30.972C57.97 30.97 57.97 30.968 57.97 30.967C57.97 30.966 57.97 30.966 57.97 30.966C57.97 30.964 57.97 30.962 57.971 30.96C57.971 30.959 57.971 30.958 57.971 30.957C57.971 30.955 57.971 30.954 57.971 30.952C57.971 30.951 57.971 30.95 57.971 30.949C57.971 30.948 57.971 30.946 57.971 30.944C57.971 30.943 57.971 30.942 57.971 30.941C57.971 30.94 57.971 30.938 57.971 30.936C57.971 30.935 57.971 30.934 57.971 30.933C57.971 30.932 57.971 30.93 57.971 30.929C57.971 30.928 57.971 30.927 57.971 30.925C57.971 30.924 57.971 30.922 57.971 30.921C57.971 30.92 57.971 30.919 57.971 30.917C57.971 30.916 57.971 30.914 57.971 30.913C57.971 30.912 57.971 30.911 57.971 30.91C57.971 30.908 57.971 30.907 57.971 30.905C57.971 30.904 57.971 30.903 57.971 30.902C57.971 30.9 57.971 30.899 57.971 30.897C57.971 30.896 57.971 30.895 57.971 30.893C57.971 30.892 57.971 30.89 57.971 30.889C57.971 30.888 57.971 30.887 57.971 30.885C57.971 30.883 57.971 30.882 57.971 30.881C57.971 30.88 57.971 30.879 57.971 30.877C57.971 30.875 57.971 30.874 57.971 30.873C57.971 30.872 57.971 30.87 57.971 30.869C57.971 30.868 57.971 30.866 57.971 30.865C57.971 30.864 57.971 30.862 57.971 30.861C57.971 30.859 57.971 30.859 57.971 30.857C57.971 30.856 57.971 30.854 57.971 30.853C57.971 30.852 57.971 30.85 57.971 30.849C57.971 30.848 57.971 30.846 57.971 30.845C57.971 30.844 57.971 30.842 57.971 30.841C57.971 30.84 57.971 30.839 57.971 30.837C57.971 30.836 57.971 30.834 57.971 30.833C57.971 30.832 57.971 30.83 57.971 30.829C57.971 30.828 57.971 30.826 57.971 30.825C57.971 30.824 57.971 30.823 57.971 30.821C57.971 30.819 57.971 30.818 57.971 30.817C57.971 30.816 57.971 30.814 57.971 30.813C57.971 30.812 57.971 30.81 57.971 30.809C57.971 30.808 57.971 30.806 57.971 30.805C57.971 30.804 57.971 30.803 57.971 30.801C57.971 30.8 57.971 30.798 57.971 30.797C57.971 30.796 57.971 30.795 57.971 30.793C57.971 30.791 57.971 30.79 57.971 30.789C57.971 30.788 57.971 30.786 57.971 30.785C57.971 30.784 57.971 30.782 57.971 30.781C57.971 30.779 57.971 30.778 57.971 30.777C57.971 30.776 57.971 30.775 57.971 30.773C57.971 30.771 57.971 30.77 57.971 30.769C57.971 30.768 57.971 30.766 57.971 30.765C57.971 30.763 57.971 30.762 57.971 30.761C57.971 30.76 57.971 30.759 57.971 30.757C57.971 30.756 57.971 30.754 57.971 30.753C57.971 30.752 57.971 30.751 57.971 30.749C57.971 30.748 57.971 30.746 57.971 30.745C57.971 30.744 57.971 30.743 57.971 30.741C57.971 30.74 57.971 30.738 57.971 30.737C57.971 30.736 57.971 30.734 57.971 30.733C57.971 30.732 57.971 30.73 57.971 30.729C57.971 30.728 57.971 30.726 57.971 30.725C57.971 30.724 57.971 30.722 57.971 30.721C57.971 30.72 57.971 30.719 57.971 30.718C57.971 30.717 57.971 30.715 57.971 30.713C57.971 30.712 57.971 30.711 57.971 30.71C57.971 30.709 57.971 30.707 57.971 30.706C57.971 30.705 57.971 30.704 57.971 30.703C57.971 30.702 57.971 30.7 57.971 30.698C57.971 30.697 57.971 30.696 57.971 30.695C57.971 30.693 57.971 30.692 57.971 30.69C57.971 30.689 57.971 30.688 57.971 30.687C57.971 30.685 57.971 30.684 57.971 30.682C57.971 30.681 57.971 30.68 57.971 30.679C57.971 30.677 57.971 30.676 57.971 30.674C57.971 30.673 57.971 30.672 57.971 30.671C57.971 30.669 57.971 30.668 57.971 30.666C57.971 30.665 57.971 30.664 57.971 30.663C57.971 30.66 57.971 30.658 57.972 30.655C57.972 30.652 57.972 30.65 57.972 30.647V30.646C57.972 30.644 57.972 30.642 57.972 30.639C57.972 30.638 57.972 30.637 57.972 30.637C57.972 30.635 57.972 30.633 57.972 30.631C57.972 30.63 57.972 30.629 57.972 30.628C57.972 30.626 57.972 30.625 57.972 30.623C57.972 30.622 57.972 30.621 57.972 30.619C57.972 30.617 57.972 30.616 57.972 30.615C57.972 30.614 57.972 30.613 57.972 30.611C57.972 30.61 57.972 30.608 57.972 30.607C57.972 30.606 57.972 30.604 57.972 30.603C57.972 30.602 57.972 30.6 57.972 30.599C57.972 30.598 57.972 30.596 57.972 30.595C57.972 30.594 57.972 30.592 57.972 30.591C57.972 30.59 57.972 30.589 57.972 30.587C57.972 30.586 57.972 30.584 57.972 30.583C57.972 30.582 57.972 30.58 57.972 30.579C57.972 30.578 57.972 30.576 57.972 30.575C57.972 30.574 57.972 30.572 57.972 30.571C57.972 30.57 57.972 30.568 57.972 30.567C57.972 30.566 57.972 30.565 57.972 30.563C57.972 30.562 57.972 30.56 57.972 30.559C57.972 30.558 57.972 30.557 57.972 30.555C57.972 30.553 57.972 30.552 57.972 30.551C57.972 30.55 57.972 30.549 57.972 30.547C57.972 30.546 57.972 30.544 57.972 30.543C57.972 30.542 57.972 30.54 57.972 30.539C57.972 30.538 57.972 30.536 57.972 30.535C57.972 30.534 57.972 30.533 57.972 30.531C57.972 30.529 57.972 30.528 57.972 30.527C57.972 30.526 57.972 30.524 57.972 30.523C57.972 30.521 57.972 30.52 57.972 30.519C57.972 30.518 57.972 30.516 57.972 30.515C57.972 30.514 57.972 30.512 57.972 30.511C57.972 30.51 57.972 30.508 57.972 30.507C57.972 30.506 57.972 30.504 57.972 30.503C57.972 30.502 57.972 30.5 57.972 30.499C57.972 30.498 57.972 30.496 57.972 30.495C57.972 30.494 57.972 30.492 57.972 30.491C57.972 30.49 57.972 30.488 57.972 30.487C57.972 30.486 57.972 30.484 57.972 30.483C57.972 30.482 57.972 30.48 57.972 30.479C57.972 30.478 57.972 30.476 57.972 30.475C57.972 30.474 57.972 30.472 57.972 30.471C57.972 30.47 57.972 30.469 57.972 30.467C57.972 30.466 57.972 30.464 57.972 30.463C57.972 30.462 57.972 30.461 57.972 30.459C57.972 30.457 57.972 30.456 57.972 30.455C57.972 30.454 57.972 30.453 57.972 30.451C57.972 30.45 57.972 30.448 57.972 30.447C57.972 30.446 57.972 30.444 57.972 30.443C57.972 30.442 57.972 30.44 57.972 30.439C57.972 30.438 57.972 30.436 57.972 30.435C57.972 30.433 57.972 30.433 57.972 30.431C57.972 30.43 57.972 30.428 57.972 30.427C57.972 30.426 57.972 30.424 57.972 30.423C57.972 30.422 57.972 30.42 57.972 30.419C57.972 30.418 57.972 30.416 57.972 30.415C57.972 30.414 57.972 30.413 57.972 30.411C57.972 30.41 57.972 30.408 57.972 30.407C57.972 30.406 57.972 30.405 57.972 30.403C57.972 30.402 57.972 30.4 57.972 30.398C57.972 30.397 57.972 30.396 57.972 30.394C57.972 30.393 57.972 30.391 57.972 30.389C57.972 30.388 57.972 30.387 57.972 30.386C57.972 30.385 57.972 30.383 57.972 30.382C57.972 30.381 57.972 30.38 57.972 30.378C57.972 30.377 57.972 30.375 57.972 30.374C57.972 30.373 57.972 30.371 57.972 30.37C57.972 30.369 57.972 30.367 57.972 30.366C57.972 30.365 57.972 30.363 57.972 30.362C57.972 30.361 57.972 30.359 57.972 30.358C57.972 30.357 57.972 30.355 57.972 30.354C57.972 30.353 57.972 30.351 57.972 30.35C57.972 30.349 57.972 30.348 57.972 30.346C57.972 30.345 57.972 30.343 57.972 30.341C57.972 30.34 57.972 30.339 57.972 30.338C57.972 30.336 57.972 30.335 57.972 30.333C57.972 30.332 57.972 30.331 57.972 30.33C57.972 30.328 57.972 30.327 57.972 30.325C57.972 30.324 57.972 30.323 57.972 30.322C57.972 30.32 57.972 30.319 57.972 30.317C57.972 30.316 57.972 30.315 57.972 30.314C57.972 30.309 57.972 30.303 57.973 30.298C57.973 30.298 57.973 30.298 57.973 30.297C57.973 30.295 57.973 30.292 57.973 30.29C57.973 30.289 57.973 30.288 57.973 30.287C57.973 30.285 57.973 30.284 57.973 30.282C57.973 30.281 57.973 30.28 57.973 30.279C57.973 30.277 57.973 30.276 57.973 30.274C57.973 30.273 57.973 30.272 57.973 30.271C57.973 30.269 57.973 30.268 57.973 30.266C57.973 30.265 57.973 30.264 57.973 30.263C57.973 30.261 57.973 30.26 57.973 30.258C57.973 30.257 57.973 30.255 57.973 30.254C57.973 30.253 57.973 30.251 57.973 30.25C57.973 30.249 57.973 30.247 57.973 30.246C57.973 30.245 57.973 30.243 57.973 30.242C57.973 30.241 57.973 30.24 57.973 30.239C57.973 30.238 57.973 30.236 57.973 30.234C57.973 30.233 57.973 30.231 57.973 30.23C57.973 30.229 57.973 30.227 57.973 30.225C57.973 30.223 57.973 30.223 57.973 30.221C57.973 30.219 57.973 30.218 57.973 30.217C57.973 30.216 57.973 30.214 57.973 30.213C57.973 30.212 57.973 30.21 57.973 30.209C57.973 30.208 57.973 30.206 57.973 30.205C57.973 30.204 57.973 30.202 57.973 30.201C57.973 30.2 57.973 30.199 57.973 30.197C57.973 30.195 57.973 30.194 57.973 30.193C57.973 30.192 57.973 30.191 57.973 30.189C57.973 30.187 57.973 30.186 57.973 30.185C57.973 30.184 57.973 30.182 57.973 30.181C57.973 30.179 57.973 30.178 57.973 30.177C57.973 30.176 57.973 30.174 57.973 30.173C57.973 30.172 57.973 30.17 57.973 30.169C57.973 30.167 57.973 30.167 57.973 30.165C57.973 30.164 57.973 30.162 57.973 30.161C57.973 30.16 57.973 30.158 57.973 30.157C57.973 30.156 57.973 30.154 57.973 30.153C57.973 30.152 57.973 30.15 57.973 30.149C57.973 30.148 57.973 30.146 57.973 30.145C57.973 30.144 57.973 30.142 57.973 30.141C57.973 30.14 57.973 30.138 57.973 30.137C57.973 30.136 57.973 30.134 57.973 30.133C57.973 30.132 57.973 30.13 57.973 30.129C57.973 30.128 57.973 30.126 57.973 30.125C57.973 30.124 57.973 30.122 57.973 30.121C57.973 30.12 57.973 30.118 57.973 30.117C57.973 30.116 57.973 30.114 57.973 30.113C57.973 30.112 57.973 30.11 57.973 30.109C57.973 30.108 57.973 30.106 57.973 30.105C57.973 30.104 57.973 30.102 57.973 30.101C57.973 30.1 57.973 30.098 57.973 30.097C57.973 30.096 57.973 30.094 57.973 30.093C57.973 30.092 57.973 30.09 57.973 30.089C57.973 30.088 57.973 30.086 57.973 30.085C57.973 30.083 57.973 30.082 57.973 30.081C57.973 30.08 57.973 30.079 57.973 30.077C57.973 30.075 57.973 30.074 57.973 30.073C57.973 30.072 57.973 30.071 57.973 30.069C57.973 30.067 57.973 30.066 57.973 30.065C57.973 30.064 57.973 30.063 57.973 30.061C57.973 30.059 57.973 30.058 57.973 30.057C57.973 30.056 57.973 30.055 57.973 30.053C57.973 30.051 57.973 30.05 57.973 30.049C57.973 30.048 57.973 30.047 57.973 30.045C57.973 30.044 57.973 30.042 57.973 30.041C57.973 30.04 57.973 30.038 57.973 30.037C57.973 30.036 57.973 30.034 57.973 30.033C57.973 30.032 57.973 30.031 57.973 30.029C57.973 30.027 57.973 30.026 57.973 30.025C57.973 30.024 57.973 30.023 57.973 30.021C57.973 30.019 57.973 30.018 57.973 30.016C57.973 30.015 57.973 30.014 57.973 30.013C57.973 30.012 57.973 30.01 57.973 30.008C57.973 30.007 57.973 30.006 57.973 30.005C57.973 30.004 57.973 30.002 57.973 30C57.973 29.998 57.973 29.998 57.973 29.996C57.973 29.994 57.973 29.993 57.973 29.992C57.973 29.991 57.973 29.99 57.973 29.988C57.973 29.986 57.973 29.985 57.973 29.983C57.973 29.982 57.973 29.981 57.973 29.979C57.973 29.977 57.973 29.976 57.973 29.974C57.973 29.973 57.973 29.972 57.973 29.971C57.973 29.969 57.973 29.967 57.973 29.965C57.973 29.964 57.973 29.963 57.973 29.963C57.973 29.96 57.973 29.958 57.973 29.955C57.973 29.952 57.973 29.949 57.973 29.946C57.973 29.945 57.973 29.944 57.973 29.943C57.973 29.941 57.973 29.939 57.973 29.938C57.973 29.937 57.973 29.935 57.973 29.934C57.973 29.932 57.973 29.931 57.973 29.929C57.973 29.928 57.973 29.927 57.973 29.925C57.973 29.923 57.973 29.922 57.973 29.92C57.973 29.919 57.973 29.918 57.973 29.916C57.973 29.914 57.973 29.913 57.973 29.911C57.973 29.91 57.973 29.909 57.973 29.907C57.973 29.905 57.973 29.904 57.973 29.902C57.973 29.901 57.973 29.899 57.973 29.898C57.973 29.896 57.973 29.895 57.973 29.893C57.973 29.892 57.973 29.891 57.973 29.889C57.973 29.887 57.973 29.886 57.973 29.884C57.973 29.883 57.973 29.881 57.973 29.88C57.973 29.878 57.973 29.877 57.973 29.875C57.973 29.874 57.973 29.873 57.973 29.871C57.973 29.869 57.973 29.867 57.973 29.865C57.973 29.863 57.973 29.861 57.973 29.86C57.973 29.858 57.973 29.857 57.973 29.855C57.973 29.854 57.973 29.852 57.973 29.851C57.973 29.85 57.973 29.848 57.973 29.847C57.973 29.846 57.973 29.844 57.973 29.842C57.973 29.84 57.973 29.839 57.973 29.838C57.973 29.836 57.973 29.835 57.973 29.834C57.973 29.833 57.973 29.831 57.973 29.83C57.973 29.828 57.973 29.827 57.973 29.825C57.973 29.824 57.973 29.822 57.973 29.821C57.973 29.82 57.973 29.818 57.973 29.816C57.973 29.815 57.973 29.814 57.973 29.812C57.973 29.81 57.973 29.809 57.973 29.807C57.973 29.806 57.973 29.805 57.973 29.803C57.973 29.801 57.973 29.8 57.973 29.798C57.973 29.797 57.973 29.796 57.973 29.795C57.973 29.793 57.973 29.792 57.973 29.79C57.973 29.789 57.973 29.788 57.973 29.787C57.973 29.78 57.973 29.774 57.973 29.767C57.973 29.767 57.973 29.766 57.973 29.765C57.973 29.763 57.973 29.761 57.973 29.76C57.973 29.759 57.973 29.758 57.973 29.757C57.973 29.755 57.973 29.753 57.973 29.752C57.973 29.751 57.973 29.75 57.973 29.749C57.973 29.747 57.973 29.745 57.973 29.744C57.973 29.743 57.973 29.742 57.973 29.741C57.973 29.739 57.973 29.737 57.973 29.735C57.973 29.734 57.973 29.733 57.973 29.732C57.973 29.73 57.973 29.729 57.973 29.727C57.973 29.726 57.973 29.725 57.973 29.724C57.973 29.722 57.973 29.72 57.973 29.718C57.973 29.717 57.973 29.716 57.973 29.716C57.973 29.714 57.973 29.712 57.973 29.71C57.973 29.709 57.973 29.709 57.973 29.708C57.973 29.695 57.972 29.682 57.972 29.669C57.972 29.667 57.972 29.664 57.972 29.662V29.661C57.972 29.659 57.972 29.656 57.972 29.654V29.653C57.972 29.651 57.972 29.648 57.972 29.646V29.645C57.972 29.643 57.972 29.64 57.972 29.638V29.637C57.972 29.635 57.972 29.632 57.972 29.63C57.972 29.63 57.972 29.63 57.972 29.629C57.969 29.546 57.966 29.464 57.961 29.382C58.017 28.855 57.577 28.445 57.05 28.445ZM96 22.435C96 17.253 77.719 12.979 54.084 12.345C51.247 8.454 48.736 4.706 48.35 1.15C48.291 0.601 48.17 0.227 48 0C47.83 0.227 47.709 0.601 47.65 1.15C47.265 4.706 44.753 8.455 41.916 12.345C18.281 12.979 0 17.253 0 22.435C0 22.476 0.009 22.516 0.011 22.557C0.01 22.576 0 22.593 0 22.612V33.646C0 33.665 0.01 33.681 0.011 33.699C-0.004 33.973 0.084 34.252 0.293 34.461L38.137 72.305V94.972C38.137 95.334 38.332 95.668 38.649 95.845C38.801 95.93 38.969 95.972 39.137 95.972C39.319 95.972 39.5 95.922 39.66 95.825L57.386 84.94C57.682 84.757 57.863 84.435 57.863 84.087V72.307L95.707 34.463C95.916 34.253 96.004 33.975 95.989 33.701C95.99 33.681 96 33.666 96 33.647V22.612C96 22.592 95.99 22.576 95.989 22.556C95.991 22.516 96 22.476 96 22.435ZM42.45 14.998C44.573 12.113 46.624 9.328 48 6.552C49.376 9.328 51.426 12.113 53.55 14.998C57.206 19.964 60.986 25.099 60.986 29.997C60.986 37.143 55.318 42.957 48.35 42.957C48.297 42.957 48.245 42.955 48.193 42.953L48.048 42.949L48 42.948L47.952 42.949L47.807 42.953C47.755 42.955 47.702 42.957 47.65 42.957C40.683 42.957 35.014 37.143 35.014 29.997C35.014 25.099 38.794 19.964 42.45 14.998ZM65.486 29.997C65.486 30.647 65.445 31.287 65.377 31.918C79.1 30.788 89.759 28.359 94 25.343V33.341L57.863 69.478L55.863 71.478V74.306V83.527L40.137 93.185V86.506L50.248 80.277C50.718 79.987 50.865 79.371 50.575 78.901C50.285 78.431 49.669 78.285 49.199 78.574L40.137 84.157V74.306V71.478L38.137 69.478L2 33.341V25.343C6.241 28.359 16.9 30.788 30.624 31.919C30.556 31.287 30.515 30.648 30.515 29.998C30.515 29.968 30.518 29.938 30.518 29.907C24.574 29.409 19.12 28.657 14.475 27.673C4.117 25.477 2 22.983 2 22.435C2 21.887 4.117 19.393 14.474 17.197C21.596 15.687 30.62 14.728 40.41 14.397C36.721 19.416 33.014 24.65 33.014 29.997C33.014 38.259 39.566 44.957 47.65 44.957C47.768 44.957 47.884 44.951 48 44.948C48.117 44.951 48.233 44.957 48.35 44.957C56.433 44.957 62.986 38.259 62.986 29.997C62.986 24.65 59.28 19.416 55.591 14.398C65.381 14.729 74.404 15.687 81.526 17.197C91.883 19.392 94 21.887 94 22.435C94 22.983 91.883 25.477 81.526 27.673C76.881 28.658 71.427 29.41 65.482 29.907C65.483 29.937 65.486 29.967 65.486 29.997Z" fill="#668EB1"/>
</svg>
