<svg width="90" height="34" viewBox="0 0 90 34" fill="none" xmlns="http://www.w3.org/2000/svg">
<path d="M34.1221 6.90264C35.338 6.90264 68.5289 6.90264 68.5289 6.90264C68.5289 6.90264 67.7163 5.49835 65.6274 3.68389C63.5381 1.86943 61.9642 1.26705 57.6772 0.549724C53.0275 -0.228871 37.364 -0.0236491 35.1031 0.219526C33.1964 0.424748 32.6909 0.995139 32.4687 1.32425C32.0517 1.93992 32.0652 2.56697 32.1713 3.4353C32.2489 4.07156 32.4073 4.75039 32.5501 5.34925C32.9068 6.84571 33.7108 6.90264 34.1221 6.90264Z" fill="#F34C35"/>
<path d="M71.2802 7.91052C71.9575 7.91052 74.6704 7.29919 75.2806 6.55258C75.8911 5.80517 74.806 4.99024 73.9923 4.58224C73.1783 4.17478 71.7998 3.42736 70.5904 4.03842C70.5904 4.03842 70.3983 4.03842 70.1948 4.99024C69.9913 5.94099 70.6018 7.91052 71.2802 7.91052Z" fill="#F34C35"/>
<path d="M16.426 10.2685C17.6232 10.7907 27.6915 6.98744 27.6915 6.98744C27.6915 6.98744 28.9209 6.63365 29.6562 4.94877C30.2117 3.67488 31.0057 1.96615 30.3839 1.24638C30.2578 1.10026 29.8821 0.72235 28.7583 1.13252C26.9476 1.79265 23.2257 3.2292 19.468 6.29695C16.9621 8.34266 15.2294 9.7464 16.426 10.2685Z" fill="#F34C35"/>
<path d="M14.4095 9.23845C14.439 9.63941 16.221 6.22573 21.2601 3.24365C21.9712 2.82263 19.4724 3.1794 17.1065 3.80645C15.8974 4.12689 13.3769 4.66285 13.1309 5.51573C12.9022 6.30923 13.5179 7.04581 13.7387 7.35269C13.9874 7.77208 14.3557 8.5035 14.4095 9.23845Z" fill="#F34C35"/>
<path d="M78.3153 30.5467C79.4895 30.3775 79.7918 28.7154 79.8805 28.514C81.0204 28.5004 81.2182 28.5164 81.6644 28.514C82.4879 28.5091 82.4078 26.9359 82.5314 23.7513C82.5877 22.2969 82.8129 20.5293 82.6502 17.3241C82.4573 13.5114 79.7623 9.7838 77.5833 9.73934C74.3409 9.67319 72.5833 10.5196 71.1996 13.9237C71.7438 13.9078 78.6541 13.9267 79.3025 14.5752C79.9495 15.2242 79.9495 16.9934 79.9495 16.9934C79.9495 16.9934 72.6717 16.802 70.4468 16.9495C70.0008 19.8464 69.7678 22.6626 65.3704 23.1858C58.4316 24.0113 51.6171 23.7166 49.3743 19.8898C48.9814 19.2191 48.402 18.2442 47.5052 17.1308C43.6885 17.0929 37.0385 17.229 36.6808 17.229C36.2096 17.229 35.9742 16.2267 35.8565 15.5189C35.6652 14.3683 36.2678 14.5348 44.4097 14.0653C42.4017 12.4623 39.6588 10.8609 35.8814 9.62114C26.7128 6.61357 24.4824 8.55952 23.1196 11.5674C22.0413 13.9476 21.9 16.4385 22.0518 19.3904C22.0789 19.918 22.0486 21.6273 22.0518 21.8086C19.999 21.6932 16.5165 21.9824 16.3327 18.1616C16.1471 14.2979 16.7668 13.0592 16.7668 12.8234C16.7668 12.5872 13.8545 12.5287 14.5364 10.8186C15.2178 9.10795 11.5199 11.0376 10.6954 11.6438C10.2069 11.8086 9.5504 12.3996 9.33229 13.3547C9.27113 13.6223 9.22513 14.2333 9.19644 15.0502C8.21277 15.7957 7.474 18.9339 7.474 22.6935C7.474 25.3717 7.8488 27.734 8.42033 29.141C8.58757 29.5534 9.05816 30.4068 9.47165 30.6543C3.80912 30.9073 0.449219 31.2231 0.449219 31.5641C0.449219 32.3986 20.495 33.0755 45.2226 33.0755C69.9505 33.0755 89.996 32.3986 89.996 31.5641C89.9952 31.1724 85.571 30.8153 78.3153 30.5467ZM25.4101 13.9709C26.3862 13.9709 27.1772 17.1178 27.1772 20.9994C27.1772 24.8813 26.3862 28.0285 25.4101 28.0285C24.4343 28.0285 23.643 24.8815 23.643 20.9994C23.643 17.1176 24.4343 13.9709 25.4101 13.9709ZM8.78755 22.6938C8.78755 19.356 9.46787 16.6507 10.307 16.6507C11.1459 16.6507 11.8262 19.356 11.8262 22.6938C11.8262 26.0313 11.1459 28.7368 10.307 28.7368C9.46787 28.7368 8.78755 26.0313 8.78755 22.6938ZM18.2495 28.0027C19.8988 28.0873 21.5688 28.1361 23.0344 28.1645C23.3708 29.1104 23.7764 29.8258 24.2251 30.2295C21.6681 30.2753 19.2591 30.3295 17.0274 30.3905C17.5069 30.0931 17.9326 29.2324 18.2495 28.0027ZM32.2582 30.1175C32.4736 29.863 32.6749 29.4908 32.8546 29.0215C37.0336 28.9933 57.3013 28.7686 70.3705 28.6213C70.7057 29.43 71.0981 30.0246 71.5254 30.3412C64.1402 30.1601 55.0523 30.0533 45.2221 30.0533C40.7139 30.0533 36.362 30.0758 32.2582 30.1175Z" fill="#F34C35"/>
</svg>
