<svg width="96" height="96" viewBox="0 0 96 96" fill="none" xmlns="http://www.w3.org/2000/svg">
<g clip-path="url(#clip0)">
<path d="M77.19 27.9881C71.93 27.9881 67.12 25.0041 64.755 20.3311H31.245C28.88 25.0031 24.069 27.9881 18.81 27.9881C15.262 27.9881 11.879 26.6461 9.284 24.2101C9.083 24.0211 8.969 23.7571 8.969 23.4811V20.3971C8.969 19.8451 9.417 19.3971 9.969 19.3971H18.173L21.776 14.0431L18.173 8.68912H9.968C9.416 8.68912 8.968 8.24112 8.968 7.68912V4.60612C8.968 4.33012 9.082 4.06612 9.283 3.87712C11.878 1.44112 15.261 0.0991211 18.809 0.0991211C24.068 0.0991211 28.879 3.08312 31.244 7.75512H64.755C67.119 3.08312 71.93 0.0991211 77.19 0.0991211C80.738 0.0991211 84.121 1.44112 86.715 3.87712C86.916 4.06612 87.03 4.33012 87.03 4.60612V7.69012C87.03 8.24212 86.583 8.69012 86.03 8.69012H77.826L74.223 14.0441L77.826 19.3981H86.03C86.583 19.3981 87.03 19.8461 87.03 20.3981V23.4821C87.03 23.7581 86.916 24.0221 86.715 24.2111C84.121 26.6461 80.738 27.9881 77.19 27.9881ZM30.614 18.3311H65.387C65.781 18.3311 66.138 18.5621 66.299 18.9221C68.225 23.2141 72.499 25.9881 77.191 25.9881C80.087 25.9881 82.854 24.9441 85.032 23.0381V21.3971H77.296C76.963 21.3971 76.652 21.2311 76.466 20.9551L72.191 14.6011C71.964 14.2641 71.964 13.8221 72.191 13.4851L76.466 7.13112C76.653 6.85512 76.963 6.68912 77.296 6.68912H85.032V5.04912C82.854 3.14412 80.087 2.09912 77.191 2.09912C72.5 2.09912 68.224 4.87212 66.299 9.16412C66.138 9.52312 65.78 9.75512 65.387 9.75512H30.614C30.22 9.75512 29.863 9.52412 29.701 9.16412C27.776 4.87212 23.501 2.09912 18.809 2.09912C15.913 2.09912 13.145 3.14312 10.968 5.04912V6.69012H18.704C19.037 6.69012 19.348 6.85612 19.534 7.13212L23.81 13.4861C24.037 13.8231 24.037 14.2651 23.81 14.6031L19.534 20.9571C19.348 21.2331 19.037 21.3981 18.704 21.3981H10.968V23.0391C13.146 24.9441 15.914 25.9891 18.809 25.9891C23.5 25.9891 27.775 23.2161 29.701 18.9231C29.863 18.5621 30.22 18.3311 30.614 18.3311ZM17.442 74.1581H25.669C28.258 74.1581 30.188 71.6501 29.397 69.1861C27.169 62.2491 20.516 59.2931 17.131 59.2931C12.95 59.2931 9.576 62.7451 9.702 66.9541C9.823 71.0221 13.372 74.1581 17.442 74.1581ZM13.231 62.9431C14.263 61.8791 15.648 61.2931 17.13 61.2931C19.791 61.2931 25.562 63.7881 27.492 69.7981C27.724 70.5221 27.425 71.0891 27.225 71.3621C26.856 71.8681 26.289 72.1581 25.668 72.1581H17.441C14.362 72.1581 11.786 69.7971 11.699 66.8941C11.656 65.4091 12.199 64.0061 13.231 62.9431ZM17.283 70.3041C19.331 70.3041 20.992 68.6431 20.992 66.5951C20.992 64.5471 19.332 62.8861 17.283 62.8861C15.235 62.8861 13.574 64.5471 13.574 66.5951C13.574 68.6431 15.235 70.3041 17.283 70.3041ZM17.283 64.8861C18.225 64.8861 18.992 65.6531 18.992 66.5951C18.992 67.5371 18.225 68.3041 17.283 68.3041C16.341 68.3041 15.574 67.5371 15.574 66.5951C15.574 65.6531 16.341 64.8861 17.283 64.8861ZM70.329 74.1581H78.556C82.626 74.1581 86.175 71.0221 86.297 66.9541C86.423 62.7451 83.049 59.2931 78.868 59.2931C75.483 59.2931 68.83 62.2491 66.602 69.1861C65.81 71.6511 67.74 74.1581 70.329 74.1581ZM68.505 69.7981C70.436 63.7881 76.207 61.2931 78.867 61.2931C80.349 61.2931 81.734 61.8791 82.766 62.9431C83.798 64.0061 84.342 65.4101 84.297 66.8951C84.21 69.7981 81.634 72.1591 78.555 72.1591H70.328C69.707 72.1591 69.14 71.8691 68.771 71.3631C68.573 71.0891 68.273 70.5221 68.505 69.7981ZM78.715 70.3041C80.763 70.3041 82.424 68.6431 82.424 66.5951C82.424 64.5471 80.763 62.8861 78.715 62.8861C76.667 62.8861 75.006 64.5471 75.006 66.5951C75.006 68.6431 76.666 70.3041 78.715 70.3041ZM78.715 64.8861C79.657 64.8861 80.424 65.6531 80.424 66.5951C80.424 67.5371 79.657 68.3041 78.715 68.3041C77.773 68.3041 77.006 67.5371 77.006 66.5951C77.006 65.6531 77.772 64.8861 78.715 64.8861ZM92.8 78.0211V65.9491C92.8 61.5921 90.547 57.7671 87.147 55.5561H91.359C93.922 55.5561 96 53.4781 96 50.9151C96 48.3521 93.922 46.2741 91.359 46.2741H88.029C85.797 46.2741 83.928 47.7471 83.286 49.7671L78.962 38.3411C77.752 35.1451 74.249 32.7321 69.456 32.7321H26.593C21.676 32.7321 18.296 35.1451 17.087 38.3411L12.736 49.8371C12.116 47.7811 10.229 46.2741 7.971 46.2741H4.641C2.078 46.2751 0 48.3531 0 50.9161C0 53.4791 2.078 55.5571 4.641 55.5571H8.853C5.453 57.7671 3.2 61.5921 3.2 65.9501V78.0221C1.367 78.4601 0 80.0991 0 82.0671C0 84.3701 1.867 86.2381 4.171 86.2381H7.2V89.5961C7.2 93.1321 10.068 96.0001 13.605 96.0001H20.428C23.965 96.0001 26.833 93.1321 26.833 89.5951V86.2371H69.166V89.5951C69.166 93.1321 72.034 96.0001 75.571 96.0001H82.394C85.931 96.0001 88.799 93.1321 88.799 89.5951V86.2371H91.828C94.131 86.2371 95.999 84.3701 95.999 82.0661C96 80.0991 94.633 78.4601 92.8 78.0211ZM24.833 89.5951C24.833 92.0241 22.857 94.0001 20.428 94.0001H13.605C11.176 94.0001 9.2 92.0241 9.2 89.5951V86.2571H24.833V89.5951ZM86.8 89.5951C86.8 92.0241 84.824 94.0001 82.395 94.0001H75.572C73.143 94.0001 71.167 92.0241 71.167 89.5951V86.2571H86.8V89.5951ZM85.03 51.2751C85.03 49.6211 86.376 48.2751 88.03 48.2751H91.36C92.816 48.2751 94.001 49.4601 94.001 50.9161C94.001 52.3721 92.816 53.5571 91.36 53.5571H85.03V51.2751ZM18.957 39.0501C19.965 36.3871 22.891 34.7331 26.593 34.7331H69.456C73.102 34.7331 76.099 36.4281 77.092 39.0501L82.583 53.5561H80.467C80.446 53.5561 80.426 53.5531 80.405 53.5531H74.563C74.291 48.7781 70.344 44.9871 65.501 44.9871C60.658 44.9871 56.711 48.7781 56.439 53.5531H15.596C15.575 53.5531 15.555 53.5561 15.534 53.5561H13.466L18.957 39.0501ZM62.42 53.5531C62.631 52.0341 63.924 50.8571 65.5 50.8571C67.076 50.8571 68.369 52.0341 68.58 53.5531H62.42ZM70.58 53.5531C70.36 50.9271 68.183 48.8571 65.5 48.8571C62.817 48.8571 60.641 50.9271 60.42 53.5531H58.431C58.699 49.8881 61.767 46.9871 65.5 46.9871C69.233 46.9871 72.3 49.8881 72.569 53.5531H70.58ZM2 50.9161C2 49.4601 3.185 48.2751 4.641 48.2751H7.971C9.625 48.2751 10.971 49.6211 10.971 51.2751V53.5571H4.641C3.185 53.5561 2 52.3721 2 50.9161ZM15.534 55.5561H56.412V55.5621H74.589V55.5561H80.466C86.169 55.5901 90.8 60.2381 90.8 65.9491V77.8961H5.2V65.9491C5.2 60.2381 9.831 55.5901 15.534 55.5561ZM91.829 84.2371H4.171C2.974 84.2371 2 83.2631 2 82.0671C2 80.8781 2.961 79.9121 4.147 79.8991H91.854C93.039 79.9111 94 80.8781 94 82.0671C94 83.2631 93.026 84.2371 91.829 84.2371ZM38.883 74.1581H57.165C60.196 74.1581 62.652 71.7011 62.652 68.6711C62.652 65.6401 60.195 63.1841 57.165 63.1841H38.883C35.852 63.1841 33.396 65.6411 33.396 68.6711C33.396 71.7011 35.853 74.1581 38.883 74.1581ZM38.883 65.1831H57.165C59.088 65.1831 60.652 66.7471 60.652 68.6701C60.652 70.5931 59.088 72.1571 57.165 72.1571H38.883C36.96 72.1571 35.396 70.5931 35.396 68.6701C35.396 66.7481 36.961 65.1831 38.883 65.1831ZM44.34 40.4731H51.71C52.262 40.4731 52.71 40.0251 52.71 39.4731C52.71 38.9211 52.262 38.4731 51.71 38.4731H44.34C43.788 38.4731 43.34 38.9211 43.34 39.4731C43.34 40.0251 43.787 40.4731 44.34 40.4731Z" fill="#668EB1"/>
</g>
<defs>
<clipPath id="clip0">
<rect width="96" height="96" fill="white"/>
</clipPath>
</defs>
</svg>
