<svg width="24" height="24" viewBox="0 0 24 24" fill="none" xmlns="http://www.w3.org/2000/svg">
<path d="M12 20C16.4183 20 20 16.4183 20 12C20 7.58172 16.4183 4 12 4C7.58172 4 4 7.58172 4 12C4 16.4183 7.58172 20 12 20Z" fill="#0088CC"/>
<path d="M11.7 14.378C11.316 14.75 10.938 15.119 10.559 15.488C10.428 15.616 10.281 15.688 10.09 15.678C9.96202 15.672 9.89002 15.616 9.84902 15.494C9.56202 14.6 9.26701 13.707 8.98001 12.81C8.96201 12.733 8.90102 12.672 8.82402 12.654C8.14602 12.448 7.46502 12.236 6.79002 12.02C6.68402 11.988 6.58302 11.942 6.49002 11.882C6.34902 11.788 6.33102 11.635 6.45602 11.523C6.57202 11.42 6.70902 11.333 6.85302 11.276C7.68402 10.948 8.51901 10.629 9.35301 10.307C11.469 9.491 13.584 8.673 15.7 7.857C16.103 7.701 16.413 7.919 16.369 8.357C16.341 8.635 16.269 8.91 16.213 9.185C15.754 11.354 15.295 13.526 14.831 15.695C14.721 16.211 14.359 16.345 13.937 16.033C13.227 15.511 12.519 14.986 11.809 14.461C11.774 14.431 11.738 14.404 11.7 14.378ZM10.106 15.038C10.116 15.035 10.122 15.035 10.131 15.032C10.134 15.01 10.141 14.991 10.144 14.973C10.191 14.483 10.238 13.989 10.278 13.498C10.283 13.397 10.33 13.302 10.406 13.236C11.059 12.652 11.712 12.061 12.362 11.474C13.084 10.824 13.806 10.174 14.524 9.521C14.568 9.48 14.586 9.411 14.618 9.355C14.549 9.349 14.477 9.321 14.415 9.337C14.331 9.359 14.253 9.409 14.177 9.455L9.40202 12.465C9.31202 12.521 9.29602 12.568 9.33002 12.668C9.44802 13.006 9.55501 13.346 9.66401 13.686C9.81301 14.134 9.95902 14.587 10.106 15.038Z" fill="white"/>
</svg>
