<svg width="24" height="24" viewBox="0 0 24 24" fill="none" xmlns="http://www.w3.org/2000/svg">
<path d="M7.79806 19.233C7.80406 18.732 7.81306 18.23 7.81706 17.729C7.81706 17.612 7.83306 17.627 7.71906 17.579C7.08706 17.33 6.49906 17.019 5.98006 16.582C5.43806 16.127 4.99806 15.567 4.68606 14.936C4.38606 14.323 4.21806 13.671 4.12406 12.998C4.08906 12.737 4.07106 12.473 4.07006 12.209C4.07006 11.961 4.03006 11.714 4.02506 11.464C4.02006 11.289 4.01406 11.109 4.02006 10.934C4.02506 10.574 3.99006 10.214 4.00406 9.85299C4.03406 9.03499 4.18306 8.23799 4.50906 7.47799C4.97406 6.39799 5.73406 5.58099 6.77206 5.00599C7.54406 4.58399 8.38606 4.29899 9.26006 4.16399C9.80106 4.07799 10.3481 4.02799 10.8961 4.01299C11.5491 3.99799 12.2031 3.99599 12.8561 4.00899C13.6961 4.01899 14.5261 4.09599 15.3411 4.29099C16.1131 4.46399 16.8501 4.76399 17.5201 5.17999C18.3241 5.67499 18.9691 6.38599 19.3781 7.22999C19.6391 7.75999 19.7981 8.31999 19.9011 8.89999C19.9741 9.32799 20.0041 9.75699 19.9991 10.19C19.9971 10.646 19.9821 11.102 19.9541 11.557C19.9351 11.87 19.9351 12.18 19.9201 12.493C19.8661 13.354 19.6881 14.186 19.3021 14.965C18.8281 15.918 18.1121 16.64 17.1731 17.16C16.3981 17.589 15.5681 17.857 14.6981 18.003C14.0161 18.115 13.3261 18.168 12.6331 18.168C12.2091 18.168 11.7841 18.163 11.3591 18.168C11.1421 18.168 10.9261 18.174 10.7071 18.149C10.6441 18.141 10.5821 18.167 10.5451 18.218C10.2041 18.607 9.86206 18.997 9.51706 19.386L8.24806 20.826C8.20506 20.876 8.15506 20.921 8.09906 20.957C7.96606 21.044 7.82706 20.997 7.79406 20.84C7.78306 20.806 7.78806 20.762 7.78806 20.728C7.78306 20.231 7.79406 19.729 7.79806 19.233Z" fill="#7D529E"/>
<path d="M16.1801 13.696C16.3531 13.92 16.3881 14.169 16.3131 14.431C16.2431 14.679 16.1181 14.909 15.9471 15.104C15.6561 15.454 15.3011 15.717 14.8611 15.858C14.7441 15.896 14.6231 15.92 14.5011 15.931C14.3431 15.945 14.1941 15.892 14.0461 15.849C13.9031 15.809 13.7691 15.742 13.6361 15.683C12.9691 15.391 12.3271 15.044 11.7191 14.646C10.8101 14.054 9.98907 13.34 9.28007 12.524C8.75107 11.911 8.28907 11.246 7.90107 10.538C7.65007 10.085 7.42907 9.61501 7.24107 9.13301C7.16507 8.91601 7.12507 8.68801 7.12207 8.45801C7.13707 7.86401 7.41307 7.41501 7.91207 7.09401C8.12007 6.95801 8.34807 6.85001 8.59407 6.80301C8.85007 6.74901 9.09707 6.78201 9.31507 6.94301C9.45807 7.04501 9.57607 7.17201 9.69507 7.29901C10.0901 7.72301 10.4271 8.19601 10.6971 8.70601C10.7421 8.79301 10.7811 8.88701 10.8111 8.98401C10.8951 9.26201 10.8301 9.50501 10.6431 9.71901C10.5731 9.79701 10.4951 9.86701 10.4111 9.92901C10.3301 9.98401 10.2521 10.044 10.1791 10.11C10.0051 10.271 9.95707 10.465 10.0121 10.69C10.0311 10.782 10.0651 10.87 10.1001 10.952C10.4181 11.653 10.9411 12.245 11.6011 12.651C11.8391 12.797 12.0761 12.933 12.3421 13.025C12.5901 13.112 12.7771 13.059 12.9391 12.855C13.0081 12.768 13.0671 12.676 13.1471 12.593C13.2951 12.438 13.4641 12.32 13.6751 12.272C13.9001 12.224 14.1341 12.252 14.3411 12.35C14.5441 12.432 14.7221 12.559 14.8991 12.68C15.2541 12.924 15.6011 13.181 15.9361 13.449C16.0261 13.521 16.1061 13.605 16.1801 13.696ZM16.6351 10.438C16.6291 9.51801 16.2841 8.67101 15.6911 7.92601C15.3841 7.54101 15.0131 7.22501 14.5991 6.95801C13.9121 6.51001 13.1021 6.28101 12.2781 6.30101C12.0561 6.30101 11.8931 6.41301 11.8741 6.69401C11.8641 6.85501 11.9431 6.96701 12.0961 7.02001C12.1451 7.03801 12.1971 7.05001 12.2491 7.05401C12.4721 7.07501 12.6931 7.11101 12.9111 7.16101C13.4151 7.27301 13.8991 7.43401 14.3341 7.71101C14.7031 7.94301 15.0131 8.25401 15.2431 8.62101C15.5541 9.11801 15.7111 9.66801 15.8111 10.237C15.8381 10.421 15.8571 10.607 15.8691 10.793C15.8841 10.943 15.9351 11.08 16.0921 11.143C16.3531 11.249 16.6011 11.103 16.6361 10.826C16.6491 10.716 16.6291 10.598 16.6351 10.438ZM14.5811 10.458C14.5901 10.53 14.5901 10.604 14.6101 10.672C14.6541 10.852 14.7831 10.94 14.9851 10.935C15.1781 10.929 15.3061 10.828 15.3401 10.648C15.3651 10.54 15.3501 10.434 15.3551 10.351C15.3491 10.054 15.3061 9.78701 15.2221 9.51901C15.1021 9.17401 14.9211 8.86701 14.6781 8.59001C14.3911 8.26801 14.0561 8.01001 13.6661 7.82601C13.3601 7.68301 13.0381 7.60001 12.7071 7.55101C12.5891 7.53201 12.4721 7.51201 12.3511 7.52701C12.2161 7.53301 12.0991 7.62001 12.0561 7.74601C11.9961 7.89201 11.9911 8.03301 12.1001 8.16301C12.1251 8.19701 12.1591 8.22401 12.1991 8.24101C12.2791 8.27901 12.3641 8.30301 12.4511 8.31401C12.7771 8.36501 13.0951 8.45501 13.3981 8.58201C13.8381 8.76701 14.1581 9.06301 14.3371 9.50201C14.4651 9.80901 14.5461 10.13 14.5811 10.458ZM12.9451 8.83801C12.7781 8.79301 12.6041 8.78401 12.4361 8.83201C12.2631 8.88101 12.1591 9.03201 12.1591 9.21601C12.1591 9.37101 12.2521 9.48401 12.4361 9.53801L12.5591 9.56701C12.6091 9.57701 12.6641 9.58601 12.7121 9.60101C12.9691 9.66901 13.1661 9.81501 13.2701 10.063C13.3201 10.174 13.3351 10.301 13.3541 10.423C13.3621 10.496 13.3871 10.566 13.4281 10.627C13.5031 10.749 13.6461 10.814 13.7881 10.789C13.9291 10.775 14.0471 10.679 14.0891 10.546C14.1241 10.452 14.1241 10.356 14.1241 10.259C14.1241 9.98501 14.0251 9.74201 13.8721 9.52901C13.6421 9.19801 13.3451 8.94901 12.9451 8.83801Z" fill="white"/>
</svg>
