<svg width="24" height="24" viewBox="0 0 24 24" fill="none" xmlns="http://www.w3.org/2000/svg">
<path d="M12.145 4C7.807 4 4.29 7.489 4.29 11.794C4.29 13.266 4.702 14.644 5.417 15.818L4 20L8.349 18.618C9.512 19.256 10.819 19.59 12.146 19.588C16.484 19.588 20.001 16.099 20.001 11.794C20.001 7.489 16.483 4 12.145 4Z" fill="#00DD69"/>
<path d="M16.331 13.498C16.113 13.39 15.041 12.866 14.841 12.795C14.641 12.723 14.495 12.686 14.35 12.903C14.205 13.12 13.787 13.606 13.66 13.751C13.533 13.895 13.405 13.914 13.187 13.805C12.969 13.697 12.266 13.468 11.433 12.731C10.785 12.157 10.347 11.449 10.22 11.232C10.093 11.015 10.206 10.899 10.316 10.791C10.414 10.694 10.534 10.538 10.643 10.412C10.753 10.286 10.789 10.195 10.861 10.051C10.934 9.90699 10.897 9.77999 10.842 9.67199C10.787 9.56399 10.351 8.49899 10.169 8.06499C9.98802 7.63199 9.79002 7.68599 9.66202 7.68599H9.26102C9.11502 7.68599 8.87902 7.73999 8.67902 7.95699C8.47902 8.17399 7.91602 8.69699 7.91602 9.76199C7.91602 10.827 8.69702 11.855 8.80602 12C8.91502 12.144 10.314 14.4 12.532 15.267C14.75 16.133 14.75 15.844 15.15 15.808C15.55 15.772 16.44 15.284 16.622 14.779C16.803 14.274 16.803 13.84 16.749 13.75C16.694 13.66 16.549 13.606 16.331 13.498Z" fill="white"/>
</svg>
