<svg xmlns="http://www.w3.org/2000/svg" width="24" height="24" viewBox="0 0 24 24" fill="none">
<path d="M14 1H10V0H9V1H7.51C7.279 1 7.044 1.116 6.984 1.261L6.023 3.611C5.937 3.823 6.098 4 6.387 4H17.612C17.901 4 18.063 3.823 17.976 3.611L17.015 1.262C16.956 1.116 16.721 1 16.49 1H15V0H14V1ZM16.237 2L16.646 3H7.354L7.763 2H9H10H14H15H16.237ZM4.5 17C3.672 17 3 17.672 3 18.5C3 19.328 3.672 20 4.5 20C5.328 20 6 19.328 6 18.5C6 17.672 5.328 17 4.5 17ZM4.5 19C4.224 19 4 18.776 4 18.5C4 18.224 4.224 18 4.5 18C4.776 18 5 18.224 5 18.5C5 18.776 4.776 19 4.5 19ZM19.5 17C18.672 17 18 17.672 18 18.5C18 19.328 18.672 20 19.5 20C20.328 20 21 19.328 21 18.5C21 17.672 20.328 17 19.5 17ZM19.5 19C19.224 19 19 18.776 19 18.5C19 18.224 19.224 18 19.5 18C19.776 18 20 18.224 20 18.5C20 18.776 19.776 19 19.5 19ZM8 17H16V18H8V17ZM8 19H16V20H8V19ZM6 5H7V6H6V5ZM5 8V7H6V8H5ZM10 6H9V5H10V6ZM9 7H10V8H9V7ZM15 6H14V5H15V6ZM19 8H18V7H19V8ZM14 7H15V8H14V7ZM18 6H17V5H18V6ZM15.092 14H14.05C14.282 12.859 15.29 12 16.5 12C17.71 12 18.718 12.859 18.95 14H17.908C17.701 13.419 17.151 13 16.5 13C15.849 13 15.299 13.419 15.092 14ZM23.5 13C23.224 13 23 13.224 23 13.5V14H22.61L21.213 9.61C21.105 9.27 20.679 9 20.26 9H3.962C3.542 9 3.116 9.27 3.008 9.61L1.611 14H1V13.5C1 13.224 0.776 13 0.5 13C0.224 13 0 13.224 0 13.5V14V15H1.293L1.264 15.091C1.241 15.163 1.247 15.228 1.242 15.296C0.506 15.697 0 16.469 0 17.366V21V22V23.345C0 23.707 0.293 24 0.655 24H3.346C3.707 24 4 23.707 4 23.345V22H20V23.345C20 23.707 20.293 24 20.655 24H23.346C23.707 24 24 23.707 24 23.345V22V21V17.366C24 16.566 23.601 15.863 22.994 15.434C23.006 15.328 22.996 15.212 22.958 15.091L22.928 15H24V14V13.5C24 13.224 23.776 13 23.5 13ZM3.931 10.008C3.942 10.004 3.954 10 3.962 10H20.259C20.267 10 20.279 10.004 20.29 10.008L21.879 15H21.634H2.366H2.342L3.931 10.008ZM3 23H1V22H3V23ZM23 23H21V22H23V23ZM23 17.366V21H20H4H1V17.366C1 16.613 1.613 16 2.366 16H21.633C22.387 16 23 16.613 23 17.366Z" fill="#668eb1"/>
</svg>