<svg width="158" height="157" viewBox="0 0 158 157" fill="none" xmlns="http://www.w3.org/2000/svg">
<g opacity="0.5">
<mask id="path-1-inside-1" fill="white">
<path d="M77.66 156.726L64.183 155.359L62.938 137.04C61.69 136.702 60.448 136.322 59.237 135.91L59.094 135.86C58.659 135.711 58.284 135.579 57.91 135.441L56.601 134.944C56.227 134.797 55.856 134.646 55.486 134.492L55.296 134.414C54.117 133.919 52.935 133.377 51.779 132.803L38.69 145.679L27.702 137.756L35.784 121.27C34.871 120.353 33.984 119.403 33.142 118.44L33.069 118.356C32.744 117.981 32.485 117.68 32.23 117.374L31.343 116.287C31.093 115.974 30.85 115.659 30.609 115.343L30.481 115.178C29.703 114.154 28.95 113.094 28.239 112.022L10.465 116.629L4.91 104.274L20.153 94.037C19.822 92.789 19.529 91.523 19.281 90.266L19.256 90.133C19.166 89.669 19.092 89.278 19.025 88.885L18.8 87.499C18.741 87.103 18.687 86.709 18.635 86.314L18.608 86.107C18.446 84.837 18.324 83.544 18.245 82.254L0.549011 77.357L1.91599 63.879L20.235 62.634C20.572 61.387 20.952 60.144 21.365 58.931L21.401 58.827C21.562 58.36 21.695 57.983 21.833 57.605L22.331 56.295C22.476 55.925 22.626 55.56 22.778 55.193L22.861 54.992C23.356 53.811 23.898 52.631 24.472 51.474L11.596 38.384L19.518 27.397L36.005 35.478C36.922 34.566 37.872 33.679 38.835 32.836L39.162 32.554C39.348 32.393 39.533 32.231 39.722 32.073L40.99 31.037C41.302 30.789 41.616 30.546 41.933 30.304L42.352 29.98C43.144 29.385 43.959 28.803 44.776 28.25C44.935 28.143 45.094 28.037 45.255 27.933L40.649 10.161L53 4.60399L63.237 19.847C64.489 19.515 65.755 19.221 67.008 18.974L67.137 18.949C67.606 18.859 67.996 18.786 68.389 18.718L70.01 18.456C70.26 18.419 70.517 18.386 70.773 18.352L71.162 18.3C72.435 18.139 73.73 18.017 75.019 17.937L79.916 0.23999L93.393 1.60799L94.638 19.926C95.886 20.264 97.129 20.644 98.34 21.056L98.453 21.096C98.914 21.255 99.29 21.387 99.665 21.525L100.977 22.023C101.347 22.168 101.716 22.319 102.084 22.472L102.284 22.555C103.457 23.046 104.638 23.587 105.797 24.163L118.886 11.287L129.874 19.21L121.792 35.696C122.702 36.611 123.589 37.561 124.434 38.526L124.506 38.61C124.83 38.983 125.089 39.286 125.345 39.592L126.232 40.679C126.482 40.992 126.725 41.307 126.966 41.623L127.092 41.785C127.869 42.807 128.622 43.868 129.336 44.944L147.11 40.337L152.665 52.692L137.424 62.928C137.474 63.113 137.523 63.297 137.57 63.483C137.814 64.438 138.037 65.415 138.235 66.383L138.318 66.821C138.41 67.298 138.484 67.688 138.552 68.082L138.777 69.47C138.836 69.862 138.89 70.255 138.942 70.649V70.651L138.233 70.742L138.952 70.729L138.97 70.864C139.131 72.13 139.253 73.423 139.333 74.712L157.029 79.609L155.662 93.087L137.342 94.332C137.006 95.576 136.626 96.819 136.213 98.034L136.176 98.139C136.014 98.608 135.882 98.983 135.745 99.358L135.299 100.543L134.582 100.408L135.248 100.669C135.102 101.041 134.951 101.409 134.798 101.777L134.717 101.972C134.22 103.157 133.679 104.337 133.106 105.49L145.982 118.58L138.06 129.568L121.573 121.486C120.654 122.4 119.704 123.287 118.744 124.127L118.45 124.381C118.253 124.552 118.057 124.723 117.857 124.892L116.59 125.927C116.277 126.177 115.959 126.422 115.64 126.666L115.08 126.196L115.527 126.755C114.468 127.56 113.403 128.317 112.325 129.032L116.931 146.805L104.576 152.36L94.34 137.12C93.098 137.449 91.832 137.742 90.569 137.992L90.42 138.021C89.972 138.107 89.58 138.18 89.187 138.249L87.567 138.511C87.319 138.548 87.065 138.581 86.81 138.614L86.413 138.667C85.141 138.828 83.847 138.95 82.558 139.03L77.66 156.726ZM65.527 154.058L76.604 155.181L81.453 137.659L81.967 137.632C83.391 137.556 84.826 137.427 86.232 137.248L86.627 137.196C86.872 137.164 87.117 137.133 87.362 137.095L88.941 136.84C89.328 136.773 89.711 136.7 90.093 136.627L90.286 136.591C91.69 136.313 93.092 135.982 94.459 135.606L94.955 135.469L105.092 150.563L115.246 145.999L110.685 128.399L111.116 128.119C112.313 127.339 113.491 126.51 114.618 125.652L115.151 126.144L114.709 125.582C115.084 125.294 115.394 125.055 115.7 124.81L116.938 123.799C117.132 123.636 117.323 123.47 117.514 123.304L117.805 123.051C118.867 122.123 119.915 121.136 120.922 120.117L121.283 119.752L137.608 127.755L144.119 118.724L131.369 105.763L131.602 105.304C132.246 104.038 132.851 102.731 133.402 101.419L133.444 101.316C133.628 100.871 133.776 100.51 133.918 100.148L134.404 98.868C134.538 98.502 134.667 98.135 134.794 97.766L134.83 97.663C135.319 96.229 135.734 94.85 136.093 93.473L136.223 92.975L154.363 91.744L155.487 80.667L137.964 75.817L137.937 75.303C137.861 73.879 137.732 72.445 137.553 71.039L137.526 70.835C137.476 70.449 137.423 70.065 137.365 69.682L137.146 68.328C137.079 67.943 137.007 67.56 136.934 67.179L136.836 66.669C136.644 65.723 136.426 64.77 136.188 63.837C136.109 63.526 136.024 63.219 135.94 62.91L135.777 62.315L150.87 52.178L146.305 42.024L128.705 46.586L128.424 46.154C127.646 44.96 126.817 43.781 125.959 42.653L125.837 42.495C125.598 42.182 125.359 41.875 125.117 41.57L124.251 40.508C124.001 40.208 123.748 39.913 123.492 39.619L123.421 39.537C122.425 38.398 121.438 37.349 120.424 36.349L120.058 35.988L128.06 19.662L119.029 13.151L106.068 25.901L105.61 25.669C104.335 25.021 103.028 24.415 101.725 23.869L101.604 23.819C101.176 23.641 100.816 23.494 100.454 23.352L99.172 22.865C98.807 22.731 98.44 22.603 98.073 22.476L97.97 22.44C96.54 21.952 95.16 21.537 93.779 21.175L93.281 21.045L92.049 2.90599L80.972 1.78198L76.123 19.304L75.609 19.331C74.185 19.407 72.75 19.537 71.343 19.715L70.955 19.767C70.707 19.799 70.46 19.83 70.213 19.868L68.63 20.123C68.247 20.189 67.865 20.263 67.484 20.336L67.289 20.372C65.898 20.648 64.496 20.978 63.116 21.357L62.62 21.493L52.483 6.39998L42.329 10.964L46.891 28.565L46.369 28.905C46.102 29.078 45.836 29.252 45.572 29.429C44.775 29.97 43.979 30.537 43.208 31.117L42.958 31.31L42.42 30.823L42.863 31.384C42.488 31.672 42.18 31.909 41.876 32.153L40.64 33.163C40.454 33.319 40.275 33.475 40.095 33.632L39.767 33.915C38.706 34.843 37.658 35.831 36.654 36.847L36.293 37.212L19.968 29.21L13.457 38.24L26.207 51.201L25.974 51.66C25.328 52.931 24.723 54.237 24.175 55.543L24.093 55.742C23.946 56.096 23.8 56.454 23.658 56.814L23.172 58.094C23.037 58.462 22.907 58.831 22.78 59.201L22.744 59.303C22.257 60.73 21.842 62.11 21.481 63.49L21.351 63.988L3.21201 65.219L2.08801 76.296L19.611 81.146L19.638 81.66C19.714 83.085 19.843 84.519 20.022 85.926L20.049 86.13C20.099 86.51 20.152 86.897 20.21 87.282L20.429 88.636C20.496 89.019 20.568 89.401 20.641 89.782L20.68 89.981C20.955 91.375 21.286 92.776 21.663 94.15L21.799 94.646L6.70599 104.783L11.271 114.937L28.871 110.375L29.151 110.807C29.924 111.995 30.754 113.174 31.616 114.308L31.706 114.424C31.977 114.779 32.216 115.086 32.458 115.391L33.325 116.453C33.575 116.753 33.828 117.048 34.083 117.341L34.154 117.423C35.147 118.56 36.134 119.609 37.151 120.613L37.517 120.975L29.515 137.299L38.546 143.81L51.507 131.06L51.965 131.292C53.236 131.938 54.544 132.544 55.851 133.093L55.963 133.139C56.396 133.319 56.758 133.467 57.123 133.611L58.401 134.096C58.766 134.23 59.131 134.358 59.496 134.483L59.691 134.552C61.035 135.009 62.414 135.424 63.795 135.785L64.293 135.915L65.527 154.058ZM78.687 128.136C77.461 128.136 76.238 128.09 75.016 127.999L74.769 127.979C74.513 127.958 74.255 127.931 73.997 127.904L73.468 127.85C73.241 127.828 73.015 127.806 72.789 127.779L72.54 127.747C64.771 126.75 57.239 123.891 50.763 119.478L50.564 119.343C50.343 119.19 50.131 119.035 49.919 118.881L49.477 118.563C49.298 118.435 49.119 118.307 48.943 118.174L48.752 118.029C42.515 113.275 37.422 107.032 34.018 99.972L33.914 99.756C33.796 99.505 33.685 99.257 33.575 99.008L33.36 98.529C33.27 98.331 33.18 98.133 33.095 97.934L33.001 97.708C29.976 90.472 28.687 82.516 29.271 74.698L29.288 74.473C29.311 74.194 29.34 73.919 29.37 73.644L29.418 73.166C29.44 72.934 29.463 72.702 29.491 72.471L29.51 72.324C30.517 64.467 33.379 56.928 37.797 50.446L37.928 50.254C38.056 50.069 38.186 49.891 38.316 49.712L38.616 49.296C38.776 49.072 38.935 48.848 39.101 48.628L39.206 48.489C43.996 42.204 50.241 37.11 57.303 33.708L57.515 33.605C57.738 33.5 57.96 33.401 58.182 33.302L58.651 33.091C58.88 32.987 59.11 32.882 59.341 32.783L59.561 32.691C66.791 29.668 74.749 28.377 82.563 28.962L82.807 28.982C83.045 29.002 83.286 29.027 83.528 29.052L84.064 29.107C84.306 29.13 84.547 29.154 84.789 29.182L85.027 29.213C92.803 30.211 100.337 33.071 106.815 37.485L107.017 37.624C107.222 37.766 107.428 37.915 107.633 38.064L107.985 38.318C108.203 38.473 108.421 38.629 108.635 38.789L108.788 38.905C115.062 43.688 120.156 49.932 123.558 56.993L123.663 57.214C123.76 57.418 123.852 57.627 123.946 57.837L124.16 58.314C124.269 58.553 124.378 58.793 124.481 59.035L124.538 59.169C127.595 66.484 128.885 74.436 128.303 82.249L128.283 82.505C128.264 82.733 128.241 82.956 128.217 83.18L128.162 83.724C128.138 83.976 128.113 84.228 128.083 84.479L128.056 84.692C127.052 92.504 124.193 100.032 119.783 106.504L119.645 106.706C119.492 106.927 119.334 107.144 119.176 107.36L118.872 107.782C118.743 107.963 118.613 108.144 118.479 108.323L118.333 108.514C113.578 114.752 107.335 119.846 100.276 123.247L100.054 123.353C99.816 123.465 99.576 123.572 99.336 123.679L98.825 123.908C98.63 123.996 98.435 124.085 98.237 124.169L98.079 124.236C91.924 126.816 85.3 128.136 78.687 128.136ZM78.882 30.258C72.464 30.258 66.039 31.537 60.112 34.015L59.905 34.102C59.683 34.197 59.464 34.296 59.245 34.397L58.764 34.613C58.551 34.708 58.338 34.802 58.127 34.901L57.921 35.001C51.064 38.305 44.998 43.253 40.381 49.311L40.247 49.488C40.086 49.702 39.934 49.917 39.781 50.131L39.472 50.559C39.348 50.729 39.225 50.898 39.105 51.071L38.978 51.259C34.687 57.554 31.908 64.877 30.939 72.435L30.912 72.648C30.885 72.869 30.864 73.089 30.843 73.311L30.793 73.802C30.765 74.067 30.736 74.33 30.714 74.596L30.698 74.81C30.13 82.406 31.383 90.133 34.321 97.162L34.413 97.382C34.493 97.568 34.578 97.755 34.663 97.943L34.884 98.434C34.99 98.673 35.096 98.913 35.208 99.149L35.309 99.359C38.615 106.215 43.562 112.279 49.616 116.894L49.739 116.987C49.97 117.162 50.14 117.283 50.31 117.404L50.763 117.73C50.967 117.878 51.17 118.027 51.377 118.17L51.568 118.3C57.86 122.587 65.177 125.364 72.729 126.334L72.963 126.363C73.177 126.389 73.393 126.41 73.609 126.431L74.15 126.486C74.397 126.512 74.644 126.539 74.891 126.558L75.123 126.577C82.717 127.144 90.44 125.889 97.464 122.955L97.676 122.865C97.869 122.783 98.054 122.699 98.239 122.615L98.76 122.381C98.99 122.278 99.22 122.176 99.449 122.069L99.663 121.966C106.517 118.662 112.581 113.715 117.197 107.659L117.34 107.471C117.466 107.303 117.59 107.13 117.713 106.958L118.024 106.526C118.175 106.318 118.327 106.109 118.475 105.897L118.607 105.704C122.889 99.418 125.666 92.104 126.637 84.558L126.668 84.313C126.697 84.075 126.72 83.834 126.743 83.593L126.799 83.036C126.822 82.822 126.844 82.608 126.862 82.393L126.881 82.145C127.446 74.559 126.193 66.835 123.258 59.812L123.171 59.605C123.071 59.371 122.967 59.142 122.862 58.914L122.642 58.425C122.554 58.226 122.465 58.027 122.371 57.829L122.306 57.692C118.967 50.762 114.019 44.697 107.962 40.08L107.78 39.941C107.574 39.787 107.366 39.638 107.158 39.49L106.794 39.228C106.598 39.084 106.402 38.942 106.203 38.804L106.008 38.67C99.721 34.386 92.403 31.608 84.851 30.638L84.62 30.608C84.394 30.582 84.162 30.559 83.931 30.537L83.381 30.481C83.151 30.457 82.922 30.432 82.691 30.414L82.451 30.394C81.264 30.303 80.072 30.258 78.882 30.258Z"/>
</mask>
<path d="M77.66 156.726L64.183 155.359L62.938 137.04C61.69 136.702 60.448 136.322 59.237 135.91L59.094 135.86C58.659 135.711 58.284 135.579 57.91 135.441L56.601 134.944C56.227 134.797 55.856 134.646 55.486 134.492L55.296 134.414C54.117 133.919 52.935 133.377 51.779 132.803L38.69 145.679L27.702 137.756L35.784 121.27C34.871 120.353 33.984 119.403 33.142 118.44L33.069 118.356C32.744 117.981 32.485 117.68 32.23 117.374L31.343 116.287C31.093 115.974 30.85 115.659 30.609 115.343L30.481 115.178C29.703 114.154 28.95 113.094 28.239 112.022L10.465 116.629L4.91 104.274L20.153 94.037C19.822 92.789 19.529 91.523 19.281 90.266L19.256 90.133C19.166 89.669 19.092 89.278 19.025 88.885L18.8 87.499C18.741 87.103 18.687 86.709 18.635 86.314L18.608 86.107C18.446 84.837 18.324 83.544 18.245 82.254L0.549011 77.357L1.91599 63.879L20.235 62.634C20.572 61.387 20.952 60.144 21.365 58.931L21.401 58.827C21.562 58.36 21.695 57.983 21.833 57.605L22.331 56.295C22.476 55.925 22.626 55.56 22.778 55.193L22.861 54.992C23.356 53.811 23.898 52.631 24.472 51.474L11.596 38.384L19.518 27.397L36.005 35.478C36.922 34.566 37.872 33.679 38.835 32.836L39.162 32.554C39.348 32.393 39.533 32.231 39.722 32.073L40.99 31.037C41.302 30.789 41.616 30.546 41.933 30.304L42.352 29.98C43.144 29.385 43.959 28.803 44.776 28.25C44.935 28.143 45.094 28.037 45.255 27.933L40.649 10.161L53 4.60399L63.237 19.847C64.489 19.515 65.755 19.221 67.008 18.974L67.137 18.949C67.606 18.859 67.996 18.786 68.389 18.718L70.01 18.456C70.26 18.419 70.517 18.386 70.773 18.352L71.162 18.3C72.435 18.139 73.73 18.017 75.019 17.937L79.916 0.23999L93.393 1.60799L94.638 19.926C95.886 20.264 97.129 20.644 98.34 21.056L98.453 21.096C98.914 21.255 99.29 21.387 99.665 21.525L100.977 22.023C101.347 22.168 101.716 22.319 102.084 22.472L102.284 22.555C103.457 23.046 104.638 23.587 105.797 24.163L118.886 11.287L129.874 19.21L121.792 35.696C122.702 36.611 123.589 37.561 124.434 38.526L124.506 38.61C124.83 38.983 125.089 39.286 125.345 39.592L126.232 40.679C126.482 40.992 126.725 41.307 126.966 41.623L127.092 41.785C127.869 42.807 128.622 43.868 129.336 44.944L147.11 40.337L152.665 52.692L137.424 62.928C137.474 63.113 137.523 63.297 137.57 63.483C137.814 64.438 138.037 65.415 138.235 66.383L138.318 66.821C138.41 67.298 138.484 67.688 138.552 68.082L138.777 69.47C138.836 69.862 138.89 70.255 138.942 70.649V70.651L138.233 70.742L138.952 70.729L138.97 70.864C139.131 72.13 139.253 73.423 139.333 74.712L157.029 79.609L155.662 93.087L137.342 94.332C137.006 95.576 136.626 96.819 136.213 98.034L136.176 98.139C136.014 98.608 135.882 98.983 135.745 99.358L135.299 100.543L134.582 100.408L135.248 100.669C135.102 101.041 134.951 101.409 134.798 101.777L134.717 101.972C134.22 103.157 133.679 104.337 133.106 105.49L145.982 118.58L138.06 129.568L121.573 121.486C120.654 122.4 119.704 123.287 118.744 124.127L118.45 124.381C118.253 124.552 118.057 124.723 117.857 124.892L116.59 125.927C116.277 126.177 115.959 126.422 115.64 126.666L115.08 126.196L115.527 126.755C114.468 127.56 113.403 128.317 112.325 129.032L116.931 146.805L104.576 152.36L94.34 137.12C93.098 137.449 91.832 137.742 90.569 137.992L90.42 138.021C89.972 138.107 89.58 138.18 89.187 138.249L87.567 138.511C87.319 138.548 87.065 138.581 86.81 138.614L86.413 138.667C85.141 138.828 83.847 138.95 82.558 139.03L77.66 156.726ZM65.527 154.058L76.604 155.181L81.453 137.659L81.967 137.632C83.391 137.556 84.826 137.427 86.232 137.248L86.627 137.196C86.872 137.164 87.117 137.133 87.362 137.095L88.941 136.84C89.328 136.773 89.711 136.7 90.093 136.627L90.286 136.591C91.69 136.313 93.092 135.982 94.459 135.606L94.955 135.469L105.092 150.563L115.246 145.999L110.685 128.399L111.116 128.119C112.313 127.339 113.491 126.51 114.618 125.652L115.151 126.144L114.709 125.582C115.084 125.294 115.394 125.055 115.7 124.81L116.938 123.799C117.132 123.636 117.323 123.47 117.514 123.304L117.805 123.051C118.867 122.123 119.915 121.136 120.922 120.117L121.283 119.752L137.608 127.755L144.119 118.724L131.369 105.763L131.602 105.304C132.246 104.038 132.851 102.731 133.402 101.419L133.444 101.316C133.628 100.871 133.776 100.51 133.918 100.148L134.404 98.868C134.538 98.502 134.667 98.135 134.794 97.766L134.83 97.663C135.319 96.229 135.734 94.85 136.093 93.473L136.223 92.975L154.363 91.744L155.487 80.667L137.964 75.817L137.937 75.303C137.861 73.879 137.732 72.445 137.553 71.039L137.526 70.835C137.476 70.449 137.423 70.065 137.365 69.682L137.146 68.328C137.079 67.943 137.007 67.56 136.934 67.179L136.836 66.669C136.644 65.723 136.426 64.77 136.188 63.837C136.109 63.526 136.024 63.219 135.94 62.91L135.777 62.315L150.87 52.178L146.305 42.024L128.705 46.586L128.424 46.154C127.646 44.96 126.817 43.781 125.959 42.653L125.837 42.495C125.598 42.182 125.359 41.875 125.117 41.57L124.251 40.508C124.001 40.208 123.748 39.913 123.492 39.619L123.421 39.537C122.425 38.398 121.438 37.349 120.424 36.349L120.058 35.988L128.06 19.662L119.029 13.151L106.068 25.901L105.61 25.669C104.335 25.021 103.028 24.415 101.725 23.869L101.604 23.819C101.176 23.641 100.816 23.494 100.454 23.352L99.172 22.865C98.807 22.731 98.44 22.603 98.073 22.476L97.97 22.44C96.54 21.952 95.16 21.537 93.779 21.175L93.281 21.045L92.049 2.90599L80.972 1.78198L76.123 19.304L75.609 19.331C74.185 19.407 72.75 19.537 71.343 19.715L70.955 19.767C70.707 19.799 70.46 19.83 70.213 19.868L68.63 20.123C68.247 20.189 67.865 20.263 67.484 20.336L67.289 20.372C65.898 20.648 64.496 20.978 63.116 21.357L62.62 21.493L52.483 6.39998L42.329 10.964L46.891 28.565L46.369 28.905C46.102 29.078 45.836 29.252 45.572 29.429C44.775 29.97 43.979 30.537 43.208 31.117L42.958 31.31L42.42 30.823L42.863 31.384C42.488 31.672 42.18 31.909 41.876 32.153L40.64 33.163C40.454 33.319 40.275 33.475 40.095 33.632L39.767 33.915C38.706 34.843 37.658 35.831 36.654 36.847L36.293 37.212L19.968 29.21L13.457 38.24L26.207 51.201L25.974 51.66C25.328 52.931 24.723 54.237 24.175 55.543L24.093 55.742C23.946 56.096 23.8 56.454 23.658 56.814L23.172 58.094C23.037 58.462 22.907 58.831 22.78 59.201L22.744 59.303C22.257 60.73 21.842 62.11 21.481 63.49L21.351 63.988L3.21201 65.219L2.08801 76.296L19.611 81.146L19.638 81.66C19.714 83.085 19.843 84.519 20.022 85.926L20.049 86.13C20.099 86.51 20.152 86.897 20.21 87.282L20.429 88.636C20.496 89.019 20.568 89.401 20.641 89.782L20.68 89.981C20.955 91.375 21.286 92.776 21.663 94.15L21.799 94.646L6.70599 104.783L11.271 114.937L28.871 110.375L29.151 110.807C29.924 111.995 30.754 113.174 31.616 114.308L31.706 114.424C31.977 114.779 32.216 115.086 32.458 115.391L33.325 116.453C33.575 116.753 33.828 117.048 34.083 117.341L34.154 117.423C35.147 118.56 36.134 119.609 37.151 120.613L37.517 120.975L29.515 137.299L38.546 143.81L51.507 131.06L51.965 131.292C53.236 131.938 54.544 132.544 55.851 133.093L55.963 133.139C56.396 133.319 56.758 133.467 57.123 133.611L58.401 134.096C58.766 134.23 59.131 134.358 59.496 134.483L59.691 134.552C61.035 135.009 62.414 135.424 63.795 135.785L64.293 135.915L65.527 154.058ZM78.687 128.136C77.461 128.136 76.238 128.09 75.016 127.999L74.769 127.979C74.513 127.958 74.255 127.931 73.997 127.904L73.468 127.85C73.241 127.828 73.015 127.806 72.789 127.779L72.54 127.747C64.771 126.75 57.239 123.891 50.763 119.478L50.564 119.343C50.343 119.19 50.131 119.035 49.919 118.881L49.477 118.563C49.298 118.435 49.119 118.307 48.943 118.174L48.752 118.029C42.515 113.275 37.422 107.032 34.018 99.972L33.914 99.756C33.796 99.505 33.685 99.257 33.575 99.008L33.36 98.529C33.27 98.331 33.18 98.133 33.095 97.934L33.001 97.708C29.976 90.472 28.687 82.516 29.271 74.698L29.288 74.473C29.311 74.194 29.34 73.919 29.37 73.644L29.418 73.166C29.44 72.934 29.463 72.702 29.491 72.471L29.51 72.324C30.517 64.467 33.379 56.928 37.797 50.446L37.928 50.254C38.056 50.069 38.186 49.891 38.316 49.712L38.616 49.296C38.776 49.072 38.935 48.848 39.101 48.628L39.206 48.489C43.996 42.204 50.241 37.11 57.303 33.708L57.515 33.605C57.738 33.5 57.96 33.401 58.182 33.302L58.651 33.091C58.88 32.987 59.11 32.882 59.341 32.783L59.561 32.691C66.791 29.668 74.749 28.377 82.563 28.962L82.807 28.982C83.045 29.002 83.286 29.027 83.528 29.052L84.064 29.107C84.306 29.13 84.547 29.154 84.789 29.182L85.027 29.213C92.803 30.211 100.337 33.071 106.815 37.485L107.017 37.624C107.222 37.766 107.428 37.915 107.633 38.064L107.985 38.318C108.203 38.473 108.421 38.629 108.635 38.789L108.788 38.905C115.062 43.688 120.156 49.932 123.558 56.993L123.663 57.214C123.76 57.418 123.852 57.627 123.946 57.837L124.16 58.314C124.269 58.553 124.378 58.793 124.481 59.035L124.538 59.169C127.595 66.484 128.885 74.436 128.303 82.249L128.283 82.505C128.264 82.733 128.241 82.956 128.217 83.18L128.162 83.724C128.138 83.976 128.113 84.228 128.083 84.479L128.056 84.692C127.052 92.504 124.193 100.032 119.783 106.504L119.645 106.706C119.492 106.927 119.334 107.144 119.176 107.36L118.872 107.782C118.743 107.963 118.613 108.144 118.479 108.323L118.333 108.514C113.578 114.752 107.335 119.846 100.276 123.247L100.054 123.353C99.816 123.465 99.576 123.572 99.336 123.679L98.825 123.908C98.63 123.996 98.435 124.085 98.237 124.169L98.079 124.236C91.924 126.816 85.3 128.136 78.687 128.136ZM78.882 30.258C72.464 30.258 66.039 31.537 60.112 34.015L59.905 34.102C59.683 34.197 59.464 34.296 59.245 34.397L58.764 34.613C58.551 34.708 58.338 34.802 58.127 34.901L57.921 35.001C51.064 38.305 44.998 43.253 40.381 49.311L40.247 49.488C40.086 49.702 39.934 49.917 39.781 50.131L39.472 50.559C39.348 50.729 39.225 50.898 39.105 51.071L38.978 51.259C34.687 57.554 31.908 64.877 30.939 72.435L30.912 72.648C30.885 72.869 30.864 73.089 30.843 73.311L30.793 73.802C30.765 74.067 30.736 74.33 30.714 74.596L30.698 74.81C30.13 82.406 31.383 90.133 34.321 97.162L34.413 97.382C34.493 97.568 34.578 97.755 34.663 97.943L34.884 98.434C34.99 98.673 35.096 98.913 35.208 99.149L35.309 99.359C38.615 106.215 43.562 112.279 49.616 116.894L49.739 116.987C49.97 117.162 50.14 117.283 50.31 117.404L50.763 117.73C50.967 117.878 51.17 118.027 51.377 118.17L51.568 118.3C57.86 122.587 65.177 125.364 72.729 126.334L72.963 126.363C73.177 126.389 73.393 126.41 73.609 126.431L74.15 126.486C74.397 126.512 74.644 126.539 74.891 126.558L75.123 126.577C82.717 127.144 90.44 125.889 97.464 122.955L97.676 122.865C97.869 122.783 98.054 122.699 98.239 122.615L98.76 122.381C98.99 122.278 99.22 122.176 99.449 122.069L99.663 121.966C106.517 118.662 112.581 113.715 117.197 107.659L117.34 107.471C117.466 107.303 117.59 107.13 117.713 106.958L118.024 106.526C118.175 106.318 118.327 106.109 118.475 105.897L118.607 105.704C122.889 99.418 125.666 92.104 126.637 84.558L126.668 84.313C126.697 84.075 126.72 83.834 126.743 83.593L126.799 83.036C126.822 82.822 126.844 82.608 126.862 82.393L126.881 82.145C127.446 74.559 126.193 66.835 123.258 59.812L123.171 59.605C123.071 59.371 122.967 59.142 122.862 58.914L122.642 58.425C122.554 58.226 122.465 58.027 122.371 57.829L122.306 57.692C118.967 50.762 114.019 44.697 107.962 40.08L107.78 39.941C107.574 39.787 107.366 39.638 107.158 39.49L106.794 39.228C106.598 39.084 106.402 38.942 106.203 38.804L106.008 38.67C99.721 34.386 92.403 31.608 84.851 30.638L84.62 30.608C84.394 30.582 84.162 30.559 83.931 30.537L83.381 30.481C83.151 30.457 82.922 30.432 82.691 30.414L82.451 30.394C81.264 30.303 80.072 30.258 78.882 30.258Z" fill="#F9FFFF" stroke="#B4D0E5" stroke-width="2" mask="url(#path-1-inside-1)"/>
</g>
<path opacity="0.5" d="M40.7664 64.0464L40.7664 64.0464C36.9095 74.2035 37.2384 85.2518 41.694 95.1598L41.238 95.3649L41.694 95.1599C46.1496 105.069 54.1945 112.649 64.3514 116.505C69.0471 118.288 73.931 119.176 78.805 119.176C84.4759 119.176 90.1351 117.974 95.466 115.578M40.7664 64.0464L95.671 116.034M40.7664 64.0464C44.6224 53.8894 52.202 45.8436 62.111 41.388M40.7664 64.0464L62.111 41.388M95.466 115.578L95.671 116.034M95.466 115.578C95.466 115.578 95.4659 115.578 95.4659 115.578L95.671 116.034M95.466 115.578C105.375 111.122 112.955 103.076 116.811 92.9194L117.278 93.0969C113.375 103.378 105.701 111.524 95.671 116.034M62.287 41.7809C52.484 46.1883 44.9826 54.1505 41.1675 64.1985L41.1675 64.1985C37.3525 74.2474 37.6786 85.182 42.086 94.984C46.4933 104.787 54.4555 112.288 64.5035 116.103L64.681 115.636L64.5035 116.103C74.5515 119.917 85.486 119.592 95.289 115.185C105.092 110.778 112.593 102.815 116.408 92.7674L115.941 92.5899L116.408 92.7674C120.223 82.7184 119.897 71.7838 115.49 61.9819C111.083 52.179 103.12 44.6776 93.0724 40.8625L92.895 41.3299L93.0724 40.8625C88.4302 39.1001 83.5961 38.2199 78.772 38.2199C73.1579 38.2199 67.5591 39.4101 62.287 41.7809ZM62.287 41.7809L62.492 42.2369L62.287 41.7809ZM47.398 92.5959L47.398 92.596C49.1932 96.5904 53.135 98.9629 57.258 98.9629C58.7334 98.9629 60.2334 98.6575 61.6669 98.0149L47.398 92.5959ZM47.398 92.5959C44.9583 87.1698 47.3888 80.7687 52.8161 78.3279M47.398 92.5959L52.8161 78.3279M64.675 47.0919L64.6749 47.092C62.045 48.2736 60.0344 50.4082 59.0105 53.1033C57.9875 55.7994 58.0744 58.7299 59.257 61.3599C60.4396 63.9898 62.5733 66.0004 65.2691 67.0244L64.675 47.0919ZM64.675 47.0919C67.3047 45.9095 70.2342 45.8243 72.9307 46.8455M64.675 47.0919L72.9307 46.8455M62.111 41.388C72.02 36.9324 83.0674 36.6044 93.2256 40.4604L62.111 41.388ZM52.8161 78.3279C55.445 77.1464 58.3763 77.0594 61.0715 78.0813M52.8161 78.3279L61.0715 78.0813M61.0715 78.0813C63.7675 79.1053 65.9013 81.1159 67.084 83.746M61.0715 78.0813L67.084 83.746M67.084 83.746C69.5236 89.1729 67.0933 95.5737 61.6675 98.0147L67.084 83.746ZM72.9307 46.8455C75.6266 47.8694 77.7603 49.88 78.9429 52.51C81.3827 57.936 78.9522 64.337 73.526 66.7778L72.9307 46.8455ZM78.633 104.456L78.177 104.661L78.633 104.456C76.1933 99.0288 78.6238 92.6287 84.0511 90.1879C86.681 89.0064 89.6114 88.9194 92.3065 89.9413C95.0025 90.9653 97.1363 92.9759 98.319 95.606C100.759 101.033 98.3281 107.434 92.9009 109.875C91.4687 110.518 89.9698 110.823 88.493 110.823C84.37 110.823 80.4282 108.45 78.633 104.456ZM84.2271 90.5808L84.227 90.5809C79.0161 92.9231 76.6817 99.0681 79.0249 104.28C81.367 109.49 87.5128 111.828 92.725 109.482C97.9358 107.14 100.27 100.994 97.927 95.7819L97.9269 95.7817C96.7916 93.259 94.7405 91.3256 92.1545 90.3435L92.1541 90.3433C90.9601 89.8911 89.7151 89.6639 88.473 89.6639C87.0258 89.6639 85.584 89.9711 84.2271 90.5808ZM52.9911 78.7198L52.991 78.7199C47.7802 81.0621 45.4457 87.208 47.789 92.419C50.1321 97.6296 56.278 99.9664 61.4902 97.6209C66.701 95.2786 69.0341 89.1327 66.692 83.921L66.6919 83.9207C65.5566 81.398 63.5056 79.4646 60.9195 78.4825L60.9189 78.4823C59.7241 78.0302 58.4792 77.8029 57.237 77.8029C55.7898 77.8029 54.348 78.1101 52.9911 78.7198ZM81.5389 77.2479L81.539 77.248C82.2205 78.7637 81.5415 80.5523 80.0259 81.2344C79.6236 81.4136 79.2051 81.4989 78.793 81.4989C77.6401 81.4989 76.5394 80.8355 76.0382 79.7203C75.358 78.2039 76.0369 76.4149 77.5517 75.7331C79.0673 75.0529 80.8573 75.7311 81.5389 77.2479ZM76.4298 79.5437L76.4299 79.5439C77.0148 80.8451 78.549 81.43 79.85 80.8415C81.1499 80.256 81.7322 78.7237 81.147 77.423C80.5634 76.1242 79.031 75.5371 77.728 76.1249C76.4279 76.7092 75.8459 78.2432 76.4298 79.5437ZM104.76 78.6379L104.76 78.6379C103.346 79.2741 101.845 79.5929 100.341 79.5929C99.0483 79.5929 97.7534 79.3572 96.5055 78.8845C93.8095 77.8606 91.6756 75.85 90.493 73.2199C88.0533 67.7928 90.4838 61.3918 95.9099 58.951C101.337 56.5122 107.737 58.9427 110.178 64.3699C112.618 69.797 110.187 76.1971 104.76 78.6379ZM90.885 73.044L90.885 73.0441C92.0204 75.5668 94.0714 77.5002 96.6575 78.4823L96.6576 78.4824C99.2455 79.4644 102.062 79.3804 104.585 78.2449C109.796 75.9026 112.13 69.7577 109.787 64.5459C108.062 60.7094 104.275 58.4329 100.321 58.4329C98.9019 58.4329 97.4618 58.7253 96.0868 59.344C90.876 61.6862 88.5417 67.8321 90.885 73.044ZM59.6489 61.1839L59.649 61.1841C60.7844 63.7068 62.8354 65.6402 65.4215 66.6223C68.0075 67.6045 70.8252 67.5203 73.3491 66.3849C78.56 64.0426 80.8932 57.8977 78.551 52.686L78.5509 52.6857C77.4156 50.163 75.3646 48.2296 72.7785 47.2475L72.7781 47.2473C71.5842 46.7951 70.3402 46.5679 69.097 46.5679C67.6497 46.5679 66.208 46.8751 64.851 47.4848C62.3281 48.6182 60.3946 50.6694 59.4125 53.2565C58.4305 55.8434 58.5146 58.66 59.6489 61.1839ZM69.105 67.7329C67.8123 67.7329 66.5174 67.4972 65.2695 67.0245L73.5259 66.7779C72.1099 67.4141 70.6088 67.7329 69.105 67.7329Z" fill="#F9FFFF" stroke="#B4D0E5"/>
</svg>
