<svg width="34" height="34" viewBox="0 0 34 34" fill="none" xmlns="http://www.w3.org/2000/svg">
<path d="M17 0C7.612 0 0 7.612 0 17C0 26.388 7.612 34 17 34C26.388 34 34 26.388 34 17C34 7.612 26.388 0 17 0ZM17 32C8.73 32 2 25.27 2 17C2 8.73 8.73 2 17 2C25.27 2 32 8.73 32 17C32 25.27 25.27 32 17 32ZM23.708 24.292C24.098 24.682 24.098 25.316 23.708 25.706C23.512 25.902 23.256 26 23 26C22.744 26 22.488 25.902 22.292 25.708L16.294 19.71C16.202 19.618 16.128 19.506 16.076 19.384C16.026 19.26 16 19.13 16 19V9C16 8.448 16.448 8 17 8C17.552 8 18 8.448 18 9V18.586L23.708 24.292Z" fill="white"/>
</svg>
