<svg width="265" height="374" viewBox="0 0 265 374" fill="none" xmlns="http://www.w3.org/2000/svg">
<path opacity="0.5" d="M175.441 96.4854C175.69 96.4536 175.938 96.4185 176.187 96.3817C176.334 96.3599 176.481 96.3348 176.627 96.3114C176.772 96.288 176.916 96.2646 177.062 96.2395C177.309 96.196 177.557 96.1492 177.804 96.1023C177.848 96.094 177.891 96.0856 177.935 96.0772C178.002 96.0639 178.069 96.0522 178.136 96.0388C178.751 95.9133 179.362 95.7728 179.967 95.6189C180.19 95.5621 180.41 95.5019 180.631 95.4416L187.139 105.133L194.33 101.9L191.401 90.5993C192.172 90.0975 192.927 89.5656 193.666 89.0052C193.701 88.9785 193.736 88.9517 193.771 88.9233C193.97 88.771 194.169 88.6171 194.367 88.4599C194.482 88.3679 194.596 88.2743 194.71 88.1823C194.825 88.0886 194.941 87.9949 195.054 87.8996C195.248 87.7373 195.439 87.5734 195.63 87.4095C195.661 87.3811 195.695 87.3526 195.728 87.3242C196.426 86.7137 197.098 86.0797 197.746 85.4257L208.228 90.5641L212.839 84.1679L204.652 75.8464C205.068 75.0267 205.456 74.1887 205.816 73.334C205.833 73.2939 205.849 73.2521 205.866 73.2119C205.963 72.9794 206.059 72.7469 206.151 72.5127C206.204 72.3756 206.256 72.2368 206.309 72.0996C206.361 71.9624 206.415 71.8236 206.465 71.6848C206.552 71.4489 206.636 71.2114 206.718 70.9739C206.733 70.9321 206.748 70.8903 206.761 70.8484C207.06 69.972 207.325 69.0871 207.557 68.1973L219.204 67.4061L220 59.5613L208.75 56.4468C208.701 55.5285 208.618 54.6085 208.501 53.6886C208.496 53.6451 208.489 53.6033 208.484 53.5598C208.459 53.3591 208.432 53.1583 208.404 52.9576C208.397 52.9091 208.387 52.8606 208.38 52.8121C208.358 52.6649 208.333 52.5194 208.31 52.3722C208.287 52.2267 208.263 52.0812 208.238 51.9373C208.195 51.6897 208.148 51.4422 208.101 51.1963C208.094 51.1612 208.087 51.1261 208.081 51.0909C208.079 51.0826 208.077 51.0742 208.076 51.0658C207.897 50.1559 207.684 49.2577 207.44 48.3712L217.131 41.8628L213.898 34.672L202.598 37.6009C202.472 37.4085 202.349 37.2179 202.22 37.0272C201.87 36.5103 201.506 36.0002 201.129 35.4984C201.089 35.4432 201.046 35.3913 201.004 35.3361C200.999 35.3294 200.994 35.3227 200.989 35.316C200.967 35.2876 200.945 35.2608 200.924 35.2324C200.771 35.0334 200.617 34.8343 200.46 34.6369C200.368 34.5215 200.275 34.4094 200.183 34.294C200.089 34.1786 199.995 34.0632 199.9 33.9495C199.868 33.9127 199.838 33.8725 199.806 33.8357C199.676 33.6802 199.542 33.528 199.41 33.3757C199.381 33.3423 199.353 33.3088 199.323 33.2754C198.712 32.5779 198.08 31.9055 197.424 31.2581L202.563 20.7756L196.167 16.164L187.845 24.35C187.026 23.9335 186.188 23.5455 185.333 23.1859C185.291 23.1675 185.248 23.1507 185.206 23.134C184.975 23.0387 184.744 22.9433 184.51 22.8513C184.371 22.7961 184.232 22.7443 184.092 22.6908C183.955 22.6389 183.819 22.587 183.682 22.5369C183.445 22.4499 183.205 22.3663 182.966 22.2826C182.926 22.2692 182.886 22.2542 182.846 22.2408C181.968 21.9414 181.083 21.6755 180.193 21.443L179.402 9.79619L171.557 9.00001L168.444 20.2503C167.526 20.2989 166.606 20.3825 165.686 20.4979C165.643 20.5029 165.601 20.5096 165.557 20.5146C165.308 20.5464 165.059 20.5815 164.81 20.6183C164.662 20.6401 164.517 20.6652 164.37 20.6886C164.224 20.712 164.079 20.7354 163.935 20.7605C163.687 20.804 163.44 20.8491 163.194 20.8977C163.15 20.906 163.107 20.9144 163.063 20.9227C162.154 21.1017 161.255 21.3142 160.369 21.5584L153.861 11.8669L146.67 15.1002L149.599 26.4007C148.828 26.9025 148.072 27.4344 147.334 27.9948C147.299 28.0215 147.264 28.0483 147.229 28.0751C147.03 28.2273 146.831 28.3812 146.633 28.5384C146.518 28.6304 146.404 28.7241 146.29 28.8161C146.175 28.9097 146.059 29.0034 145.946 29.0987C145.752 29.2593 145.561 29.4232 145.372 29.5888C145.339 29.6173 145.305 29.6457 145.272 29.6741C144.574 30.2847 143.902 30.9186 143.256 31.5726L132.774 26.4342L128.162 32.8305L136.348 41.152C135.932 41.9732 135.544 42.8112 135.184 43.666C135.167 43.7044 135.152 43.7446 135.135 43.7847C135.038 44.0189 134.943 44.2531 134.849 44.4889C134.796 44.6261 134.744 44.7616 134.692 44.8987C134.64 45.0376 134.587 45.1764 134.535 45.3152C134.448 45.5511 134.366 45.7869 134.284 46.0244C134.269 46.0679 134.254 46.1097 134.239 46.1532C133.94 47.0297 133.675 47.9145 133.443 48.8044L121.796 49.5956L121 57.4404L132.25 60.5549C132.299 61.4732 132.382 62.3931 132.498 63.3131C132.503 63.3566 132.509 63.4001 132.514 63.4436C132.541 63.6443 132.566 63.845 132.595 64.0457C132.601 64.0942 132.611 64.1427 132.618 64.1912C132.64 64.3384 132.665 64.4856 132.688 64.6311C132.712 64.7767 132.735 64.9205 132.76 65.066C132.804 65.3136 132.851 65.5612 132.897 65.8087C132.904 65.8438 132.911 65.879 132.918 65.9141C132.919 65.9225 132.921 65.9308 132.923 65.9392C133.102 66.8491 133.314 67.7473 133.558 68.6338L123.867 75.1422L127.1 82.333L138.4 79.4041C138.902 80.1752 139.434 80.9313 139.994 81.6689C139.999 81.6756 140.004 81.6823 140.01 81.689C140.03 81.7158 140.051 81.7425 140.071 81.7693C140.225 81.97 140.381 82.1707 140.538 82.3698C140.628 82.4835 140.72 82.5956 140.812 82.7076C140.908 82.8247 141.001 82.9418 141.098 83.0572C141.129 83.094 141.16 83.1325 141.19 83.1693C141.319 83.3232 141.451 83.4737 141.583 83.6259C141.614 83.661 141.642 83.6962 141.674 83.7296C142.284 84.4271 142.917 85.0995 143.571 85.7452L138.432 96.2278L144.828 100.839L153.15 92.6533C153.969 93.0698 154.807 93.4578 155.662 93.8175C155.702 93.8342 155.744 93.8509 155.784 93.8676C156.017 93.9647 156.249 94.06 156.483 94.152C156.498 94.157 156.512 94.1637 156.525 94.1687C156.539 94.1738 156.55 94.1788 156.564 94.1838C156.674 94.2273 156.784 94.2674 156.895 94.3092C157.034 94.3611 157.171 94.4146 157.31 94.4648C157.547 94.5518 157.783 94.6354 158.02 94.7174C158.062 94.7307 158.104 94.7475 158.146 94.7608C159.022 95.0603 159.907 95.3246 160.797 95.5571L161.588 107.204L169.433 108L172.546 96.7497C173.464 96.7012 174.384 96.6175 175.304 96.5021C175.352 96.4971 175.396 96.4904 175.441 96.4854ZM142.236 71.8972C142.142 71.6998 142.055 71.4991 141.966 71.3001C141.885 71.1177 141.799 70.9354 141.721 70.7514C141.701 70.7046 141.68 70.6561 141.662 70.6092C139.752 66.0395 138.944 61.065 139.314 56.124C139.317 56.0721 139.32 56.022 139.325 55.9718C139.344 55.7527 139.369 55.5335 139.391 55.3161C139.411 55.1187 139.427 54.9197 139.451 54.7223C139.458 54.6721 139.464 54.6202 139.469 54.5701C140.1 49.6558 141.888 44.9456 144.678 40.8509C144.706 40.8091 144.736 40.7656 144.765 40.7237C144.889 40.5448 145.019 40.3692 145.148 40.1918C145.265 40.0296 145.38 39.8657 145.499 39.7051C145.531 39.665 145.561 39.6231 145.593 39.583C148.595 35.6439 152.501 32.4574 156.962 30.3064C157.007 30.2847 157.052 30.2629 157.099 30.2412C157.3 30.1458 157.504 30.0572 157.706 29.9668C157.885 29.8866 158.064 29.8029 158.245 29.726C158.291 29.7059 158.338 29.6875 158.385 29.6674C162.958 27.7556 167.934 26.9494 172.877 27.319C172.924 27.3224 172.97 27.3257 173.019 27.3307C173.24 27.3491 173.461 27.3742 173.681 27.3976C173.882 27.4177 174.081 27.4344 174.28 27.4595C174.327 27.4662 174.374 27.4712 174.421 27.4779C179.338 28.1085 184.053 29.8983 188.151 32.6899C188.191 32.7184 188.233 32.7451 188.273 32.7736C188.437 32.8873 188.598 33.0077 188.76 33.1248C188.939 33.2536 189.12 33.3808 189.295 33.5129C189.336 33.543 189.374 33.5731 189.412 33.6015C193.353 36.6057 196.54 40.5113 198.691 44.9757C198.712 45.0208 198.734 45.0643 198.754 45.1095C198.841 45.2952 198.923 45.4825 199.007 45.6698C199.095 45.8655 199.186 46.0612 199.271 46.2603C199.289 46.3054 199.309 46.3506 199.328 46.3958C201.24 50.9672 202.046 55.9433 201.676 60.8844C201.673 60.9346 201.67 60.9847 201.665 61.0349C201.648 61.2423 201.624 61.4464 201.603 61.6538C201.581 61.8646 201.563 62.077 201.537 62.2878C201.531 62.3379 201.524 62.3864 201.519 62.4366C200.888 67.3509 199.099 72.0628 196.309 76.1575C196.28 76.1993 196.254 76.2394 196.225 76.2813C196.108 76.4502 195.986 76.6141 195.866 76.7797C195.74 76.9537 195.616 77.131 195.488 77.3016C195.457 77.3417 195.427 77.3819 195.397 77.422C192.393 81.3628 188.488 84.5492 184.023 86.7003C183.978 86.722 183.933 86.7438 183.888 86.7655C183.709 86.8508 183.525 86.9294 183.344 87.0114C183.143 87.1034 182.943 87.1954 182.739 87.2824C182.694 87.3024 182.647 87.3208 182.602 87.3409C178.032 89.2511 173.059 90.0573 168.12 89.6893C168.066 89.6843 168.013 89.681 167.959 89.6776C167.76 89.6609 167.561 89.6375 167.362 89.6174C167.146 89.5957 166.931 89.5773 166.716 89.5505C166.663 89.5438 166.611 89.5371 166.558 89.5304C161.647 88.8982 156.938 87.1101 152.845 84.3234C152.804 84.295 152.762 84.2665 152.72 84.2381C152.538 84.111 152.359 83.9805 152.18 83.8501C152.019 83.7346 151.858 83.6226 151.701 83.5038C151.659 83.4737 151.619 83.4419 151.579 83.4102C147.64 80.4077 144.454 76.502 142.303 72.0394C142.279 71.9892 142.258 71.944 142.236 71.8972Z" stroke="#B4D0E5" stroke-width="1.5" stroke-miterlimit="10" stroke-linecap="round" stroke-linejoin="round"/>
<path opacity="0.5" d="M182.403 319.701C182.628 319.675 182.851 319.649 183.076 319.618C183.21 319.6 183.342 319.58 183.474 319.56C183.605 319.541 183.737 319.523 183.868 319.502C184.093 319.466 184.316 319.428 184.54 319.389C184.579 319.382 184.618 319.376 184.657 319.368C184.717 319.356 184.778 319.346 184.838 319.337C185.395 319.232 185.948 319.115 186.496 318.984C186.696 318.937 186.897 318.884 187.096 318.832L192.826 327.674L199.358 324.861L196.88 314.618C197.583 314.175 198.271 313.708 198.945 313.212C198.978 313.189 199.009 313.165 199.041 313.14C199.224 313.004 199.405 312.869 199.585 312.73C199.689 312.649 199.794 312.567 199.898 312.484C200.002 312.4 200.108 312.319 200.213 312.234C200.389 312.09 200.564 311.945 200.738 311.799C200.767 311.775 200.798 311.749 200.828 311.724C201.466 311.184 202.081 310.622 202.675 310.041L212.054 314.832L216.305 309.126L209.044 301.496C209.432 300.763 209.794 300.012 210.13 299.246C210.147 299.21 210.161 299.173 210.178 299.137C210.267 298.928 210.357 298.72 210.443 298.51C210.494 298.386 210.543 298.263 210.592 298.139C210.641 298.015 210.691 297.892 210.739 297.767C210.82 297.555 210.899 297.342 210.977 297.128C210.99 297.091 211.005 297.053 211.018 297.016C211.3 296.229 211.553 295.433 211.775 294.633L222.289 294.088L223.121 287.019L213.019 284.046C212.988 283.216 212.928 282.384 212.835 281.553C212.83 281.513 212.825 281.474 212.822 281.435C212.801 281.254 212.781 281.071 212.758 280.89C212.752 280.846 212.745 280.801 212.741 280.757C212.723 280.625 212.703 280.491 212.683 280.359C212.664 280.227 212.646 280.096 212.625 279.965C212.589 279.742 212.551 279.518 212.512 279.294C212.506 279.262 212.502 279.231 212.496 279.2C212.494 279.192 212.493 279.185 212.491 279.177C212.342 278.354 212.163 277.539 211.957 276.734L220.792 271L217.981 264.462L207.747 266.94C207.637 266.766 207.528 266.591 207.414 266.418C207.106 265.946 206.786 265.48 206.451 265.022C206.415 264.973 206.378 264.924 206.34 264.875C206.336 264.868 206.332 264.862 206.327 264.855C206.308 264.829 206.288 264.804 206.27 264.778C206.135 264.595 205.999 264.414 205.861 264.235C205.779 264.13 205.698 264.026 205.616 263.921C205.533 263.817 205.451 263.71 205.366 263.606C205.339 263.572 205.311 263.536 205.283 263.501C205.167 263.359 205.05 263.221 204.932 263.08C204.906 263.049 204.882 263.02 204.856 262.989C204.316 262.35 203.755 261.735 203.174 261.142L207.96 251.755L202.26 247.5L194.637 254.767C193.904 254.379 193.154 254.016 192.388 253.68C192.351 253.664 192.312 253.647 192.274 253.631C192.067 253.541 191.86 253.453 191.651 253.366C191.527 253.314 191.401 253.265 191.277 253.216C191.155 253.167 191.033 253.118 190.91 253.071C190.697 252.989 190.483 252.909 190.268 252.831C190.232 252.818 190.196 252.805 190.16 252.792C189.372 252.509 188.579 252.256 187.78 252.034L187.235 241.51L180.172 240.678L177.202 250.788C176.373 250.819 175.541 250.88 174.71 250.973C174.671 250.978 174.632 250.982 174.594 250.986C174.369 251.012 174.144 251.038 173.917 251.069C173.785 251.087 173.653 251.107 173.519 251.126C173.389 251.146 173.257 251.164 173.126 251.185C172.901 251.219 172.679 251.258 172.456 251.298C172.417 251.304 172.377 251.311 172.338 251.319C171.516 251.467 170.702 251.647 169.899 251.853L164.17 243.011L157.637 245.824L160.116 256.067C159.412 256.51 158.724 256.978 158.05 257.473C158.018 257.498 157.987 257.52 157.954 257.545C157.773 257.68 157.59 257.816 157.411 257.955C157.305 258.036 157.202 258.12 157.097 258.201C156.993 258.285 156.887 258.366 156.783 258.451C156.606 258.595 156.432 258.738 156.259 258.885C156.228 258.912 156.199 258.936 156.168 258.962C155.53 259.503 154.915 260.064 154.321 260.646L144.942 255.855L140.69 261.56L147.952 269.19C147.563 269.925 147.201 270.676 146.865 271.442C146.85 271.478 146.836 271.512 146.819 271.548C146.728 271.757 146.638 271.968 146.552 272.18C146.501 272.303 146.454 272.425 146.405 272.547C146.356 272.672 146.306 272.796 146.258 272.921C146.177 273.134 146.098 273.346 146.022 273.558C146.009 273.597 145.994 273.635 145.979 273.672C145.697 274.46 145.446 275.255 145.222 276.053L134.708 276.599L133.876 283.667L143.978 286.641C144.009 287.47 144.069 288.301 144.162 289.134C144.167 289.173 144.172 289.212 144.177 289.251C144.198 289.433 144.217 289.614 144.24 289.795C144.245 289.839 144.253 289.883 144.26 289.927C144.278 290.061 144.297 290.194 144.317 290.326C144.336 290.457 144.354 290.589 144.376 290.719C144.411 290.945 144.449 291.168 144.488 291.392C144.493 291.423 144.498 291.456 144.504 291.487C144.506 291.495 144.508 291.502 144.509 291.51C144.658 292.333 144.837 293.147 145.043 293.951L136.209 299.685L139.02 306.223L149.254 303.745C149.696 304.448 150.164 305.137 150.658 305.812C150.663 305.818 150.666 305.823 150.671 305.83C150.689 305.854 150.709 305.879 150.727 305.903C150.862 306.086 150.999 306.271 151.139 306.452C151.219 306.556 151.301 306.658 151.383 306.76C151.467 306.867 151.551 306.974 151.635 307.081C151.663 307.115 151.689 307.149 151.717 307.183C151.831 307.324 151.949 307.463 152.065 307.601C152.091 307.632 152.117 307.665 152.144 307.696C152.684 308.335 153.246 308.95 153.826 309.543L149.04 318.93L154.74 323.185L162.364 315.917C163.098 316.306 163.847 316.669 164.612 317.005C164.648 317.021 164.685 317.036 164.721 317.052C164.928 317.142 165.137 317.232 165.348 317.318C165.361 317.323 165.374 317.33 165.385 317.335C165.397 317.34 165.408 317.345 165.419 317.349C165.519 317.39 165.618 317.428 165.716 317.467C165.84 317.516 165.963 317.567 166.088 317.614C166.3 317.696 166.514 317.774 166.726 317.852C166.764 317.865 166.801 317.88 166.839 317.893C167.625 318.176 168.42 318.429 169.219 318.651L169.764 329.175L176.826 330.007L179.797 319.897C180.626 319.866 181.456 319.805 182.288 319.712C182.324 319.711 182.363 319.706 182.403 319.701ZM152.815 297.027C152.733 296.847 152.658 296.665 152.58 296.483C152.508 296.317 152.435 296.152 152.366 295.985C152.348 295.943 152.332 295.899 152.314 295.856C150.658 291.704 150.002 287.202 150.405 282.748C150.41 282.702 150.413 282.656 150.418 282.611C150.438 282.413 150.464 282.216 150.487 282.02C150.508 281.842 150.526 281.664 150.551 281.486C150.557 281.44 150.564 281.394 150.57 281.349C151.21 276.923 152.892 272.696 155.466 269.042C155.492 269.004 155.52 268.967 155.546 268.929C155.66 268.769 155.781 268.612 155.898 268.456C156.006 268.31 156.112 268.165 156.223 268.021C156.251 267.984 156.28 267.948 156.309 267.912C159.075 264.4 162.643 261.581 166.698 259.703C166.739 259.684 166.782 259.666 166.822 259.646C167.005 259.563 167.189 259.486 167.374 259.408C167.537 259.338 167.698 259.266 167.863 259.197C167.906 259.179 167.948 259.163 167.992 259.147C172.144 257.488 176.644 256.831 181.094 257.236C181.137 257.24 181.179 257.244 181.221 257.248C181.42 257.267 181.618 257.293 181.817 257.316C181.996 257.337 182.177 257.355 182.357 257.38C182.399 257.386 182.44 257.391 182.482 257.398C186.908 258.038 191.134 259.723 194.788 262.303C194.824 262.329 194.86 262.354 194.896 262.38C195.043 262.486 195.186 262.595 195.33 262.703C195.49 262.821 195.65 262.938 195.808 263.061C195.844 263.088 195.878 263.116 195.912 263.142C199.423 265.912 202.241 269.483 204.115 273.543C204.133 273.584 204.153 273.625 204.171 273.664C204.247 273.833 204.317 274.004 204.391 274.174C204.468 274.352 204.547 274.53 204.621 274.711C204.637 274.752 204.654 274.793 204.67 274.835C206.327 278.989 206.982 283.492 206.579 287.947C206.574 287.993 206.57 288.037 206.566 288.082C206.548 288.269 206.523 288.455 206.5 288.639C206.477 288.83 206.458 289.021 206.432 289.211C206.425 289.255 206.419 289.3 206.412 289.345C205.771 293.771 204.089 297.999 201.515 301.655C201.489 301.692 201.462 301.728 201.436 301.766C201.329 301.916 201.216 302.063 201.105 302.211C200.989 302.366 200.875 302.525 200.756 302.677C200.728 302.713 200.701 302.749 200.673 302.783C197.906 306.297 194.338 309.115 190.281 310.993C190.24 311.011 190.199 311.03 190.158 311.05C189.995 311.123 189.829 311.192 189.664 311.264C189.481 311.344 189.299 311.424 189.114 311.499C189.073 311.515 189.031 311.532 188.989 311.55C184.84 313.207 180.344 313.863 175.895 313.458C175.847 313.454 175.798 313.45 175.751 313.445C175.572 313.427 175.392 313.405 175.213 313.383C175.019 313.36 174.825 313.341 174.63 313.315C174.583 313.308 174.536 313.3 174.487 313.294C170.067 312.652 165.847 310.97 162.197 308.395C162.16 308.369 162.122 308.343 162.085 308.315C161.922 308.197 161.763 308.077 161.603 307.957C161.462 307.851 161.316 307.747 161.176 307.637C161.14 307.61 161.104 307.58 161.067 307.551C157.558 304.783 154.74 301.212 152.866 297.153C152.852 297.11 152.835 297.068 152.815 297.027Z" fill="#B4D0E5"/>
<path opacity="0.5" d="M32.1372 213.946C31.7954 213.892 31.456 213.845 31.1142 213.808C30.9445 213.788 30.7724 213.771 30.6027 213.756C30.2609 213.727 29.9191 213.707 29.5773 213.695C29.5433 213.692 29.507 213.692 29.473 213.692C29.4488 213.692 29.4221 213.692 29.3979 213.69C29.267 213.688 29.1385 213.683 29.0076 213.683C28.8767 213.68 28.7482 213.683 28.6173 213.683C28.5931 213.683 28.5664 213.683 28.5422 213.683C27.2622 213.697 25.9798 213.83 24.7071 214.086L18.9181 207.695L10.7098 212.396L13.1122 220.728C12.8455 221.026 12.5886 221.329 12.3389 221.639C12.1207 221.912 11.9122 222.187 11.7086 222.468C11.6068 222.608 11.5074 222.751 11.4104 222.893C11.214 223.179 11.0249 223.469 10.8431 223.764C10.8262 223.794 10.8068 223.823 10.7898 223.853C10.7777 223.875 10.7631 223.897 10.751 223.917C10.6831 224.03 10.6153 224.143 10.5498 224.256C10.4844 224.369 10.4189 224.485 10.3559 224.598C10.3438 224.62 10.3316 224.642 10.3171 224.664C10.3001 224.694 10.2831 224.726 10.2662 224.755C10.0165 225.211 9.78376 225.676 9.568 226.15C9.25771 226.827 8.98378 227.523 8.74379 228.236L0.394876 230.131L0.305175 239.696L8.6153 241.752C8.84075 242.471 9.10256 243.172 9.40074 243.856C9.60922 244.335 9.83224 244.803 10.0722 245.263C10.0892 245.295 10.1062 245.324 10.1207 245.354C10.1329 245.376 10.145 245.398 10.1571 245.42C10.2201 245.536 10.2807 245.651 10.3462 245.767C10.3559 245.784 10.3631 245.801 10.3728 245.819C10.4286 245.917 10.4844 246.015 10.5401 246.111C10.5522 246.134 10.5643 246.156 10.5789 246.178C10.6831 246.357 10.7898 246.535 10.8989 246.712C10.991 246.859 11.0831 247.004 11.1801 247.15C11.6819 247.915 12.2371 248.648 12.8407 249.349L10.2807 257.632L18.3969 262.496L24.3071 256.22C24.8428 256.338 25.381 256.436 25.9216 256.51C26.1131 256.537 26.3046 256.562 26.4961 256.582C26.8282 256.618 27.1604 256.645 27.4901 256.668C27.507 256.668 27.524 256.67 27.5385 256.67C27.7373 256.682 27.9361 256.69 28.1349 256.697C28.1591 256.697 28.1858 256.697 28.21 256.7C28.3216 256.702 28.4331 256.707 28.5446 256.707C28.564 256.707 28.5809 256.707 28.6003 256.707C28.7312 256.709 28.8622 256.707 28.9906 256.707C29.0149 256.707 29.0415 256.707 29.0658 256.707C30.3433 256.692 31.6281 256.559 32.9008 256.304L38.6898 262.695L46.8981 257.991L44.4982 249.659C45.1139 248.97 45.6836 248.247 46.2 247.494C46.3963 247.209 46.5854 246.918 46.7648 246.623C46.7842 246.594 46.8011 246.564 46.8181 246.535C46.8327 246.51 46.8472 246.488 46.8618 246.463C46.9296 246.353 46.9951 246.242 47.0605 246.129C47.1284 246.013 47.1939 245.897 47.2569 245.782C47.269 245.76 47.2811 245.74 47.2933 245.718C47.3102 245.688 47.3272 245.656 47.3442 245.627C47.5939 245.172 47.8266 244.707 48.0423 244.232C48.3526 243.555 48.6266 242.857 48.8666 242.146L57.2155 240.254L57.3052 230.689L48.9951 228.633C48.7696 227.914 48.5078 227.213 48.2096 226.529C48.0011 226.052 47.7781 225.582 47.5381 225.122C47.5212 225.09 47.5042 225.061 47.4896 225.029C47.4775 225.006 47.4654 224.987 47.4557 224.965C47.3926 224.846 47.3296 224.731 47.2666 224.615C47.2569 224.598 47.2496 224.581 47.24 224.566C47.1866 224.47 47.1284 224.372 47.0727 224.276C47.0606 224.254 47.046 224.229 47.0339 224.207C46.3818 223.09 45.6279 222.03 44.7721 221.038L47.3297 212.755L39.2134 207.894L33.3033 214.17C32.9154 214.084 32.5275 214.01 32.1372 213.946ZM40.4255 228.844C40.4352 228.864 40.4449 228.883 40.4571 228.903C41.4364 230.778 41.9673 232.869 42.0037 234.989C42.0037 235.012 42.0037 235.034 42.0037 235.053C42.0037 235.147 42.0037 235.243 42.0013 235.336C42.0013 235.422 42.0013 235.506 41.9988 235.592C41.9988 235.614 41.9964 235.636 41.9964 235.656C41.9213 237.777 41.3516 239.855 40.3358 241.71C40.3261 241.73 40.314 241.75 40.3043 241.767C40.2583 241.848 40.2122 241.929 40.1637 242.008C40.1201 242.082 40.0789 242.156 40.0353 242.229C40.0231 242.249 40.0134 242.266 40.0013 242.286C38.891 244.084 37.3735 245.595 35.5796 246.687C35.5602 246.699 35.5432 246.709 35.5238 246.722C35.4438 246.768 35.3638 246.815 35.2838 246.859C35.2111 246.901 35.1359 246.945 35.0632 246.985C35.0438 246.995 35.0244 247.004 35.0075 247.017C33.1602 248.011 31.0997 248.549 29.01 248.584C28.9882 248.584 28.9664 248.584 28.9446 248.584C28.8524 248.584 28.7579 248.584 28.6658 248.581C28.5809 248.581 28.4985 248.581 28.4137 248.579C28.3919 248.579 28.37 248.576 28.3482 248.576C26.2586 248.5 24.2077 247.92 22.3799 246.891C22.3629 246.881 22.3459 246.872 22.3265 246.862C22.2441 246.815 22.1641 246.766 22.0817 246.717C22.009 246.675 21.9362 246.631 21.8659 246.586C21.849 246.576 21.832 246.564 21.815 246.554C20.0405 245.428 18.5496 243.885 17.4733 242.065C17.4636 242.047 17.4515 242.03 17.4418 242.01C17.4006 241.937 17.3594 241.863 17.3182 241.789C17.2721 241.705 17.2236 241.624 17.18 241.541C17.1703 241.521 17.1606 241.504 17.1509 241.484C16.1715 239.609 15.6406 237.518 15.6043 235.398C15.6043 235.376 15.6043 235.353 15.6043 235.334C15.6043 235.245 15.6043 235.159 15.6067 235.071C15.6067 234.98 15.6067 234.886 15.6091 234.795C15.6091 234.773 15.6115 234.753 15.6115 234.731C15.6867 232.611 16.2588 230.529 17.2721 228.674C17.2818 228.655 17.2915 228.637 17.3036 228.618C17.3472 228.542 17.3909 228.465 17.4369 228.389C17.483 228.31 17.5266 228.232 17.5751 228.153C17.5848 228.136 17.5969 228.116 17.609 228.099C18.7193 226.3 20.2393 224.787 22.0308 223.698C22.0478 223.688 22.0671 223.675 22.0841 223.666C22.1593 223.621 22.2344 223.58 22.3071 223.538C22.3871 223.491 22.4647 223.444 22.5471 223.4C22.5665 223.39 22.5835 223.38 22.6029 223.37C24.4501 222.377 26.5107 221.838 28.6003 221.803C28.6222 221.803 28.6416 221.803 28.6634 221.803C28.7482 221.803 28.8331 221.803 28.9179 221.806C29.01 221.806 29.1022 221.806 29.1943 221.808C29.2161 221.808 29.2355 221.811 29.2573 221.811C31.347 221.887 33.3954 222.465 35.2232 223.496C35.2426 223.508 35.262 223.518 35.2814 223.53C35.3541 223.572 35.4244 223.616 35.4947 223.658C35.5747 223.705 35.6547 223.752 35.7347 223.801C35.7541 223.813 35.7735 223.826 35.7929 223.838C37.5626 224.965 39.051 226.505 40.1274 228.323C40.1395 228.342 40.1492 228.359 40.1613 228.379C40.2098 228.463 40.2559 228.546 40.3019 228.63C40.3456 228.699 40.3868 228.77 40.4255 228.844Z" fill="#B4D0E5"/>
<path opacity="0.5" d="M100.368 135.924C100.138 135.888 99.9099 135.857 99.6799 135.831C99.5657 135.818 99.4499 135.808 99.3357 135.798C99.1057 135.778 98.8756 135.765 98.6456 135.757C98.6227 135.755 98.5999 135.755 98.5754 135.755C98.5591 135.755 98.5412 135.755 98.5249 135.754C98.4368 135.751 98.3503 135.749 98.2622 135.749C98.1741 135.747 98.086 135.749 97.9995 135.749C97.9832 135.749 97.9653 135.749 97.949 135.749C97.0892 135.759 96.2246 135.847 95.3681 136.017L91.4722 131.775L85.9482 134.897L87.5649 140.427C87.3855 140.625 87.2126 140.825 87.0445 141.031C86.8977 141.211 86.7574 141.395 86.6203 141.581C86.5518 141.675 86.4849 141.769 86.4197 141.864C86.2875 142.053 86.1603 142.246 86.0396 142.442C86.0265 142.462 86.0151 142.481 86.0037 142.501C85.9955 142.515 85.9857 142.53 85.9776 142.543C85.9319 142.618 85.8862 142.693 85.8422 142.769C85.7981 142.844 85.7541 142.92 85.7116 142.996C85.7035 143.01 85.6953 143.025 85.6872 143.04C85.6758 143.059 85.6643 143.08 85.6529 143.1C85.4849 143.402 85.3283 143.711 85.1831 144.026C84.9742 144.475 84.7899 144.937 84.6284 145.41L79.0097 146.668L78.9478 153.016L84.5403 154.381C84.692 154.858 84.8682 155.323 85.0689 155.777C85.2092 156.094 85.3593 156.406 85.5224 156.711C85.5338 156.733 85.5452 156.752 85.555 156.772C85.5632 156.787 85.5713 156.801 85.5795 156.816C85.6219 156.893 85.6627 156.969 85.7067 157.046C85.7133 157.058 85.7182 157.069 85.7247 157.08C85.7622 157.146 85.7997 157.209 85.8373 157.275C85.8454 157.289 85.8536 157.304 85.8617 157.319C85.9319 157.438 86.0037 157.556 86.0787 157.673C86.1407 157.771 86.2027 157.867 86.2663 157.964C86.604 158.472 86.9776 158.958 87.3839 159.424L85.6611 164.921L91.1231 168.149L95.1005 163.984C95.4611 164.062 95.8232 164.126 96.187 164.177C96.3159 164.195 96.4448 164.211 96.572 164.224C96.7956 164.249 97.0191 164.267 97.2409 164.281C97.2524 164.281 97.2621 164.283 97.2736 164.283C97.4073 164.291 97.5411 164.296 97.6749 164.301C97.6912 164.301 97.7092 164.301 97.7255 164.302C97.8005 164.304 97.8756 164.307 97.9506 164.307C97.9637 164.307 97.9767 164.307 97.9881 164.307C98.0762 164.309 98.1643 164.307 98.2508 164.307C98.2671 164.307 98.285 164.307 98.3014 164.307C99.1628 164.298 100.026 164.209 100.882 164.04L104.778 168.282L110.302 165.16L108.687 159.629C109.101 159.172 109.485 158.692 109.832 158.192C109.964 158.003 110.092 157.81 110.212 157.614C110.224 157.595 110.237 157.575 110.248 157.556C110.258 157.539 110.268 157.525 110.276 157.508C110.322 157.435 110.366 157.361 110.41 157.286C110.455 157.209 110.5 157.133 110.542 157.056C110.55 157.041 110.558 157.028 110.566 157.015C110.578 156.996 110.589 156.974 110.601 156.955C110.769 156.653 110.925 156.344 111.071 156.029C111.279 155.58 111.464 155.118 111.625 154.644L117.244 153.389L117.304 147.04L111.712 145.675C111.56 145.198 111.384 144.733 111.183 144.279C111.043 143.962 110.893 143.65 110.731 143.345C110.72 143.324 110.708 143.304 110.697 143.283C110.689 143.268 110.682 143.255 110.674 143.24C110.632 143.162 110.589 143.085 110.547 143.007C110.54 142.996 110.535 142.984 110.529 142.974C110.493 142.911 110.454 142.845 110.416 142.782C110.408 142.767 110.398 142.751 110.39 142.736C109.951 141.995 109.444 141.291 108.868 140.633L110.591 135.135L105.129 131.907L101.151 136.072C100.89 136.015 100.631 135.964 100.368 135.924ZM105.946 145.812C105.953 145.825 105.959 145.838 105.967 145.851C106.627 147.096 106.984 148.484 107.008 149.891C107.008 149.906 107.008 149.92 107.008 149.933C107.008 149.996 107.008 150.059 107.007 150.121C107.007 150.178 107.007 150.234 107.005 150.291C107.005 150.306 107.005 150.32 107.003 150.334C106.953 151.741 106.569 153.121 105.886 154.352C105.879 154.365 105.871 154.378 105.865 154.389C105.834 154.443 105.803 154.497 105.77 154.55C105.741 154.599 105.713 154.647 105.684 154.696C105.675 154.71 105.669 154.721 105.661 154.734C104.914 155.928 103.892 156.93 102.685 157.655C102.672 157.663 102.661 157.67 102.647 157.678C102.594 157.709 102.54 157.74 102.486 157.769C102.437 157.797 102.386 157.827 102.338 157.853C102.324 157.859 102.311 157.866 102.3 157.872C101.057 158.532 99.6718 158.89 98.2638 158.914C98.2492 158.914 98.2345 158.914 98.2198 158.914C98.1578 158.914 98.0942 158.914 98.0322 158.912C97.9751 158.912 97.9196 158.912 97.8625 158.911C97.8478 158.911 97.8331 158.909 97.8185 158.909C96.4122 158.859 95.032 158.473 93.8019 157.791C93.7905 157.784 93.7791 157.778 93.766 157.771C93.7105 157.74 93.6567 157.707 93.6012 157.675C93.5523 157.645 93.5033 157.618 93.456 157.588C93.4446 157.582 93.4332 157.574 93.4218 157.567C92.2276 156.819 91.2242 155.795 90.4999 154.587C90.4934 154.576 90.4852 154.564 90.4787 154.551C90.4493 154.502 90.4232 154.453 90.3955 154.404C90.3645 154.349 90.3318 154.295 90.3025 154.239C90.296 154.228 90.2894 154.215 90.2829 154.202C89.6238 152.957 89.2665 151.57 89.242 150.16C89.242 150.146 89.242 150.131 89.242 150.118C89.242 150.059 89.2421 150.002 89.2437 149.943C89.2437 149.883 89.2437 149.821 89.2453 149.76C89.2453 149.746 89.2469 149.733 89.2469 149.718C89.2975 148.31 89.6809 146.929 90.3645 145.698C90.371 145.685 90.3775 145.673 90.3857 145.66C90.415 145.61 90.446 145.559 90.4754 145.508C90.5064 145.456 90.5358 145.404 90.5684 145.352C90.5766 145.34 90.5831 145.327 90.5912 145.316C91.3384 144.122 92.3613 143.12 93.567 142.395C93.58 142.388 93.5914 142.38 93.6045 142.373C93.6534 142.344 93.7056 142.316 93.7546 142.288C93.8084 142.257 93.8606 142.228 93.9161 142.199C93.9291 142.192 93.9406 142.186 93.9536 142.179C95.1968 141.519 96.5835 141.162 97.9898 141.139C98.0044 141.139 98.0175 141.139 98.0322 141.139C98.0893 141.139 98.1464 141.139 98.2035 141.141C98.2655 141.141 98.3275 141.141 98.3895 141.142C98.4041 141.142 98.4172 141.144 98.4319 141.144C99.8382 141.194 101.217 141.578 102.447 142.262C102.46 142.271 102.473 142.277 102.486 142.285C102.535 142.313 102.582 142.342 102.63 142.37C102.683 142.401 102.737 142.432 102.791 142.466C102.804 142.475 102.817 142.483 102.83 142.491C104.021 143.239 105.023 144.261 105.747 145.468C105.755 145.481 105.762 145.492 105.77 145.505C105.803 145.561 105.834 145.616 105.865 145.672C105.892 145.716 105.92 145.763 105.946 145.812Z" fill="#B4D0E5"/>
<path opacity="0.5" d="M263.558 285.493C263.558 237.332 224.55 198.291 176.431 198.291C128.313 198.291 89.3052 237.332 89.3052 285.493C89.3052 333.653 128.313 372.695 176.431 372.695C224.55 372.695 263.558 333.653 263.558 285.493Z" stroke="#B4D0E5" stroke-miterlimit="10"/>
<path opacity="0.5" d="M188.634 220.296C152.822 213.891 118.602 237.756 112.203 273.6C105.804 309.444 129.648 343.693 165.461 350.098C201.273 356.503 235.493 332.638 241.892 296.794C248.291 260.95 224.447 226.701 188.634 220.296Z" stroke="#B4D0E5" stroke-miterlimit="10"/>
</svg>
