<svg width="155" height="66" viewBox="0 0 155 66" fill="none" xmlns="http://www.w3.org/2000/svg">
<g clip-path="url(#clip0)">
<path d="M66.1221 6.90264C67.338 6.90264 100.529 6.90264 100.529 6.90264C100.529 6.90264 99.7163 5.49835 97.6274 3.68389C95.5381 1.86943 93.9642 1.26705 89.6772 0.549724C85.0275 -0.228871 69.364 -0.0236491 67.1031 0.219526C65.1964 0.424748 64.6909 0.995139 64.4687 1.32425C64.0517 1.93992 64.0652 2.56697 64.1713 3.4353C64.2489 4.07156 64.4073 4.75039 64.5501 5.34925C64.9068 6.84571 65.7108 6.90264 66.1221 6.90264Z" fill="#F34C35"/>
<path d="M103.28 7.91052C103.958 7.91052 106.67 7.29919 107.281 6.55258C107.891 5.80517 106.806 4.99024 105.992 4.58224C105.178 4.17478 103.8 3.42736 102.59 4.03842C102.59 4.03842 102.398 4.03842 102.195 4.99024C101.991 5.94099 102.602 7.91052 103.28 7.91052Z" fill="#F34C35"/>
<path d="M48.426 10.2685C49.6232 10.7907 59.6915 6.98744 59.6915 6.98744C59.6915 6.98744 60.9209 6.63365 61.6562 4.94877C62.2117 3.67488 63.0057 1.96615 62.3839 1.24638C62.2578 1.10026 61.8821 0.72235 60.7583 1.13252C58.9476 1.79265 55.2257 3.2292 51.468 6.29695C48.9621 8.34266 47.2294 9.7464 48.426 10.2685Z" fill="#F34C35"/>
<path d="M46.4095 9.23845C46.439 9.63941 48.221 6.22573 53.2601 3.24365C53.9712 2.82263 51.4724 3.1794 49.1065 3.80645C47.8974 4.12689 45.3769 4.66285 45.1309 5.51573C44.9022 6.30923 45.5179 7.04581 45.7387 7.35269C45.9874 7.77208 46.3557 8.5035 46.4095 9.23845Z" fill="#F34C35"/>
<path d="M110.315 30.5467C111.49 30.3775 111.792 28.7154 111.881 28.514C113.02 28.5004 113.218 28.5164 113.664 28.514C114.488 28.5091 114.408 26.9359 114.531 23.7513C114.588 22.2969 114.813 20.5293 114.65 17.3241C114.457 13.5114 111.762 9.7838 109.583 9.73934C106.341 9.67319 104.583 10.5196 103.2 13.9237C103.744 13.9078 110.654 13.9267 111.303 14.5752C111.95 15.2242 111.95 16.9934 111.95 16.9934C111.95 16.9934 104.672 16.802 102.447 16.9495C102.001 19.8464 101.768 22.6626 97.3704 23.1858C90.4316 24.0113 83.6171 23.7166 81.3743 19.8898C80.9814 19.2191 80.402 18.2442 79.5052 17.1308C75.6885 17.0929 69.0385 17.229 68.6808 17.229C68.2096 17.229 67.9742 16.2267 67.8565 15.5189C67.6652 14.3683 68.2678 14.5348 76.4097 14.0653C74.4017 12.4623 71.6588 10.8609 67.8814 9.62114C58.7128 6.61357 56.4824 8.55952 55.1196 11.5674C54.0413 13.9476 53.9 16.4385 54.0518 19.3904C54.0789 19.918 54.0486 21.6273 54.0518 21.8086C51.999 21.6932 48.5165 21.9824 48.3327 18.1616C48.1471 14.2979 48.7668 13.0592 48.7668 12.8234C48.7668 12.5872 45.8545 12.5287 46.5364 10.8186C47.2178 9.10795 43.5199 11.0376 42.6954 11.6438C42.2069 11.8086 41.5504 12.3996 41.3323 13.3547C41.2711 13.6223 41.2251 14.2333 41.1964 15.0502C40.2128 15.7957 39.474 18.9339 39.474 22.6935C39.474 25.3717 39.8488 27.734 40.4203 29.141C40.5876 29.5534 41.0582 30.4068 41.4717 30.6543C35.8091 30.9073 32.4492 31.2231 32.4492 31.5641C32.4492 32.3986 52.495 33.0755 77.2226 33.0755C101.95 33.0755 121.996 32.3986 121.996 31.5641C121.995 31.1724 117.571 30.8153 110.315 30.5467ZM57.4101 13.9709C58.3862 13.9709 59.1772 17.1178 59.1772 20.9994C59.1772 24.8813 58.3862 28.0285 57.4101 28.0285C56.4343 28.0285 55.643 24.8815 55.643 20.9994C55.643 17.1176 56.4343 13.9709 57.4101 13.9709ZM40.7875 22.6938C40.7875 19.356 41.4679 16.6507 42.307 16.6507C43.1459 16.6507 43.8262 19.356 43.8262 22.6938C43.8262 26.0313 43.1459 28.7368 42.307 28.7368C41.4679 28.7368 40.7875 26.0313 40.7875 22.6938ZM50.2495 28.0027C51.8988 28.0873 53.5688 28.1361 55.0344 28.1645C55.3708 29.1104 55.7764 29.8258 56.2251 30.2295C53.6681 30.2753 51.2591 30.3295 49.0274 30.3905C49.5069 30.0931 49.9326 29.2324 50.2495 28.0027ZM64.2582 30.1175C64.4736 29.863 64.6749 29.4908 64.8546 29.0215C69.0336 28.9933 89.3013 28.7686 102.37 28.6213C102.706 29.43 103.098 30.0246 103.525 30.3412C96.1402 30.1601 87.0523 30.0533 77.2221 30.0533C72.7139 30.0533 68.362 30.0758 64.2582 30.1175Z" fill="#F34C35"/>
<path d="M11.0788 53.1332H8.15892V47.4336L6.47383 50.3753H4.60499L2.91989 47.4336V53.1332H0V41.2322H2.86983L5.53941 46.4807L8.20898 41.2322H11.0788V53.1332ZM23.0582 53.1332H15.1496V41.2322H18.0695V50.5255H23.0582V53.1332ZM41.4944 53.1332H38.4411L37.8904 51.3613H34.2363L33.6524 53.1332H30.5991L34.9204 41.2322H37.173L41.4944 53.1332ZM37.1232 48.9211L36.122 45.7452L35.0541 48.9211H37.1232ZM53.174 48.9547C53.174 50.2251 52.7372 51.2558 51.8642 52.0469C50.9907 52.8382 49.9204 53.2337 48.6523 53.2337C47.3843 53.2337 46.3191 52.8382 45.4572 52.0469C44.5951 51.2558 44.1642 50.2251 44.1642 48.9547V41.2325H47.0841V48.8877C47.0841 49.4337 47.223 49.8602 47.5012 50.1662C47.7791 50.4731 48.1628 50.626 48.6523 50.626C49.1416 50.626 49.531 50.4731 49.8203 50.1662C50.1093 49.8599 50.2541 49.4337 50.2541 48.8877V41.2325H53.174V48.9547ZM65.103 43.8399H62.1834V53.1332H59.2638V43.8399H56.3439V41.2325H65.1033V43.8399H65.103ZM76.7994 46.0881C76.7994 46.2719 76.7994 46.6371 76.7994 47.1831C76.7994 47.7291 76.7994 48.094 76.7994 48.278C76.7994 48.4619 76.7799 48.7766 76.7409 49.2226C76.702 49.6682 76.6435 50.0079 76.5659 50.2422C76.4876 50.4764 76.3683 50.7494 76.207 51.0611C76.0457 51.3732 75.8428 51.6519 75.5981 51.8969C74.7081 52.7886 73.601 53.2343 72.2778 53.2343C70.9539 53.2343 69.8471 52.7886 68.9576 51.8969C68.7127 51.6519 68.5095 51.3732 68.3485 51.0611C68.1872 50.7494 68.0673 50.4761 67.9899 50.2422C67.9117 50.0082 67.8535 49.6685 67.8146 49.2226C67.7756 48.7769 67.7564 48.4619 67.7564 48.278C67.7564 48.094 67.7564 47.7293 67.7564 47.1831C67.7564 46.6374 67.7564 46.2719 67.7564 46.0881C67.7564 45.9043 67.7756 45.5896 67.8146 45.1436C67.8535 44.6982 67.912 44.358 67.9899 44.124C68.0673 43.8898 68.1872 43.6171 68.3485 43.305C68.5095 42.993 68.7127 42.7143 68.9576 42.4692C69.8471 41.5776 70.9539 41.1319 72.2778 41.1319C73.601 41.1319 74.7081 41.5776 75.5981 42.4692C75.8428 42.7143 76.0457 42.993 76.207 43.305C76.3683 43.6171 76.4876 43.89 76.5659 44.124C76.6438 44.3577 76.702 44.6979 76.7409 45.1436C76.7799 45.5893 76.7994 45.9043 76.7994 46.0881ZM73.7794 49.2388C73.8459 48.8709 73.8792 48.1856 73.8792 47.1828C73.8792 46.18 73.8459 45.4917 73.7794 45.1184C73.7125 44.7451 73.601 44.458 73.4454 44.2577C73.1783 43.9123 72.7892 43.7393 72.2778 43.7393C71.766 43.7393 71.3766 43.9123 71.1098 44.2577C70.9539 44.458 70.8427 44.7451 70.7761 45.1184C70.7093 45.4917 70.676 46.1797 70.676 47.1828C70.676 48.1859 70.7093 48.8709 70.7761 49.2388C70.8427 49.6064 70.9539 49.8905 71.1098 50.0912C71.3769 50.4477 71.766 50.626 72.2778 50.626C72.7892 50.626 73.1786 50.4477 73.4454 50.0912C73.601 49.8905 73.7125 49.6064 73.7794 49.2388ZM88.4622 49.4896C88.4622 50.6594 88.0257 51.5762 87.1524 52.2391C86.2792 52.9019 85.1862 53.2335 83.8737 53.2335C82.8949 53.2335 82.0411 53.1193 81.3126 52.8908C80.5839 52.6628 79.936 52.2532 79.3688 51.6622L81.2374 49.7902C81.7935 50.3476 82.6779 50.626 83.8902 50.626C85.0249 50.626 85.5924 50.2695 85.5924 49.5563C85.5924 49.2554 85.5141 49.0214 85.3588 48.8544C85.1921 48.6874 84.9304 48.5814 84.5746 48.5369L83.1398 48.3363C82.0828 48.1805 81.288 47.8294 80.7541 47.2834C80.2091 46.726 79.9366 45.9295 79.9366 44.8931C79.9366 43.79 80.3287 42.8875 81.1127 42.1854C81.8969 41.4832 82.9506 41.1322 84.2745 41.1322C85.9985 41.1322 87.3335 41.6058 88.2787 42.5527L86.4434 44.3916C86.2096 44.1574 85.926 43.9849 85.5926 43.8732C85.2587 43.7618 85.0197 43.7033 84.8752 43.6978C84.7305 43.6921 84.5023 43.6892 84.1911 43.6892C83.7238 43.6892 83.3679 43.8009 83.1233 44.0237C82.8784 44.2465 82.7561 44.5027 82.7561 44.7925C82.7561 45.0045 82.8337 45.1883 82.9896 45.3442C83.1785 45.534 83.451 45.6511 83.8071 45.6953L85.2419 45.8956C86.2873 46.0407 87.0661 46.3695 87.5778 46.8822C88.1675 47.4615 88.4622 48.3306 88.4622 49.4896ZM100.124 53.1332H92.0491V41.2322H100.124V43.8396H94.969V45.8287H99.3738V48.4361H94.969V50.5255H100.124V53.1332ZM113.255 53.1332H109.868L107.766 48.7037H106.781V53.1332H103.862V41.2322H108.567C109.823 41.2322 110.813 41.6079 111.537 42.3605C112.259 43.1125 112.621 44.0126 112.621 45.0598C112.621 45.8067 112.432 46.4446 112.054 46.9738C111.676 47.5032 111.219 47.9015 110.686 48.1691L113.255 53.1332ZM109.351 45.9043C109.584 45.6647 109.701 45.3835 109.701 45.0598C109.701 44.737 109.584 44.4556 109.351 44.2159C109.117 43.9765 108.811 43.8567 108.433 43.8567H106.781V46.2635H108.433C108.811 46.2635 109.117 46.1437 109.351 45.9043ZM125.235 41.2325L121.297 53.1334H119.128L115.207 41.2325H118.227L120.229 47.885L122.198 41.2325H125.235ZM131.024 53.1332H128.105V41.2322H131.024V53.1332ZM143.721 49.3559C143.51 50.6263 142.998 51.5901 142.186 52.2475C141.374 52.9049 140.384 53.2337 139.216 53.2337C137.904 53.2337 136.802 52.788 135.913 51.8964C135.668 51.6513 135.465 51.3726 135.304 51.0606C135.142 50.7488 135.022 50.4756 134.945 50.2416C134.867 50.0077 134.809 49.668 134.77 49.222C134.731 48.7763 134.711 48.4613 134.711 48.2775C134.711 48.0934 134.711 47.7288 134.711 47.1825C134.711 46.6368 134.711 46.2714 134.711 46.0876C134.711 45.9038 134.731 45.589 134.77 45.1431C134.809 44.6977 134.867 44.3574 134.945 44.1235C135.022 43.8892 135.142 43.6165 135.304 43.3045C135.465 42.9924 135.668 42.7137 135.913 42.4687C136.802 41.577 137.904 41.1313 139.216 41.1313C140.384 41.1313 141.374 41.4602 142.186 42.1176C142.998 42.7753 143.51 43.739 143.721 45.0091H140.751C140.518 44.1625 140.011 43.7388 139.233 43.7388C138.721 43.7388 138.337 43.9058 138.081 44.24C137.926 44.4406 137.812 44.7332 137.74 45.1179C137.667 45.5023 137.631 46.1906 137.631 47.1823C137.631 48.1742 137.667 48.862 137.74 49.2467C137.812 49.6311 137.926 49.9236 138.081 50.1242C138.337 50.4588 138.721 50.6258 139.233 50.6258C140.011 50.6258 140.517 50.2023 140.751 49.3554H143.721V49.3559ZM155 53.1332H146.925V41.2322H155V43.8396H149.845V45.8287H154.249V48.4361H149.845V50.5255H155V53.1332Z" fill="#3B3B3B"/>
<path d="M21.2208 60.9676C21.2208 61.4141 21.079 61.7725 20.7951 62.0425C20.5112 62.3128 20.1372 62.4478 19.6729 62.4478H18.3431V64.513H17.8083V59.4944H19.6729C20.1372 59.4944 20.5112 59.6295 20.7951 59.8997C21.079 60.1698 21.2208 60.526 21.2208 60.9676ZM20.4046 61.7039C20.5921 61.528 20.686 61.2821 20.686 60.9673C20.686 60.6526 20.5921 60.4083 20.4046 60.2343C20.2171 60.0605 19.9567 59.9735 19.6236 59.9735H18.3431V61.9682H19.6236C19.9567 61.9685 20.2168 61.8804 20.4046 61.7039ZM24.7317 62.9127H22.3957C22.4098 63.1901 22.445 63.3991 22.5013 63.54C22.6607 63.9207 22.9749 64.1107 23.4441 64.1107C23.5943 64.1107 23.742 64.0825 23.8874 64.0261C24.0186 63.9697 24.1639 63.8664 24.3236 63.7157L24.6683 64.0188C24.4573 64.2259 24.2624 64.3642 24.0844 64.4347C23.8874 64.5146 23.6646 64.5545 23.4159 64.5545C22.9142 64.5545 22.534 64.4019 22.2761 64.0963C22.0182 63.7911 21.8892 63.3449 21.8892 62.7574C21.8892 62.2122 22.0158 61.7833 22.2691 61.471C22.5224 61.1587 22.8696 61.0023 23.3104 61.0023C23.7512 61.0023 24.0984 61.153 24.3517 61.4534C24.605 61.7541 24.7317 62.1629 24.7317 62.6798V62.9127ZM24.2248 62.5324C24.2153 62.3209 24.1942 62.168 24.1615 62.0742C24.1003 61.8722 23.9948 61.7147 23.8449 61.602C23.6947 61.4892 23.5163 61.4328 23.3101 61.4328C23.1272 61.4328 22.964 61.4786 22.8211 61.5702C22.678 61.6621 22.5714 61.7901 22.501 61.9544C22.4399 62.0861 22.4049 62.2786 22.3955 62.5326H24.2248V62.5324ZM29.1502 64.513H28.6436V62.046L27.6797 63.963H27.2927L26.3147 62.046V64.513H25.8152V61.0451H26.3147L27.4897 63.3782L28.6506 61.0451H29.1502V64.513ZM33.0692 62.7579C33.0692 63.4064 32.9285 63.8738 32.647 64.1606C32.3843 64.4238 32.0536 64.5553 31.655 64.5553C31.2561 64.5553 30.9254 64.4238 30.6629 64.1606C30.3815 63.8738 30.2408 63.4134 30.2408 62.7788C30.2408 62.1444 30.3815 61.6841 30.6629 61.3973C30.9254 61.134 31.2561 61.0026 31.655 61.0026C32.0536 61.0026 32.3843 61.134 32.647 61.3973C32.9285 61.6795 33.0692 62.1328 33.0692 62.7579ZM32.5626 62.7999C32.5626 62.5039 32.5426 62.274 32.5028 62.1092C32.463 61.9449 32.3913 61.8107 32.2882 61.7077C32.1288 61.5385 31.9175 61.4537 31.655 61.4537C31.3968 61.4537 31.1882 61.5383 31.0288 61.7077C30.841 61.8956 30.7473 62.2529 30.7473 62.7788C30.7473 63.3007 30.841 63.6577 31.0288 63.8502C31.1882 64.0193 31.3968 64.1042 31.655 64.1042C31.9175 64.1042 32.1285 64.0196 32.2882 63.8502C32.4709 63.6626 32.5626 63.3123 32.5626 62.7999ZM36.8401 64.513H36.3336V62.9412H34.659V64.513H34.1595V61.0451H34.659V62.5042H36.3336V61.0451H36.8401V64.513ZM40.3792 61.4821H39.2464V64.513H38.7398V61.4821H37.5508V61.0451H40.3792V61.4821ZM45.628 64.513H45.1214V61.8275L43.3413 64.513H42.8418V61.0451H43.3413V63.7165L45.1214 61.0451H45.628V64.513ZM51.2916 62.7579C51.2916 63.4064 51.1506 63.8738 50.8692 64.1606C50.6064 64.4238 50.276 64.5553 49.8771 64.5553C49.4785 64.5553 49.1478 64.4238 48.885 64.1606C48.6036 63.8738 48.4629 63.4134 48.4629 62.7788C48.4629 62.1444 48.6036 61.6841 48.885 61.3973C49.1478 61.134 49.4785 61.0026 49.8771 61.0026C50.276 61.0026 50.6064 61.134 50.8692 61.3973C51.1509 61.6795 51.2916 62.1328 51.2916 62.7579ZM50.785 62.7999C50.785 62.5039 50.765 62.274 50.7252 62.1092C50.6854 61.9449 50.6137 61.8107 50.5106 61.7077C50.3509 61.5385 50.1399 61.4537 49.8771 61.4537C49.6192 61.4537 49.4103 61.5383 49.2512 61.7077C49.0636 61.8956 48.9697 62.2529 48.9697 62.7788C48.9697 63.3007 49.0636 63.6577 49.2512 63.8502C49.4106 64.0193 49.6192 64.1042 49.8771 64.1042C50.1399 64.1042 50.3509 64.0196 50.5106 63.8502C50.6938 63.6626 50.785 63.3123 50.785 62.7999ZM53.6627 64.5553C53.3436 64.5553 53.0717 64.4743 52.8465 64.3121C52.6214 64.15 52.4617 63.9234 52.3681 63.6319C52.2836 63.3641 52.2412 62.852 52.2412 62.0954C52.2412 61.3859 52.2693 60.8995 52.3256 60.6363C52.3819 60.3731 52.5156 60.1429 52.7264 59.9456C52.8249 59.8515 52.935 59.7739 53.0573 59.7129C53.1791 59.652 53.3233 59.6061 53.49 59.5755C53.6565 59.5451 53.7926 59.524 53.8981 59.5121C54.0039 59.5004 54.163 59.4898 54.3768 59.4804C54.5901 59.4711 54.7297 59.4638 54.7955 59.4595V59.9174C54.7578 59.9222 54.589 59.9328 54.2889 59.9491C53.9888 59.9653 53.7436 59.9962 53.5536 60.0407C53.3637 60.0854 53.2078 60.1594 53.0857 60.2627C52.9355 60.3942 52.8335 60.5601 52.7797 60.7597C52.7258 60.9592 52.6988 61.2189 52.6988 61.5385C52.7832 61.3835 52.9215 61.259 53.1139 61.165C53.306 61.0709 53.5147 61.0237 53.7398 61.0237C54.0962 61.0237 54.3847 61.1273 54.6052 61.3341C54.9053 61.6161 55.0555 62.0954 55.0555 62.772C55.0555 63.4251 54.9145 63.8927 54.6331 64.1747C54.3898 64.4284 54.0662 64.5553 53.6627 64.5553ZM53.6627 64.1042C53.9162 64.1042 54.1224 64.0196 54.2818 63.8502C54.4648 63.6528 54.5565 63.3053 54.5565 62.807C54.5565 62.2667 54.4672 61.9048 54.2891 61.7215C54.1203 61.5431 53.9114 61.4537 53.6629 61.4537C53.4097 61.4537 53.1986 61.5431 53.0297 61.7215C52.8373 61.9284 52.7415 62.2854 52.7415 62.7929C52.7415 63.2909 52.8398 63.6436 53.037 63.8499C53.1961 64.0193 53.4048 64.1042 53.6627 64.1042ZM58.6089 64.0408C58.4165 64.243 58.2384 64.3791 58.0742 64.4496C57.9053 64.5203 57.7105 64.5556 57.4902 64.5556C57.0072 64.5556 56.6272 64.3981 56.3504 64.0833C56.0736 63.7686 55.9353 63.3337 55.9353 62.7791C55.9353 62.2247 56.0738 61.7901 56.3504 61.4751C56.6269 61.1601 57.0072 61.0028 57.4902 61.0028C57.7105 61.0028 57.9053 61.0381 58.0742 61.1088C58.2382 61.1793 58.4165 61.3157 58.6089 61.5177L58.2644 61.8419C58.1096 61.6819 57.9781 61.5786 57.8704 61.5315C57.753 61.48 57.6242 61.4539 57.4834 61.4539C56.7893 61.4539 56.4419 61.8958 56.4419 62.7791C56.4419 63.6629 56.7866 64.1045 57.4761 64.1045C57.6214 64.1045 57.7481 64.0809 57.8561 64.034C57.9686 63.9822 58.1045 63.874 58.2641 63.7098L58.6089 64.0408ZM62.1482 64.513H61.6416V61.4821H60.4174V62.6804C60.4174 63.3619 60.3213 63.8377 60.1289 64.1077C59.9365 64.378 59.667 64.513 59.3201 64.513H59.0879V64.076H59.2005C59.2754 64.076 59.3414 64.0692 59.3977 64.0549C59.454 64.0408 59.5182 64.0044 59.5912 63.9459C59.664 63.8871 59.7222 63.806 59.7668 63.7027C59.8115 63.5994 59.8502 63.4481 59.8832 63.2481C59.916 63.0485 59.9325 62.81 59.9325 62.5326V61.0454H62.1488V64.513H62.1482ZM65.8486 61.0451L64.2725 65.3518C64.1131 65.7842 63.8057 66.0005 63.3511 66.0005H63.1327V65.5494H63.2875C63.4515 65.5494 63.5724 65.5212 63.6498 65.4648C63.7272 65.4085 63.7965 65.2932 63.8574 65.1197L64.1037 64.4431L62.8583 61.0457H63.4071L64.357 63.8298L65.2995 61.0457H65.8486V61.0451ZM66.6087 64.513H65.9684L67.5937 62.6804L66.1092 61.0451H66.7283L68.1918 62.7086V61.0451H68.6913V62.7086L70.1621 61.0451H70.7742L69.2897 62.6804L70.9149 64.513H70.2749L68.6916 62.7227V64.513H68.1921V62.7227L66.6087 64.513ZM74.3834 64.513H73.8768V61.8275L72.0967 64.513H71.5971V61.0451H72.0967V63.7165L73.8768 61.0451H74.3834V64.513ZM78.3373 63.5544C78.3373 63.8505 78.2455 64.0844 78.0626 64.2557C77.8797 64.4273 77.6266 64.513 77.3027 64.513H75.6566V61.0451H77.2605C77.5655 61.0451 77.8115 61.1286 77.9993 61.2954C78.1865 61.4621 78.2807 61.6819 78.2807 61.9544C78.2807 62.3307 78.0975 62.5842 77.7319 62.7159C78.1354 62.8661 78.3373 63.1456 78.3373 63.5544ZM77.7814 61.9967C77.7814 61.6537 77.5774 61.4824 77.1693 61.4824H76.1561V62.5183H77.1693C77.5774 62.518 77.7814 62.3445 77.7814 61.9967ZM77.6724 63.9209C77.7822 63.8174 77.8374 63.6788 77.8374 63.5051C77.8374 63.3313 77.7822 63.1928 77.6724 63.0892C77.562 62.9859 77.4082 62.9341 77.2115 62.9341H76.1561V64.076H77.2115C77.4085 64.0757 77.562 64.0242 77.6724 63.9209ZM81.9112 64.513H81.4046V64.1817C81.2544 64.3227 81.1232 64.4165 81.0106 64.4637C80.8699 64.5247 80.6661 64.5553 80.3985 64.5553C79.9996 64.5553 79.6949 64.4686 79.4838 64.2945C79.2728 64.1205 79.1672 63.867 79.1672 63.533C79.1672 63.2183 79.2728 62.9729 79.4838 62.7964C79.6949 62.6199 79.988 62.5321 80.3633 62.5321H81.4046V62.2005C81.4046 61.9376 81.3318 61.7448 81.1865 61.6226C81.0412 61.5006 80.8112 61.4393 80.497 61.4393C80.2811 61.4393 80.103 61.4745 79.962 61.545C79.8589 61.5922 79.7534 61.6884 79.6454 61.834L79.3009 61.5168C79.4603 61.3336 79.6056 61.2089 79.7369 61.1433C79.9244 61.0492 80.1823 61.002 80.5108 61.002C81.4441 61.002 81.9109 61.3875 81.9109 62.1583V64.513H81.9112ZM81.4046 63.2863V62.9127H80.4337C79.9176 62.9127 79.66 63.1171 79.66 63.5262C79.66 63.7331 79.7266 63.8833 79.8603 63.9773C79.9939 64.0714 80.2061 64.1183 80.4973 64.1183C80.8207 64.1183 81.0531 64.0538 81.1938 63.9245C81.3345 63.7951 81.4046 63.5826 81.4046 63.2863ZM85.8305 64.513H85.3239V62.9412H83.6494V64.513H83.1498V61.0451H83.6494V62.5042H85.3239V61.0451H85.8305V64.513ZM89.8899 64.513H89.3833V61.8275L87.6032 64.513H87.1037V61.0451H87.6032V63.7165L89.3833 61.0451H89.8899V64.513ZM93.8086 62.9127H91.4727C91.4868 63.1901 91.5222 63.3991 91.5785 63.54C91.7379 63.9207 92.0521 64.1107 92.5211 64.1107C92.6712 64.1107 92.819 64.0825 92.9646 64.0261C93.0956 63.9697 93.2411 63.8664 93.4005 63.7157L93.7453 64.0188C93.5342 64.2259 93.3394 64.3642 93.1613 64.4347C92.9643 64.5146 92.7413 64.5545 92.4929 64.5545C91.9909 64.5545 91.611 64.4019 91.3531 64.0963C91.0949 63.7911 90.9659 63.3449 90.9659 62.7574C90.9659 62.2122 91.0928 61.7833 91.3458 61.471C91.5988 61.1587 91.9463 61.0023 92.3871 61.0023C92.8282 61.0023 93.1751 61.153 93.4287 61.4534C93.682 61.7541 93.8084 62.1629 93.8084 62.6798V62.9127H93.8086ZM93.302 62.5324C93.2928 62.3209 93.2717 62.168 93.239 62.0742C93.1778 61.8722 93.0726 61.7147 92.9224 61.602C92.7722 61.4892 92.5939 61.4328 92.3874 61.4328C92.2045 61.4328 92.0415 61.4786 91.8984 61.5702C91.7552 61.6621 91.6486 61.7901 91.5782 61.9544C91.5171 62.0861 91.4822 62.2786 91.4724 62.5326H93.302V62.5324ZM99.1066 64.513H98.6001V64.1817C98.4499 64.3227 98.3186 64.4165 98.206 64.4637C98.0653 64.5247 97.8616 64.5553 97.5939 64.5553C97.1951 64.5553 96.8904 64.4686 96.6793 64.2945C96.4682 64.1205 96.3626 63.867 96.3626 63.533C96.3626 63.2183 96.4682 62.9729 96.6793 62.7964C96.8904 62.6199 97.1834 62.5321 97.5588 62.5321H98.6001V62.2005C98.6001 61.9376 98.5273 61.7448 98.382 61.6226C98.2366 61.5006 98.0066 61.4393 97.6924 61.4393C97.4765 61.4393 97.2984 61.4745 97.1574 61.545C97.0543 61.5922 96.9488 61.6884 96.8408 61.834L96.4963 61.5168C96.6557 61.3336 96.801 61.2089 96.9323 61.1433C97.1198 61.0492 97.3777 61.002 97.7062 61.002C98.6396 61.002 99.1064 61.3875 99.1064 62.1583V64.513H99.1066ZM98.6001 63.2863V62.9127H97.6291C97.1131 62.9127 96.8554 63.1171 96.8554 63.5262C96.8554 63.7331 96.922 63.8833 97.0557 63.9773C97.1894 64.0714 97.4015 64.1183 97.6927 64.1183C98.0161 64.1183 98.2485 64.0538 98.3893 63.9245C98.53 63.7951 98.6001 63.5826 98.6001 63.2863ZM103.026 63.5544C103.026 63.8505 102.934 64.0844 102.751 64.2557C102.568 64.4273 102.315 64.513 101.991 64.513H100.345V61.0451H101.949C102.254 61.0451 102.5 61.1286 102.688 61.2954C102.875 61.4621 102.969 61.6819 102.969 61.9544C102.969 62.3307 102.786 62.5842 102.421 62.7159C102.824 62.8661 103.026 63.1456 103.026 63.5544ZM102.47 61.9967C102.47 61.6537 102.266 61.4824 101.858 61.4824H100.845V62.5183H101.858C102.266 62.518 102.47 62.3445 102.47 61.9967ZM102.361 63.9209C102.471 63.8174 102.526 63.6788 102.526 63.5051C102.526 63.3313 102.471 63.1928 102.361 63.0892C102.251 62.9859 102.097 62.9341 101.9 62.9341H100.845V64.076H101.9C102.097 64.0757 102.251 64.0242 102.361 63.9209ZM106.403 61.4821H105.27V64.513H104.763V61.4821H103.574V61.0451H106.403V61.4821H106.403ZM109.681 62.7579C109.681 63.4064 109.54 63.8738 109.259 64.1606C108.996 64.4238 108.666 64.5553 108.267 64.5553C107.868 64.5553 107.538 64.4238 107.275 64.1606C106.993 63.8738 106.853 63.4134 106.853 62.7788C106.853 62.1444 106.993 61.6841 107.275 61.3973C107.538 61.134 107.868 61.0026 108.267 61.0026C108.666 61.0026 108.996 61.134 109.259 61.3973C109.541 61.6795 109.681 62.1328 109.681 62.7579ZM109.175 62.7999C109.175 62.5039 109.155 62.274 109.115 62.1092C109.075 61.9449 109.003 61.8107 108.9 61.7077C108.741 61.5385 108.53 61.4537 108.267 61.4537C108.009 61.4537 107.8 61.5383 107.641 61.7077C107.453 61.8956 107.359 62.2529 107.359 62.7788C107.359 63.3007 107.453 63.6577 107.641 63.8502C107.8 64.0193 108.009 64.1042 108.267 64.1042C108.53 64.1042 108.741 64.0196 108.9 63.8502C109.084 63.6626 109.175 63.3123 109.175 62.7999ZM114.107 64.513H113.601V62.046L112.637 63.963H112.25L111.272 62.046V64.513H110.772V61.0451H111.272L112.447 63.3782L113.608 61.0451H114.107V64.513H114.107ZM118.026 62.7579C118.026 63.4064 117.885 63.8738 117.603 64.1606C117.341 64.4238 117.01 64.5553 116.611 64.5553C116.213 64.5553 115.882 64.4238 115.619 64.1606C115.338 63.8738 115.197 63.4134 115.197 62.7788C115.197 62.1444 115.338 61.6841 115.619 61.3973C115.882 61.134 116.213 61.0026 116.611 61.0026C117.01 61.0026 117.341 61.134 117.603 61.3973C117.885 61.6795 118.026 62.1328 118.026 62.7579ZM117.519 62.7999C117.519 62.5039 117.499 62.274 117.459 62.1092C117.42 61.9449 117.348 61.8107 117.245 61.7077C117.085 61.5385 116.874 61.4537 116.611 61.4537C116.354 61.4537 116.145 61.5383 115.985 61.7077C115.798 61.8956 115.704 62.2529 115.704 62.7788C115.704 63.3007 115.798 63.6577 115.985 63.8502C116.145 64.0193 116.354 64.1042 116.611 64.1042C116.874 64.1042 117.085 64.0196 117.245 63.8502C117.428 63.6626 117.519 63.3123 117.519 62.7999ZM120.397 64.5553C120.078 64.5553 119.806 64.4743 119.581 64.3121C119.356 64.15 119.196 63.9234 119.102 63.6319C119.018 63.3641 118.975 62.852 118.975 62.0954C118.975 61.3859 119.004 60.8995 119.06 60.6363C119.116 60.3731 119.25 60.1429 119.461 59.9456C119.559 59.8515 119.669 59.7739 119.792 59.7129C119.913 59.652 120.058 59.6061 120.224 59.5755C120.391 59.5451 120.527 59.524 120.632 59.5121C120.738 59.5004 120.897 59.4898 121.111 59.4804C121.324 59.4711 121.464 59.4638 121.53 59.4595V59.9174C121.492 59.9222 121.323 59.9328 121.023 59.9491C120.723 59.9653 120.478 59.9962 120.288 60.0407C120.098 60.0854 119.942 60.1594 119.82 60.2627C119.67 60.3942 119.568 60.5601 119.514 60.7597C119.46 60.9592 119.433 61.2189 119.433 61.5385C119.517 61.3835 119.656 61.259 119.848 61.165C120.04 61.0709 120.249 61.0237 120.474 61.0237C120.83 61.0237 121.119 61.1273 121.34 61.3341C121.64 61.6161 121.79 62.0954 121.79 62.772C121.79 63.4251 121.649 63.8927 121.367 64.1747C121.124 64.4284 120.8 64.5553 120.397 64.5553ZM120.397 64.1042C120.651 64.1042 120.857 64.0196 121.016 63.8502C121.199 63.6528 121.291 63.3053 121.291 62.807C121.291 62.2667 121.201 61.9048 121.023 61.7215C120.855 61.5431 120.646 61.4537 120.397 61.4537C120.144 61.4537 119.933 61.5431 119.764 61.7215C119.572 61.9284 119.476 62.2854 119.476 62.7929C119.476 63.2909 119.574 63.6436 119.771 63.8499C119.93 64.0193 120.139 64.1042 120.397 64.1042ZM125.653 64.513H125.146V61.8275L123.366 64.513H122.867V61.0451H123.366V63.7165L125.146 61.0451H125.653V64.513ZM129.494 64.513H128.988V61.4821H127.764V62.6804C127.764 63.3619 127.667 63.8377 127.475 64.1077C127.283 64.378 127.013 64.513 126.666 64.513H126.434V64.076H126.547C126.622 64.076 126.688 64.0692 126.744 64.0549C126.8 64.0408 126.864 64.0044 126.937 63.9459C127.01 63.8871 127.068 63.806 127.113 63.7027C127.158 63.5994 127.196 63.4481 127.229 63.2481C127.262 63.0485 127.279 62.81 127.279 62.5326V61.0454H129.495V64.513H129.494ZM133.413 62.9127H131.077C131.092 63.1901 131.127 63.3991 131.183 63.54C131.343 63.9207 131.657 64.1107 132.126 64.1107C132.276 64.1107 132.424 64.0825 132.569 64.0261C132.7 63.9697 132.846 63.8664 133.005 63.7157L133.35 64.0188C133.139 64.2259 132.944 64.3642 132.766 64.4347C132.569 64.5146 132.346 64.5545 132.098 64.5545C131.596 64.5545 131.216 64.4019 130.958 64.0963C130.7 63.7911 130.571 63.3449 130.571 62.7574C130.571 62.2122 130.698 61.7833 130.951 61.471C131.204 61.1587 131.551 61.0023 131.992 61.0023C132.433 61.0023 132.78 61.153 133.033 61.4534C133.287 61.7541 133.413 62.1629 133.413 62.6798V62.9127H133.413ZM132.907 62.5324C132.898 62.3209 132.876 62.168 132.844 62.0742C132.783 61.8722 132.677 61.7147 132.527 61.602C132.377 61.4892 132.199 61.4328 131.992 61.4328C131.809 61.4328 131.646 61.4786 131.503 61.5702C131.36 61.6621 131.253 61.7901 131.183 61.9544C131.122 62.0861 131.087 62.2786 131.077 62.5326H132.907V62.5324ZM137.283 64.513H136.777V61.8275L134.996 64.513H134.497V61.0451H134.996V63.7165L136.777 61.0451H137.283V64.513ZM136.917 59.5508C136.879 60.1429 136.537 60.4387 135.89 60.4387C135.242 60.4387 134.9 60.1426 134.862 59.5508H135.313C135.341 59.9033 135.533 60.0795 135.89 60.0795C136.246 60.0795 136.439 59.9033 136.467 59.5508H136.917Z" fill="#3B3B3B"/>
</g>
<defs>
<clipPath id="clip0">
<rect width="155" height="66" fill="white"/>
</clipPath>
</defs>
</svg>
