<svg xmlns="http://www.w3.org/2000/svg" width="24" height="24" viewBox="0 0 24 24" fill="none">
<path d="M16.9999 12.5C16.9999 12.224 17.2219 12 17.4959 12H17.5049C17.7779 12 17.9999 12.224 17.9999 12.5C17.9999 12.776 17.7779 13 17.5039 13H17.4949C17.2219 13 16.9999 12.776 16.9999 12.5ZM12.4959 8H12.5049C12.7779 8 12.9999 7.776 12.9999 7.5C12.9999 7.224 12.7779 7 12.5039 7H12.4949C12.2219 7 11.9999 7.224 11.9999 7.5C11.9999 7.776 12.2219 8 12.4959 8ZM7.4959 13H7.5049C7.7779 13 7.9999 12.776 7.9999 12.5C7.9999 12.224 7.7779 12 7.5039 12H7.4959C7.2219 12 6.9999 12.224 6.9999 12.5C6.9999 12.776 7.2219 13 7.4959 13ZM8.4959 10H8.5049C8.7779 10 8.9999 9.776 8.9999 9.5C8.9999 9.224 8.7779 9 8.5039 9H8.4959C8.2219 9 7.9999 9.224 7.9999 9.5C7.9999 9.776 8.2219 10 8.4959 10ZM16.5039 9H16.4949C16.2219 9 15.9999 9.224 15.9999 9.5C15.9999 9.776 16.2219 10 16.4959 10H16.5049C16.7779 10 16.9999 9.776 16.9999 9.5C16.9999 9.224 16.7779 9 16.5039 9ZM16.4959 16H16.5049C16.7779 16 16.9999 15.776 16.9999 15.5C16.9999 15.224 16.7779 15 16.5039 15H16.4949C16.2219 15 15.9999 15.224 15.9999 15.5C15.9999 15.776 16.2219 16 16.4959 16ZM8.5039 15H8.4959C8.2219 15 7.9999 15.224 7.9999 15.5C7.9999 15.776 8.2219 16 8.4959 16H8.5049C8.7779 16 8.9999 15.776 8.9999 15.5C8.9999 15.224 8.7779 15 8.5039 15ZM12.4959 17C12.2219 17 11.9999 17.224 11.9999 17.5C11.9999 17.776 12.2219 18 12.4959 18H12.5049C12.7779 18 12.9999 17.776 12.9999 17.5C12.9999 17.224 12.7779 17 12.5039 17H12.4959ZM8.9999 12.5C8.9999 10.567 10.5669 9 12.4999 9C14.4329 9 15.9999 10.567 15.9999 12.5C15.9999 14.433 14.4329 16 12.4999 16C10.5669 16 8.9999 14.433 8.9999 12.5ZM9.9999 12.5C9.9999 13.878 11.1219 15 12.4999 15C13.8779 15 14.9999 13.878 14.9999 12.5C14.9999 11.122 13.8779 10 12.4999 10C11.1219 10 9.9999 11.122 9.9999 12.5ZM10.5559 12.5C10.5559 11.426 11.4269 10.556 12.4999 10.556C13.5729 10.556 14.4439 11.427 14.4439 12.5C14.4439 13.574 13.5729 14.444 12.4999 14.444C11.4269 14.444 10.5559 13.574 10.5559 12.5ZM11.5559 12.5C11.5559 13.021 11.9799 13.444 12.4999 13.444C13.0199 13.444 13.4439 13.02 13.4439 12.5C13.4439 11.98 13.0199 11.556 12.4999 11.556C11.9799 11.556 11.5559 11.979 11.5559 12.5ZM23.9999 12.5C23.9999 18.851 18.8509 24 12.4999 24C6.3179 24 1.2889 19.117 1.0249 13H0.999902H0.0249023C0.289902 5.778 6.2129 0 13.4999 0C13.6689 0 13.8329 0.019 13.9999 0.025V1V1.025V1.117C19.6399 1.853 23.9999 6.659 23.9999 12.5ZM1.1149 12H2.0259H4.1339C4.8279 7.629 8.4929 4.26 12.9999 4.024V2.025V1.025C6.8459 1.27 1.8399 5.978 1.1149 12ZM22.9999 12.5C22.9999 7.221 19.0799 2.852 13.9999 2.122V4.025V5V5.025C13.8339 5.016 13.6689 5 13.4999 5C8.9819 5 5.2859 8.546 5.0249 13H4.9999H4.0249H2.0249C2.2889 18.557 6.8789 23 12.4999 23C18.2899 23 22.9999 18.29 22.9999 12.5ZM14.9999 3.344V4.377C18.4699 5.447 20.9999 8.684 20.9999 12.501C20.9999 17.188 17.1869 21.001 12.4999 21.001C8.3259 21.001 4.8519 17.974 4.1409 14.001H3.1299C3.8509 18.533 7.7649 22.001 12.4999 22.001C17.7469 22.001 21.9999 17.748 21.9999 12.501C21.9999 8.12 19.0319 4.442 14.9999 3.344Z" fill="#668eb1"/>
</svg>