<svg width="24" height="24" viewBox="0 0 24 24" fill="none" xmlns="http://www.w3.org/2000/svg">
<path d="M11.5 13C9.57 13 8 11.43 8 9.5C8 7.57 9.57 6 11.5 6C13.43 6 15 7.57 15 9.5C15 11.43 13.43 13 11.5 13ZM11.5 7C10.122 7 9 8.122 9 9.5C9 10.878 10.122 12 11.5 12C12.878 12 14 10.878 14 9.5C14 8.122 12.878 7 11.5 7ZM11.5 19.995L11.186 19.741C10.933 19.536 5 14.679 5 9.5C5 5.916 7.916 3 11.5 3C15.084 3 18 5.916 18 9.5C18 14.679 12.067 19.536 11.814 19.74L11.5 19.995ZM11.5 4C8.467 4 6 6.467 6 9.5C6 13.557 10.289 17.625 11.5 18.693C12.711 17.625 17 13.557 17 9.5C17 6.467 14.533 4 11.5 4Z" fill="#fff"/>
</svg>
