<svg width="550" height="476" viewBox="0 0 550 476" fill="none" xmlns="http://www.w3.org/2000/svg">
<path opacity="0.5" d="M196.274 221.472C196.124 221.472 195.986 221.376 195.936 221.23L192.196 210.277C191.339 210.276 190.475 210.247 189.623 210.189L189.485 210.178C189.23 210.16 188.975 210.141 188.719 210.118L187.816 210.024C187.561 209.996 187.304 209.963 187.047 209.929C187.047 209.929 186.918 209.912 186.917 209.912C186.071 209.796 185.218 209.649 184.378 209.477L178.503 219.45C178.415 219.599 178.231 219.665 178.068 219.602L170.6 216.761C170.437 216.699 170.343 216.529 170.376 216.358L172.613 205.003C171.872 204.574 171.139 204.117 170.429 203.641L170.349 203.586C170.101 203.418 169.891 203.274 169.682 203.127L168.948 202.598C168.738 202.443 168.531 202.286 168.326 202.126C168.326 202.126 168.228 202.052 168.227 202.052C167.547 201.525 166.881 200.971 166.241 200.404L156.166 206.103C156.015 206.188 155.823 206.152 155.713 206.017L150.666 199.823C150.556 199.688 150.559 199.494 150.674 199.362L158.29 190.646C157.863 189.904 157.456 189.139 157.079 188.372C157.079 188.372 157.022 188.256 157.022 188.255C156.909 188.023 156.797 187.789 156.688 187.555L156.316 186.727C156.214 186.493 156.115 186.256 156.018 186.019L155.965 185.892C155.643 185.104 155.343 184.293 155.072 183.478L143.498 183.375C143.324 183.373 143.176 183.246 143.148 183.074L141.874 175.186C141.846 175.014 141.947 174.847 142.111 174.791L153.065 171.05C153.065 170.192 153.095 169.327 153.153 168.477C153.153 168.477 153.163 168.343 153.163 168.342C153.181 168.085 153.201 167.828 153.224 167.572C153.224 167.57 153.232 167.479 153.232 167.477L153.316 166.669C153.345 166.413 153.378 166.159 153.411 165.904L153.429 165.767C153.544 164.924 153.69 164.072 153.862 163.231L143.889 157.356C143.739 157.268 143.675 157.085 143.737 156.921L146.578 149.452C146.64 149.289 146.811 149.192 146.981 149.228L158.338 151.465C158.769 150.721 159.226 149.987 159.701 149.279L159.778 149.167C159.892 148.998 160.007 148.826 160.127 148.655L160.746 147.797C160.898 147.591 161.054 147.387 161.21 147.183C161.211 147.182 161.278 147.095 161.278 147.094C161.814 146.404 162.367 145.737 162.938 145.094L157.239 135.019C157.153 134.868 157.189 134.676 157.324 134.566L163.518 129.519C163.652 129.409 163.847 129.412 163.979 129.527L172.695 137.143C173.434 136.717 174.197 136.311 174.967 135.932L175.064 135.885C175.321 135.761 175.552 135.65 175.786 135.541L177.326 134.87C177.326 134.869 177.449 134.818 177.449 134.818C178.234 134.498 179.045 134.197 179.865 133.924L179.967 122.35C179.968 122.175 180.095 122.028 180.267 122L188.155 120.727C188.332 120.698 188.494 120.799 188.551 120.964L192.291 131.916C193.153 131.918 194.018 131.947 194.866 132.005L194.996 132.015C195.254 132.033 195.512 132.052 195.771 132.077L196.671 132.168C196.926 132.198 197.18 132.23 197.433 132.264L197.569 132.282C197.96 132.336 198.346 132.391 198.73 132.457C199.192 132.534 199.652 132.622 200.11 132.716L205.985 122.743C206.074 122.594 206.259 122.53 206.42 122.591L213.889 125.432C214.052 125.494 214.146 125.664 214.113 125.835L211.875 137.191C212.61 137.616 213.345 138.074 214.061 138.554C214.061 138.554 214.17 138.628 214.17 138.629C214.384 138.773 214.597 138.918 214.808 139.067L215.542 139.596C215.749 139.749 215.954 139.906 216.157 140.062L216.264 140.144C216.939 140.667 217.605 141.22 218.246 141.79L228.321 136.091C228.472 136.006 228.663 136.041 228.774 136.177L233.821 142.371C233.931 142.506 233.928 142.7 233.813 142.832L226.197 151.548C226.596 152.241 226.972 152.941 227.317 153.632L227.408 153.82C227.408 153.821 227.467 153.942 227.467 153.943C227.58 154.174 227.691 154.406 227.8 154.639L228.171 155.468C228.274 155.702 228.373 155.939 228.47 156.177L228.139 156.313L228.488 156.219C228.488 156.221 228.522 156.302 228.523 156.303C228.845 157.091 229.145 157.902 229.416 158.717L240.99 158.819C241.164 158.821 241.312 158.948 241.34 159.12L242.614 167.009C242.642 167.181 242.541 167.348 242.377 167.404L231.423 171.145C231.423 171.951 231.398 172.746 231.351 173.51L231.329 173.816C231.308 174.112 231.288 174.367 231.265 174.622L231.173 175.524C231.144 175.78 231.111 176.037 231.077 176.293C231.077 176.294 231.06 176.423 231.06 176.424C230.944 177.27 230.798 178.123 230.626 178.963L240.599 184.838C240.749 184.926 240.813 185.109 240.751 185.273L237.91 192.742C237.848 192.904 237.675 193.001 237.507 192.966L226.15 190.729C225.72 191.472 225.262 192.206 224.788 192.913C224.788 192.914 224.709 193.029 224.708 193.03L223.743 194.395C223.59 194.603 223.433 194.809 223.275 195.014C223.272 195.018 223.207 195.104 223.203 195.108C222.672 195.794 222.119 196.46 221.55 197.1L227.249 207.174C227.335 207.325 227.299 207.517 227.164 207.627L220.969 212.675C220.835 212.784 220.639 212.781 220.508 212.667L211.793 205.05C211.048 205.479 210.285 205.886 209.521 206.262C209.521 206.262 209.399 206.321 209.398 206.321C209.167 206.433 208.935 206.545 208.701 206.653L207.873 207.024L207.595 206.756L207.738 207.084C207.594 207.146 207.45 207.205 207.305 207.265L207.036 207.376C206.249 207.697 205.438 207.997 204.623 208.269L204.521 219.843C204.52 220.018 204.393 220.165 204.221 220.193L196.333 221.466C196.312 221.47 196.293 221.472 196.274 221.472ZM192.452 209.561C192.605 209.561 192.741 209.658 192.79 209.803L196.516 220.713L203.808 219.536L203.91 208.007C203.911 207.853 204.011 207.718 204.157 207.67C205.037 207.384 205.916 207.063 206.767 206.714L207.033 206.605C207.173 206.547 207.312 206.49 207.451 206.429L207.588 206.368L208.398 206.005C208.629 205.899 208.857 205.789 209.084 205.679L209.338 205.953L209.178 205.634C210.029 205.215 210.853 204.773 211.653 204.305C211.786 204.228 211.954 204.244 212.069 204.344L220.751 211.931L226.478 207.264L220.801 197.23C220.725 197.096 220.743 196.929 220.846 196.815C221.463 196.129 222.063 195.411 222.63 194.681L222.99 194.798L222.706 194.581C222.861 194.378 223.016 194.176 223.167 193.971L224.116 192.628L224.49 192.714L224.193 192.515C224.705 191.752 225.197 190.957 225.656 190.153C225.732 190.019 225.886 189.948 226.036 189.979L237.348 192.208L239.974 185.304L230.04 179.451C229.908 179.374 229.84 179.22 229.872 179.069C230.063 178.165 230.224 177.243 230.35 176.329L230.721 176.249L230.367 176.202C230.401 175.95 230.433 175.699 230.462 175.446L230.552 174.56C230.575 174.309 230.594 174.06 230.612 173.809L230.637 173.47C230.689 172.638 230.713 171.772 230.708 170.894C230.707 170.741 230.805 170.603 230.95 170.554L241.861 166.827L240.683 159.534L229.155 159.433C229.001 159.432 228.865 159.332 228.818 159.186C228.531 158.305 228.21 157.426 227.862 156.576L228.141 156.316L227.81 156.452C227.714 156.22 227.617 155.987 227.516 155.757L227.151 154.943C227.046 154.714 226.936 154.487 226.825 154.259L227.088 153.982L226.767 154.14L226.677 153.953C226.304 153.203 225.891 152.441 225.451 151.69C225.373 151.557 225.389 151.39 225.491 151.274L233.077 142.592L228.411 136.865L218.375 142.542C218.242 142.615 218.074 142.598 217.96 142.496C217.273 141.877 216.555 141.277 215.828 140.713L215.723 140.634C215.521 140.478 215.321 140.325 215.118 140.175L214.397 139.655C214.189 139.509 213.98 139.365 213.771 139.223L213.862 138.853L213.663 139.15C212.889 138.63 212.094 138.138 211.299 137.686C211.165 137.61 211.095 137.457 211.125 137.306L213.354 125.994L206.449 123.368L200.597 133.302C200.519 133.434 200.364 133.5 200.215 133.47C199.684 133.358 199.15 133.254 198.612 133.164C198.235 133.1 197.856 133.045 197.476 132.993L197.341 132.975C197.091 132.942 196.841 132.91 196.591 132.881L195.707 132.79C195.454 132.768 195.201 132.748 194.949 132.73L194.844 132.364L194.82 132.72C193.903 132.658 192.97 132.631 192.04 132.634C191.916 132.629 191.749 132.538 191.7 132.392L187.975 121.483L180.683 122.66L180.581 134.188C180.58 134.341 180.48 134.477 180.334 134.525C179.448 134.814 178.569 135.135 177.723 135.482L177.466 135.202L177.602 135.532L176.091 136.191C175.862 136.297 175.634 136.407 175.407 136.517L175.153 136.243L175.313 136.562C174.455 136.984 173.631 137.426 172.838 137.89C172.706 137.969 172.539 137.952 172.422 137.851L163.74 130.265L158.013 134.931L163.69 144.966C163.766 145.1 163.748 145.267 163.645 145.381C163.025 146.069 162.426 146.787 161.862 147.514L161.498 147.402L161.782 147.62C161.628 147.82 161.475 148.02 161.325 148.224L160.719 149.065C160.601 149.234 160.488 149.402 160.375 149.571L160.3 149.68C159.788 150.443 159.296 151.239 158.837 152.043C158.761 152.178 158.61 152.251 158.457 152.217L147.145 149.988L144.519 156.892L154.453 162.745C154.585 162.822 154.653 162.976 154.621 163.127C154.429 164.032 154.268 164.954 154.143 165.866L153.772 165.951L154.126 165.999C154.092 166.248 154.061 166.498 154.032 166.749L153.949 167.546L153.942 167.636C153.919 167.887 153.9 168.138 153.882 168.391L153.516 168.499L153.872 168.523C153.81 169.441 153.781 170.376 153.787 171.301C153.788 171.454 153.69 171.592 153.545 171.641L142.634 175.368L143.812 182.66L155.341 182.762C155.495 182.763 155.631 182.863 155.678 183.009C155.965 183.89 156.286 184.769 156.634 185.619C156.634 185.619 156.685 185.741 156.685 185.742C156.781 185.976 156.878 186.208 156.979 186.437L157.344 187.251C157.45 187.48 157.56 187.71 157.672 187.939L157.407 188.211L157.728 188.054C158.135 188.883 158.578 189.707 159.044 190.504C159.122 190.637 159.106 190.804 159.004 190.92L151.418 199.602L156.084 205.329L166.119 199.652C166.251 199.578 166.419 199.594 166.534 199.698C167.219 200.315 167.937 200.915 168.668 201.482L168.769 201.558C168.971 201.714 169.173 201.868 169.378 202.02L170.1 202.541C170.305 202.685 170.512 202.826 170.719 202.967L170.835 203.046C171.6 203.56 172.395 204.052 173.196 204.508C173.33 204.584 173.4 204.737 173.37 204.888L171.141 216.2L178.045 218.826L183.897 208.892C183.975 208.76 184.126 208.695 184.279 208.724C185.183 208.915 186.105 209.077 187.019 209.202L187.099 209.573L187.147 209.219C187.397 209.253 187.649 209.285 187.901 209.313L188.787 209.405C189.037 209.426 189.287 209.446 189.538 209.464L189.673 209.475C190.593 209.537 191.53 209.573 192.452 209.56C192.45 209.561 192.451 209.561 192.452 209.561ZM192.309 203.141C189.048 203.141 185.777 202.65 182.67 201.682C182.576 201.653 182.498 201.586 182.455 201.497C182.412 201.408 182.407 201.306 182.442 201.214L188.609 185C188.673 184.833 188.85 184.735 189.025 184.779C190.818 185.202 192.655 185.266 194.484 184.971C196.312 184.675 198.035 184.035 199.604 183.069C199.757 182.977 199.956 183.009 200.068 183.148L211.026 196.597C211.088 196.673 211.116 196.772 211.104 196.869C211.091 196.967 211.038 197.056 210.958 197.112C207.157 199.838 202.726 201.736 198.143 202.602L197.925 202.279L197.989 202.631C197.826 202.661 197.662 202.687 197.499 202.712L197.143 202.77C197.001 202.793 196.86 202.817 196.719 202.836L196.564 202.857C195.158 203.048 193.734 203.141 192.309 203.141ZM183.247 201.111C187.51 202.382 192.073 202.741 196.47 202.15L196.623 202.129C196.756 202.11 196.892 202.088 197.027 202.066L197.391 202.007C197.548 201.982 197.706 201.957 197.863 201.929L198.078 202.252L198.012 201.9C202.368 201.077 206.586 199.299 210.233 196.753L199.712 183.841C198.135 184.766 196.416 185.384 194.6 185.677C192.782 185.969 190.956 185.925 189.169 185.544L183.247 201.111ZM179.22 200.346C179.17 200.346 179.119 200.335 179.073 200.314C174.813 198.386 170.954 195.499 167.912 191.962L167.808 191.839C167.7 191.712 167.593 191.579 167.486 191.447L167.266 191.176C167.176 191.066 167.085 190.956 166.997 190.844C166.997 190.843 166.9 190.719 166.899 190.719C164.05 187.025 162 182.66 160.972 178.098C160.95 178.002 160.969 177.902 161.025 177.82C161.08 177.738 161.167 177.683 161.264 177.668L178.394 174.901C178.572 174.865 178.742 174.979 178.793 175.151C179.864 178.721 182.267 181.671 185.561 183.456C185.718 183.542 185.789 183.73 185.725 183.897L179.556 200.115C179.521 200.208 179.45 200.281 179.358 200.318C179.312 200.338 179.266 200.346 179.22 200.346ZM167.559 190.404C167.643 190.512 167.73 190.618 167.817 190.723L168.041 190.997C168.145 191.126 168.248 191.254 168.355 191.379L168.453 191.495C171.346 194.857 174.994 197.62 179.022 199.504L184.945 183.932C181.716 182.096 179.337 179.176 178.201 175.657L161.755 178.313C162.786 182.64 164.756 186.771 167.465 190.283L167.277 190.625L167.559 190.404ZM213.701 194.778C213.693 194.778 213.684 194.778 213.676 194.777C213.578 194.77 213.487 194.722 213.425 194.646L202.464 181.194C202.351 181.055 202.358 180.854 202.48 180.723C205.044 177.993 206.397 174.437 206.289 170.711C206.284 170.531 206.413 170.376 206.589 170.348L223.719 167.581C223.816 167.565 223.916 167.59 223.994 167.65C224.072 167.711 224.122 167.8 224.131 167.898C224.591 172.551 224.019 177.337 222.478 181.739L222.141 181.621L222.478 181.739L222.141 181.621L222.462 181.787L222.426 181.889C222.37 182.045 222.31 182.201 222.251 182.355L222.127 182.679C222.075 182.817 222.023 182.954 221.969 183.091L221.929 183.188C220.135 187.553 217.38 191.51 213.943 194.683C213.877 194.745 213.79 194.778 213.701 194.778ZM203.212 180.982L213.736 193.898C216.968 190.84 219.561 187.069 221.247 182.967L221.583 182.098C221.641 181.949 221.699 181.798 221.753 181.647L221.786 181.553L221.803 181.503C223.268 177.318 223.838 172.778 223.454 168.348L207.008 171.004C207.038 174.702 205.699 178.223 203.212 180.982ZM188.019 185.233C187.822 185.233 187.661 185.073 187.661 184.876C187.661 184.679 187.82 184.519 188.017 184.519H188.019C188.216 184.519 188.376 184.679 188.376 184.876C188.376 185.073 188.216 185.233 188.019 185.233ZM187.022 184.911L187.012 184.907C186.866 184.849 186.76 184.699 186.76 184.548C186.76 184.512 186.766 184.475 186.779 184.44C186.846 184.257 187.019 184.151 187.203 184.215L187.153 184.578L187.022 184.911ZM200.591 183.203C200.394 183.203 200.234 183.043 200.234 182.846C200.234 182.726 200.294 182.619 200.385 182.554C200.515 182.46 200.699 182.463 200.827 182.575C200.909 182.645 200.951 182.745 200.951 182.846C200.951 182.929 200.922 183.012 200.864 183.079C200.795 183.157 200.695 183.203 200.591 183.203ZM201.341 182.611C201.237 182.611 201.134 182.572 201.068 182.49C201.009 182.417 200.978 182.332 200.978 182.251C200.978 182.162 201.015 182.076 201.095 182.012C201.096 182.011 201.152 181.966 201.153 181.965C201.309 181.843 201.532 181.869 201.655 182.024C201.707 182.089 201.732 182.169 201.732 182.246C201.732 182.351 201.685 182.456 201.596 182.526C201.525 182.582 201.432 182.611 201.341 182.611ZM192.228 181.848C189.989 181.848 187.811 181.148 185.957 179.809C183.627 178.127 182.092 175.643 181.635 172.813C181.178 169.984 181.853 167.142 183.535 164.812C185.217 162.482 187.702 160.947 190.531 160.491C193.361 160.032 196.202 160.708 198.532 162.39C200.862 164.072 202.397 166.556 202.854 169.386C203.311 172.215 202.636 175.057 200.954 177.387C199.272 179.717 196.787 181.252 193.958 181.708C193.38 181.802 192.801 181.848 192.228 181.848ZM192.26 161.066C191.724 161.066 191.184 161.109 190.644 161.196C188.003 161.623 185.684 163.055 184.114 165.23C182.544 167.406 181.914 170.058 182.341 172.7C182.767 175.341 184.2 177.66 186.375 179.229C188.549 180.799 191.202 181.427 193.843 181.003C196.484 180.576 198.803 179.144 200.374 176.968C201.944 174.793 202.574 172.141 202.147 169.499C201.721 166.858 200.288 164.539 198.113 162.969C196.382 161.72 194.349 161.066 192.26 161.066ZM160.713 174.623C160.635 174.623 160.558 174.598 160.495 174.549C160.417 174.488 160.367 174.399 160.358 174.301C159.898 169.644 160.47 164.856 162.013 160.452V160.451L162.35 160.57L162.037 160.382C162.113 160.17 162.166 160.032 162.219 159.895L162.321 159.627C162.387 159.451 162.453 159.276 162.523 159.102L162.581 158.96C164.354 154.647 167.108 150.689 170.546 147.517C170.618 147.45 170.709 147.409 170.814 147.423C170.912 147.43 171.003 147.478 171.065 147.554L182.026 161.006C182.139 161.145 182.132 161.346 182.01 161.477C179.446 164.207 178.093 167.763 178.201 171.489C178.206 171.669 178.077 171.824 177.901 171.852L160.771 174.619C160.751 174.621 160.732 174.623 160.713 174.623ZM170.752 148.301C167.52 151.359 164.927 155.13 163.241 159.232L163.186 159.367C163.117 159.538 163.053 159.708 162.989 159.878L162.885 160.152C162.834 160.284 162.782 160.417 162.735 160.55L162.349 160.57L162.686 160.688C161.219 164.875 160.649 169.417 161.033 173.851L177.479 171.195C177.449 167.498 178.789 163.976 181.275 161.217L170.752 148.301ZM177.875 174.486C177.875 174.485 177.849 174.38 177.849 174.379C177.843 174.352 177.84 174.325 177.84 174.298C177.84 174.136 177.952 173.988 178.117 173.95C178.309 173.912 178.502 174.026 178.545 174.219L178.197 174.299L178.559 174.275L178.223 174.405L177.875 174.486ZM177.904 172.842C177.724 172.842 177.569 172.706 177.549 172.523C177.549 172.522 177.549 172.52 177.549 172.518L177.548 172.507C177.546 172.482 177.542 172.434 177.542 172.431C177.542 172.428 177.542 172.425 177.541 172.422L177.54 172.405C177.524 172.208 177.671 172.036 177.868 172.019C178.06 171.997 178.23 172.143 178.252 172.333C178.252 172.334 178.252 172.335 178.252 172.335C178.252 172.336 178.252 172.336 178.252 172.337C178.252 172.34 178.252 172.343 178.253 172.346L178.262 172.45C178.281 172.645 178.137 172.819 177.942 172.839C177.929 172.841 177.917 172.842 177.904 172.842ZM206.589 170.169C206.406 170.169 206.251 170.039 206.236 169.853L206.59 169.799L206.227 169.751C206.226 169.738 206.225 169.726 206.225 169.714C206.225 169.533 206.361 169.378 206.545 169.359C206.739 169.342 206.917 169.481 206.938 169.677C206.938 169.68 206.946 169.769 206.946 169.772C206.946 169.782 206.947 169.791 206.947 169.799C206.947 169.986 206.805 170.153 206.618 170.168C206.609 170.169 206.599 170.169 206.589 170.169ZM206.291 168.258C206.128 168.258 205.981 168.146 205.943 167.981L206.291 167.901L205.931 167.933L206.265 167.793L206.613 167.713L206.639 167.82C206.645 167.847 206.648 167.874 206.648 167.901C206.648 168.063 206.536 168.211 206.371 168.249C206.344 168.256 206.317 168.258 206.291 168.258ZM206.038 167.302C205.883 167.302 205.742 167.2 205.696 167.047C204.625 163.476 202.221 160.526 198.928 158.742C198.771 158.656 198.7 158.468 198.764 158.301L204.933 142.083C204.968 141.99 205.039 141.917 205.131 141.88C205.221 141.841 205.324 141.843 205.415 141.885C209.676 143.814 213.536 146.702 216.579 150.239L216.641 150.312C216.772 150.466 216.862 150.578 216.952 150.689L217.178 150.966C217.285 151.095 217.391 151.225 217.495 151.357C217.495 151.358 217.496 151.359 217.497 151.36L217.214 151.578L217.543 151.419C220.439 155.173 222.488 159.537 223.517 164.1C223.539 164.196 223.52 164.296 223.464 164.378C223.409 164.46 223.322 164.515 223.225 164.53L206.095 167.297C206.076 167.301 206.057 167.302 206.038 167.302ZM199.543 158.266C202.772 160.102 205.151 163.023 206.287 166.542L222.733 163.886C221.702 159.56 219.732 155.428 217.022 151.916L217.213 151.578L216.932 151.799C216.832 151.671 216.729 151.546 216.626 151.421L216.035 150.704C213.144 147.343 209.495 144.579 205.466 142.694L199.543 158.266ZM183.125 160.295C183.021 160.295 182.917 160.253 182.849 160.168C182.793 160.099 182.765 160.017 182.764 159.937C182.764 159.84 182.805 159.746 182.889 159.678C183.044 159.554 183.295 159.556 183.419 159.708C183.479 159.781 183.51 159.867 183.51 159.949C183.51 160.038 183.473 160.124 183.393 160.188C183.393 160.189 183.365 160.211 183.364 160.211C183.295 160.267 183.209 160.295 183.125 160.295ZM183.914 159.712C183.716 159.712 183.552 159.552 183.552 159.355C183.552 159.158 183.708 158.998 183.905 158.998H183.914C184.111 158.998 184.271 159.158 184.271 159.355C184.271 159.552 184.111 159.712 183.914 159.712ZM184.696 159.181C184.592 159.181 184.489 159.135 184.419 159.049L173.461 145.601C173.399 145.525 173.371 145.426 173.383 145.329C173.396 145.231 173.449 145.142 173.529 145.086C177.331 142.359 181.763 140.461 186.347 139.595C186.36 139.593 186.422 139.581 186.423 139.581L187.273 139.439C187.439 139.412 187.606 139.384 187.773 139.361C187.774 139.361 187.925 139.34 187.927 139.34C192.549 138.72 197.352 139.126 201.82 140.517C201.914 140.546 201.992 140.613 202.035 140.702C202.078 140.791 202.083 140.893 202.048 140.985L195.881 157.2C195.818 157.368 195.641 157.467 195.465 157.421C193.67 156.998 191.833 156.935 190.007 157.229C188.179 157.525 186.456 158.165 184.886 159.13C184.825 159.164 184.76 159.181 184.696 159.181ZM174.256 145.446L184.777 158.358C186.354 157.433 188.073 156.815 189.889 156.522C191.704 156.226 193.529 156.273 195.32 156.655L201.241 141.088C196.977 139.817 192.416 139.459 188.02 140.049L187.822 139.715L187.873 140.069C187.711 140.092 187.55 140.119 187.389 140.146L186.625 140.27L186.413 139.947L186.479 140.299C182.122 141.121 177.903 142.898 174.256 145.446ZM186.414 139.946H186.423H186.414ZM197.27 157.979C197.124 157.92 197.016 157.768 197.017 157.615C197.017 157.577 197.024 157.539 197.038 157.502C197.112 157.318 197.285 157.215 197.47 157.29L197.337 157.622L197.496 157.301L197.27 157.979ZM196.472 157.681C196.377 157.681 196.284 157.642 196.217 157.576C196.147 157.506 196.113 157.415 196.113 157.323C196.113 157.231 196.148 157.14 196.217 157.07C196.331 156.958 196.5 156.937 196.634 157.006C196.75 157.065 196.829 157.186 196.829 157.324C196.829 157.521 196.669 157.681 196.472 157.681Z" fill="#B4D0E5" stroke="#B4D0E5"/>
<path opacity="0.5" d="M192.5 247C150.869 247 117 213.131 117 171.5C117 129.869 150.869 96 192.5 96C234.131 96 268 129.869 268 171.5C268 213.131 234.131 247 192.5 247ZM192.5 96.4234C151.103 96.4234 117.425 130.102 117.425 171.499C117.425 212.896 151.103 246.574 192.5 246.574C233.897 246.574 267.575 212.896 267.575 171.499C267.575 130.102 233.897 96.4234 192.5 96.4234Z" fill="white" stroke="#B4D0E5" stroke-width="0.5"/>
<path opacity="0.5" d="M192.291 294.58C175.647 294.58 159.5 291.32 144.3 284.892C129.619 278.682 116.433 269.792 105.111 258.47C93.788 247.147 84.898 233.961 78.689 219.281C72.26 204.081 69 187.934 69 171.29C69 154.646 72.26 138.5 78.689 123.3C84.899 108.618 93.789 95.433 105.111 84.111C116.434 72.788 129.619 63.898 144.3 57.689C159.5 51.26 175.647 48 192.291 48C208.935 48 225.082 51.26 240.282 57.689C254.963 63.898 268.149 72.788 279.471 84.111C290.794 95.433 299.683 108.619 305.893 123.3C312.322 138.5 315.582 154.647 315.582 171.29C315.582 187.935 312.322 204.081 305.893 219.281C299.684 233.962 290.793 247.147 279.471 258.47C268.148 269.792 254.963 278.682 240.282 284.892C225.082 291.321 208.935 294.58 192.291 294.58ZM192.291 48.177C124.406 48.177 69.178 103.405 69.178 171.289C69.178 239.173 124.406 294.401 192.291 294.401C260.176 294.401 315.404 239.173 315.404 171.289C315.404 103.405 260.176 48.177 192.291 48.177Z" fill="white" stroke="#B4D0E5" stroke-width="0.5"/>
<path opacity="0.5" d="M287.943 418.47C287.927 418.332 287.911 418.194 287.892 418.057C287.881 417.975 287.869 417.894 287.857 417.813C287.845 417.733 287.834 417.652 287.821 417.572C287.799 417.434 287.776 417.297 287.751 417.16C287.747 417.136 287.743 417.112 287.739 417.088C287.732 417.051 287.726 417.014 287.72 416.977C287.656 416.636 287.584 416.297 287.504 415.961C287.475 415.838 287.443 415.715 287.411 415.593L292.826 412.081L291.103 408.077L284.83 409.595C284.559 409.164 284.273 408.742 283.969 408.329C283.955 408.309 283.94 408.29 283.925 408.27C283.842 408.158 283.759 408.047 283.674 407.937C283.624 407.872 283.574 407.809 283.523 407.745C283.472 407.681 283.422 407.616 283.37 407.552C283.282 407.444 283.193 407.337 283.104 407.23C283.088 407.212 283.073 407.193 283.058 407.175C282.727 406.784 282.383 406.407 282.027 406.043L284.961 400.294L281.467 397.688L276.794 402.139C276.345 401.901 275.885 401.679 275.416 401.473C275.393 401.463 275.371 401.454 275.349 401.444C275.221 401.389 275.094 401.334 274.965 401.281C274.889 401.25 274.814 401.22 274.738 401.19C274.662 401.16 274.587 401.129 274.51 401.1C274.38 401.05 274.25 401.002 274.119 400.954C274.096 400.946 274.073 400.937 274.05 400.929C273.568 400.756 273.081 400.601 272.591 400.465L272.257 394.02L267.928 393.511L266.107 399.702C265.599 399.721 265.089 399.758 264.58 399.815C264.556 399.818 264.532 399.821 264.508 399.823C264.397 399.836 264.285 399.848 264.174 399.863C264.147 399.866 264.12 399.871 264.093 399.874C264.012 399.885 263.93 399.897 263.849 399.909C263.768 399.921 263.688 399.932 263.608 399.945C263.471 399.967 263.334 399.99 263.197 400.014C263.177 400.017 263.158 400.02 263.139 400.024C263.134 400.025 263.13 400.026 263.125 400.027C262.621 400.118 262.122 400.228 261.63 400.354L258.118 394.939L254.114 396.662L255.633 402.935C255.526 403.002 255.419 403.07 255.313 403.139C255.024 403.328 254.739 403.524 254.458 403.729C254.428 403.751 254.398 403.774 254.368 403.797C254.364 403.8 254.36 403.802 254.356 403.805C254.34 403.817 254.325 403.829 254.309 403.84C254.197 403.923 254.086 404.006 253.976 404.091C253.912 404.14 253.848 404.191 253.785 404.241C253.721 404.292 253.656 404.343 253.592 404.394C253.571 404.411 253.549 404.428 253.528 404.445C253.441 404.516 253.356 404.588 253.271 404.66C253.252 404.676 253.234 404.691 253.215 404.707C252.824 405.038 252.447 405.382 252.083 405.738L246.334 402.804L243.728 406.298L248.179 410.971C247.941 411.42 247.719 411.88 247.514 412.349C247.504 412.372 247.494 412.396 247.484 412.419C247.429 412.546 247.375 412.673 247.322 412.801C247.29 412.877 247.26 412.954 247.23 413.031C247.2 413.106 247.17 413.181 247.141 413.256C247.091 413.387 247.042 413.518 246.994 413.649C246.986 413.671 246.978 413.693 246.97 413.715C246.797 414.197 246.642 414.684 246.506 415.174L240.061 415.508L239.551 419.837L245.743 421.658C245.762 422.166 245.799 422.676 245.856 423.185C245.859 423.209 245.862 423.233 245.864 423.257C245.88 423.395 245.896 423.533 245.915 423.671C245.926 423.753 245.938 423.834 245.95 423.915C245.962 423.995 245.973 424.076 245.986 424.156C246.007 424.293 246.031 424.43 246.055 424.567C246.059 424.591 246.063 424.615 246.068 424.639C246.159 425.143 246.269 425.642 246.395 426.134L240.98 429.646L242.703 433.65L248.976 432.131C249.247 432.562 249.534 432.984 249.837 433.397C249.851 433.417 249.866 433.436 249.881 433.456C249.964 433.567 250.047 433.679 250.132 433.789C250.182 433.853 250.232 433.917 250.283 433.981C250.334 434.045 250.384 434.11 250.436 434.174C250.523 434.282 250.612 434.389 250.702 434.495C250.718 434.514 250.733 434.532 250.749 434.551C251.08 434.942 251.424 435.319 251.78 435.683L248.846 441.432L252.34 444.038L257.013 439.587C257.463 439.825 257.923 440.047 258.392 440.253C258.414 440.262 258.435 440.271 258.457 440.281C258.585 440.337 258.714 440.392 258.844 440.445C258.919 440.476 258.994 440.505 259.069 440.535C259.145 440.565 259.221 440.596 259.298 440.625C259.428 440.675 259.558 440.723 259.688 440.77C259.711 440.778 259.735 440.787 259.758 440.796C260.24 440.969 260.727 441.123 261.216 441.26L261.55 447.705L265.879 448.215L267.7 442.023C268.208 442.004 268.717 441.967 269.227 441.91C269.251 441.907 269.275 441.904 269.299 441.901C269.41 441.888 269.521 441.876 269.632 441.862C269.659 441.859 269.686 441.854 269.713 441.85C269.795 441.839 269.876 441.827 269.957 441.815C270.037 441.803 270.118 441.792 270.198 441.779C270.336 441.757 270.473 441.734 270.61 441.71C270.629 441.707 270.649 441.704 270.668 441.7C270.673 441.699 270.677 441.698 270.682 441.697C271.186 441.606 271.685 441.496 272.177 441.37L275.689 446.785L279.693 445.062L278.175 438.789C278.606 438.518 279.028 438.231 279.441 437.928C279.445 437.925 279.448 437.923 279.452 437.92C279.467 437.909 279.482 437.897 279.497 437.886C279.609 437.803 279.722 437.719 279.833 437.633C279.897 437.584 279.959 437.534 280.022 437.485C280.087 437.433 280.153 437.382 280.218 437.33C280.239 437.313 280.26 437.297 280.281 437.28C280.367 437.21 280.452 437.138 280.537 437.067C280.556 437.051 280.576 437.035 280.595 437.018C280.986 436.687 281.363 436.343 281.726 435.987L287.475 438.921L290.081 435.427L285.63 430.754C285.868 430.304 286.09 429.845 286.296 429.376C286.306 429.354 286.315 429.331 286.325 429.309C286.38 429.181 286.435 429.054 286.488 428.925C286.491 428.917 286.495 428.909 286.498 428.902C286.501 428.895 286.504 428.888 286.507 428.881C286.532 428.82 286.555 428.759 286.579 428.699C286.609 428.623 286.64 428.548 286.669 428.471C286.719 428.341 286.767 428.211 286.815 428.08C286.823 428.057 286.832 428.034 286.84 428.011C287.013 427.529 287.168 427.042 287.304 426.552L293.749 426.218L294.259 421.889L288.067 420.068C288.048 419.56 288.011 419.051 287.954 418.541C287.949 418.519 287.945 418.495 287.943 418.47ZM274.056 436.607C273.946 436.657 273.835 436.703 273.724 436.751C273.622 436.795 273.521 436.84 273.419 436.882C273.393 436.893 273.366 436.903 273.34 436.914C270.797 437.929 268.04 438.331 265.313 438.084C265.285 438.081 265.257 438.079 265.229 438.076C265.108 438.064 264.987 438.048 264.867 438.034C264.758 438.021 264.649 438.01 264.54 437.995C264.512 437.991 264.484 437.987 264.456 437.983C261.745 437.591 259.157 436.56 256.919 434.982C256.896 434.966 256.873 434.949 256.85 434.933C256.752 434.863 256.656 434.789 256.56 434.717C256.471 434.651 256.382 434.586 256.294 434.518C256.272 434.501 256.249 434.483 256.227 434.465C254.076 432.77 252.35 430.583 251.2 428.097C251.188 428.072 251.176 428.046 251.165 428.021C251.114 427.909 251.067 427.796 251.019 427.683C250.976 427.583 250.932 427.484 250.89 427.383C250.879 427.357 250.869 427.331 250.858 427.304C249.842 424.759 249.44 422.001 249.689 419.273C249.691 419.247 249.694 419.221 249.696 419.195C249.708 419.073 249.724 418.952 249.738 418.83C249.751 418.72 249.762 418.61 249.777 418.5C249.781 418.474 249.784 418.448 249.788 418.423C250.18 415.71 251.212 413.12 252.791 410.88C252.807 410.858 252.822 410.836 252.838 410.813C252.903 410.723 252.97 410.635 253.036 410.547C253.108 410.449 253.18 410.351 253.255 410.254C253.272 410.232 253.289 410.211 253.305 410.19C255.001 408.038 257.188 406.312 259.675 405.162C259.7 405.151 259.725 405.139 259.749 405.128C259.852 405.081 259.957 405.038 260.061 404.993C260.17 404.946 260.279 404.897 260.39 404.852C260.415 404.842 260.44 404.832 260.466 404.822C263.01 403.806 265.768 403.405 268.496 403.652C268.524 403.655 268.551 403.657 268.579 403.66C268.693 403.671 268.807 403.686 268.92 403.7C269.037 403.714 269.154 403.726 269.27 403.742C269.297 403.746 269.325 403.75 269.352 403.754C272.063 404.147 274.652 405.178 276.891 406.756C276.914 406.772 276.936 406.788 276.959 406.804C277.051 406.87 277.141 406.939 277.232 407.007C277.327 407.078 277.423 407.148 277.518 407.221C277.54 407.238 277.561 407.255 277.583 407.272C279.735 408.968 281.461 411.155 282.611 413.642C282.623 413.667 282.634 413.692 282.646 413.717C282.691 413.817 282.733 413.919 282.777 414.02C282.825 414.132 282.875 414.244 282.922 414.357C282.932 414.382 282.942 414.408 282.953 414.434C283.968 416.977 284.37 419.733 284.122 422.46C284.119 422.489 284.117 422.519 284.114 422.548C284.103 422.658 284.089 422.768 284.076 422.878C284.062 422.997 284.05 423.116 284.034 423.235C284.03 423.264 284.025 423.293 284.021 423.323C283.628 426.032 282.598 428.619 281.021 430.856C281.005 430.879 280.989 430.902 280.972 430.925C280.9 431.025 280.826 431.122 280.752 431.22C280.687 431.307 280.623 431.396 280.556 431.482C280.539 431.504 280.521 431.526 280.504 431.549C278.809 433.7 276.622 435.427 274.136 436.576C274.107 436.583 274.082 436.595 274.056 436.607Z" fill="#B4D0E5"/>
<path opacity="0.5" d="M266.902 475.535C252.613 475.535 239.179 469.972 229.075 459.867C218.971 449.763 213.407 436.33 213.407 422.041C213.407 407.752 218.971 394.318 229.075 384.215C239.179 374.111 252.613 368.547 266.902 368.547C281.191 368.547 294.625 374.11 304.729 384.215C314.833 394.319 320.397 407.752 320.397 422.041C320.397 436.33 314.833 449.764 304.729 459.867C294.625 469.971 281.191 475.535 266.902 475.535ZM266.902 368.724C237.504 368.724 213.586 392.642 213.586 422.04C213.586 451.438 237.503 475.356 266.902 475.356C296.301 475.356 320.218 451.438 320.218 422.04C320.218 392.642 296.301 368.724 266.902 368.724Z" fill="white" stroke="#B4D0E5" stroke-width="0.5"/>
<path opacity="0.5" d="M266.902 468.805C241.116 468.805 220.137 447.826 220.137 422.04C220.137 396.254 241.116 375.275 266.902 375.275C292.688 375.275 313.667 396.254 313.667 422.04C313.667 447.826 292.688 468.805 266.902 468.805ZM266.902 375.706C241.353 375.706 220.567 396.492 220.567 422.041C220.567 447.59 241.353 468.376 266.902 468.376C292.451 468.376 313.237 447.59 313.237 422.041C313.237 396.492 292.452 375.706 266.902 375.706Z" fill="#F9FFFF" stroke="#B4D0E5"/>
<path opacity="0.5" d="M482.347 192L475.914 191.243L475.459 182.45C474.858 182.276 474.264 182.086 473.685 181.877L473.587 181.842L471.81 181.131C471.241 180.879 470.676 180.609 470.127 180.325L463.753 186.396L458.561 182.524L462.563 174.684C462.13 174.234 461.71 173.77 461.312 173.3L461.246 173.22C461.125 173.078 461.003 172.932 460.883 172.782L460.465 172.253C460.35 172.103 460.234 171.951 460.121 171.798L460.06 171.716C459.69 171.211 459.334 170.695 459.005 170.181L450.448 172.251L447.887 166.301L455.275 161.512C455.125 160.912 454.994 160.302 454.885 159.689L454.866 159.586C454.833 159.399 454.801 159.212 454.772 159.023L454.592 157.689C454.524 157.066 454.476 156.441 454.448 155.832L446 153.346L446.759 146.913L455.551 146.458C455.723 145.864 455.915 145.267 456.124 144.684L456.158 144.589C456.222 144.41 456.289 144.231 456.359 144.051L456.607 143.426C456.679 143.25 456.753 143.078 456.829 142.904L456.87 142.806C457.125 142.229 457.394 141.665 457.673 141.126L451.601 134.751L455.473 129.56L463.316 133.561C463.768 133.127 464.234 132.705 464.7 132.311L465.747 131.463C465.899 131.349 466.051 131.234 466.204 131.119L466.402 130.97C466.793 130.686 467.185 130.415 467.583 130.157L467.821 130.004L465.749 121.447L471.697 118.889L476.488 126.274C477.087 126.124 477.7 125.995 478.31 125.884L478.41 125.865C478.597 125.832 478.786 125.799 478.974 125.769L479.64 125.673L479.792 125.984L479.75 125.656C479.9 125.636 480.049 125.619 480.199 125.604L480.344 125.919L480.307 125.59C480.923 125.523 481.548 125.475 482.166 125.447L484.651 117L491.084 117.757L491.539 126.55C492.141 126.724 492.734 126.914 493.314 127.123L493.295 127.469L493.406 127.158C493.585 127.221 493.765 127.288 493.944 127.356L494.568 127.606C494.747 127.678 494.921 127.754 495.099 127.83L495.199 127.873C495.756 128.117 496.32 128.385 496.873 128.674L503.247 122.602L508.439 126.474L504.437 134.314C504.87 134.764 505.29 135.228 505.688 135.698L505.754 135.778C505.875 135.92 505.997 136.066 506.117 136.216L506.302 136.449L506.117 136.747L506.376 136.542L506.537 136.747C506.652 136.895 506.768 137.047 506.881 137.2L506.942 137.282C507.308 137.781 507.662 138.296 507.997 138.817L516.554 136.747L519.115 142.697L511.727 147.487L511.795 147.762C511.904 148.221 512.004 148.687 512.091 149.155L512.134 149.403L512.326 150.643C512.352 150.83 512.374 151.018 512.397 151.209L512.067 151.246L512.402 151.255C512.476 151.914 512.524 152.543 512.554 153.166L521 155.653L520.241 162.085L511.449 162.54C511.275 163.143 511.083 163.739 510.876 164.314L510.841 164.409C510.776 164.59 510.709 164.768 510.641 164.947L510.421 165.508C510.321 165.748 510.245 165.924 510.169 166.098L509.825 166.057L510.128 166.188C509.878 166.758 509.61 167.323 509.325 167.872L515.398 174.247L511.527 179.438L503.684 175.437C503.24 175.864 502.775 176.286 502.302 176.687L501.256 177.531C501.103 177.649 500.947 177.768 500.794 177.881L500.72 177.934C500.215 178.304 499.699 178.661 499.179 178.991L501.251 187.549L495.303 190.107L490.512 182.722C489.92 182.87 489.308 183.001 488.69 183.114L488.59 183.131C488.401 183.164 488.212 183.198 488.024 183.227L487.254 183.34C487.095 183.362 486.941 183.379 486.788 183.394L486.655 183.077L486.692 183.407C486.075 183.473 485.45 183.521 484.832 183.549L482.347 192ZM476.547 190.651L481.87 191.278L484.331 182.913L484.569 182.903C485.248 182.878 485.937 182.828 486.618 182.754L486.718 182.741C486.866 182.724 487.014 182.707 487.162 182.691L487.918 182.578C488.107 182.548 488.29 182.519 488.475 182.485L488.566 182.471C488.553 182.467 488.583 182.463 488.631 182.463C489.254 182.345 489.929 182.195 490.579 182.028L490.81 181.969L495.556 189.286L500.479 187.168L498.427 178.691L498.629 178.565C499.203 178.206 499.774 177.818 500.328 177.409L500.404 177.352C500.555 177.241 500.705 177.131 500.853 177.015L501.371 176.604L501.663 176.795L501.454 176.538L501.878 176.184C502.398 175.744 502.909 175.279 503.393 174.802L503.564 174.636L511.333 178.602L514.537 174.305L508.522 167.99L508.635 167.779C508.951 167.18 509.253 166.558 509.527 165.931L509.869 165.972L509.566 165.841C509.64 165.669 509.714 165.497 509.786 165.325L510.028 164.716C510.097 164.54 510.16 164.366 510.223 164.192L510.569 164.211L510.258 164.098C510.485 163.465 510.694 162.808 510.881 162.141L510.944 161.911L519.655 161.46L520.28 156.137L511.914 153.675L511.904 153.438C511.879 152.752 511.827 152.064 511.753 151.39L512.069 151.255L511.74 151.292C511.719 151.109 511.697 150.924 511.671 150.741L511.466 149.435L511.766 149.229L511.44 149.29C511.355 148.833 511.259 148.378 511.151 147.927L510.968 147.202L518.286 142.456L516.165 137.533L507.69 139.585L507.562 139.385C507.199 138.808 506.809 138.236 506.406 137.685L506.613 137.411L506.346 137.607C506.235 137.458 506.122 137.31 506.008 137.162L505.601 136.645C505.482 136.499 505.364 136.357 505.244 136.214L505.179 136.135C504.746 135.624 504.28 135.112 503.799 134.621L503.632 134.451L507.597 126.683L503.301 123.481L496.986 129.495L496.775 129.384C496.168 129.062 495.547 128.762 494.925 128.492L494.834 128.453C494.664 128.378 494.492 128.306 494.318 128.233L493.709 127.991C493.537 127.926 493.362 127.86 493.186 127.797L493.091 127.762C492.455 127.534 491.796 127.325 491.132 127.138L490.903 127.075L490.451 118.367L485.128 117.74L482.666 126.106L482.427 126.115C481.748 126.141 481.06 126.191 480.379 126.265L480.281 126.278C480.125 126.295 479.979 126.311 479.835 126.328L479.078 126.441C478.889 126.47 478.706 126.5 478.523 126.533L478.43 126.548C477.753 126.672 477.078 126.82 476.421 126.99L476.19 127.049L471.444 119.732L466.521 121.851L468.573 130.326L467.942 130.727C467.555 130.982 467.17 131.245 466.794 131.519L466.595 131.669C466.445 131.78 466.295 131.893 466.147 132.007L465.633 132.414L465.337 132.226L465.546 132.483L465.126 132.833C464.609 133.267 464.099 133.732 463.605 134.218L463.435 134.385L455.667 130.418L452.463 134.716L458.478 141.03L458.365 141.241C458.054 141.825 457.754 142.449 457.473 143.089L457.129 143.05L457.432 143.182C457.358 143.352 457.286 143.522 457.214 143.692L456.972 144.301C456.903 144.478 456.839 144.654 456.774 144.832L456.742 144.919C456.511 145.564 456.302 146.221 456.119 146.878L456.054 147.107L447.343 147.559L446.718 152.881L455.085 155.344L455.094 155.58C455.118 156.25 455.17 156.94 455.245 157.628L454.929 157.762L455.258 157.723L455.421 158.927C455.451 159.116 455.482 159.299 455.516 159.482L455.53 159.575C455.653 160.254 455.801 160.929 455.971 161.586L456.03 161.817L448.712 166.562L450.833 171.485L459.31 169.433L459.436 169.635C459.793 170.203 460.182 170.775 460.593 171.333L460.385 171.607L460.652 171.411C460.763 171.561 460.874 171.709 460.989 171.857L461.397 172.373C461.514 172.519 461.632 172.662 461.753 172.804L461.814 172.878C462.252 173.394 462.717 173.907 463.2 174.397L463.366 174.567L459.401 182.335L463.699 185.538L470.014 179.523L470.225 179.634C470.824 179.953 471.448 180.254 472.075 180.528L473.868 181.244C474.543 181.486 475.202 181.695 475.866 181.882L476.095 181.945L476.547 190.651ZM483.456 178.304C482.74 178.304 482.024 178.271 481.311 178.206L481.195 178.195C481.069 178.182 480.941 178.167 480.815 178.153L480.695 178.138C480.547 178.121 480.397 178.104 480.246 178.084L480.129 178.067C476.408 177.529 472.821 176.101 469.751 173.938L469.871 173.616L469.681 173.886L468.795 173.226C465.845 170.9 463.451 167.868 461.875 164.461L461.823 164.346C461.775 164.24 461.727 164.128 461.679 164.013L461.405 163.365C460.012 159.874 459.455 156.052 459.795 152.308L459.804 152.197L459.932 151.139C460.472 147.413 461.901 143.824 464.067 140.752L464.134 140.656L464.776 139.8C467.102 136.847 470.134 134.455 473.546 132.879H473.548L473.65 132.831C473.781 132.771 473.914 132.716 474.045 132.659L474.271 132.923L474.138 132.62C474.267 132.564 474.397 132.505 474.528 132.453L474.53 132.451L474.634 132.411C478.123 131.018 481.953 130.459 485.689 130.801L486.394 130.881C486.514 130.894 486.636 130.908 486.756 130.923L486.871 130.94C490.59 131.478 494.178 132.907 497.249 135.071L498.202 135.781C501.153 138.109 503.547 141.141 505.123 144.551L505.386 145.148C505.442 145.276 505.497 145.405 505.551 145.533L505.593 145.642C506.985 149.129 507.542 152.95 507.203 156.692L507.192 156.814C507.181 156.929 507.166 157.046 507.153 157.162L507.14 157.269C507.118 157.475 507.101 157.617 507.083 157.758L507.064 157.88C506.526 161.597 505.098 165.182 502.935 168.249V168.251L502.866 168.346C502.79 168.453 502.713 168.555 502.635 168.658L502.489 168.852C502.424 168.939 502.361 169.028 502.294 169.113L502.22 169.206C499.895 172.158 496.862 174.552 493.454 176.125L493.345 176.175L492.779 176.421C492.675 176.465 492.572 176.512 492.466 176.552L492.359 176.595C489.537 177.725 486.495 178.304 483.456 178.304ZM462.476 164.181C464.01 167.496 466.337 170.445 469.207 172.704L470.14 173.4C473.117 175.5 476.608 176.889 480.223 177.413L480.338 177.429C480.48 177.448 480.627 177.464 480.771 177.479L480.897 177.496C481.017 177.511 481.137 177.525 481.259 177.537L481.341 177.877L481.37 177.548C485.006 177.879 488.725 177.337 492.118 175.981L492.348 176.245L492.226 175.938C492.325 175.899 492.422 175.857 492.52 175.814L493.127 175.55C496.494 173.992 499.443 171.666 501.706 168.797L502.037 168.912L501.776 168.71L502.111 168.262C502.187 168.162 502.261 168.066 502.333 167.964L502.67 168.063L502.4 167.872C504.504 164.888 505.893 161.399 506.417 157.787L506.761 157.715L506.433 157.673C506.452 157.536 506.467 157.399 506.481 157.26L506.504 157.083C506.517 156.972 506.531 156.864 506.542 156.751L506.883 156.663L506.554 156.631C506.885 152.994 506.343 149.279 504.988 145.888L505.255 145.661L504.949 145.786L504.579 144.926L504.835 144.689L504.535 144.828C503.001 141.513 500.675 138.562 497.804 136.301L496.879 135.613C493.893 133.506 490.403 132.117 486.786 131.593L486.673 131.576C486.56 131.562 486.446 131.549 486.331 131.536L485.748 131.469L485.67 131.129L485.641 131.458C482.001 131.127 478.284 131.669 474.891 133.025L474.665 132.759L474.791 133.064C474.665 133.116 474.539 133.171 474.414 133.225L474.314 133.269C474.186 133.321 474.058 133.376 473.933 133.434L473.696 133.178L473.835 133.478C470.517 135.012 467.568 137.339 465.305 140.209L464.68 141.043L464.348 140.941L464.619 141.132C462.511 144.12 461.122 147.611 460.598 151.229L460.474 152.267L460.136 152.339L460.465 152.371C460.134 156.01 460.674 159.728 462.03 163.121L461.766 163.351L462.071 163.225L462.3 163.756C462.347 163.865 462.391 163.972 462.441 164.079L462.187 164.322L462.476 164.181Z" fill="#B4D0E5" stroke="#B4D0E5"/>
<g opacity="0.5">
<mask id="path-8-inside-1" fill="white">
<path d="M358.66 329.726L345.183 328.359L343.938 310.04C342.69 309.702 341.448 309.322 340.237 308.91L340.094 308.86C339.659 308.711 339.284 308.579 338.91 308.441L337.601 307.944C337.227 307.797 336.856 307.646 336.486 307.492L336.296 307.414C335.117 306.919 333.935 306.377 332.779 305.803L319.69 318.679L308.702 310.756L316.784 294.27C315.871 293.353 314.984 292.403 314.142 291.44L314.069 291.356C313.744 290.981 313.485 290.68 313.23 290.374L312.343 289.287C312.093 288.974 311.85 288.659 311.609 288.343L311.481 288.178C310.703 287.154 309.95 286.094 309.239 285.022L291.465 289.629L285.91 277.274L301.153 267.037C300.822 265.789 300.529 264.523 300.281 263.266L300.256 263.133C300.166 262.669 300.092 262.278 300.025 261.885L299.8 260.499C299.741 260.103 299.687 259.709 299.635 259.314L299.608 259.107C299.446 257.837 299.324 256.544 299.245 255.254L281.549 250.357L282.916 236.879L301.235 235.634C301.572 234.387 301.952 233.144 302.365 231.931L302.401 231.827C302.562 231.36 302.695 230.983 302.833 230.605L303.331 229.295C303.476 228.925 303.626 228.56 303.778 228.193L303.861 227.992C304.356 226.811 304.898 225.631 305.472 224.474L292.596 211.384L300.518 200.397L317.005 208.478C317.922 207.566 318.872 206.679 319.835 205.836L320.162 205.554C320.348 205.393 320.533 205.231 320.722 205.073L321.99 204.037C322.302 203.789 322.616 203.546 322.933 203.304L323.352 202.98C324.144 202.385 324.959 201.803 325.776 201.25C325.935 201.143 326.094 201.037 326.255 200.933L321.649 183.161L334 177.604L344.237 192.847C345.489 192.515 346.755 192.221 348.008 191.974L348.137 191.949C348.606 191.859 348.996 191.786 349.389 191.718L351.01 191.456C351.26 191.419 351.517 191.386 351.773 191.352L352.162 191.3C353.435 191.139 354.73 191.017 356.019 190.937L360.916 173.24L374.393 174.608L375.638 192.926C376.886 193.264 378.129 193.644 379.34 194.056L379.453 194.096C379.914 194.255 380.29 194.387 380.665 194.525L381.977 195.023C382.347 195.168 382.716 195.319 383.084 195.472L383.284 195.555C384.457 196.046 385.638 196.587 386.797 197.163L399.886 184.287L410.874 192.21L402.792 208.696C403.702 209.611 404.589 210.561 405.434 211.526L405.506 211.61C405.83 211.983 406.089 212.286 406.345 212.592L407.232 213.679C407.482 213.992 407.725 214.307 407.966 214.623L408.092 214.785C408.869 215.807 409.622 216.868 410.336 217.944L428.11 213.337L433.665 225.692L418.424 235.928C418.474 236.113 418.523 236.297 418.57 236.483C418.814 237.438 419.037 238.415 419.235 239.383L419.318 239.821C419.41 240.298 419.484 240.688 419.552 241.082L419.777 242.47C419.836 242.862 419.89 243.255 419.942 243.649V243.651L419.233 243.742L419.952 243.729L419.97 243.864C420.131 245.13 420.253 246.423 420.333 247.712L438.029 252.609L436.662 266.087L418.342 267.332C418.006 268.576 417.626 269.819 417.213 271.034L417.176 271.139C417.014 271.608 416.882 271.983 416.745 272.358L416.299 273.543L415.582 273.408L416.248 273.669C416.102 274.041 415.951 274.409 415.798 274.777L415.717 274.972C415.22 276.157 414.679 277.337 414.106 278.49L426.982 291.58L419.06 302.568L402.573 294.486C401.654 295.4 400.704 296.287 399.744 297.127L399.45 297.381C399.253 297.552 399.057 297.723 398.857 297.892L397.59 298.927C397.277 299.177 396.959 299.422 396.64 299.666L396.08 299.196L396.527 299.755C395.468 300.56 394.403 301.317 393.325 302.032L397.931 319.805L385.576 325.36L375.34 310.12C374.098 310.449 372.832 310.742 371.569 310.992L371.42 311.021C370.972 311.107 370.58 311.18 370.187 311.249L368.567 311.511C368.319 311.548 368.065 311.581 367.81 311.614L367.413 311.667C366.141 311.828 364.847 311.95 363.558 312.03L358.66 329.726ZM346.527 327.058L357.604 328.181L362.453 310.659L362.967 310.632C364.391 310.556 365.826 310.427 367.232 310.248L367.627 310.196C367.872 310.164 368.117 310.133 368.362 310.095L369.941 309.84C370.328 309.773 370.711 309.7 371.093 309.627L371.286 309.591C372.69 309.313 374.092 308.982 375.459 308.606L375.955 308.469L386.092 323.563L396.246 318.999L391.685 301.399L392.116 301.119C393.313 300.339 394.491 299.51 395.618 298.652L396.151 299.144L395.709 298.582C396.084 298.294 396.394 298.055 396.7 297.81L397.938 296.799C398.132 296.636 398.323 296.47 398.514 296.304L398.805 296.051C399.867 295.123 400.915 294.136 401.922 293.117L402.283 292.752L418.608 300.755L425.119 291.724L412.369 278.763L412.602 278.304C413.246 277.038 413.851 275.731 414.402 274.419L414.444 274.316C414.628 273.871 414.776 273.51 414.918 273.148L415.404 271.868C415.538 271.502 415.667 271.135 415.794 270.766L415.83 270.663C416.319 269.229 416.734 267.85 417.093 266.473L417.223 265.975L435.363 264.744L436.487 253.667L418.964 248.817L418.937 248.303C418.861 246.879 418.732 245.445 418.553 244.039L418.526 243.835C418.476 243.449 418.423 243.065 418.365 242.682L418.146 241.328C418.079 240.943 418.007 240.56 417.934 240.179L417.836 239.669C417.644 238.723 417.426 237.77 417.188 236.837C417.109 236.526 417.024 236.219 416.94 235.91L416.777 235.315L431.87 225.178L427.305 215.024L409.705 219.586L409.424 219.154C408.646 217.96 407.817 216.781 406.959 215.653L406.837 215.495C406.598 215.182 406.359 214.875 406.117 214.57L405.251 213.508C405.001 213.208 404.748 212.913 404.492 212.619L404.421 212.537C403.425 211.398 402.438 210.349 401.424 209.349L401.058 208.988L409.06 192.662L400.029 186.151L387.068 198.901L386.61 198.669C385.335 198.021 384.028 197.415 382.725 196.869L382.604 196.819C382.176 196.641 381.816 196.494 381.454 196.352L380.172 195.865C379.807 195.731 379.44 195.603 379.073 195.476L378.97 195.44C377.54 194.952 376.16 194.537 374.779 194.175L374.281 194.045L373.049 175.906L361.972 174.782L357.123 192.304L356.609 192.331C355.185 192.407 353.75 192.537 352.343 192.715L351.955 192.767C351.707 192.799 351.46 192.83 351.213 192.868L349.63 193.123C349.247 193.189 348.865 193.263 348.484 193.336L348.289 193.372C346.898 193.648 345.496 193.978 344.116 194.357L343.62 194.493L333.483 179.4L323.329 183.964L327.891 201.565L327.369 201.905C327.102 202.078 326.836 202.252 326.572 202.429C325.775 202.97 324.979 203.537 324.208 204.117L323.958 204.31L323.42 203.823L323.863 204.384C323.488 204.672 323.18 204.909 322.876 205.153L321.64 206.163C321.454 206.319 321.275 206.475 321.095 206.632L320.767 206.915C319.706 207.843 318.658 208.831 317.654 209.847L317.293 210.212L300.968 202.21L294.457 211.24L307.207 224.201L306.974 224.66C306.328 225.931 305.723 227.237 305.175 228.543L305.093 228.742C304.946 229.096 304.8 229.454 304.658 229.814L304.172 231.094C304.037 231.462 303.907 231.831 303.78 232.201L303.744 232.303C303.257 233.73 302.842 235.11 302.481 236.49L302.351 236.988L284.212 238.219L283.088 249.296L300.611 254.146L300.638 254.66C300.714 256.085 300.843 257.519 301.022 258.926L301.049 259.13C301.099 259.51 301.152 259.897 301.21 260.282L301.429 261.636C301.496 262.019 301.568 262.401 301.641 262.782L301.68 262.981C301.955 264.375 302.286 265.776 302.663 267.15L302.799 267.646L287.706 277.783L292.271 287.937L309.871 283.375L310.151 283.807C310.924 284.995 311.754 286.174 312.616 287.308L312.706 287.424C312.977 287.779 313.216 288.086 313.458 288.391L314.325 289.453C314.575 289.753 314.828 290.048 315.083 290.341L315.154 290.423C316.147 291.56 317.134 292.609 318.151 293.613L318.517 293.975L310.515 310.299L319.546 316.81L332.507 304.06L332.965 304.292C334.236 304.938 335.544 305.544 336.851 306.093L336.963 306.139C337.396 306.319 337.758 306.467 338.123 306.611L339.401 307.096C339.766 307.23 340.131 307.358 340.496 307.483L340.691 307.552C342.035 308.009 343.414 308.424 344.795 308.785L345.293 308.915L346.527 327.058ZM359.687 301.136C358.461 301.136 357.238 301.09 356.016 300.999L355.769 300.979C355.513 300.958 355.255 300.931 354.997 300.904L354.468 300.85C354.241 300.828 354.015 300.806 353.789 300.779L353.54 300.747C345.771 299.75 338.239 296.891 331.763 292.478L331.564 292.343C331.343 292.19 331.131 292.035 330.919 291.881L330.477 291.563C330.298 291.435 330.119 291.307 329.943 291.174L329.752 291.029C323.515 286.275 318.422 280.032 315.018 272.972L314.914 272.756C314.796 272.505 314.685 272.257 314.575 272.008L314.36 271.529C314.27 271.331 314.18 271.133 314.095 270.934L314.001 270.708C310.976 263.472 309.687 255.516 310.271 247.698L310.288 247.473C310.311 247.194 310.34 246.919 310.37 246.644L310.418 246.166C310.44 245.934 310.463 245.702 310.491 245.471L310.51 245.324C311.517 237.467 314.379 229.928 318.797 223.446L318.928 223.254C319.056 223.069 319.186 222.891 319.316 222.712L319.616 222.296C319.776 222.072 319.935 221.848 320.101 221.628L320.206 221.489C324.996 215.204 331.241 210.11 338.303 206.708L338.515 206.605C338.738 206.5 338.96 206.401 339.182 206.302L339.651 206.091C339.88 205.987 340.11 205.882 340.341 205.783L340.561 205.691C347.791 202.668 355.749 201.377 363.563 201.962L363.807 201.982C364.045 202.002 364.286 202.027 364.528 202.052L365.064 202.107C365.306 202.13 365.547 202.154 365.789 202.182L366.027 202.213C373.803 203.211 381.337 206.071 387.815 210.485L388.017 210.624C388.222 210.766 388.428 210.915 388.633 211.064L388.985 211.318C389.203 211.473 389.421 211.629 389.635 211.789L389.788 211.905C396.062 216.688 401.156 222.932 404.558 229.993L404.663 230.214C404.76 230.418 404.852 230.627 404.946 230.837L405.16 231.314C405.269 231.553 405.378 231.793 405.481 232.035L405.538 232.169C408.595 239.484 409.885 247.436 409.303 255.249L409.283 255.505C409.264 255.733 409.241 255.956 409.217 256.18L409.162 256.724C409.138 256.976 409.113 257.228 409.083 257.479L409.056 257.692C408.052 265.504 405.193 273.032 400.783 279.504L400.645 279.706C400.492 279.927 400.334 280.144 400.176 280.36L399.872 280.782C399.743 280.963 399.613 281.144 399.479 281.323L399.333 281.514C394.578 287.752 388.335 292.846 381.276 296.247L381.054 296.353C380.816 296.465 380.576 296.572 380.336 296.679L379.825 296.908C379.63 296.996 379.435 297.085 379.237 297.169L379.079 297.236C372.924 299.816 366.3 301.136 359.687 301.136ZM359.882 203.258C353.464 203.258 347.039 204.537 341.112 207.015L340.905 207.102C340.683 207.197 340.464 207.296 340.245 207.397L339.764 207.613C339.551 207.708 339.338 207.802 339.127 207.901L338.921 208.001C332.064 211.305 325.998 216.253 321.381 222.311L321.247 222.488C321.086 222.702 320.934 222.917 320.781 223.131L320.472 223.559C320.348 223.729 320.225 223.898 320.105 224.071L319.978 224.259C315.687 230.554 312.908 237.877 311.939 245.435L311.912 245.648C311.885 245.869 311.864 246.089 311.843 246.311L311.793 246.802C311.765 247.067 311.736 247.33 311.714 247.596L311.698 247.81C311.13 255.406 312.383 263.133 315.321 270.162L315.413 270.382C315.493 270.568 315.578 270.755 315.663 270.943L315.884 271.434C315.99 271.673 316.096 271.913 316.208 272.149L316.309 272.359C319.615 279.215 324.562 285.279 330.616 289.894L330.739 289.987C330.97 290.162 331.14 290.283 331.31 290.404L331.763 290.73C331.967 290.878 332.17 291.027 332.377 291.17L332.568 291.3C338.86 295.587 346.177 298.364 353.729 299.334L353.963 299.363C354.177 299.389 354.393 299.41 354.609 299.431L355.15 299.486C355.397 299.512 355.644 299.539 355.891 299.558L356.123 299.577C363.717 300.144 371.44 298.889 378.464 295.955L378.676 295.865C378.869 295.783 379.054 295.699 379.239 295.615L379.76 295.381C379.99 295.278 380.22 295.176 380.449 295.069L380.663 294.966C387.517 291.662 393.581 286.715 398.197 280.659L398.34 280.471C398.466 280.303 398.59 280.13 398.713 279.958L399.024 279.526C399.175 279.318 399.327 279.109 399.475 278.897L399.607 278.704C403.889 272.418 406.666 265.104 407.637 257.558L407.668 257.313C407.697 257.075 407.72 256.834 407.743 256.593L407.799 256.036C407.822 255.822 407.844 255.608 407.862 255.393L407.881 255.145C408.446 247.559 407.193 239.835 404.258 232.812L404.171 232.605C404.071 232.371 403.967 232.142 403.862 231.914L403.642 231.425C403.554 231.226 403.465 231.027 403.371 230.829L403.306 230.692C399.967 223.762 395.019 217.697 388.962 213.08L388.78 212.941C388.574 212.787 388.366 212.638 388.158 212.49L387.794 212.228C387.598 212.084 387.402 211.942 387.203 211.804L387.008 211.67C380.721 207.386 373.403 204.608 365.851 203.638L365.62 203.608C365.394 203.582 365.162 203.559 364.931 203.537L364.381 203.481C364.151 203.457 363.922 203.432 363.691 203.414L363.451 203.394C362.264 203.303 361.072 203.258 359.882 203.258Z"/>
</mask>
<path d="M358.66 329.726L345.183 328.359L343.938 310.04C342.69 309.702 341.448 309.322 340.237 308.91L340.094 308.86C339.659 308.711 339.284 308.579 338.91 308.441L337.601 307.944C337.227 307.797 336.856 307.646 336.486 307.492L336.296 307.414C335.117 306.919 333.935 306.377 332.779 305.803L319.69 318.679L308.702 310.756L316.784 294.27C315.871 293.353 314.984 292.403 314.142 291.44L314.069 291.356C313.744 290.981 313.485 290.68 313.23 290.374L312.343 289.287C312.093 288.974 311.85 288.659 311.609 288.343L311.481 288.178C310.703 287.154 309.95 286.094 309.239 285.022L291.465 289.629L285.91 277.274L301.153 267.037C300.822 265.789 300.529 264.523 300.281 263.266L300.256 263.133C300.166 262.669 300.092 262.278 300.025 261.885L299.8 260.499C299.741 260.103 299.687 259.709 299.635 259.314L299.608 259.107C299.446 257.837 299.324 256.544 299.245 255.254L281.549 250.357L282.916 236.879L301.235 235.634C301.572 234.387 301.952 233.144 302.365 231.931L302.401 231.827C302.562 231.36 302.695 230.983 302.833 230.605L303.331 229.295C303.476 228.925 303.626 228.56 303.778 228.193L303.861 227.992C304.356 226.811 304.898 225.631 305.472 224.474L292.596 211.384L300.518 200.397L317.005 208.478C317.922 207.566 318.872 206.679 319.835 205.836L320.162 205.554C320.348 205.393 320.533 205.231 320.722 205.073L321.99 204.037C322.302 203.789 322.616 203.546 322.933 203.304L323.352 202.98C324.144 202.385 324.959 201.803 325.776 201.25C325.935 201.143 326.094 201.037 326.255 200.933L321.649 183.161L334 177.604L344.237 192.847C345.489 192.515 346.755 192.221 348.008 191.974L348.137 191.949C348.606 191.859 348.996 191.786 349.389 191.718L351.01 191.456C351.26 191.419 351.517 191.386 351.773 191.352L352.162 191.3C353.435 191.139 354.73 191.017 356.019 190.937L360.916 173.24L374.393 174.608L375.638 192.926C376.886 193.264 378.129 193.644 379.34 194.056L379.453 194.096C379.914 194.255 380.29 194.387 380.665 194.525L381.977 195.023C382.347 195.168 382.716 195.319 383.084 195.472L383.284 195.555C384.457 196.046 385.638 196.587 386.797 197.163L399.886 184.287L410.874 192.21L402.792 208.696C403.702 209.611 404.589 210.561 405.434 211.526L405.506 211.61C405.83 211.983 406.089 212.286 406.345 212.592L407.232 213.679C407.482 213.992 407.725 214.307 407.966 214.623L408.092 214.785C408.869 215.807 409.622 216.868 410.336 217.944L428.11 213.337L433.665 225.692L418.424 235.928C418.474 236.113 418.523 236.297 418.57 236.483C418.814 237.438 419.037 238.415 419.235 239.383L419.318 239.821C419.41 240.298 419.484 240.688 419.552 241.082L419.777 242.47C419.836 242.862 419.89 243.255 419.942 243.649V243.651L419.233 243.742L419.952 243.729L419.97 243.864C420.131 245.13 420.253 246.423 420.333 247.712L438.029 252.609L436.662 266.087L418.342 267.332C418.006 268.576 417.626 269.819 417.213 271.034L417.176 271.139C417.014 271.608 416.882 271.983 416.745 272.358L416.299 273.543L415.582 273.408L416.248 273.669C416.102 274.041 415.951 274.409 415.798 274.777L415.717 274.972C415.22 276.157 414.679 277.337 414.106 278.49L426.982 291.58L419.06 302.568L402.573 294.486C401.654 295.4 400.704 296.287 399.744 297.127L399.45 297.381C399.253 297.552 399.057 297.723 398.857 297.892L397.59 298.927C397.277 299.177 396.959 299.422 396.64 299.666L396.08 299.196L396.527 299.755C395.468 300.56 394.403 301.317 393.325 302.032L397.931 319.805L385.576 325.36L375.34 310.12C374.098 310.449 372.832 310.742 371.569 310.992L371.42 311.021C370.972 311.107 370.58 311.18 370.187 311.249L368.567 311.511C368.319 311.548 368.065 311.581 367.81 311.614L367.413 311.667C366.141 311.828 364.847 311.95 363.558 312.03L358.66 329.726ZM346.527 327.058L357.604 328.181L362.453 310.659L362.967 310.632C364.391 310.556 365.826 310.427 367.232 310.248L367.627 310.196C367.872 310.164 368.117 310.133 368.362 310.095L369.941 309.84C370.328 309.773 370.711 309.7 371.093 309.627L371.286 309.591C372.69 309.313 374.092 308.982 375.459 308.606L375.955 308.469L386.092 323.563L396.246 318.999L391.685 301.399L392.116 301.119C393.313 300.339 394.491 299.51 395.618 298.652L396.151 299.144L395.709 298.582C396.084 298.294 396.394 298.055 396.7 297.81L397.938 296.799C398.132 296.636 398.323 296.47 398.514 296.304L398.805 296.051C399.867 295.123 400.915 294.136 401.922 293.117L402.283 292.752L418.608 300.755L425.119 291.724L412.369 278.763L412.602 278.304C413.246 277.038 413.851 275.731 414.402 274.419L414.444 274.316C414.628 273.871 414.776 273.51 414.918 273.148L415.404 271.868C415.538 271.502 415.667 271.135 415.794 270.766L415.83 270.663C416.319 269.229 416.734 267.85 417.093 266.473L417.223 265.975L435.363 264.744L436.487 253.667L418.964 248.817L418.937 248.303C418.861 246.879 418.732 245.445 418.553 244.039L418.526 243.835C418.476 243.449 418.423 243.065 418.365 242.682L418.146 241.328C418.079 240.943 418.007 240.56 417.934 240.179L417.836 239.669C417.644 238.723 417.426 237.77 417.188 236.837C417.109 236.526 417.024 236.219 416.94 235.91L416.777 235.315L431.87 225.178L427.305 215.024L409.705 219.586L409.424 219.154C408.646 217.96 407.817 216.781 406.959 215.653L406.837 215.495C406.598 215.182 406.359 214.875 406.117 214.57L405.251 213.508C405.001 213.208 404.748 212.913 404.492 212.619L404.421 212.537C403.425 211.398 402.438 210.349 401.424 209.349L401.058 208.988L409.06 192.662L400.029 186.151L387.068 198.901L386.61 198.669C385.335 198.021 384.028 197.415 382.725 196.869L382.604 196.819C382.176 196.641 381.816 196.494 381.454 196.352L380.172 195.865C379.807 195.731 379.44 195.603 379.073 195.476L378.97 195.44C377.54 194.952 376.16 194.537 374.779 194.175L374.281 194.045L373.049 175.906L361.972 174.782L357.123 192.304L356.609 192.331C355.185 192.407 353.75 192.537 352.343 192.715L351.955 192.767C351.707 192.799 351.46 192.83 351.213 192.868L349.63 193.123C349.247 193.189 348.865 193.263 348.484 193.336L348.289 193.372C346.898 193.648 345.496 193.978 344.116 194.357L343.62 194.493L333.483 179.4L323.329 183.964L327.891 201.565L327.369 201.905C327.102 202.078 326.836 202.252 326.572 202.429C325.775 202.97 324.979 203.537 324.208 204.117L323.958 204.31L323.42 203.823L323.863 204.384C323.488 204.672 323.18 204.909 322.876 205.153L321.64 206.163C321.454 206.319 321.275 206.475 321.095 206.632L320.767 206.915C319.706 207.843 318.658 208.831 317.654 209.847L317.293 210.212L300.968 202.21L294.457 211.24L307.207 224.201L306.974 224.66C306.328 225.931 305.723 227.237 305.175 228.543L305.093 228.742C304.946 229.096 304.8 229.454 304.658 229.814L304.172 231.094C304.037 231.462 303.907 231.831 303.78 232.201L303.744 232.303C303.257 233.73 302.842 235.11 302.481 236.49L302.351 236.988L284.212 238.219L283.088 249.296L300.611 254.146L300.638 254.66C300.714 256.085 300.843 257.519 301.022 258.926L301.049 259.13C301.099 259.51 301.152 259.897 301.21 260.282L301.429 261.636C301.496 262.019 301.568 262.401 301.641 262.782L301.68 262.981C301.955 264.375 302.286 265.776 302.663 267.15L302.799 267.646L287.706 277.783L292.271 287.937L309.871 283.375L310.151 283.807C310.924 284.995 311.754 286.174 312.616 287.308L312.706 287.424C312.977 287.779 313.216 288.086 313.458 288.391L314.325 289.453C314.575 289.753 314.828 290.048 315.083 290.341L315.154 290.423C316.147 291.56 317.134 292.609 318.151 293.613L318.517 293.975L310.515 310.299L319.546 316.81L332.507 304.06L332.965 304.292C334.236 304.938 335.544 305.544 336.851 306.093L336.963 306.139C337.396 306.319 337.758 306.467 338.123 306.611L339.401 307.096C339.766 307.23 340.131 307.358 340.496 307.483L340.691 307.552C342.035 308.009 343.414 308.424 344.795 308.785L345.293 308.915L346.527 327.058ZM359.687 301.136C358.461 301.136 357.238 301.09 356.016 300.999L355.769 300.979C355.513 300.958 355.255 300.931 354.997 300.904L354.468 300.85C354.241 300.828 354.015 300.806 353.789 300.779L353.54 300.747C345.771 299.75 338.239 296.891 331.763 292.478L331.564 292.343C331.343 292.19 331.131 292.035 330.919 291.881L330.477 291.563C330.298 291.435 330.119 291.307 329.943 291.174L329.752 291.029C323.515 286.275 318.422 280.032 315.018 272.972L314.914 272.756C314.796 272.505 314.685 272.257 314.575 272.008L314.36 271.529C314.27 271.331 314.18 271.133 314.095 270.934L314.001 270.708C310.976 263.472 309.687 255.516 310.271 247.698L310.288 247.473C310.311 247.194 310.34 246.919 310.37 246.644L310.418 246.166C310.44 245.934 310.463 245.702 310.491 245.471L310.51 245.324C311.517 237.467 314.379 229.928 318.797 223.446L318.928 223.254C319.056 223.069 319.186 222.891 319.316 222.712L319.616 222.296C319.776 222.072 319.935 221.848 320.101 221.628L320.206 221.489C324.996 215.204 331.241 210.11 338.303 206.708L338.515 206.605C338.738 206.5 338.96 206.401 339.182 206.302L339.651 206.091C339.88 205.987 340.11 205.882 340.341 205.783L340.561 205.691C347.791 202.668 355.749 201.377 363.563 201.962L363.807 201.982C364.045 202.002 364.286 202.027 364.528 202.052L365.064 202.107C365.306 202.13 365.547 202.154 365.789 202.182L366.027 202.213C373.803 203.211 381.337 206.071 387.815 210.485L388.017 210.624C388.222 210.766 388.428 210.915 388.633 211.064L388.985 211.318C389.203 211.473 389.421 211.629 389.635 211.789L389.788 211.905C396.062 216.688 401.156 222.932 404.558 229.993L404.663 230.214C404.76 230.418 404.852 230.627 404.946 230.837L405.16 231.314C405.269 231.553 405.378 231.793 405.481 232.035L405.538 232.169C408.595 239.484 409.885 247.436 409.303 255.249L409.283 255.505C409.264 255.733 409.241 255.956 409.217 256.18L409.162 256.724C409.138 256.976 409.113 257.228 409.083 257.479L409.056 257.692C408.052 265.504 405.193 273.032 400.783 279.504L400.645 279.706C400.492 279.927 400.334 280.144 400.176 280.36L399.872 280.782C399.743 280.963 399.613 281.144 399.479 281.323L399.333 281.514C394.578 287.752 388.335 292.846 381.276 296.247L381.054 296.353C380.816 296.465 380.576 296.572 380.336 296.679L379.825 296.908C379.63 296.996 379.435 297.085 379.237 297.169L379.079 297.236C372.924 299.816 366.3 301.136 359.687 301.136ZM359.882 203.258C353.464 203.258 347.039 204.537 341.112 207.015L340.905 207.102C340.683 207.197 340.464 207.296 340.245 207.397L339.764 207.613C339.551 207.708 339.338 207.802 339.127 207.901L338.921 208.001C332.064 211.305 325.998 216.253 321.381 222.311L321.247 222.488C321.086 222.702 320.934 222.917 320.781 223.131L320.472 223.559C320.348 223.729 320.225 223.898 320.105 224.071L319.978 224.259C315.687 230.554 312.908 237.877 311.939 245.435L311.912 245.648C311.885 245.869 311.864 246.089 311.843 246.311L311.793 246.802C311.765 247.067 311.736 247.33 311.714 247.596L311.698 247.81C311.13 255.406 312.383 263.133 315.321 270.162L315.413 270.382C315.493 270.568 315.578 270.755 315.663 270.943L315.884 271.434C315.99 271.673 316.096 271.913 316.208 272.149L316.309 272.359C319.615 279.215 324.562 285.279 330.616 289.894L330.739 289.987C330.97 290.162 331.14 290.283 331.31 290.404L331.763 290.73C331.967 290.878 332.17 291.027 332.377 291.17L332.568 291.3C338.86 295.587 346.177 298.364 353.729 299.334L353.963 299.363C354.177 299.389 354.393 299.41 354.609 299.431L355.15 299.486C355.397 299.512 355.644 299.539 355.891 299.558L356.123 299.577C363.717 300.144 371.44 298.889 378.464 295.955L378.676 295.865C378.869 295.783 379.054 295.699 379.239 295.615L379.76 295.381C379.99 295.278 380.22 295.176 380.449 295.069L380.663 294.966C387.517 291.662 393.581 286.715 398.197 280.659L398.34 280.471C398.466 280.303 398.59 280.13 398.713 279.958L399.024 279.526C399.175 279.318 399.327 279.109 399.475 278.897L399.607 278.704C403.889 272.418 406.666 265.104 407.637 257.558L407.668 257.313C407.697 257.075 407.72 256.834 407.743 256.593L407.799 256.036C407.822 255.822 407.844 255.608 407.862 255.393L407.881 255.145C408.446 247.559 407.193 239.835 404.258 232.812L404.171 232.605C404.071 232.371 403.967 232.142 403.862 231.914L403.642 231.425C403.554 231.226 403.465 231.027 403.371 230.829L403.306 230.692C399.967 223.762 395.019 217.697 388.962 213.08L388.78 212.941C388.574 212.787 388.366 212.638 388.158 212.49L387.794 212.228C387.598 212.084 387.402 211.942 387.203 211.804L387.008 211.67C380.721 207.386 373.403 204.608 365.851 203.638L365.62 203.608C365.394 203.582 365.162 203.559 364.931 203.537L364.381 203.481C364.151 203.457 363.922 203.432 363.691 203.414L363.451 203.394C362.264 203.303 361.072 203.258 359.882 203.258Z" fill="#F9FFFF" stroke="#B4D0E5" stroke-width="2" mask="url(#path-8-inside-1)"/>
</g>
<path opacity="0.5" d="M321.766 237.046L321.766 237.046C317.909 247.203 318.238 258.252 322.694 268.16L322.238 268.365L322.694 268.16C327.15 278.069 335.194 285.649 345.351 289.505C350.047 291.288 354.931 292.176 359.805 292.176C365.476 292.176 371.135 290.974 376.466 288.578M321.766 237.046L376.671 289.034M321.766 237.046C325.622 226.889 333.202 218.844 343.111 214.388M321.766 237.046L343.111 214.388M376.466 288.578L376.671 289.034M376.466 288.578C376.466 288.578 376.466 288.578 376.466 288.578L376.671 289.034M376.466 288.578C386.375 284.122 393.955 276.076 397.811 265.919L398.278 266.097C394.375 276.378 386.701 284.524 376.671 289.034M343.287 214.781C333.484 219.188 325.983 227.15 322.168 237.198L322.168 237.198C318.352 247.247 318.679 258.182 323.086 267.984C327.493 277.787 335.456 285.288 345.503 289.103L345.681 288.636L345.504 289.103C355.551 292.917 366.486 292.592 376.289 288.185C386.092 283.778 393.593 275.815 397.408 265.767L396.941 265.59L397.408 265.767C401.223 255.718 400.897 244.784 396.49 234.982C392.083 225.179 384.12 217.678 374.072 213.862L373.895 214.33L374.072 213.862C369.43 212.1 364.596 211.22 359.772 211.22C354.158 211.22 348.559 212.41 343.287 214.781ZM343.287 214.781L343.492 215.237L343.287 214.781ZM328.398 265.596L328.398 265.596C330.193 269.59 334.135 271.963 338.258 271.963C339.733 271.963 341.233 271.657 342.667 271.015L328.398 265.596ZM328.398 265.596C325.958 260.17 328.389 253.769 333.816 251.328M328.398 265.596L333.816 251.328M345.675 220.092L345.675 220.092C343.045 221.274 341.034 223.408 340.01 226.103C338.987 228.799 339.074 231.73 340.257 234.36C341.44 236.99 343.573 239 346.269 240.024L345.675 220.092ZM345.675 220.092C348.305 218.909 351.234 218.824 353.931 219.845M345.675 220.092L353.931 219.845M343.111 214.388C353.02 209.932 364.067 209.604 374.226 213.46L343.111 214.388ZM333.816 251.328C336.445 250.146 339.376 250.059 342.071 251.081M333.816 251.328L342.071 251.081M342.071 251.081C344.767 252.105 346.901 254.116 348.084 256.746M342.071 251.081L348.084 256.746M348.084 256.746C350.524 262.173 348.093 268.574 342.667 271.015L348.084 256.746ZM353.931 219.845C356.627 220.869 358.76 222.88 359.943 225.51C362.383 230.936 359.952 237.337 354.526 239.778L353.931 219.845ZM359.633 277.456L359.177 277.661L359.633 277.456C357.193 272.029 359.624 265.629 365.051 263.188C367.681 262.006 370.611 261.919 373.306 262.941C376.002 263.965 378.136 265.976 379.319 268.606C381.759 274.033 379.328 280.434 373.901 282.875C372.469 283.518 370.97 283.823 369.493 283.823C365.37 283.823 361.428 281.45 359.633 277.456ZM365.227 263.581L365.227 263.581C360.016 265.923 357.682 272.068 360.025 277.28C362.367 282.49 368.513 284.828 373.725 282.482C378.936 280.14 381.27 273.994 378.927 268.782L378.927 268.782C377.792 266.259 375.741 264.326 373.154 263.344L373.154 263.343C371.96 262.891 370.715 262.664 369.473 262.664C368.026 262.664 366.584 262.971 365.227 263.581ZM333.991 251.72L333.991 251.72C328.78 254.062 326.446 260.208 328.789 265.419C331.132 270.63 337.278 272.966 342.49 270.621C347.701 268.279 350.034 262.133 347.692 256.921L347.692 256.921C346.557 254.398 344.506 252.465 341.92 251.482L341.919 251.482C340.724 251.03 339.479 250.803 338.237 250.803C336.79 250.803 335.348 251.11 333.991 251.72ZM362.539 250.248L362.539 250.248C363.221 251.764 362.541 253.552 361.026 254.234C360.624 254.414 360.205 254.499 359.793 254.499C358.64 254.499 357.539 253.835 357.038 252.72C356.358 251.204 357.037 249.415 358.552 248.733C360.067 248.053 361.857 248.731 362.539 250.248ZM357.43 252.544L357.43 252.544C358.015 253.845 359.549 254.43 360.85 253.841C362.15 253.256 362.732 251.724 362.147 250.423C361.563 249.124 360.031 248.537 358.728 249.125C357.428 249.709 356.846 251.243 357.43 252.544ZM385.76 251.638L385.76 251.638C384.346 252.274 382.845 252.593 381.341 252.593C380.048 252.593 378.753 252.357 377.506 251.885C374.809 250.861 372.676 248.85 371.493 246.22C369.053 240.793 371.484 234.392 376.91 231.951C382.337 229.512 388.737 231.943 391.178 237.37C393.618 242.797 391.187 249.197 385.76 251.638ZM371.885 246.044L371.885 246.044C373.02 248.567 375.071 250.5 377.657 251.482L377.658 251.482C380.245 252.464 383.062 252.38 385.585 251.245C390.796 248.903 393.13 242.758 390.787 237.546C389.062 233.709 385.275 231.433 381.321 231.433C379.902 231.433 378.462 231.725 377.087 232.344C371.876 234.686 369.542 240.832 371.885 246.044ZM340.649 234.184L340.649 234.184C341.784 236.707 343.835 238.64 346.421 239.622C349.007 240.604 351.825 240.52 354.349 239.385C359.56 237.043 361.893 230.898 359.551 225.686L359.551 225.686C358.416 223.163 356.365 221.23 353.779 220.247L353.778 220.247C352.584 219.795 351.34 219.568 350.097 219.568C348.65 219.568 347.208 219.875 345.851 220.485C343.328 221.618 341.395 223.669 340.413 226.256C339.43 228.843 339.515 231.66 340.649 234.184ZM350.105 240.733C348.812 240.733 347.517 240.497 346.27 240.025L354.526 239.778C353.11 240.414 351.609 240.733 350.105 240.733Z" fill="#F9FFFF" stroke="#B4D0E5"/>
<path opacity="0.5" d="M453.94 372.002C453.931 372.002 453.922 372.001 453.913 372L449.755 371.579C449.628 371.566 449.527 371.463 449.519 371.335L449.112 365.349C448.696 365.237 448.28 365.109 447.873 364.971C447.873 364.97 447.804 364.947 447.804 364.947C447.677 364.902 447.55 364.858 447.423 364.811L446.98 364.643C446.853 364.593 446.727 364.541 446.602 364.489L446.64 364.219L446.538 364.463C446.141 364.296 445.745 364.115 445.359 363.924L441.082 368.13C440.99 368.219 440.847 368.23 440.743 368.156L437.354 365.712C437.249 365.636 437.215 365.497 437.271 365.381L439.911 359.996C439.607 359.69 439.311 359.372 439.026 359.047C439.026 359.047 438.98 358.994 438.979 358.993L438.415 358.316C438.332 358.211 438.249 358.105 438.167 357.998C438.167 357.997 438.124 357.942 438.124 357.941C437.865 357.601 437.613 357.246 437.372 356.884L431.566 358.389C431.44 358.423 431.312 358.359 431.259 358.242L429.545 354.43C429.493 354.313 429.532 354.175 429.639 354.103L434.618 350.759C434.508 350.342 434.41 349.917 434.326 349.495L434.313 349.426C434.287 349.293 434.262 349.161 434.239 349.027L434.163 348.557C434.143 348.423 434.125 348.29 434.107 348.155C434.107 348.155 434.097 348.086 434.097 348.086C434.043 347.657 434.002 347.224 433.975 346.795L428.194 345.195C428.069 345.161 427.988 345.042 428.001 344.914L428.423 340.756C428.437 340.628 428.539 340.527 428.668 340.519L434.652 340.113C434.765 339.695 434.893 339.278 435.032 338.872L435.056 338.803C435.099 338.679 435.144 338.551 435.19 338.423L435.36 337.977C435.408 337.853 435.459 337.729 435.51 337.604C435.51 337.604 435.539 337.537 435.539 337.536C435.706 337.14 435.887 336.744 436.078 336.358L431.872 332.082C431.782 331.99 431.771 331.847 431.846 331.742L434.29 328.352C434.366 328.247 434.506 328.213 434.621 328.269L440.007 330.91C440.314 330.605 440.632 330.309 440.955 330.026C440.955 330.025 441.009 329.979 441.009 329.979L441.255 329.766L441.317 329.717L441.468 329.592L441.547 329.528L441.684 329.417C441.791 329.332 441.898 329.249 442.005 329.167L442.061 329.123C442.061 329.123 442.147 329.057 442.147 329.056C442.417 328.854 442.691 328.659 442.969 328.47C443.018 328.437 443.068 328.404 443.117 328.371L441.612 322.566C441.581 322.441 441.643 322.311 441.76 322.258L445.572 320.545C445.688 320.493 445.827 320.532 445.899 320.639L449.243 325.618C449.661 325.507 450.085 325.41 450.506 325.326C450.506 325.326 450.576 325.312 450.577 325.312C450.709 325.286 450.841 325.262 450.975 325.239L451.444 325.162C451.445 325.162 451.523 325.149 451.523 325.149L451.846 325.106C451.846 325.106 451.915 325.097 451.916 325.097C452.342 325.043 452.775 325.002 453.207 324.974L454.807 319.193C454.841 319.069 454.964 318.99 455.088 319.001L459.245 319.423C459.373 319.436 459.474 319.539 459.482 319.668L459.888 325.652C460.306 325.765 460.723 325.893 461.128 326.031C461.128 326.031 461.195 326.055 461.196 326.055C461.324 326.098 461.451 326.143 461.578 326.19L461.754 326.257L461.763 326.542L461.856 326.295L462.023 326.359C462.148 326.408 462.273 326.459 462.397 326.512L462.466 326.54C462.859 326.704 463.255 326.886 463.642 327.078L467.918 322.872C468.01 322.78 468.153 322.77 468.258 322.846L471.647 325.29C471.752 325.365 471.786 325.505 471.73 325.62L469.09 331.006C469.393 331.311 469.69 331.63 469.974 331.954C469.974 331.954 470.02 332.007 470.02 332.007C470.109 332.109 470.197 332.211 470.284 332.316L470.833 333.004C470.833 333.004 470.877 333.06 470.878 333.061C471.139 333.403 471.391 333.758 471.629 334.117L477.435 332.613C477.56 332.58 477.69 332.642 477.742 332.76L479.455 336.571C479.508 336.689 479.469 336.827 479.362 336.899L474.383 340.242C474.399 340.3 474.414 340.357 474.428 340.415C474.511 340.739 474.586 341.067 474.654 341.397C474.654 341.4 474.666 341.464 474.667 341.465L474.416 341.557L474.682 341.544C474.713 341.708 474.739 341.84 474.762 341.973L474.838 342.444C474.858 342.577 474.877 342.711 474.894 342.844L474.903 342.917C474.957 343.341 474.998 343.774 475.025 344.206L480.806 345.805C480.931 345.84 481.012 345.958 480.999 346.087L480.577 350.245C480.563 350.373 480.461 350.473 480.332 350.481L474.348 350.888C474.234 351.306 474.107 351.722 473.968 352.128L473.945 352.195C473.9 352.323 473.856 352.451 473.81 352.578L473.659 352.978C473.592 353.147 473.541 353.272 473.49 353.397C473.49 353.397 473.462 353.463 473.461 353.463C473.297 353.857 473.116 354.253 472.922 354.642L477.129 358.918C477.219 359.01 477.23 359.153 477.155 359.258L474.71 362.648C474.635 362.752 474.495 362.787 474.38 362.731L468.994 360.09C468.688 360.394 468.371 360.691 468.046 360.974C468.046 360.975 467.991 361.021 467.991 361.021L467.745 361.234C467.743 361.235 467.693 361.276 467.691 361.277L467.315 361.585C467.21 361.669 467.102 361.752 466.994 361.835L466.78 361.666L466.94 361.876C466.595 362.138 466.239 362.391 465.882 362.628L467.388 368.434C467.419 368.559 467.357 368.689 467.24 368.742L463.428 370.455C463.312 370.507 463.173 370.469 463.101 370.361L459.757 365.382C459.34 365.492 458.916 365.59 458.494 365.674C458.494 365.674 458.425 365.687 458.424 365.687C458.292 365.713 458.16 365.737 458.027 365.761L457.157 365.894C457.156 365.894 457.085 365.904 457.084 365.904C456.654 365.958 456.221 365.999 455.794 366.026L454.194 371.807C454.163 371.924 454.058 372.002 453.94 372.002ZM450.03 371.077L453.744 371.453L455.336 365.705C455.366 365.596 455.463 365.518 455.576 365.512C456.052 365.486 456.537 365.443 457.018 365.382L457.121 365.635L457.086 365.373L458.324 365.173L458.443 365.419L458.392 365.159C458.863 365.066 459.338 364.955 459.802 364.827C459.91 364.796 460.027 364.84 460.092 364.935L463.417 369.887L466.822 368.356L465.325 362.582C465.296 362.472 465.341 362.356 465.437 362.294C465.836 362.034 466.235 361.755 466.621 361.46L466.834 361.63L466.674 361.42C466.779 361.34 466.884 361.258 466.988 361.176L467.345 360.883C467.346 360.883 467.406 360.834 467.406 360.833L467.606 360.661C467.607 360.661 467.674 360.603 467.675 360.602C468.061 360.265 468.416 359.931 468.753 359.589C468.833 359.509 468.956 359.488 469.057 359.537L474.413 362.163L476.597 359.135L472.413 354.883C472.334 354.803 472.315 354.679 472.366 354.578C472.586 354.146 472.79 353.704 472.975 353.265L473.246 353.302L473.001 353.2C473.051 353.079 473.102 352.957 473.15 352.834L473.314 352.401C473.36 352.277 473.404 352.152 473.446 352.029L473.719 352.048L473.469 351.963C473.623 351.511 473.764 351.044 473.886 350.576C473.915 350.467 474.01 350.387 474.123 350.379L480.073 349.975L480.45 346.26L474.702 344.671C474.593 344.64 474.515 344.544 474.509 344.43C474.483 343.949 474.439 343.463 474.379 342.988C474.379 342.987 474.369 342.919 474.369 342.918C474.353 342.788 474.334 342.657 474.315 342.529L474.241 342.07C474.218 341.941 474.195 341.811 474.169 341.682L474.415 341.564L474.155 341.614L474.395 341.456L474.136 341.509C474.071 341.187 473.997 340.868 473.917 340.552C473.887 340.436 473.855 340.321 473.824 340.204C473.793 340.095 473.837 339.978 473.932 339.915L478.883 336.589L477.352 333.185L471.578 334.681C471.469 334.711 471.352 334.665 471.291 334.57C471.028 334.167 470.748 333.769 470.457 333.384L470.625 333.169L470.416 333.33L469.88 332.66C469.795 332.557 469.709 332.458 469.623 332.359L469.776 332.133L469.578 332.307C469.26 331.944 468.926 331.588 468.584 331.251C468.504 331.172 468.483 331.05 468.533 330.948L471.158 325.592L468.13 323.409L463.879 327.592C463.797 327.672 463.675 327.69 463.573 327.639C463.143 327.421 462.701 327.216 462.259 327.03C462.258 327.03 462.196 327.005 462.195 327.004C462.073 326.954 461.952 326.903 461.829 326.855L461.67 326.794C461.67 326.794 461.567 326.755 461.566 326.755L461.396 326.69C461.273 326.645 461.148 326.602 461.024 326.559L461.043 326.286L460.958 326.536C460.505 326.381 460.038 326.241 459.571 326.119C459.461 326.09 459.382 325.995 459.375 325.882L458.97 319.932L455.256 319.555L453.666 325.302C453.636 325.412 453.539 325.489 453.425 325.496C452.943 325.522 452.458 325.566 451.982 325.626L451.88 325.373L451.915 325.635L451.599 325.677L451.483 325.428L451.523 325.69L451.064 325.764C450.935 325.787 450.805 325.811 450.676 325.836L450.557 325.59L450.608 325.849C450.138 325.942 449.663 326.054 449.198 326.182C449.089 326.212 448.972 326.168 448.908 326.074L445.583 321.123L442.179 322.654L443.675 328.427C443.704 328.537 443.658 328.654 443.563 328.716C443.462 328.781 443.362 328.846 443.263 328.914C442.994 329.097 442.726 329.287 442.464 329.484L442.219 329.339L442.384 329.545C442.382 329.545 442.326 329.591 442.324 329.591C442.219 329.67 442.115 329.752 442.012 329.833L441.878 329.942L441.632 329.801L441.799 330.006L441.652 330.126L441.422 329.973L441.592 330.174L441.351 330.382L441.125 330.228L441.299 330.427C440.938 330.744 440.583 331.078 440.244 331.421C440.165 331.501 440.043 331.523 439.94 331.472L434.584 328.846L432.401 331.875L436.584 336.126C436.663 336.207 436.682 336.33 436.631 336.431C436.414 336.859 436.208 337.302 436.022 337.746L435.751 337.71L435.995 337.812C435.944 337.932 435.895 338.053 435.847 338.175L435.683 338.608C435.637 338.732 435.593 338.857 435.55 338.983L435.278 338.961L435.528 339.046C435.374 339.499 435.233 339.966 435.111 340.433C435.083 340.543 434.987 340.622 434.874 340.63L428.923 341.034L428.546 344.749L434.294 346.339C434.403 346.369 434.481 346.466 434.488 346.58C434.513 347.057 434.557 347.543 434.618 348.022L434.365 348.124L434.627 348.09C434.643 348.221 434.661 348.351 434.681 348.481L434.755 348.94C434.777 349.069 434.802 349.198 434.827 349.327L434.581 349.446L434.84 349.395C434.933 349.866 435.045 350.34 435.173 350.804C435.203 350.914 435.159 351.031 435.065 351.094L430.114 354.42L431.644 357.824L437.418 356.328C437.527 356.298 437.643 356.344 437.706 356.439C437.969 356.845 438.25 357.244 438.539 357.625L438.371 357.84L438.581 357.679C438.661 357.783 438.742 357.887 438.824 357.99L439.374 358.651L439.22 358.877L439.419 358.703C439.737 359.066 440.071 359.421 440.411 359.758C440.492 359.837 440.513 359.96 440.463 360.062L437.838 365.417L440.866 367.6L445.118 363.418C445.198 363.338 445.321 363.319 445.423 363.372C445.851 363.589 446.294 363.794 446.737 363.979L446.698 364.249L446.799 364.005C446.921 364.055 447.044 364.106 447.167 364.154L447.599 364.318C447.724 364.364 447.847 364.408 447.971 364.451L447.952 364.724L448.037 364.474C448.492 364.629 448.959 364.769 449.424 364.89C449.534 364.919 449.613 365.015 449.62 365.128L450.03 371.077ZM454.467 362.339C454.052 362.339 453.636 362.324 453.222 362.293C453.221 362.293 453.139 362.287 453.138 362.287L452.467 362.219C452.466 362.219 452.384 362.208 452.384 362.208C449.748 361.869 447.194 360.899 444.997 359.404C444.997 359.404 444.929 359.357 444.928 359.357C444.855 359.307 444.784 359.254 444.713 359.203L444.313 358.91C442.2 357.3 440.473 355.183 439.319 352.79C439.319 352.789 439.283 352.716 439.283 352.715L439.006 352.098C439.006 352.098 438.974 352.022 438.974 352.022C437.948 349.569 437.511 346.87 437.709 344.22L437.714 344.145C437.723 344.05 437.732 343.959 437.742 343.867L437.783 343.465C437.783 343.464 437.793 343.388 437.793 343.388C438.131 340.75 439.102 338.193 440.599 335.995C440.599 335.995 440.644 335.93 440.645 335.929L440.886 335.594C440.937 335.522 440.989 335.45 441.042 335.379L441.09 335.315C442.702 333.201 444.819 331.473 447.214 330.319L447.288 330.284C447.366 330.246 447.447 330.21 447.529 330.174L447.906 330.006C447.906 330.006 447.979 329.976 447.979 329.975C450.43 328.949 453.126 328.511 455.78 328.71C455.781 328.71 455.862 328.716 455.862 328.716L456.196 328.75C456.346 328.765 456.441 328.774 456.536 328.786L456.619 328.796C459.253 329.135 461.808 330.105 464.004 331.602C464.005 331.602 464.071 331.647 464.071 331.647L464.406 331.888C464.479 331.939 464.55 331.991 464.621 332.044L464.69 332.096C466.799 333.704 468.527 335.822 469.681 338.216C469.681 338.217 469.716 338.29 469.717 338.29L470.025 338.981C471.05 341.435 471.487 344.131 471.289 346.781L471.206 347.609C470.865 350.257 469.895 352.81 468.4 355.005L467.907 355.69C466.298 357.802 464.18 359.529 461.786 360.684L461.712 360.719C461.623 360.762 461.533 360.801 461.443 360.841L461.095 360.997C461.094 360.998 461.018 361.029 461.018 361.03C458.952 361.893 456.709 362.339 454.467 362.339ZM452.529 361.694L452.772 361.719C452.773 361.719 452.839 361.726 452.84 361.726L453.183 361.76L453.241 362.029L453.26 361.766C455.831 361.956 458.441 361.534 460.816 360.541L460.993 360.754L460.889 360.511L461.174 360.383C461.317 360.319 461.402 360.282 461.486 360.242C461.486 360.242 461.487 360.242 461.487 360.242L461.559 360.208C463.878 359.089 465.929 357.416 467.489 355.368L467.965 354.708C469.414 352.58 470.353 350.107 470.682 347.555L470.764 346.744C470.956 344.173 470.532 341.561 469.54 339.186L469.24 338.516L469.445 338.331L469.207 338.445C468.088 336.125 466.414 334.074 464.366 332.513L463.771 332.081L463.856 331.82L463.708 332.038C461.579 330.588 459.104 329.648 456.55 329.32L456.475 329.31C456.382 329.299 456.291 329.29 456.2 329.282L455.817 329.243L455.76 328.974L455.741 329.237C453.172 329.044 450.558 329.469 448.183 330.463L448.009 330.249L448.113 330.492L447.804 330.63C447.804 330.63 447.743 330.657 447.743 330.658C447.666 330.692 447.589 330.726 447.513 330.762L447.445 330.795C445.123 331.913 443.072 333.587 441.51 335.635L441.079 336.231L440.818 336.145L441.036 336.293C439.585 338.423 438.644 340.899 438.317 343.456L438.046 343.496L438.308 343.527L438.235 344.258C438.043 346.827 438.467 349.441 439.46 351.818L439.248 351.995L439.491 351.891L439.761 352.49L439.557 352.675L439.795 352.56C440.913 354.88 442.586 356.931 444.634 358.491L445.298 358.97C447.421 360.417 449.896 361.356 452.449 361.684L452.497 361.956L452.529 361.694Z" fill="#B4D0E5" stroke="#B4D0E5"/>
<path opacity="0.5" d="M45.723 43.133C45.745 42.992 45.764 42.852 45.779 42.711C45.787 42.64 45.794 42.57 45.8 42.5C45.812 42.359 45.82 42.218 45.825 42.077C45.826 42.063 45.826 42.049 45.826 42.034C45.826 42.024 45.826 42.013 45.827 42.003C45.828 41.949 45.83 41.895 45.83 41.842C45.831 41.788 45.83 41.734 45.83 41.681C45.83 41.671 45.83 41.66 45.83 41.65C45.824 41.122 45.77 40.593 45.666 40.068L48.264 37.68L46.353 34.294L42.966 35.284C42.845 35.174 42.722 35.068 42.596 34.965C42.485 34.876 42.373 34.789 42.259 34.705C42.202 34.663 42.144 34.622 42.086 34.582C41.97 34.501 41.852 34.423 41.732 34.348C41.72 34.34 41.708 34.333 41.696 34.326C41.687 34.321 41.678 34.315 41.67 34.31C41.624 34.282 41.578 34.254 41.532 34.227C41.486 34.2 41.439 34.173 41.392 34.146C41.383 34.141 41.374 34.136 41.365 34.13C41.353 34.123 41.34 34.116 41.328 34.109C41.143 34.006 40.954 33.91 40.761 33.821C40.486 33.693 40.203 33.58 39.913 33.481L39.143 30.037L35.255 30L34.419 33.428C34.127 33.521 33.842 33.629 33.564 33.751C33.369 33.837 33.179 33.929 32.992 34.028C32.979 34.035 32.967 34.042 32.955 34.048C32.946 34.053 32.937 34.058 32.928 34.063C32.881 34.089 32.834 34.114 32.787 34.141C32.78 34.145 32.773 34.148 32.767 34.152C32.727 34.175 32.688 34.198 32.648 34.221C32.639 34.226 32.63 34.231 32.621 34.237C32.548 34.28 32.476 34.324 32.404 34.37C32.344 34.408 32.285 34.446 32.226 34.486C31.915 34.693 31.617 34.922 31.332 35.171L27.965 34.115L25.988 37.463L28.539 39.901C28.491 40.122 28.451 40.344 28.421 40.566C28.41 40.645 28.4 40.724 28.392 40.803C28.377 40.94 28.365 41.076 28.357 41.213C28.357 41.22 28.356 41.227 28.356 41.233C28.351 41.315 28.348 41.397 28.345 41.479C28.345 41.489 28.345 41.499 28.344 41.51C28.343 41.556 28.341 41.602 28.341 41.648C28.341 41.656 28.341 41.663 28.341 41.671C28.34 41.725 28.341 41.779 28.341 41.832C28.341 41.842 28.341 41.852 28.341 41.863C28.347 42.39 28.401 42.92 28.505 43.445L25.907 45.833L27.818 49.219L31.205 48.229C31.485 48.483 31.779 48.718 32.085 48.931C32.201 49.012 32.319 49.09 32.439 49.164C32.451 49.171 32.463 49.178 32.475 49.186C32.485 49.192 32.494 49.198 32.504 49.204C32.549 49.232 32.594 49.259 32.64 49.286C32.687 49.314 32.734 49.341 32.781 49.367C32.789 49.372 32.798 49.377 32.806 49.382C32.818 49.389 32.831 49.396 32.843 49.403C33.028 49.506 33.217 49.602 33.41 49.691C33.685 49.819 33.968 49.932 34.258 50.031L35.028 53.475L38.916 53.512L39.752 50.084C40.044 49.991 40.329 49.883 40.607 49.76C40.801 49.674 40.992 49.582 41.179 49.483C41.192 49.476 41.204 49.469 41.217 49.462C41.226 49.457 41.234 49.452 41.243 49.448C41.291 49.422 41.338 49.396 41.386 49.37C41.393 49.366 41.4 49.363 41.406 49.359C41.446 49.337 41.485 49.313 41.524 49.29C41.533 49.285 41.543 49.279 41.552 49.274C42.006 49.005 42.437 48.694 42.84 48.341L46.207 49.397L48.183 46.049L45.632 43.611C45.667 43.453 45.697 43.293 45.723 43.133ZM39.667 46.551C39.659 46.555 39.651 46.56 39.643 46.564C38.881 46.968 38.031 47.187 37.169 47.202C37.16 47.202 37.151 47.202 37.143 47.202C37.105 47.202 37.066 47.202 37.028 47.201C36.993 47.201 36.959 47.201 36.924 47.2C36.915 47.2 36.906 47.199 36.897 47.199C36.035 47.168 35.19 46.933 34.436 46.514C34.428 46.51 34.42 46.505 34.413 46.501C34.38 46.482 34.347 46.463 34.315 46.443C34.285 46.425 34.255 46.408 34.225 46.39C34.217 46.385 34.21 46.381 34.202 46.376C33.471 45.918 32.857 45.292 32.413 44.552C32.408 44.545 32.404 44.537 32.399 44.529C32.38 44.496 32.361 44.463 32.343 44.43C32.326 44.4 32.308 44.369 32.292 44.339C32.288 44.331 32.284 44.323 32.279 44.315C31.875 43.553 31.656 42.704 31.641 41.841C31.641 41.832 31.641 41.823 31.641 41.814C31.641 41.776 31.642 41.737 31.642 41.699C31.642 41.664 31.642 41.63 31.643 41.595C31.643 41.586 31.644 41.577 31.644 41.568C31.675 40.706 31.911 39.86 32.329 39.106C32.333 39.099 32.337 39.092 32.341 39.084C32.36 39.05 32.38 39.017 32.4 38.983C32.418 38.953 32.435 38.923 32.453 38.894C32.457 38.887 32.462 38.88 32.466 38.873C32.924 38.141 33.551 37.526 34.291 37.082C34.298 37.078 34.305 37.073 34.313 37.069C34.343 37.051 34.373 37.035 34.403 37.018C34.437 36.999 34.47 36.98 34.504 36.961C34.512 36.957 34.519 36.953 34.527 36.949C35.289 36.545 36.139 36.326 37.001 36.311C37.01 36.311 37.019 36.311 37.027 36.311C37.063 36.311 37.098 36.312 37.134 36.312C37.171 36.312 37.209 36.312 37.246 36.313C37.255 36.313 37.263 36.314 37.272 36.314C38.134 36.345 38.979 36.581 39.734 36.999C39.742 37.003 39.749 37.007 39.757 37.012C39.788 37.03 39.819 37.048 39.85 37.067C39.882 37.086 39.914 37.104 39.946 37.124C39.953 37.128 39.961 37.133 39.968 37.138C40.699 37.596 41.314 38.223 41.758 38.962C41.762 38.969 41.767 38.977 41.771 38.984C41.789 39.015 41.806 39.045 41.823 39.076C41.842 39.109 41.861 39.141 41.879 39.175C41.883 39.183 41.887 39.191 41.891 39.198C42.295 39.96 42.514 40.81 42.528 41.672C42.528 41.681 42.528 41.689 42.528 41.698C42.528 41.733 42.527 41.768 42.527 41.803C42.527 41.841 42.527 41.879 42.526 41.917C42.526 41.926 42.525 41.934 42.525 41.943C42.494 42.805 42.259 43.65 41.84 44.404C41.835 44.412 41.831 44.42 41.826 44.428C41.809 44.458 41.791 44.487 41.774 44.516C41.755 44.549 41.736 44.582 41.715 44.615C41.71 44.623 41.705 44.631 41.7 44.639C41.242 45.369 40.616 45.983 39.877 46.427C39.869 46.432 39.862 46.436 39.854 46.441C39.82 46.461 39.786 46.48 39.752 46.499C39.726 46.518 39.697 46.535 39.667 46.551Z" fill="#B4D0E5"/>
</svg>
