<svg width="26" height="25" viewBox="0 0 26 25" fill="none" xmlns="http://www.w3.org/2000/svg">
<path d="M19.9745 6.80848C21.312 6.80848 22.4 5.71055 22.4 4.36103C22.4 3.01151 21.3119 1.91358 19.9745 1.91358C18.637 1.91358 17.549 3.01151 17.549 4.36103C17.549 5.71055 18.6371 6.80848 19.9745 6.80848ZM19.9745 2.98143C20.7284 2.98143 21.3417 3.60031 21.3417 4.36103C21.3417 5.12175 20.7284 5.74063 19.9745 5.74063C19.2206 5.74063 18.6073 5.12175 18.6073 4.36103C18.6073 3.60031 19.2206 2.98143 19.9745 2.98143ZM6.12385 17.2218C4.78639 17.2218 3.69834 18.3198 3.69834 19.6693C3.69834 21.0188 4.78645 22.1167 6.12385 22.1167C7.46136 22.1167 8.54941 21.0188 8.54941 19.6693C8.54941 18.3198 7.4613 17.2218 6.12385 17.2218ZM6.12385 21.0489C5.36999 21.0489 4.75664 20.43 4.75664 19.6693C4.75664 18.9086 5.36999 18.2897 6.12385 18.2897C6.87777 18.2897 7.49111 18.9086 7.49111 19.6693C7.49111 20.43 6.87777 21.0489 6.12385 21.0489ZM24.5959 14.2208C23.9428 12.5896 22.3468 11.4812 20.5857 11.4812H14.5328C14.313 10.8404 13.7089 10.3791 13 10.3791C12.2912 10.3791 11.6871 10.8404 11.4673 11.4812H5.41432C4.14877 11.4812 2.99593 10.7226 2.46219 9.5866C2.92996 9.29923 3.24292 8.77984 3.24292 8.18808C3.24292 7.59631 2.92996 7.07686 2.46219 6.78949C2.99593 5.6536 4.14883 4.89489 5.41432 4.89489H15.6848C15.9464 7.04874 17.7704 8.722 19.9745 8.722C22.3576 8.722 24.2964 6.76564 24.2964 4.36097C24.2964 1.95636 22.3576 0 19.9745 0C17.7704 0 15.9464 1.67326 15.6848 3.82705H5.41432C3.65331 3.82705 2.05722 4.93547 1.40407 6.56661C0.612461 6.67416 0 7.36032 0 8.18814C0 9.01595 0.612461 9.70205 1.40407 9.80954C2.05716 11.4407 3.65325 12.5491 5.41432 12.5491H11.4673C11.6871 13.1899 12.2912 13.6512 13 13.6512C13.7089 13.6512 14.313 13.1899 14.5328 12.5491H20.5857C21.8512 12.5491 23.0041 13.3078 23.5377 14.4437C23.07 14.7311 22.757 15.2505 22.757 15.8422C22.757 16.434 23.07 16.9534 23.5377 17.2408C23.0041 18.3767 21.8512 19.1354 20.5857 19.1354H10.4137C10.152 16.9816 8.32793 15.3083 6.12385 15.3083C3.74073 15.3083 1.80193 17.2647 1.80193 19.6693C1.80193 22.0739 3.74073 24.0303 6.12385 24.0303C8.32799 24.0303 10.152 22.357 10.4137 20.2033H20.5857C22.3468 20.2033 23.9428 19.0948 24.5959 17.4637C25.3875 17.3561 26 16.67 26 15.8422C26 15.0145 25.3875 14.3283 24.5959 14.2208ZM19.9745 1.06791C21.774 1.06791 23.2381 2.54516 23.2381 4.36103C23.2381 6.1769 21.774 7.65421 19.9745 7.65421C18.1749 7.65421 16.7108 6.1769 16.7108 4.36103C16.7108 2.54516 18.1749 1.06791 19.9745 1.06791ZM1.71003 8.74935C1.70568 8.74994 1.70139 8.75059 1.69698 8.75125C1.67229 8.75463 1.64707 8.75635 1.62143 8.75635C1.31088 8.75635 1.05824 8.50143 1.05824 8.18814C1.05824 7.87478 1.31088 7.61986 1.62143 7.61986C1.64695 7.61986 1.67205 7.62158 1.69669 7.6249C1.70122 7.62568 1.70568 7.62627 1.71021 7.62692C1.97867 7.67005 2.18451 7.90527 2.18451 8.18814C2.18456 8.471 1.97861 8.70634 1.71003 8.74935ZM13 12.5834C12.6895 12.5834 12.4369 12.3285 12.4369 12.0152C12.4369 11.7019 12.6895 11.447 13 11.447C13.3106 11.447 13.5632 11.7019 13.5632 12.0152C13.5632 12.3285 13.3105 12.5834 13 12.5834ZM6.12385 22.9624C4.32427 22.9624 2.86023 21.4851 2.86023 19.6693C2.86023 17.8534 4.32427 16.3761 6.12385 16.3761C7.92349 16.3761 9.38758 17.8534 9.38758 19.6693C9.38758 21.4851 7.92349 22.9624 6.12385 22.9624ZM24.3785 16.4104C24.353 16.4104 24.3279 16.4087 24.3033 16.4054C24.2987 16.4046 24.2941 16.404 24.2896 16.4034C24.0212 16.3602 23.8154 16.125 23.8154 15.8422C23.8154 15.5592 24.0213 15.324 24.2898 15.281C24.2943 15.2804 24.2986 15.2797 24.303 15.2791C24.3277 15.2757 24.3529 15.274 24.3785 15.274C24.6891 15.274 24.9418 15.5289 24.9418 15.8422C24.9417 16.1555 24.689 16.4104 24.3785 16.4104Z" fill="#A0C4E4"/>
</svg>
