<svg width="100" height="100" viewBox="0 0 100 100" fill="none" xmlns="http://www.w3.org/2000/svg">
<path d="M50 98C76.5097 98 98 76.5097 98 50C98 23.4903 76.5097 2 50 2C23.4903 2 2 23.4903 2 50C2 76.5097 23.4903 98 50 98Z" fill="#E8EBED"/>
<path d="M50 4C75.365 4 96 24.635 96 50C96 75.365 75.365 96 50 96C24.635 96 4 75.365 4 50C4 24.635 24.635 4 50 4ZM50 0C22.386 0 0 22.386 0 50C0 77.614 22.386 100 50 100C77.614 100 100 77.614 100 50C100 22.386 77.614 0 50 0Z" fill="#99A6BF"/>
<path d="M50 91.147C72.7249 91.147 91.147 72.7249 91.147 50C91.147 27.2752 72.7249 8.85303 50 8.85303C27.2751 8.85303 8.853 27.2752 8.853 50C8.853 72.7249 27.2751 91.147 50 91.147Z" fill="white"/>
<path d="M50.224 55.4281C49.011 55.4281 47.859 54.9811 46.958 54.1561C46.005 53.2821 45.449 52.0901 45.394 50.7981C45.337 49.5061 45.788 48.2701 46.662 47.3181C48.465 45.3511 51.533 45.2181 53.501 47.0211C55.468 48.8261 55.6 51.8931 53.797 53.8591C52.924 54.8121 51.732 55.3681 50.44 55.4231C50.367 55.4271 50.295 55.4281 50.224 55.4281ZM50.23 47.7491C49.461 47.7491 48.695 48.0591 48.135 48.6681C47.622 49.2271 47.358 49.9521 47.391 50.7101C47.423 51.4681 47.749 52.1681 48.309 52.6801C48.869 53.1921 49.574 53.4631 50.351 53.4241C51.109 53.3911 51.808 53.0651 52.321 52.5061C53.38 51.3521 53.301 49.5521 52.148 48.4931C51.604 47.9961 50.916 47.7491 50.23 47.7491Z" fill="#9B9895"/>
<path d="M50.228 47.301C49.675 47.301 49.228 46.853 49.228 46.301V24.542C49.228 23.99 49.675 23.542 50.228 23.542C50.781 23.542 51.228 23.99 51.228 24.542V46.3C51.228 46.853 50.781 47.301 50.228 47.301Z" fill="#9B9895"/>
<path d="M21.85 79.9669C21.594 79.9669 21.338 79.8689 21.143 79.6739C20.752 79.2829 20.752 78.6509 21.143 78.2599L46.73 52.6719C47.121 52.2809 47.753 52.2809 48.144 52.6719C48.535 53.0629 48.535 53.6949 48.144 54.0859L22.557 79.6739C22.362 79.8689 22.106 79.9669 21.85 79.9669Z" fill="#9B9895"/>
<path d="M91.137 51.5689H87.215C86.674 51.5689 86.235 51.1299 86.235 50.5889C86.235 50.0479 86.674 49.6089 87.215 49.6089H91.137C91.678 49.6089 92.117 50.0479 92.117 50.5889C92.118 51.1299 91.679 51.5689 91.137 51.5689Z" fill="#9B9895"/>
<path d="M12.784 50.98H8.863C8.322 50.98 7.883 50.541 7.883 50C7.883 49.459 8.322 49.02 8.863 49.02H12.785C13.326 49.02 13.765 49.459 13.765 50C13.765 50.541 13.326 50.98 12.784 50.98Z" fill="#9B9895"/>
<path d="M49.02 12.7841V8.86306C49.02 8.32206 49.459 7.88306 50 7.88306C50.541 7.88306 50.98 8.32206 50.98 8.86306V12.7851C50.98 13.3261 50.541 13.7651 50 13.7651C49.459 13.7651 49.02 13.3261 49.02 12.7841Z" fill="#9B9895"/>
<path d="M49.02 91.1371V87.2151C49.02 86.6741 49.459 86.2351 50 86.2351C50.541 86.2351 50.98 86.6741 50.98 87.2151V91.1371C50.98 91.6781 50.541 92.1171 50 92.1171C49.459 92.1181 49.02 91.6791 49.02 91.1371Z" fill="#9B9895"/>
<path d="M77.321 51.5689H54.618C54.077 51.5689 53.638 51.1299 53.638 50.5889C53.638 50.0479 54.077 49.6089 54.618 49.6089H77.32C77.861 49.6089 78.3 50.0479 78.3 50.5889C78.301 51.1299 77.862 51.5689 77.321 51.5689Z" fill="#9B9895"/>
<path opacity="0.1" d="M39.252 94.9671V66.6791C39.252 65.1291 40.52 63.8611 42.07 63.8611H95.182C96.732 63.8611 98 65.1291 98 66.6791V94.9661C98 96.5161 96.732 97.7841 95.182 97.7841H42.07C40.52 97.7851 39.252 96.5171 39.252 94.9671Z" fill="#1D1D1B"/>
<path d="M41.252 97.1822V68.8942C41.252 67.3442 42.52 66.0762 44.07 66.0762H97.182C98.732 66.0762 100 67.3442 100 68.8942V97.1812C100 98.7312 98.732 99.9992 97.182 99.9992H44.07C42.52 100 41.252 98.7322 41.252 97.1822Z" fill="#688E25"/>
<path d="M41.252 96.9671V68.6791C41.252 67.1291 42.52 65.8611 44.07 65.8611H97.182C98.732 65.8611 100 67.1291 100 68.6791V96.9661C100 98.5161 98.732 99.7841 97.182 99.7841H44.07C42.52 99.7851 41.252 98.5171 41.252 96.9671Z" fill="#97C35A"/>
<path d="M70.626 94.8621C76.0649 94.8621 80.474 89.2562 80.474 82.3411C80.474 75.4259 76.0649 69.8201 70.626 69.8201C65.1871 69.8201 60.778 75.4259 60.778 82.3411C60.778 89.2562 65.1871 94.8621 70.626 94.8621Z" fill="#7FAA3C"/>
<path d="M45.559 72.3311C46.7536 72.3311 47.722 71.3627 47.722 70.1681C47.722 68.9735 46.7536 68.0051 45.559 68.0051C44.3644 68.0051 43.396 68.9735 43.396 70.1681C43.396 71.3627 44.3644 72.3311 45.559 72.3311Z" fill="#7FAA3C"/>
<path d="M45.559 97.6412C46.7536 97.6412 47.722 96.6728 47.722 95.4782C47.722 94.2836 46.7536 93.3152 45.559 93.3152C44.3644 93.3152 43.396 94.2836 43.396 95.4782C43.396 96.6728 44.3644 97.6412 45.559 97.6412Z" fill="#7FAA3C"/>
<path d="M95.693 72.3311C96.8876 72.3311 97.856 71.3627 97.856 70.1681C97.856 68.9735 96.8876 68.0051 95.693 68.0051C94.4984 68.0051 93.53 68.9735 93.53 70.1681C93.53 71.3627 94.4984 72.3311 95.693 72.3311Z" fill="#7FAA3C"/>
<path d="M95.693 97.6412C96.8876 97.6412 97.856 96.6728 97.856 95.4782C97.856 94.2836 96.8876 93.3152 95.693 93.3152C94.4984 93.3152 93.53 94.2836 93.53 95.4782C93.53 96.6728 94.4984 97.6412 95.693 97.6412Z" fill="#7FAA3C"/>
<g opacity="0.5">
<path opacity="0.5" d="M72.296 86.7841C72.296 86.2541 72.165 85.8381 71.904 85.5361C71.642 85.2341 71.183 84.9491 70.526 84.6811C69.869 84.4131 69.262 84.1411 68.705 83.8661C68.148 83.5911 67.669 83.2721 67.266 82.9101C66.864 82.5481 66.555 82.1291 66.34 81.6521C66.125 81.1761 66.018 80.5991 66.018 79.9221C66.018 78.7891 66.4 77.8551 67.165 77.1201C67.93 76.3861 68.949 75.9581 70.223 75.8371V73.7141H71.823V75.8771C73.05 76.0581 74.015 76.5631 74.715 77.3911C75.416 78.2191 75.766 79.2711 75.766 80.5451H72.365C72.365 79.8471 72.231 79.3111 71.963 78.9351C71.695 78.5591 71.312 78.3721 70.816 78.3721C70.373 78.3721 70.03 78.5111 69.785 78.7901C69.54 79.0681 69.418 79.4521 69.418 79.9421C69.418 80.4381 69.559 80.8321 69.841 81.1241C70.123 81.4161 70.575 81.6941 71.199 81.9591C71.823 82.2241 72.411 82.4991 72.965 82.7841C73.518 83.0691 73.996 83.3931 74.399 83.7551C74.801 84.1171 75.117 84.5401 75.345 85.0231C75.573 85.5061 75.687 86.0861 75.687 86.7641C75.687 87.9111 75.323 88.8471 74.595 89.5711C73.867 90.2951 72.876 90.7181 71.622 90.8391V92.8611H70.022V90.8291C68.56 90.6751 67.438 90.1731 66.657 89.3251C65.876 88.4771 65.485 87.3581 65.485 85.9701H68.875C68.875 86.7351 69.044 87.3161 69.383 87.7161C69.722 88.1151 70.203 88.3151 70.827 88.3151C71.283 88.3151 71.642 88.1791 71.903 87.9081C72.165 87.6341 72.296 87.2601 72.296 86.7841Z" fill="#547215"/>
</g>
<path d="M72.296 85.8542C72.296 85.3242 72.165 84.9082 71.904 84.6062C71.642 84.3042 71.183 84.0192 70.526 83.7512C69.869 83.4832 69.262 83.2112 68.705 82.9362C68.148 82.6612 67.669 82.3422 67.266 81.9802C66.864 81.6182 66.555 81.1992 66.34 80.7222C66.125 80.2452 66.018 79.6692 66.018 78.9922C66.018 77.8582 66.4 76.9252 67.165 76.1902C67.93 75.4562 68.949 75.0282 70.223 74.9072V72.7842H71.823V74.9472C73.05 75.1282 74.015 75.6332 74.715 76.4612C75.416 77.2892 75.766 78.3412 75.766 79.6152H72.365C72.365 78.9172 72.231 78.3812 71.963 78.0052C71.695 77.6292 71.312 77.4422 70.816 77.4422C70.373 77.4422 70.03 77.5812 69.785 77.8602C69.54 78.1392 69.418 78.5222 69.418 79.0122C69.418 79.5082 69.559 79.9022 69.841 80.1942C70.123 80.4862 70.575 80.7642 71.199 81.0292C71.823 81.2942 72.411 81.5692 72.965 81.8542C73.518 82.1392 73.996 82.4632 74.399 82.8252C74.801 83.1872 75.117 83.6102 75.345 84.0932C75.573 84.5762 75.687 85.1562 75.687 85.8342C75.687 86.9812 75.323 87.9172 74.595 88.6412C73.867 89.3652 72.876 89.7882 71.622 89.9092V91.9312H70.022V89.8992C68.56 89.7452 67.438 89.2432 66.657 88.3952C65.876 87.5472 65.485 86.4282 65.485 85.0402H68.875C68.875 85.8052 69.044 86.3862 69.383 86.7862C69.722 87.1852 70.203 87.3852 70.827 87.3852C71.283 87.3852 71.642 87.2492 71.903 86.9782C72.165 86.7052 72.296 86.3312 72.296 85.8542Z" fill="#A5CC66"/>
</svg>
