<svg width="100" height="100" viewBox="0 0 100 100" fill="none" xmlns="http://www.w3.org/2000/svg">
<path d="M49.979 98.387C49.979 99.278 49.259 100 48.369 100H40.04C39.151 100 38.429 99.278 38.429 98.387V83.879C38.429 82.991 39.151 82.269 40.04 82.269H48.369C49.259 82.269 49.979 82.991 49.979 83.879V98.387Z" fill="#494949"/>
<path d="M97.798 98.387C97.798 99.277 97.078 100 96.187 100H87.86C86.968 100 86.247 99.277 86.247 98.387V83.879C86.247 82.991 86.968 82.269 87.86 82.269H96.187C97.078 82.269 97.798 82.991 97.798 83.879V98.387Z" fill="#494949"/>
<path d="M42.673 71.2361L94.325 72.0601L85.636 57.6531L67.275 55.7991L49.547 57.9801L42.673 71.2361Z" fill="#E1F2FF"/>
<path d="M99.944 63.553C99.194 61.052 92.94 63.803 92.69 65.054C92.69 65.449 93 66.775 92.885 66.824C91.036 62.962 87.511 57.255 85.903 56.599C81.833 54.936 71.598 54.98 68.736 54.844H67.611C64.75 54.98 54.34 54.935 50.27 56.599C48.666 57.255 45.143 62.956 43.293 66.817C43.207 66.693 43.498 65.437 43.498 65.054C43.248 63.803 36.994 61.052 36.244 63.553C35.744 65.554 38.745 68.056 40.246 68.056C40.83 68.056 41.412 68.51 41.878 68.947C40.028 70.029 37.251 73.697 37.911 79.664C38.357 83.689 40.04 93.463 40.04 93.463C40.04 93.463 42.249 93.463 42.727 93.463H93.446C93.924 93.463 94.19 93.463 94.19 93.463C94.19 93.463 97.394 84.2 97.394 79.664C97.394 73.495 95.863 70.037 94.29 68.966C94.759 68.523 95.349 68.057 95.941 68.057C97.443 68.056 100.444 65.555 99.944 63.553ZM45.569 67.842C46.878 64.379 50.664 59.306 52.098 58.72C55.75 57.226 65.102 57.396 67.673 57.275H68.681C71.249 57.395 80.423 57.226 84.073 58.72C85.509 59.306 89.296 64.379 90.604 67.842C84.77 67.98 51.021 67.819 45.569 67.842Z" fill="#EA772A"/>
<path opacity="0.37" d="M55.447 77.1049C54.51 78.5749 54.51 79.3969 56.004 79.3969H80.445C82.209 79.3339 81.776 78.3799 81.108 77.1369L80.458 75.9299C79.792 74.6889 78.566 73.6719 77.072 73.6719H59.33C57.835 73.6719 56.644 74.7019 56.015 75.9639L55.447 77.1049Z" fill="#662619"/>
<path d="M41.781 78.3529H50.025C51.11 78.3529 51.7 77.6769 51.376 76.9229L51.222 76.5649H40.522L40.381 76.9229C40.085 77.6759 40.698 78.3529 41.781 78.3529Z" fill="#FFBB4D"/>
<path d="M42.727 74.5449C41.855 74.5449 40.965 75.1469 40.723 75.9569L40.539 76.5659H46.459L46.136 74.5439H42.727V74.5449Z" fill="#E20E19"/>
<path d="M51.22 76.5659L51.021 75.9569C50.756 75.1469 49.85 74.5449 48.978 74.5449H46.135C46.168 75.1399 46.324 76.0989 46.404 76.5669H51.22V76.5659Z" fill="#D8D8D8"/>
<path d="M85.216 78.3529H93.46C94.545 78.3529 95.135 77.6769 94.811 76.9229L94.657 76.5649H83.957L83.816 76.9229C83.52 77.6759 84.133 78.3529 85.216 78.3529Z" fill="#FFBB4D"/>
<path d="M86.162 74.5449C85.29 74.5449 84.4 75.1469 84.158 75.9569L83.974 76.5659H89.894L89.571 74.5439H86.162V74.5449Z" fill="#E20E19"/>
<path d="M94.655 76.5659L94.456 75.9569C94.191 75.1469 93.285 74.5449 92.413 74.5449H89.57C89.603 75.1399 89.759 76.0989 89.839 76.5669H94.655V76.5659Z" fill="#D8D8D8"/>
<path d="M98.618 88.854C98.618 89.351 98.223 89.75 97.731 89.75H38.471C37.979 89.75 37.583 89.351 37.583 88.854V84.822C37.583 84.327 37.978 83.927 38.471 83.927H97.732C98.223 83.927 98.619 84.327 98.619 84.822V88.854H98.618Z" fill="#BC5D1D"/>
<path d="M90.764 69.136H45.729V69.625H90.764V69.136Z" fill="#C96420"/>
<path opacity="0.1" d="M45.666 72.641H65.662C68.712 72.641 71.209 70.145 71.209 67.094C71.209 64.042 68.711 61.544 65.662 61.546H59.638V61.454H69.362C72.411 61.454 74.909 58.958 74.909 55.907C74.909 55.612 74.879 55.325 74.834 55.043C72.203 54.926 69.88 54.899 68.737 54.845H67.612C64.751 54.981 54.341 54.936 50.271 56.6C48.667 57.256 45.144 62.957 43.294 66.818C43.208 66.694 43.499 65.438 43.499 65.055C43.249 63.804 36.995 61.053 36.245 63.554C35.745 65.555 38.746 68.057 40.247 68.057C40.831 68.057 41.413 68.511 41.879 68.948C40.927 69.505 39.732 70.752 38.884 72.64H45.62C45.635 72.639 45.65 72.641 45.666 72.641Z" fill="#1D1D1B"/>
<path fill-rule="evenodd" clip-rule="evenodd" d="M50.836 0.647911C54.589 3.64691 53.84 7.94391 53.456 10.9439C52.519 15.0649 51.427 17.2459 50.783 21.3369C50.451 23.4469 52.037 26.7329 52.644 27.2169C57.546 27.7129 22.461 44.3009 22.461 34.5609C23.005 34.4499 24.197 34.3699 24.642 34.0649C29.322 30.9369 32.173 26.0479 34.183 21.2099C34.45 20.5399 34.47 19.6159 34.82 18.9929C36.608 15.7339 40.056 14.1369 42.103 11.0539C44.69 7.17791 44.639 5.33691 45.023 0.646911C45.028 0.0889108 49.334 -0.475089 50.836 0.647911Z" fill="#F5B593"/>
<path fill-rule="evenodd" clip-rule="evenodd" d="M54.925 71.6389H34.068C31.201 71.6389 28.878 69.3169 28.878 66.4489V32.1939C28.878 29.3279 31.201 27.0039 34.068 27.0039H54.925C56.968 27.0039 58.637 28.6759 58.637 30.7169V67.9259C58.64 69.9679 56.968 71.6389 54.925 71.6389Z" fill="#F5B593"/>
<path fill-rule="evenodd" clip-rule="evenodd" d="M70.209 66.0949C70.209 69.1459 67.711 71.6419 64.662 71.6419H44.666C41.614 71.6419 39.119 69.1449 39.119 66.0949C39.119 63.0429 41.616 60.5469 44.666 60.5469H64.662C67.711 60.5449 70.209 63.0419 70.209 66.0949Z" fill="#F5B593"/>
<path fill-rule="evenodd" clip-rule="evenodd" d="M73.908 54.9069C73.908 57.9589 71.411 60.4539 68.361 60.4539H48.365C45.313 60.4539 42.818 57.9569 42.818 54.9069C42.818 51.8549 45.315 49.3589 48.365 49.3589H68.361C71.411 49.3579 73.908 51.8549 73.908 54.9069Z" fill="#F5B593"/>
<path fill-rule="evenodd" clip-rule="evenodd" d="M75.387 43.7199C75.387 46.7719 72.89 49.2668 69.84 49.2668H49.844C46.792 49.2668 44.297 46.7699 44.297 43.7199C44.297 40.6679 46.794 38.1729 49.844 38.1729H69.84C72.889 38.1729 75.387 40.6679 75.387 43.7199Z" fill="#F5B593"/>
<path fill-rule="evenodd" clip-rule="evenodd" d="M75.387 32.5328C75.387 35.5848 72.89 38.0798 69.84 38.0798H44.294C41.242 38.0798 38.746 35.5828 38.746 32.5328C38.746 29.4808 41.244 26.9858 44.294 26.9858H69.84C72.889 26.9828 75.387 29.4808 75.387 32.5328Z" fill="#F5B593"/>
<path fill-rule="evenodd" clip-rule="evenodd" d="M30.94 50.9019H31.123L31.033 49.3199L31.123 47.7389H30.94L29.87 29.1399C29.87 29.1399 27.586 33.0789 24.966 33.8389C22.345 34.5979 15.532 33.8389 15.532 33.8389V47.7389V50.8999V64.7999C15.532 64.7999 22.345 64.0399 24.966 64.7999C27.587 65.5589 29.87 69.4979 29.87 69.4979L30.94 50.9019Z" fill="#F5B593"/>
<path fill-rule="evenodd" clip-rule="evenodd" d="M14.432 67.4849H2.132C0.96 67.4849 0 66.5249 0 65.3519V33.2909C0 32.1189 0.96 31.1589 2.132 31.1589H14.432C15.605 31.1589 16.564 32.1179 16.564 33.2909V65.3529C16.564 66.5249 15.605 67.4849 14.432 67.4849Z" fill="#3C3C3C"/>
<path fill-rule="evenodd" clip-rule="evenodd" d="M8.28399 63.755C9.52399 63.755 10.53 62.749 10.53 61.508C10.53 60.267 9.52399 59.261 8.28399 59.261C7.04199 59.261 6.03699 60.267 6.03699 61.508C6.03599 62.749 7.04199 63.755 8.28399 63.755Z" fill="white"/>
<path fill-rule="evenodd" clip-rule="evenodd" d="M19.18 34.1229C18.159 34.0729 17.23 34.0019 16.563 33.9419V64.7019C17.228 64.6429 18.157 64.5699 19.18 64.5209V34.1229Z" fill="#E59C78"/>
<path opacity="0.502" fill-rule="evenodd" clip-rule="evenodd" d="M55 35.46C54.497 35.46 54.087 35.049 54.087 34.546V30.518C54.087 30.015 54.498 29.604 55 29.604C55.504 29.604 55.914 30.014 55.914 30.518V34.546C55.913 35.049 55.502 35.46 55 35.46Z" fill="#E59C78"/>
<path opacity="0.502" fill-rule="evenodd" clip-rule="evenodd" d="M55 46.646C54.497 46.646 54.087 46.235 54.087 45.733V41.705C54.087 41.202 54.498 40.792 55 40.792C55.504 40.792 55.914 41.203 55.914 41.705V45.733C55.913 46.236 55.502 46.646 55 46.646Z" fill="#E59C78"/>
<path opacity="0.502" fill-rule="evenodd" clip-rule="evenodd" d="M55 57.834C54.497 57.834 54.087 57.424 54.087 56.92V52.892C54.087 52.389 54.498 51.978 55 51.978C55.504 51.978 55.914 52.389 55.914 52.892V56.92C55.913 57.423 55.502 57.834 55 57.834Z" fill="#E59C78"/>
<path opacity="0.502" fill-rule="evenodd" clip-rule="evenodd" d="M55 69.021C54.497 69.021 54.087 68.61 54.087 68.108V64.08C54.087 63.577 54.498 63.166 55 63.166C55.504 63.166 55.914 63.577 55.914 64.08V68.108C55.913 68.61 55.502 69.021 55 69.021Z" fill="#E59C78"/>
</svg>
