<svg width="101" height="100" viewBox="0 0 101 100" fill="none" xmlns="http://www.w3.org/2000/svg">
<path d="M74.325 100H25.689C21.574 100 18.206 96.633 18.206 92.517V7.483C18.207 3.367 21.574 0 25.689 0H74.324C78.439 0 81.807 3.367 81.807 7.483V92.518C81.807 96.633 78.44 100 74.325 100Z" fill="#494949"/>
<path d="M73.065 91.599H26.963C24.305 91.599 22.131 89.425 22.131 86.767V8.74899C22.131 6.09099 24.305 3.91699 26.963 3.91699H73.065C75.723 3.91699 77.897 6.09099 77.897 8.74899V86.767C77.897 89.425 75.723 91.599 73.065 91.599Z" fill="#E3ECF2"/>
<path d="M50.014 97.9399C51.1959 97.9399 52.154 96.9818 52.154 95.7999C52.154 94.618 51.1959 93.6599 50.014 93.6599C48.8321 93.6599 47.874 94.618 47.874 95.7999C47.874 96.9818 48.8321 97.9399 50.014 97.9399Z" fill="#7C7C7C"/>
<g opacity="0.5">
<g opacity="0.5">
<path d="M34.405 84.3049H28.709C28.159 84.3049 27.709 83.8549 27.709 83.3049V77.6089C27.709 77.0589 28.159 76.6089 28.709 76.6089H34.405C34.955 76.6089 35.405 77.0589 35.405 77.6089V83.3049C35.405 83.8549 34.955 84.3049 34.405 84.3049Z" fill="#9EC5DD"/>
<path d="M46.71 84.3049H41.014C40.464 84.3049 40.014 83.8549 40.014 83.3049V77.6089C40.014 77.0589 40.464 76.6089 41.014 76.6089H46.71C47.26 76.6089 47.71 77.0589 47.71 77.6089V83.3049C47.71 83.8549 47.26 84.3049 46.71 84.3049Z" fill="#9EC5DD"/>
<path d="M59.014 84.3049H53.318C52.768 84.3049 52.318 83.8549 52.318 83.3049V77.6089C52.318 77.0589 52.768 76.6089 53.318 76.6089H59.014C59.564 76.6089 60.014 77.0589 60.014 77.6089V83.3049C60.014 83.8549 59.564 84.3049 59.014 84.3049Z" fill="#9EC5DD"/>
<path d="M71.319 84.3049H65.623C65.073 84.3049 64.623 83.8549 64.623 83.3049V77.6089C64.623 77.0589 65.073 76.6089 65.623 76.6089H71.319C71.869 76.6089 72.319 77.0589 72.319 77.6089V83.3049C72.319 83.8549 71.869 84.3049 71.319 84.3049Z" fill="#9EC5DD"/>
</g>
</g>
<g opacity="0.5">
<path d="M30.161 8.83702H26.265C25.812 8.83702 25.445 8.47002 25.445 8.01702C25.445 7.56402 25.812 7.19702 26.265 7.19702H30.161C30.614 7.19702 30.981 7.56402 30.981 8.01702C30.981 8.47002 30.615 8.83702 30.161 8.83702Z" fill="#9EC5DD"/>
</g>
<g opacity="0.5">
<path d="M69.405 8.83702H68.101C67.648 8.83702 67.281 8.47002 67.281 8.01702C67.281 7.56402 67.648 7.19702 68.101 7.19702H69.405C69.858 7.19702 70.225 7.56402 70.225 8.01702C70.225 8.47002 69.859 8.83702 69.405 8.83702Z" fill="#9EC5DD"/>
</g>
<g opacity="0.5">
<path d="M73.768 8.83702H72.464C72.011 8.83702 71.644 8.47002 71.644 8.01702C71.644 7.56402 72.011 7.19702 72.464 7.19702H73.768C74.221 7.19702 74.588 7.56402 74.588 8.01702C74.588 8.47002 74.221 8.83702 73.768 8.83702Z" fill="#9EC5DD"/>
</g>
<g opacity="0.5">
<path d="M64.073 8.83702H62.36C61.907 8.83702 61.54 8.47002 61.54 8.01702C61.54 7.56402 61.907 7.19702 62.36 7.19702H64.073C64.526 7.19702 64.893 7.56402 64.893 8.01702C64.893 8.47002 64.526 8.83702 64.073 8.83702Z" fill="#9EC5DD"/>
</g>
<path opacity="0.7" d="M67.565 41.7859C69.94 39.4109 70.72 36.0759 69.973 33.0339L64.937 38.0999L59.61 36.6999L58.158 31.3809L63.222 26.2909C60.189 25.5529 56.858 26.3369 54.488 28.7079C51.621 31.5749 51.068 35.8419 52.751 39.2889L36.868 55.1709C35.699 56.3399 35.695 58.2379 36.864 59.4079C38.037 60.5809 39.938 60.5789 41.103 59.4099L56.989 43.5239C60.439 45.2059 64.699 44.6509 67.565 41.7859ZM38.113 58.1619C37.551 57.5999 37.553 56.6969 38.113 56.1369C38.67 55.5799 39.58 55.5749 40.138 56.1329C40.7 56.6949 40.698 57.6029 40.136 58.1639C39.578 58.7209 38.673 58.7209 38.113 58.1619ZM47.789 41.5089L43.541 45.7569L37.681 39.8939L31.416 46.1589L29.785 44.5279L29.783 40.0459L29.787 38.3479L40.252 27.8829L41.115 27.0199L41.943 26.1919C42.167 25.9679 42.53 25.9679 42.754 26.1919L46.662 30.1009C46.886 30.3249 46.886 30.6879 46.662 30.9119L45.834 31.7399L41.928 35.6459L47.789 41.5089ZM50.516 52.7359L54.764 48.4879L62.159 55.8879C62.361 56.0899 62.361 56.4159 62.159 56.6179L58.641 60.1359C58.439 60.3379 58.113 60.3379 57.911 60.1359L50.516 52.7359Z" fill="#9EC5DD"/>
<path opacity="0.6" d="M77.897 11.562H22.131V12.279H77.897V11.562Z" fill="white"/>
<path opacity="0.1" d="M27.484 40.6279H18.378C18.323 40.6279 18.269 40.6359 18.214 40.6359V77.4569L20.288 75.3829H27.484C37.042 75.3829 44.862 67.5629 44.862 58.0049C44.862 48.4479 37.042 40.6279 27.484 40.6279Z" fill="#1D1D1B"/>
<path d="M26.484 39.6279H17.378C7.82 39.6279 0 47.4479 0 57.0059C0 62.8569 2.938 68.0459 7.404 71.1999V82.1459C7.404 83.0429 8.131 83.7689 9.027 83.7689C9.062 83.7689 9.092 83.7509 9.127 83.7489C9.162 83.7509 9.195 83.7689 9.23 83.7689C9.645 83.7689 10.061 83.6099 10.378 83.2929L19.287 74.3829H26.483C36.041 74.3829 43.861 66.5629 43.861 57.0049C43.862 47.4479 36.042 39.6279 26.484 39.6279Z" fill="#F3AE22"/>
<path d="M21.931 68.9729C23.478 68.9729 24.732 67.7189 24.732 66.1719H19.13C19.13 67.7189 20.384 68.9729 21.931 68.9729Z" fill="#FFEEA6"/>
<path d="M28.466 55.6759V53.102C28.466 50.142 26.497 47.6449 23.798 46.841V46.567C23.798 45.535 22.962 44.7 21.931 44.7C20.899 44.7 20.064 45.536 20.064 46.567V46.841C17.365 47.6449 15.396 50.142 15.396 53.102V55.6759C15.396 58.1689 14.418 60.5579 12.682 62.3419C12.438 62.5459 12.279 62.85 12.279 63.194C12.279 63.783 12.737 64.26 13.316 64.301L13.324 64.305H13.36C13.371 64.305 13.382 64.3079 13.394 64.3079C13.406 64.3079 13.416 64.305 13.428 64.305H21.932H30.436C30.447 64.305 30.458 64.3079 30.47 64.3079C30.482 64.3079 30.492 64.305 30.504 64.305H30.54L30.548 64.301C31.127 64.26 31.585 63.783 31.585 63.194C31.585 62.85 31.426 62.5469 31.182 62.3419C29.443 60.5579 28.466 58.1689 28.466 55.6759Z" fill="#FFEEA6"/>
</svg>
