<svg width="100" height="100" viewBox="0 0 100 100" fill="none" xmlns="http://www.w3.org/2000/svg">
<g clip-path="url(#clip0)">
<path d="M44.477 47.2109C44.837 47.7079 45.865 53.8879 45.865 53.8879C45.865 53.8879 44.208 54.2629 43.777 54.4889C43.347 54.7149 43.119 48.3169 43.119 48.3169L44.477 47.2109Z" fill="#DDAC9E"/>
<path d="M44.971 48.0711C44.987 47.7901 44.772 46.1941 44.775 45.8031C44.778 45.4111 44.843 45.0231 44.789 44.6381C44.737 44.2521 44.168 42.9911 43.913 42.8401C43.628 42.6691 43.489 42.9911 43.685 43.5481C43.843 43.9981 43.836 44.2531 43.836 44.2531C43.836 44.2531 42.111 44.7141 41.929 45.0171C41.747 45.3231 40.832 45.1991 41.421 45.8441C42.013 46.4921 42.725 47.2431 42.87 47.8931C43.014 48.5451 42.512 48.8031 42.801 48.8761C43.092 48.9461 44.971 48.0711 44.971 48.0711Z" fill="#C14E00"/>
<path d="M50.522 52.082C49.817 52.119 46.105 53.045 46.105 53.045L45.624 51.519L42.813 52.04C42.813 52.04 43.384 55.692 43.898 56.175C44.412 56.659 50.273 57.321 50.433 56.886C50.591 56.452 50.522 52.082 50.522 52.082Z" fill="#BFB8B8"/>
<path d="M53.023 49.1082L52.235 52.4742C52.235 52.4742 52.316 56.7192 53.303 57.2452C54.29 57.7732 55.698 55.2082 55.779 54.4862C55.858 53.7612 56.193 49.7702 56.193 49.7702L53.023 49.1082Z" fill="#E8C8BA"/>
<path d="M55.745 54.7942C55.824 54.0712 56.159 50.0802 56.159 50.0802L54.501 49.4292L52.251 57.0202C53.239 57.5102 55.665 55.5112 55.745 54.7942Z" fill="#E8C8BA"/>
<path d="M57.77 48.354C58.344 46.969 58.57 45.695 56.6 44.851C54.136 43.796 53.523 45.181 52.906 46.828C52.264 48.539 52.439 50.982 53.682 51.547C54.63 51.973 55.879 51.294 56.752 50.211C57.072 50.184 57.421 49.922 57.626 49.513C57.894 48.983 58.109 48.552 57.77 48.354Z" fill="#E8C8BA"/>
<path d="M55.848 44.6762C54.528 44.3622 53.631 44.8502 53.128 46.1692C53.093 46.1492 53.167 46.3202 53.132 46.3062C52.737 46.1642 52.575 46.6052 52.402 47.2372C52.265 47.7472 52.268 48.1992 52.555 48.4172C52.381 49.7652 52.754 51.1152 53.674 51.5292C53.715 51.5492 53.759 51.5602 53.802 51.5742C53.801 51.5742 53.104 50.8092 55.848 44.6762Z" fill="#E8C8BA"/>
<path d="M56.756 44.1661C56.508 43.8501 54.954 43.7761 54.374 43.9851C53.866 44.1681 53.648 44.5441 53.305 45.2581C52.96 45.9701 53.002 46.3011 53.002 46.3011L53.133 46.3791L53.279 45.9211C53.279 45.9211 53.527 45.3151 54.352 45.0551C55.173 44.7941 56.162 45.6401 56.162 45.6401L56.756 44.1661Z" fill="#300901"/>
<path d="M55.835 45.4201C55.949 45.7991 55.778 45.7191 56.445 45.9601C57.11 46.2021 57.554 46.8681 57.594 47.2171C57.635 47.5671 57.383 48.2591 57.383 48.2591L57.825 48.3861L58.012 48.6211C58.012 48.6211 58.789 47.5341 58.718 46.5091C58.665 45.7351 58.556 45.4141 57.866 44.8571C57.554 44.6061 57.088 43.8041 56.562 44.2131C56.312 44.4081 55.835 45.4201 55.835 45.4201Z" fill="#662619"/>
<path d="M58.369 44.199C57.684 43.598 56.095 42.652 54.817 43.25C53.541 43.849 53.11 45.656 53.11 45.656C54.327 44.833 57.57 45.965 58.271 48.266C59.158 46.552 59.052 44.801 58.369 44.199ZM55.119 44.673C55.119 44.673 55.514 44.099 56.365 44.301C57.35 44.534 57.2 45.591 57.2 45.591L55.119 44.673Z" fill="#719AC6"/>
<path d="M58.508 44.29C58.239 44.02 57.818 43.728 57.223 43.46C56.884 43.754 56.685 43.913 56.421 44.32C57.235 44.611 57.157 45.56 57.157 45.56L56.001 45.057C55.936 45.2 55.746 45.553 55.71 45.706C56.94 46.267 57.87 47.217 58.256 48.29C59.141 46.58 59.164 44.944 58.508 44.29Z" fill="#719AC6"/>
<path d="M60.246 99.9969L61.657 99.9639C61.657 99.9639 63.299 99.5699 62.215 98.0599C61.406 96.9309 61.534 96.5099 61.099 95.6309C60.836 95.0969 58.874 95.4259 58.874 95.4259C58.874 95.4259 59.129 97.1289 58.965 97.6989C58.254 100.188 60.246 99.9969 60.246 99.9969Z" fill="#232121"/>
<path d="M55.067 65.353C56.087 66.79 57.125 69.088 58.219 74.559C58.596 76.453 59.255 80.481 59.649 82.018C61.021 87.366 61.741 96.589 61.741 96.589L58.821 96.634C58.821 96.634 55.081 83.45 54.839 82.487C54.6 81.52 51.428 74.647 51.428 74.647C51.428 74.647 50.639 82.767 51.122 83.732C51.604 84.696 51.961 95.847 51.961 95.847L48.883 95.827C48.883 95.827 47.821 84.648 47.58 82.235C47.338 79.823 47.159 66.107 47.159 66.107L55.067 65.353Z" fill="#719AC6"/>
<path d="M49.535 95.3191C49.3 96.2691 48.314 97.0741 47.603 97.3091C46.891 97.5471 46.015 98.0171 46.252 98.9641C46.489 99.9131 48.353 99.4891 48.353 99.4891C48.353 99.4891 50.686 98.7321 51.395 98.7321C52.108 98.7321 52.108 96.7571 51.869 95.8101C51.633 94.8601 49.535 95.3191 49.535 95.3191Z" fill="black"/>
<path d="M46.401 71.4241C46.335 75.8281 46.589 81.4251 46.667 82.7921C47.341 94.5181 48.641 96.3721 48.641 96.3721L52.41 96.3111C52.41 96.3111 52.606 86.9721 52.162 84.6331C51.749 82.4401 52.162 78.5141 52.162 78.5141C52.162 78.5141 54.269 83.9771 54.51 84.9411C54.818 86.1771 57.708 96.4961 58.588 96.8661L60.996 96.7121C60.813 94.8821 58.578 86.0871 57.734 82.3341C57.242 80.1401 54.48 70.0221 53.511 66.5651L46.817 65.4441C46.818 65.4451 46.451 68.0361 46.401 71.4241Z" fill="#719AC6"/>
<path d="M53.225 54.0351C52.423 53.5531 52.136 53.1001 52.29 51.8081C52.29 51.8081 52.047 51.8391 49.8 52.2001C49.059 52.3191 47.792 53.5041 47.591 54.2901C47.389 55.0741 49.003 57.2671 49.055 58.1781C49.107 59.0871 47.441 65.1031 48.088 66.2641C48.525 67.0451 49.323 66.0381 52.326 66.5121C52.792 63.2361 53.576 57.0441 53.652 55.2491C53.654 55.1171 53.633 54.2801 53.225 54.0351Z" fill="#BFB8B8"/>
<path d="M56.261 52.2852C56.261 52.2852 57.592 52.8152 59.145 53.8122C59.875 54.2812 59.568 56.0712 58.713 57.5662C58.31 58.2682 56.791 60.8482 56.488 61.7062C55.976 63.1652 55.02 63.5512 54.884 65.4942C54.823 66.3852 51.947 66.0752 50.277 65.8532C50.743 62.5782 52.307 54.1452 53.117 54.0092C55.517 53.6002 56.261 52.2852 56.261 52.2852Z" fill="#D8D8D8"/>
<path d="M56.131 51.5271L56.973 52.3761L54.867 54.8871C54.867 54.8871 53.857 53.5191 53.946 53.4681C55.447 52.6431 56.131 51.5271 56.131 51.5271Z" fill="#BFB8B8"/>
<path d="M52.476 51.4121L51.643 51.9241L51.205 53.8081C51.205 53.8081 52.293 52.8661 52.289 52.7641C52.246 51.7521 52.476 51.4121 52.476 51.4121Z" fill="#D8D8D8"/>
<path d="M51.029 52.0109C50.709 52.8619 49.988 56.0329 50.253 56.2699C50.918 56.8639 55.353 57.1509 55.353 57.1509L53.452 67.6779C53.452 67.6779 47.024 67.2209 46.858 66.9759C46.447 66.3709 46.626 64.9769 46.739 64.1969C46.849 63.4159 48.129 57.0459 48.129 57.0459C48.129 57.0459 48.835 54.9109 49.784 52.1909C50.648 51.8809 51.029 52.0109 51.029 52.0109Z" fill="#719AC6"/>
<path d="M57.347 52.804C57.347 52.804 55.701 54.409 54.817 56.617C54.686 56.948 53.995 57.051 53.995 57.051C53.995 57.051 51.792 63.806 53.398 67.266C53.676 67.866 54.854 67.033 54.854 67.033C54.854 67.033 55.994 66.462 56.646 64.446C56.91 63.626 56.673 61.706 58.099 58.695C58.267 58.337 56.654 57.332 56.616 56.94C56.424 55.012 58.466 53.239 58.466 53.239L57.347 52.804Z" fill="#719AC6"/>
<path d="M40.506 55.376C40.651 55.307 40.852 55.17 41.133 54.829C41.542 54.33 41.285 53.986 41.189 53.73C41.093 53.477 41.024 53.292 41.074 53.104C41.123 52.915 45.626 42.98 45.717 42.739C45.807 42.497 45.969 42.338 46.651 41.995C47.332 41.653 47.237 41.172 47.203 40.869C47.164 40.543 47.039 40.205 46.853 39.987C46.774 39.896 46.646 39.81 46.646 39.81C46.646 39.81 46.661 40.348 46.563 40.633C46.432 41.022 46.073 41.161 45.598 40.959C45.066 40.719 45.038 40.371 45.218 39.999C45.349 39.728 45.707 39.407 45.707 39.407C45.707 39.407 45.562 39.357 45.561 39.356C45.371 39.296 44.944 39.446 44.522 39.75C44.275 39.932 43.843 40.23 44.091 40.958C44.339 41.684 44.33 41.913 44.225 42.148C44.122 42.386 40.083 52.495 39.987 52.664C39.889 52.835 39.685 52.926 39.438 53.039C39.188 53.154 38.846 53.228 38.795 53.874C38.75 54.451 38.877 54.831 38.951 54.923C38.981 54.965 39.011 54.995 39.043 55.008C39.161 55.055 38.954 54.469 39.328 54.08C39.381 54.027 40.177 53.976 40.555 54.594C40.598 54.664 40.253 55.465 40.311 55.454C40.331 55.45 40.402 55.431 40.506 55.376Z" fill="#758B9B"/>
<path d="M45.216 39.999C45.347 39.728 45.705 39.407 45.705 39.407C45.705 39.407 45.56 39.357 45.559 39.356C45.369 39.296 44.942 39.446 44.52 39.75C44.273 39.932 43.841 40.23 44.089 40.958C44.337 41.684 44.328 41.913 44.223 42.148C44.12 42.386 40.081 52.495 39.985 52.664C39.887 52.835 39.683 52.926 39.436 53.039C39.186 53.154 38.844 53.228 38.793 53.874C38.748 54.451 38.875 54.831 38.949 54.923C38.979 54.965 39.009 54.995 39.041 55.008C39.159 55.055 38.952 54.469 39.326 54.08C39.36 54.043 39.718 54.016 40.066 54.172L45.702 40.996C45.666 40.983 45.633 40.976 45.596 40.959C45.065 40.719 45.037 40.371 45.216 39.999Z" fill="#414E5B"/>
<path d="M41.109 45.6281C41.579 45.9321 42.424 46.3051 42.572 46.0401C42.719 45.7751 41.849 45.2221 41.696 44.9981C41.544 44.7751 41.322 44.4981 41.071 44.8981C40.822 45.3011 41.109 45.6281 41.109 45.6281Z" fill="#E26713"/>
<path d="M41.406 44.609C41.298 44.394 41.546 43.949 41.846 44.137C42.147 44.325 43.128 45.476 43.102 45.615C43.075 45.756 42.687 45.775 42.137 45.436C41.536 45.068 41.406 44.609 41.406 44.609Z" fill="#E26713"/>
<path d="M41.782 44.0779C41.802 43.8899 41.936 43.3759 42.355 43.6649C42.701 43.9039 43.658 45.1499 43.693 45.2379C43.727 45.3249 43.36 45.4899 42.974 45.1749C42.587 44.8609 41.782 44.0779 41.782 44.0779Z" fill="#E26713"/>
<path d="M42.352 43.5629C42.315 43.3739 42.674 42.8879 43.019 43.1639C43.183 43.2939 44.121 44.6739 44.036 44.8939C43.95 45.1119 43.774 45.0669 43.529 44.8819C43.287 44.6959 42.352 43.5629 42.352 43.5629Z" fill="#E26713"/>
<path d="M48.852 54.3468C46.173 52.1748 44.102 50.5838 44.102 50.5838C44.102 50.5838 43.863 50.1178 43.66 49.4578C43.279 48.2188 42.914 48.3758 42.914 48.3758L43.05 49.3168L41.519 47.8568C41.519 47.8568 40.932 47.5198 40.76 47.5198C40.247 47.5148 39.702 47.8148 40.196 48.9958C40.854 50.5698 41.858 50.8068 42.779 51.9308C43.845 53.2318 45.772 54.8128 46.34 55.3818C46.913 55.9488 48.852 54.3468 48.852 54.3468Z" fill="#E8C8BA"/>
<path d="M45.289 51.1819C45.286 51.1139 43.953 50.2009 43.972 50.0759C44.157 48.9589 43.746 48.5889 43.903 47.9299C44.027 47.4069 43.703 46.5499 43.278 47.6849C43.076 48.2149 42.886 48.0449 42.886 48.0449C42.886 48.0449 42.675 48.1449 41.826 47.2109C41.402 46.7429 40.552 46.4669 41.017 47.2599C40.62 46.7439 40.043 46.9509 40.431 47.6339C40.072 47.3109 39.797 47.5919 40.117 48.1709C39.907 48.0099 39.813 48.2119 39.947 48.5769C40.033 48.8149 39.954 49.2479 40.858 50.1869C41.761 51.1249 42.933 53.4199 42.933 53.4199L45.289 51.1819Z" fill="#E26713"/>
<path d="M58.445 53.928C57.313 53.802 54.469 55.138 52.128 54.678C50.404 54.34 46.002 51.8979 46.002 51.8979L44.608 55.013C44.608 55.013 49.7 58.1029 51.379 58.1559C53.059 58.2089 57.638 58.7999 58.713 57.2459C60.64 54.4649 58.445 53.928 58.445 53.928Z" fill="#D8D8D8"/>
<path d="M12.213 27.269L15.532 36.369H20.457L22.812 39.956H12.107L12.213 27.269Z" fill="#656E72"/>
<path d="M87.763 27.269L84.444 36.369H79.519L77.164 39.956H87.871L87.763 27.269Z" fill="#656E72"/>
<path d="M84.675 37.8691H16.153V41.4011H84.675V37.8691Z" fill="#656E72"/>
<path d="M21.114 43.7189C21.114 44.8639 21.911 45.8009 22.886 45.8009H29.634C30.608 45.8009 31.405 44.8639 31.405 43.7189V33.0779H21.114V43.7189Z" fill="#494949"/>
<path d="M68.725 43.7189C68.725 44.8639 69.522 45.8009 70.497 45.8009H77.245C78.219 45.8009 79.016 44.8639 79.016 43.7189V33.0779H68.725V43.7189Z" fill="#494949"/>
<path d="M28.169 18.441L26.22 20.586C26.22 20.586 24.841 23.061 24.841 23.361C24.841 23.661 24.412 24.448 24.841 25.163C25.27 25.878 26.023 26.58 26.505 26.98C26.987 27.38 33.208 28.023 33.208 28.023L36.283 26.98C36.283 26.98 37.785 26.45 37.785 25.592C37.785 24.734 37.785 22.803 37.785 22.803C37.785 22.803 36.641 21.659 35.64 20.944C34.639 20.229 32.851 19.013 31.993 18.799C31.135 18.584 28.703 18.073 28.703 18.073L28.169 18.441Z" fill="#F8FCFF"/>
<path d="M35.211 2.70892C34.782 2.63692 30.277 5.99892 30.277 6.28492C30.277 6.57092 27.202 15.5099 27.202 15.5099C27.202 15.5099 26.201 17.3849 27.202 17.3769C28.203 17.3689 58.739 20.5869 58.739 20.5869L71.969 17.0109C71.969 17.0109 72.899 15.4379 72.756 14.9369C72.613 14.4359 68.1 4.13892 68.1 4.13892L63.173 2.70792C63.173 2.70792 43.507 1.49292 42.935 1.49292C42.363 1.49292 35.211 2.70892 35.211 2.70892Z" fill="#E1F2FF"/>
<path d="M29.351 24.7279C30.3849 24.7279 31.223 23.8898 31.223 22.8559C31.223 21.822 30.3849 20.9839 29.351 20.9839C28.3171 20.9839 27.479 21.822 27.479 22.8559C27.479 23.8898 28.3171 24.7279 29.351 24.7279Z" fill="#BDCBD6"/>
<path d="M33.531 25.573C34.2208 25.573 34.78 25.0138 34.78 24.3239C34.78 23.6341 34.2208 23.075 33.531 23.075C32.8412 23.075 32.282 23.6341 32.282 24.3239C32.282 25.0138 32.8412 25.573 33.531 25.573Z" fill="#BDCBD6"/>
<path d="M72.03 18.441L73.979 20.586C73.979 20.586 75.358 23.061 75.358 23.361C75.358 23.661 75.787 24.448 75.358 25.163C74.929 25.878 74.176 26.58 73.694 26.98C73.212 27.38 66.991 28.023 66.991 28.023L63.916 26.98C63.916 26.98 62.414 26.45 62.414 25.592C62.414 24.734 62.414 22.803 62.414 22.803C62.414 22.803 63.558 21.659 64.559 20.944C65.56 20.229 67.348 19.013 68.206 18.799C69.064 18.584 71.496 18.073 71.496 18.073L72.03 18.441Z" fill="#F8FCFF"/>
<path d="M49.861 41.2259H69.113H75.699V37.2739H49.861H24.022V41.2259H30.608H49.861Z" fill="#494949"/>
<path d="M65.407 31.9221H34.979C34.379 31.9221 33.888 31.4311 33.888 30.8311V29.9731C33.888 29.3731 34.379 28.8821 34.979 28.8821H65.408C66.008 28.8821 66.499 29.3731 66.499 29.9731V30.8311C66.498 31.4311 66.007 31.9221 65.407 31.9221Z" fill="#C96420"/>
<path d="M57.907 18.078C57.907 15.703 59.84 13.77 62.216 13.77C64.591 13.77 66.524 15.703 66.524 18.078C66.524 18.236 66.494 18.386 66.477 18.54C67.09 18.68 67.642 18.945 68.115 19.301C68.197 18.906 68.241 18.497 68.241 18.078C68.241 14.756 65.539 12.054 62.217 12.054C58.895 12.054 56.191 14.756 56.191 18.078C56.191 21.258 58.677 23.843 61.803 24.06C61.489 23.527 61.295 22.926 61.29 22.279C59.358 21.853 57.907 20.134 57.907 18.078Z" fill="#A3B8D0"/>
<path d="M77.164 16.402C77.164 16.959 77.721 19.186 77.164 18.072C76.607 17.515 76.329 16.958 75.772 16.402C74.38 12.505 71.028 3.735 68.523 2.343C66.017 1.229 54.285 0 50.022 0C44.733 0 34.284 0.888 32.057 2.002C29.552 3.115 25.942 12.505 24.55 16.402C23.993 16.959 23.715 17.516 23.158 18.072C22.601 19.185 23.158 16.958 23.158 16.402C22.88 15.01 15.92 11.948 15.085 14.732C14.528 16.959 17.869 19.743 19.539 19.743C20.374 19.743 21.209 20.578 21.766 21.135C21.209 24.197 20.652 25.311 20.652 29.208C20.652 30.878 21.766 31.713 21.766 31.992V34.776H50.161H78.556V31.992C78.556 31.992 79.391 31.157 79.67 29.208C79.392 25.311 78.835 24.197 78.556 21.135C79.113 20.578 79.948 19.743 80.783 19.743C81.897 19.743 84.959 16.959 84.68 14.732C83.845 12.226 76.885 15.01 77.164 16.402ZM30.486 9.94C31.352 8.208 32.067 5.546 34.015 4.989C36.799 4.154 40.275 3.328 50.023 3.328C59.771 3.328 62.966 4.153 65.75 4.989C67.699 5.546 68.525 8.171 69.091 9.443C70.075 11.658 70.761 13.34 71.596 15.567C69.647 16.402 68.534 16.681 64.915 17.237C59.626 17.794 54.336 18.072 49.882 18.072C45.428 18.072 40.417 17.794 34.849 17.237C31.23 16.68 30.117 16.402 28.168 15.567C29.004 13.34 29.65 11.61 30.486 9.94ZM29.839 26.702C27.612 26.424 26.22 25.032 26.22 23.083C26.22 21.134 27.89 19.464 30.117 19.464C30.952 19.464 31.787 19.742 32.344 20.021C32.622 20.021 36.241 22.526 36.52 23.64C36.798 24.753 36.242 26.424 34.571 26.702C33.18 26.981 30.953 26.702 29.839 26.702ZM66.034 30.327C66.034 30.936 65.535 31.435 64.926 31.435H59.659H50.161H35.407H35.396C34.787 31.435 34.288 30.936 34.288 30.327V30.31C34.288 29.701 34.787 29.202 35.396 29.202H64.926C65.535 29.202 66.034 29.701 66.034 30.31V30.327ZM69.926 26.702C68.534 26.98 66.585 26.98 64.915 26.98C63.245 26.98 62.688 25.031 62.966 23.918C63.244 22.805 66.585 20.577 67.142 20.299C67.699 20.021 68.534 19.742 69.369 19.742C71.596 19.742 73.266 21.412 73.266 23.361C73.545 25.032 72.153 26.424 69.926 26.702Z" fill="#EA772A"/>
<path d="M75.351 38.735H24.991C23.216 38.735 21.764 37.283 21.764 35.508V34.238H78.578V35.508C78.579 37.282 77.126 38.735 75.351 38.735Z" fill="#BC5D1D"/>
<path d="M27.585 32.168C28.5603 32.168 29.351 31.3773 29.351 30.402C29.351 29.4267 28.5603 28.636 27.585 28.636C26.6097 28.636 25.819 29.4267 25.819 30.402C25.819 31.3773 26.6097 32.168 27.585 32.168Z" fill="#F8FCFF"/>
<path d="M27.923 32.0681C28.5929 32.0681 29.136 31.525 29.136 30.8551C29.136 30.1852 28.5929 29.6421 27.923 29.6421C27.2531 29.6421 26.71 30.1852 26.71 30.8551C26.71 31.525 27.2531 32.0681 27.923 32.0681Z" fill="#C6E4FF"/>
<path d="M72.738 32.168C73.7133 32.168 74.504 31.3773 74.504 30.402C74.504 29.4267 73.7133 28.636 72.738 28.636C71.7626 28.636 70.972 29.4267 70.972 30.402C70.972 31.3773 71.7626 32.168 72.738 32.168Z" fill="#F8FCFF"/>
<path d="M72.412 32.0681C73.0819 32.0681 73.625 31.525 73.625 30.8551C73.625 30.1852 73.0819 29.6421 72.412 29.6421C71.7421 29.6421 71.199 30.1852 71.199 30.8551C71.199 31.525 71.7421 32.0681 72.412 32.0681Z" fill="#C6E4FF"/>
<path d="M39.222 23.5861C38.443 22.3641 38.443 21.6841 39.684 21.6841H59.998C61.466 21.7371 61.105 22.5281 60.55 23.5601L60.011 24.5611C59.456 25.5931 58.438 26.4361 57.196 26.4361H42.45C41.208 26.4361 40.217 25.5801 39.696 24.5341L39.222 23.5861Z" fill="#C96420"/>
<path d="M69.951 24.7279C70.9849 24.7279 71.823 23.8898 71.823 22.8559C71.823 21.822 70.9849 20.9839 69.951 20.9839C68.9171 20.9839 68.079 21.822 68.079 22.8559C68.079 23.8898 68.9171 24.7279 69.951 24.7279Z" fill="#BDCBD6"/>
<path d="M65.772 25.573C66.4618 25.573 67.021 25.0138 67.021 24.3239C67.021 23.6341 66.4618 23.075 65.772 23.075C65.0822 23.075 64.523 23.6341 64.523 24.3239C64.523 25.0138 65.0822 25.573 65.772 25.573Z" fill="#BDCBD6"/>
<path d="M94.004 8.13696H87.74V99.357H94.004V8.13696Z" fill="#8CA4BA"/>
<path d="M93.202 91.3279L99.304 99.9999H87.74V93.0929L93.202 91.3279Z" fill="#8CA4BA"/>
<path d="M100 97.8301H86.081V100H100V97.8301Z" fill="#656E72"/>
<path d="M94.806 8.23707H86.94C86.769 8.23707 86.63 8.09807 86.63 7.92707V6.78607C86.63 6.61507 86.769 6.47607 86.94 6.47607H94.806C94.977 6.47607 95.116 6.61507 95.116 6.78607V7.92707C95.116 8.09807 94.977 8.23707 94.806 8.23707Z" fill="#656E72"/>
<path d="M12.259 8.13696H5.99503V99.357H12.259V8.13696Z" fill="#8CA4BA"/>
<path d="M6.79801 91.3279L0.696014 99.9999H12.26V93.0929L6.79801 91.3279Z" fill="#8CA4BA"/>
<path d="M13.919 97.8301H0V100H13.919V97.8301Z" fill="#656E72"/>
<path d="M5.194 8.23707H13.06C13.231 8.23707 13.37 8.09807 13.37 7.92707V6.78607C13.37 6.61507 13.231 6.47607 13.06 6.47607H5.194C5.023 6.47607 4.884 6.61507 4.884 6.78607V7.92707C4.884 8.09807 5.023 8.23707 5.194 8.23707Z" fill="#656E72"/>
</g>
<defs>
<clipPath id="clip0">
<rect width="100" height="100" fill="white"/>
</clipPath>
</defs>
</svg>
