<svg xmlns="http://www.w3.org/2000/svg" width="24" height="24" viewBox="0 0 24 24" fill="none">
<path d="M17.688 8H14V4.207V2.793L13 1.793L12.207 1L11.207 0H9.843H4V1V2.05C2.859 2.282 2 3.291 2 4.5C2 4.878 2.09 5.232 2.24 5.553L0.793 7L0 7.793V8V9.5C0 9.776 0.224 10 0.5 10C0.776 10 1 9.776 1 9.5V8.207L2.846 6.361C3.287 6.754 3.863 7 4.5 7C5.137 7 5.713 6.754 6.154 6.361L8 8.207V9.5C8 9.776 8.224 10 8.5 10C8.776 10 9 9.776 9 9.5V8V7.793L8.207 7L6.76 5.553C6.91 5.232 7 4.878 7 4.5C7 3.291 6.141 2.282 5 2.05V1H10.793L11 1.207V14H9.845C9.378 14 9 14.378 9 14.845V18H1.828C0.818 18 0 18.818 0 19.828V22H2.05C2.282 23.141 3.29 24 4.5 24C5.71 24 6.718 23.141 6.95 22H16.051C16.283 23.141 17.291 24 18.501 24C19.711 24 20.719 23.141 20.951 22H24V18.156V18V14.312C24 10.826 21.174 8 17.688 8ZM6 4.5C6 5.327 5.327 6 4.5 6C3.673 6 3 5.327 3 4.5C3 3.673 3.673 3 4.5 3C5.327 3 6 3.673 6 4.5ZM12 2.207L13 3.207V8.844V14H12V2.207ZM10 15H13V18H10V15ZM4.5 23C3.849 23 3.299 22.581 3.092 22H5.908C5.701 22.581 5.151 23 4.5 23ZM18.5 23C17.849 23 17.299 22.581 17.092 22H19.908C19.701 22.581 19.151 23 18.5 23ZM23 21H20.95H19.908H17.092H16.05H6.95H5.908H3.092H2.05H1V19.828C1 19.371 1.372 19 1.828 19H4.5H9H13.844H14H18.5H23V21ZM14 18V14.845V9H17.688C20.617 9 23 11.383 23 14.313V18H14ZM17.528 10H15V15H22V14.472C22 12.002 19.998 10 17.528 10ZM16 14V11H17.528C19.282 11 20.737 12.308 20.968 14H16ZM16 16.5C16 16.776 15.776 17 15.5 17C15.224 17 15 16.776 15 16.5C15 16.224 15.224 16 15.5 16C15.776 16 16 16.224 16 16.5ZM4.5 4C4.776 4 5 4.224 5 4.5C5 4.776 4.776 5 4.5 5C4.224 5 4 4.776 4 4.5C4 4.224 4.224 4 4.5 4Z" fill="#668eb1"/>
</svg>