<svg xmlns="http://www.w3.org/2000/svg" width="24" height="24" viewBox="0 0 24 24" fill="none">
<path d="M12.0001 1C12.7071 1 13.3211 1.383 13.9701 1.788C14.3821 2.045 14.8071 2.311 15.2371 2.445C15.6901 2.586 16.1871 2.613 16.7211 2.642C17.4471 2.68 18.1981 2.72 18.7441 3.101C19.2951 3.486 19.5541 4.131 19.8291 4.814C20.0101 5.264 20.1961 5.73 20.4751 6.097C20.7471 6.455 21.1291 6.751 21.5351 7.065C22.1341 7.53 22.7001 7.969 22.9141 8.601C23.1171 9.201 22.9351 9.86 22.7431 10.558C22.6111 11.034 22.4751 11.527 22.4751 11.999C22.4751 12.471 22.6111 12.964 22.7441 13.441C22.9361 14.139 23.1181 14.799 22.9151 15.399C22.7021 16.029 22.1101 16.488 21.5361 16.933C21.1311 17.247 20.7481 17.543 20.4761 17.902C20.2001 18.266 20.0131 18.732 19.8311 19.185C19.5561 19.869 19.2961 20.515 18.7471 20.898C18.2021 21.278 17.4511 21.318 16.7241 21.356C16.2181 21.383 15.6951 21.411 15.2401 21.553C14.8101 21.688 14.3861 21.953 13.9751 22.21C13.3541 22.598 12.7131 22.999 12.0041 22.999C11.2961 22.999 10.6541 22.598 10.0341 22.21C9.60411 21.941 9.19711 21.687 8.76711 21.553C8.31311 21.412 7.79011 21.384 7.28311 21.357C6.55711 21.319 5.80611 21.279 5.26211 20.9C4.70911 20.514 4.45011 19.868 4.17611 19.185C3.99511 18.734 3.80811 18.268 3.53011 17.902C3.25911 17.546 2.87811 17.25 2.47011 16.933C1.86711 16.468 1.30211 16.03 1.08911 15.4C0.885114 14.798 1.06711 14.138 1.26111 13.435C1.39211 12.96 1.52711 12.468 1.52711 12C1.52711 11.531 1.39111 11.04 1.25911 10.561C1.06711 9.861 0.885114 9.201 1.08911 8.6C1.30211 7.97 1.86611 7.533 2.46611 7.066C2.85311 6.766 3.25411 6.456 3.52711 6.096C3.80611 5.728 3.99211 5.263 4.17311 4.812C4.44711 4.13 4.70711 3.484 5.25611 3.101C5.80011 2.722 6.55011 2.681 7.28611 2.642C7.81311 2.614 8.31111 2.587 8.76411 2.446C9.19411 2.312 9.61911 2.046 10.0311 1.789C10.6791 1.383 11.2921 1 12.0001 1ZM12.0001 0C11.0061 0 10.2071 0.499 9.50111 0.94C9.12611 1.175 8.77211 1.395 8.46511 1.491C8.13111 1.595 7.69211 1.618 7.22611 1.643C6.40011 1.688 5.46311 1.737 4.68411 2.281C3.89011 2.835 3.54711 3.689 3.24411 4.442C3.08111 4.849 2.92611 5.234 2.73011 5.493C2.53811 5.746 2.20611 6.003 1.85411 6.276C1.19711 6.786 0.452114 7.363 0.142114 8.28C-0.159886 9.171 0.0821137 10.05 0.296114 10.826C0.415114 11.258 0.528114 11.666 0.528114 12C0.528114 12.334 0.415114 12.742 0.296114 13.174C0.0821137 13.949 -0.159886 14.829 0.142114 15.72C0.452114 16.636 1.19711 17.214 1.85511 17.724C2.20711 17.997 2.53911 18.254 2.73011 18.506C2.92611 18.764 3.08011 19.149 3.24411 19.556C3.54611 20.31 3.89011 21.163 4.68611 21.719C5.46411 22.261 6.40011 22.311 7.22711 22.355C7.69211 22.38 8.13211 22.404 8.46611 22.508C8.77211 22.603 9.12611 22.824 9.50011 23.058C10.2061 23.499 11.0071 23.999 12.0001 23.999C12.9941 23.999 13.7951 23.5 14.5011 23.058C14.8751 22.824 15.2291 22.604 15.5351 22.508C15.8691 22.404 16.3091 22.38 16.7741 22.355C17.6011 22.311 18.5371 22.261 19.3151 21.719C20.1101 21.164 20.4531 20.31 20.7571 19.556C20.9201 19.149 21.0751 18.764 21.2691 18.508C21.4611 18.255 21.7931 17.998 22.1441 17.725C22.8011 17.215 23.5471 16.637 23.8581 15.721C24.1601 14.829 23.9171 13.95 23.7031 13.174C23.5831 12.742 23.4711 12.334 23.4711 12C23.4711 11.666 23.5841 11.258 23.7031 10.826C23.9171 10.051 24.1591 9.171 23.8581 8.281C23.5481 7.364 22.8021 6.785 22.1441 6.275C21.7921 6.003 21.4601 5.745 21.2691 5.493C21.0731 5.235 20.9191 4.851 20.7561 4.443C20.4541 3.69 20.1101 2.836 19.3151 2.282C18.5371 1.739 17.6001 1.688 16.7731 1.645C16.3081 1.62 15.8691 1.596 15.5351 1.492C15.2291 1.397 14.8751 1.176 14.5001 0.942C13.7931 0.499 12.9931 0 12.0001 0ZM18.8541 6.146C18.6591 5.951 18.3421 5.951 18.1471 6.146L11.5001 12.793L8.85411 10.147C8.65911 9.952 8.34211 9.952 8.14711 10.147C7.95211 10.342 7.95211 10.659 8.14711 10.854L11.1471 13.854C11.2441 13.951 11.3721 14 11.5001 14C11.6281 14 11.7561 13.951 11.8541 13.854L18.8541 6.854C19.0491 6.658 19.0491 6.342 18.8541 6.146ZM18.4761 9.352C18.8121 10.17 19.0001 11.063 19.0001 12C19.0001 15.86 15.8601 19 12.0001 19C8.14011 19 5.00011 15.86 5.00011 12C5.00011 8.14 8.14011 5 12.0001 5C13.4641 5 14.8231 5.453 15.9481 6.224L16.6641 5.508C15.3491 4.563 13.7421 4 12.0001 4C7.58211 4 4.00011 7.582 4.00011 12C4.00011 16.418 7.58211 20 12.0001 20C16.4181 20 20.0001 16.418 20.0001 12C20.0001 10.781 19.7191 9.63 19.2321 8.596L18.4761 9.352Z" fill="#668eb1"/>
</svg>