<svg width="24" height="24" viewBox="0 0 24 24" fill="none" xmlns="http://www.w3.org/2000/svg">
<path d="M11.5 3C6.806 3 3 6.806 3 11.5C3 16.194 6.806 20 11.5 20C16.194 20 20 16.194 20 11.5C20 6.806 16.194 3 11.5 3ZM11.5 19C7.365 19 4 15.635 4 11.5C4 7.365 7.365 4 11.5 4C15.635 4 19 7.365 19 11.5C19 15.635 15.635 19 11.5 19ZM14.854 15.146C15.049 15.341 15.049 15.658 14.854 15.853C14.756 15.951 14.628 16 14.5 16C14.372 16 14.244 15.951 14.146 15.854L11.147 12.855C11.101 12.809 11.064 12.753 11.038 12.692C11.013 12.63 11 12.565 11 12.5V7.5C11 7.224 11.224 7 11.5 7C11.776 7 12 7.224 12 7.5V12.293L14.854 15.146Z" fill="#fff"/>
</svg>
